<svg xmlns="http://www.w3.org/2000/svg" viewBox="0 0 33.84 33.84"><defs><style>.cls-1{fill:#1d1d1b}</style></defs><g id="Calque_2" data-name="Calque 2"><g id="Calque_1-2" data-name="Calque 1"><path class="cls-1" d="M17.85 13.08H16a1 1 0 00-1 1V25a1.52 1.52 0 001.55 1.54h.77A1.52 1.52 0 0018.88 25V14a1 1 0 00-1.03-.92zM15 9.22a2 2 0 003.92 0 2 2 0 00-3.92 0z"/><path class="cls-1" d="M16.92 0a16.92 16.92 0 1016.92 16.92A16.93 16.93 0 0016.92 0zm0 30.43a13.51 13.51 0 1113.51-13.51 13.52 13.52 0 01-13.51 13.51z"/></g></g></svg>