<svg version="1.1" id="Calque_1" xmlns="http://www.w3.org/2000/svg" x="0" y="0" viewBox="0 0 70.7 63.3" xml:space="preserve"><style>.st0{fill:#b3b3b3}</style><path class="st0" d="M54.3 35.4h-40c-1.9 0-3.5-1.6-3.5-3.5s1.6-3.5 3.5-3.5h40c1.9 0 3.5 1.6 3.5 3.5s-1.6 3.5-3.5 3.5z"/><path class="st0" d="M34.7 40.5l17.7-11.2c1.6-1 3.8-.5 4.8 1.1s.5 3.8-1.1 4.8L38.5 46.4c-1.6 1-3.8.5-4.8-1.1-1.1-1.6-.6-3.8 1-4.8z"/><path class="st0" d="M34.7 23.2l17.7 11.2c1.6 1 3.8.5 4.8-1.1s.5-3.8-1.1-4.8L38.5 17.3c-1.6-1-3.8-.5-4.8 1.1-1.1 1.6-.6 3.8 1 4.8z"/></svg>