<svg width="207" height="62" xmlns="http://www.w3.org/2000/svg" xmlns:xlink="http://www.w3.org/1999/xlink"><defs><path id="a" d="M0 .32h55.756V61H0z"/><path d="M.192 6.478S-.825 26.595 4.607 38.146c3.79 8.062 10.801 14.897 21.774 18.792 10.969-3.895 17.98-10.73 21.77-18.792 5.43-11.551 4.417-31.668 4.417-31.668C36.29 6.478 26.381.326 26.381.326S16.471 6.478.191 6.478z" id="c"/><path id="e" d="M0 61h206.714V.32H0z"/></defs><g fill="none" fill-rule="evenodd"><g transform="translate(0 .5)"><mask id="b" fill="#fff"><use xlink:href="#a"/></mask><path d="M27.879 61c11.644-4.173 19.087-11.502 23.11-20.14 5.763-12.383 4.687-33.942 4.687-33.942C38.396 6.918 27.879.32 27.879.32S17.359 6.918.079 6.918c0 0-1.075 21.559 4.69 33.941C8.791 49.5 16.234 56.827 27.88 61" fill="#C9DFF5" mask="url(#b)"/></g><g transform="translate(1 4.5)"><mask id="d" fill="#fff"><use xlink:href="#c"/></mask><path fill="#FFF" mask="url(#d)" d="M-.83 14.471h54.418V8.149H-.83zm0 12.55h54.418V20.7H-.83zm4.718 9.213L5.4 39.572h48.19V33.25H2.832zm9.189 12.871l3.853 3.018h18.887l3.915-2.953 3.389-3.371H9.827z"/></g><g transform="translate(0 .5)"><path d="M27.49 59.522l-.063-.021C17.369 55.838 9.912 49.243 5.865 40.42.555 28.84 1.485 8.549 1.495 8.346l.01-.18h.174c15.801 0 25.614-6.124 25.713-6.187l.097-.063.099.063c.1.063 9.913 6.186 25.709 6.186h.177l.01.181c.01.203.94 20.495-4.37 32.074-4.047 8.823-11.502 15.418-21.56 19.081l-.065.021zM1.858 8.541c-.08 2.025-.666 20.803 4.344 31.72 3.997 8.713 11.356 15.232 21.286 18.863 9.932-3.63 17.295-10.15 21.29-18.862 5.006-10.918 4.42-29.696 4.343-31.721-14.962-.043-24.563-5.542-25.633-6.187C26.42 3 16.82 8.498 1.86 8.541z" fill="#FFF"/><path d="M27.49 59.51l-.063-.021C17.373 55.827 9.92 49.235 5.875 40.416.568 28.844 1.497 8.56 1.506 8.356l.01-.18h.175c15.794 0 25.602-6.12 25.701-6.183l.097-.064.099.064c.1.063 9.908 6.183 25.698 6.183h.176l.01.18c.01.203.939 20.488-4.368 32.06-4.045 8.82-11.496 15.41-21.55 19.073l-.065.02zM1.87 8.552c-.08 2.024-.665 20.794 4.342 31.706 3.996 8.708 11.352 15.225 21.277 18.854 9.928-3.629 17.288-10.146 21.28-18.854 5.004-10.912 4.418-29.682 4.342-31.706-14.956-.043-24.552-5.54-25.622-6.183-1.069.644-10.664 6.14-25.618 6.183h0zM27.49 59.51l-.063-.021C17.373 55.827 9.92 49.235 5.875 40.416.568 28.844 1.497 8.56 1.506 8.356l.01-.18h.175c15.794 0 25.602-6.12 25.701-6.183l.097-.064.099.064c.1.063 9.908 6.183 25.698 6.183h.176l.01.18c.01.203.939 20.488-4.368 32.06-4.045 8.82-11.496 15.41-21.55 19.073l-.065.02zM1.87 8.552c-.08 2.024-.665 20.794 4.342 31.706 3.996 8.708 11.352 15.225 21.277 18.854 9.928-3.629 17.288-10.146 21.28-18.854 5.004-10.912 4.418-29.682 4.342-31.706-14.956-.043-24.552-5.54-25.622-6.183-1.069.644-10.664 6.14-25.618 6.183z" stroke="#FFF" stroke-width=".5"/><path d="M19.505 51.341c0 .376-.123.725-.375 1.048-.251.322-.523.484-.816.484a.845.845 0 01-.346-.063.533.533 0 00-.211-.066c-.102.033-.197.062-.288.09a.878.878 0 01-.27.04.686.686 0 01-.354-.088c-.117-.063-.177-.156-.177-.27 0-.076.034-.14.097-.193.054-.044.097-.065.132-.065h.277c.028 0 .122.035.278.105.052.02.129.052.23.101.07 0 .13-.13.185-.391.056-.259.112-.524.167-.795.084-.351.185-.61.305-.78.027-.036.063-.095.111-.179.051-.082.095-.126.142-.126.026 0 .061.01.102.023-.056.1-.117.197-.173.292a.777.777 0 00-.077.325v.915a1.142 1.142 0 01-.15.427 1.642 1.642 0 01-.334.419c.06.045.13.084.21.11a.71.71 0 00.196.04c.23 0 .428-.109.593-.322.196-.255.294-.608.294-1.057 0-.337-.08-.648-.239-.938-.19-.344-.432-.517-.724-.517h-.43c-.15 0-.32.077-.505.232-.207.175-.308.363-.308.561 0 .144.054.264.166.36a.45.45 0 00.291.124.425.425 0 00.12-.042c.065-.024.136-.043.21-.057v.1a.725.725 0 01-.256.252.5.5 0 01-.251.077.603.603 0 01-.414-.172.542.542 0 01-.195-.415c0-.143.049-.303.15-.475.118-.204.27-.368.465-.496.235-.15.503-.227.804-.227.365 0 .684.11.952.333.279.231.416.513.416.843v.433zm-2 1.253c-.118-.053-.221-.095-.304-.13a.554.554 0 00-.204-.049.24.24 0 00-.147.042c-.038.028-.056.056-.056.083 0 .043.036.082.105.11.071.03.154.045.249.045.06 0 .114-.005.157-.012a.427.427 0 00.2-.09zm3.557-.161c-.096.098-.176.17-.238.22-.186.145-.352.22-.5.22h-.273c-.108 0-.22-.052-.337-.157a.587.587 0 01-.208-.449.67.67 0 01.1-.297c.083-.152.186-.274.312-.37a.89.89 0 01.542-.184c.153 0 .263.033.329.098.051.049.08.13.08.232 0 .158-.08.294-.243.407-.08.063-.23.137-.444.228-.16.066-.239.118-.239.162 0 .044.029.085.085.127a.36.36 0 00.213.063.7.7 0 00.397-.103l.424-.333v.136zm-.546-.687c0-.06-.01-.106-.033-.13-.02-.023-.055-.035-.103-.035-.102 0-.18.052-.238.155-.058.103-.115.208-.172.313v.248a1.3 1.3 0 00.271-.13c.183-.118.275-.259.275-.42z" fill="#1D1D1B"/><path d="M22.907 52.368c-.078.135-.18.25-.302.344a.69.69 0 01-.421.161h-.25a.44.44 0 01-.317-.148c-.085-.09-.128-.18-.128-.271 0-.04.01-.08.035-.119a.15.15 0 01.134-.08c.034 0 .066.015.096.042a.137.137 0 01.043.1c0 .02-.01.043-.038.067a.354.354 0 00-.1.184h.219a2.41 2.41 0 00.212-.224.46.46 0 00.094-.28v-.25a.29.29 0 00-.071-.195.23.23 0 00-.18-.082c-.088 0-.184.06-.284.184a1.62 1.62 0 00-.282.593 4.088 4.088 0 00-.126 1.09c0 .075-.004.144-.006.212l-.005.19c0 .084.002.158.01.217h-.306v-1.23l.037-.222c.035-.183.07-.372.103-.56.044-.256.09-.495.136-.727l.066-.398c.046-.195.116-.313.213-.357h.14v.136c0 .077-.014.177-.044.3a4.588 4.588 0 00-.096.462v.28c.115-.112.203-.194.26-.241a.546.546 0 01.353-.127c.17 0 .295.055.375.165.062.084.092.2.092.339 0 .175-.058.34-.178.497-.138.146-.225.24-.261.282h.163c.117-.014.237-.08.361-.199.082-.083.168-.164.253-.248v.113zm1.843.049c0 .077-.062.18-.187.302-.122.125-.23.182-.325.182-.153 0-.245-.066-.28-.199-.05-.185-.09-.292-.116-.314a1.49 1.49 0 01-.255.342.517.517 0 01-.372.143.257.257 0 01-.248-.157.758.758 0 01-.061-.328l.027-.241c.028-.186.07-.338.12-.455.073-.164.167-.246.278-.246a.08.08 0 01.056.022.838.838 0 01.084.091c-.057.06-.103.192-.135.402a7.327 7.327 0 01-.089.482v.287h.14c.206-.163.36-.36.466-.583l.169-.478c.053-.127.135-.193.244-.193h.052l.045.003c.017 0 .032-.003.048-.003v.23c-.055.06-.09.163-.11.308a2.732 2.732 0 01-.063.374v.314c.09 0 .164-.024.224-.072.07-.057.145-.164.229-.326.04.03.058.066.058.113" fill="#1D1D1B"/><path d="M26.044 52.339c0 .09-.082.199-.244.321a.983.983 0 01-.606.213.499.499 0 01-.385-.164c-.078-.08-.118-.157-.118-.227v-.224c.047-.188.086-.33.123-.422.12-.28.258-.422.414-.422.082 0 .137.01.164.03.027.018.04.05.04.091a.567.567 0 00-.008.077c0 .042-.037.196-.114.465-.077.269-.116.442-.116.515 0 .075.052.11.154.11.061 0 .142-.038.242-.117.14-.11.278-.218.416-.33a.11.11 0 01.028.02c.004.008.01.028.01.064m-.348-1.625c0 .07-.047.126-.14.173a.374.374 0 01-.17.054.38.38 0 01-.213-.063c-.064-.042-.096-.087-.096-.136 0-.05.032-.101.096-.157a.4.4 0 01.251-.091c.114 0 .191.028.231.08.027.032.041.08.041.14" fill="#1D1D1B"/><path d="M26.987 52.462a1.04 1.04 0 01-.254.261c-.135.1-.26.15-.373.15h-.273a.428.428 0 01-.275-.108.496.496 0 01-.178-.404c0-.045.085-.213.253-.504.168-.292.27-.44.297-.44.053 0 .086.013.095.034.005.007.007.028.007.063v.171c0 .07.059.164.175.286.117.125.177.247.177.368a3.803 3.803 0 01-.03.11c-.017.085-.036.143-.045.18.118-.016.192-.053.232-.114a.335.335 0 01.192-.154v.101zm-.725-.074v-.217a.469.469 0 00-.057-.17c-.025-.047-.046-.096-.072-.146a.333.333 0 00-.143.134c-.036.06-.072.122-.104.182.03.017.055.042.072.068.02.026.027.058.027.103 0 .05-.018.103-.05.147-.033.047-.05.077-.05.09 0 .02.013.04.04.063.025.027.045.036.06.036.037 0 .086-.025.151-.076.085-.064.126-.136.126-.214zm3.961-2.46a5.95 5.95 0 00-.358 1.51 41.765 41.765 0 01-.123 1.047c-.064.26-.211.388-.44.388-.153 0-.23-.077-.23-.232 0-.17.044-.386.14-.651.086-.232.175-.466.268-.708.092-.243.141-.429.141-.558 0-.036-.005-.066-.01-.1l-1.043 1.045h-.074v-.153l1.576-1.782h.153v.194zm2.667.548a.44.44 0 01-.123.29c-.017.021-.173.15-.46.381.16.13.275.227.339.29.11.112.168.276.168.493 0 .29-.11.524-.333.691-.22.166-.526.252-.913.252-.41 0-.716-.082-.915-.244a.653.653 0 01-.255-.54c0-.116.064-.236.187-.367a2.07 2.07 0 01.349-.293c.066-.044.135-.084.203-.128a17.443 17.443 0 01-.262-.297.75.75 0 01-.086-.372c0-.182.093-.369.284-.56a1.09 1.09 0 01.806-.34c.247 0 .47.065.673.196.227.145.338.328.338.548m-.582 1.691c0-.134-.077-.258-.232-.373a1.766 1.766 0 00-.43-.224 1.283 1.283 0 00-.234-.074c-.114 0-.228.084-.348.248-.106.152-.158.28-.158.381a.51.51 0 00.153.355c.095.107.187.157.274.157h.505c.066 0 .154-.036.258-.11.142-.101.212-.224.212-.36m.116-1.729c0-.147-.071-.267-.212-.362-.106-.073-.19-.106-.255-.106a.785.785 0 00-.47.14c-.13.094-.194.206-.194.328 0 .119.095.24.282.356.162.101.275.154.34.154.164 0 .296-.07.396-.21a.522.522 0 00.113-.3m3.212.038a.435.435 0 01-.126.29c-.021.021-.174.15-.458.381.16.13.272.227.336.29.112.112.17.276.17.493 0 .29-.113.524-.333.691-.222.166-.525.252-.913.252-.41 0-.716-.082-.919-.244a.66.66 0 01-.253-.54c0-.116.064-.236.188-.367.098-.103.211-.201.35-.293.066-.044.134-.084.201-.128-.085-.096-.174-.196-.26-.297a.717.717 0 01-.089-.372c0-.182.094-.369.285-.56a1.09 1.09 0 01.807-.34c.247 0 .471.065.674.196.226.145.34.328.34.548m-.584 1.691c0-.134-.08-.258-.232-.373a1.822 1.822 0 00-.43-.224 1.178 1.178 0 00-.237-.074c-.11 0-.225.084-.345.248-.106.152-.16.28-.16.381 0 .125.051.245.153.355.097.107.187.157.276.157h.505c.066 0 .15-.036.258-.11.142-.101.212-.224.212-.36m.116-1.729c0-.147-.072-.267-.212-.362-.106-.073-.192-.106-.255-.106a.792.792 0 00-.472.14c-.128.094-.192.206-.192.328 0 .119.094.24.283.356.161.101.274.154.338.154a.47.47 0 00.397-.21.52.52 0 00.113-.3m3.094.119c0 .272-.123.513-.367.726-.106.095-.344.249-.715.465-.277.162-.435.3-.475.417l.935.317c.045 0 .149-.07.319-.206.092-.073.168-.124.225-.15v.158c-.173.247-.326.408-.454.479a.877.877 0 01-.442.11c-.148 0-.316-.05-.502-.157-.187-.105-.333-.157-.435-.157-.03 0-.11.047-.238.143-.08.056-.154.1-.229.13v-.158c.116-.189.344-.437.689-.74.418-.364.686-.61.798-.74.258-.291.383-.57.383-.835a.439.439 0 00-.184-.355.477.477 0 00-.282-.118.72.72 0 00-.419.15.61.61 0 00-.28.517c0 .154.062.257.189.308a.906.906 0 01.237.125c-.052.05-.095.084-.118.102a.114.114 0 01-.064.026 2.57 2.57 0 01-.057-.005.708.708 0 00-.11-.007c-.18 0-.306-.042-.386-.135-.08-.087-.122-.211-.122-.374 0-.24.129-.452.387-.637.212-.15.394-.22.548-.22h.429c.15 0 .302.059.45.187.195.162.29.37.29.634" fill="#1D1D1B"/><path d="M67.492 32.67c.1.1.361.174.784.218v.4h-6.88v-.4c.426-.044.687-.119.79-.218a.556.556 0 00.149-.391V16.61a.54.54 0 00-.15-.39c-.102-.1-.363-.17-.79-.216v-.41h12.222c2.47 0 4.267.458 5.378 1.365 1.112.911 1.67 2.315 1.67 4.22 0 1.545-.454 2.758-1.35 3.633-.903.875-2.047 1.504-3.422 1.885l3.938 5.582c.267.404.588.61.967.61v.4h-6.946v-.4c.492-.023.735-.226.735-.61 0-.048-.09-.198-.27-.471-.175-.27-.396-.596-.664-.975a65.607 65.607 0 00-.883-1.224c-.327-.44-.637-.864-.936-1.264a49.353 49.353 0 01-.784-1.077 9.92 9.92 0 01-.435-.638h-3.273v5.649c0 .154.048.289.15.391zm5.46-9.605c.978 0 1.65-.19 2.017-.555.365-.369.551-.805.551-1.292 0-.5-.186-.927-.55-1.3-.368-.368-1.04-.55-2.019-.55h-5.61v3.697h5.61zm22.325 9.823c.065 0 .157-.012.267-.038.114-.022.17-.112.17-.27 0-.09-.04-.224-.118-.416-.08-.192-.167-.398-.267-.629-.1-.218-.208-.442-.314-.666a8.658 8.658 0 01-.273-.578h-7.746c-.044.16-.113.353-.218.578-.1.224-.205.448-.317.666l-.299.629c-.087.192-.133.327-.133.417 0 .157.055.247.17.269.106.026.197.038.262.038v.401h-5.005v-.4a.991.991 0 00.397-.09.464.464 0 00.268-.247 219.305 219.305 0 012.04-4.659 634.691 634.691 0 001.852-4.168l1.349-3.104c.359-.814.536-1.276.536-1.39 0-.203-.149-.319-.432-.338v-.4h6.977v.4c-.287.02-.433.135-.433.337 0 .067.115.362.348.895.237.525.541 1.182.919 1.984.381.795.795 1.674 1.252 2.635.458.965.912 1.927 1.369 2.893.457.968.887 1.878 1.29 2.744.395.86.72 1.584.965 2.17a.45.45 0 00.268.248c.133.057.267.09.401.09v.4h-5.545v-.4zm-4.474-10.9l-2.734 5.886h5.54l-2.806-5.887zm23.817 2.186l-.466-.237c.02-.09.052-.18.082-.27a.87.87 0 00.048-.298c0-.138-.136-.291-.41-.477a5.246 5.246 0 00-1.073-.481c-.434-.148-.925-.28-1.47-.388a8.362 8.362 0 00-1.653-.168 7.87 7.87 0 00-1.904.235 5.758 5.758 0 00-1.734.724 4.19 4.19 0 00-1.27 1.25c-.337.507-.502 1.12-.502 1.841 0 .7.165 1.308.501 1.821.336.527.753.943 1.271 1.274a5.624 5.624 0 001.734.718c.65.157 1.282.243 1.904.243a6.77 6.77 0 001.888-.257 8.223 8.223 0 001.574-.605c.453-.231.805-.468 1.066-.705.251-.235.383-.404.383-.52v-.308c0-.128-.01-.228-.034-.302l.37-.23 3.17 4.588-.405.237c-.196-.246-.373-.368-.532-.368-.09 0-.327.099-.715.3-.392.2-.91.43-1.555.68-.642.255-1.409.472-2.287.655-.881.18-1.853.263-2.923.263-1.226 0-2.415-.122-3.588-.372-1.168-.244-2.21-.661-3.123-1.257a6.866 6.866 0 01-2.204-2.337c-.554-.962-.834-2.139-.834-3.537 0-1.366.28-2.533.834-3.495a6.978 6.978 0 012.204-2.353c.912-.606 1.955-1.045 3.123-1.327a15.187 15.187 0 013.588-.424c.734 0 1.448.064 2.139.19.69.117 1.323.246 1.904.38.578.139 1.076.267 1.503.392.42.122.72.183.899.183a.503.503 0 00.3-.1.815.815 0 00.203-.205l.4.138-2.406 4.909zm10.643-5.281c-.337.022-.597.07-.789.135-.183.067-.28.224-.28.471v12.78c0 .247.097.407.28.468.192.071.452.116.789.141v.405h-6.611v-.405c.33-.025.59-.07.78-.14.19-.062.287-.222.287-.469V19.5c0-.247-.096-.404-.287-.471a3.174 3.174 0 00-.78-.135v-.4h6.61v.4zm19.155 13.855c.176.07.398.115.665.14v.404h-6.175v-.404c.178 0 .382-.025.618-.07.232-.045.35-.167.35-.365 0-.206-.245-.584-.74-1.132a83.962 83.962 0 00-1.88-2.036c-.77-.808-1.633-1.703-2.591-2.707-.959-1-1.904-2.058-2.839-3.174l-.065.064v8.811c0 .247.079.404.244.469.17.07.378.115.622.14v.404h-5.706v-.404c.221-.025.42-.07.582-.14.167-.065.252-.222.252-.469V19.5c0-.247-.091-.404-.27-.468a2.297 2.297 0 00-.636-.135v-.404h7.946v.404a1.66 1.66 0 00-.462.135c-.156.064-.238.221-.238.468 0 .045.19.276.554.693.369.41.84.936 1.416 1.558.583.628 1.225 1.328 1.936 2.09.716.76 1.43 1.52 2.142 2.284V19.5c0-.247-.086-.404-.267-.468a2.417 2.417 0 00-.666-.135v-.404h5.873v.404c-.267.02-.49.068-.665.135-.181.064-.27.221-.27.468v12.78c0 .247.089.404.27.469m18.219-2.926c0 .224.057.43.163.61a.52.52 0 00.467.269h.303v.401c-.535.266-1.143.544-1.83.824-.698.282-1.443.532-2.24.756-.804.222-1.629.404-2.475.526-.844.116-1.691.18-2.537.18-1.29 0-2.48-.138-3.572-.401-1.089-.27-2.022-.715-2.786-1.33a6.31 6.31 0 01-1.808-2.354c-.433-.952-.65-2.09-.65-3.418 0-1.321.245-2.46.736-3.412a6.709 6.709 0 011.968-2.35 8.522 8.522 0 012.823-1.381 11.918 11.918 0 013.289-.456c.846 0 1.62.052 2.32.154.7.096 1.321.218 1.853.353.535.135.974.25 1.328.352.337.103.566.151.678.151.171 0 .292-.035.35-.099.056-.071.127-.148.216-.238l.401.068-1.738 4.437-.395-.198v-.234c0-.206-.159-.395-.455-.574a5.783 5.783 0 00-1.12-.49 9.129 9.129 0 00-1.414-.334 9.096 9.096 0 00-1.353-.116c-.69 0-1.35.077-1.973.231-.624.163-1.166.42-1.618.776a3.868 3.868 0 00-1.085 1.366c-.268.545-.402 1.212-.402 1.994 0 .811.134 1.504.402 2.071.27.57.634 1.046 1.098 1.41.47.373 1.016.646 1.64.828a7.3 7.3 0 002.037.27c.554 0 1.102-.039 1.632-.122a9.384 9.384 0 001.606-.385v-2.187h-2.805c-.264 0-.433.103-.5.308-.07.199-.096.372-.096.5h-.404v-4.171h.404c0 .138.026.305.096.506.067.202.236.302.5.302h6.946v4.607zm11.505-2.017l.334.164v.298c.029 1.17 2.114 1.67 4.272 1.67 2.776 0 5.415-1.5 5.686-4.661-2.28 1.16-4.006 1.731-6.22 1.731-3.41 0-6.453-2.238-6.453-5.87 0-4.3 4.374-5.865 7.904-5.865 5.53 0 9.2 2.835 9.2 8.67 0 5.86-4.702 9.26-10.117 9.26a15.84 15.84 0 01-4.243-.568c-1.054-.298-1.685-.568-1.814-.568-.268 0-.494.097-.761.366l-.398-.16 2.61-4.467zm1.923-6.668c0 1.971 2.384 2.465 3.635 2.465 1.258 0 3.642-.494 3.642-2.465 0-1.966-2.384-2.466-3.642-2.466-1.25 0-3.635.5-3.635 2.466zm29.373 7.935c.525 0 .726-.141.824-.773h.395v5.473h-.395c-.064-.635-.334-.775-.993-.775h-14.691c-.428 0-.662.173-.662.775h-.402c-.261-6.2 6.39-8.602 10.696-11.305.663-.398.956-.757.956-1.533 0-.827-.688-1.731-2.35-1.731-3.078 0-5.555 2.235-5.555 3.098 0 .134.06.333.137.503l-.404.305-3.508-4.97.366-.27a.81.81 0 00.595.27c.69 0 3.273-2.866 8.302-2.866 3.773 0 7.179 2.397 7.179 5.732 0 4.931-6.749 5.566-9.461 8.067h8.971zM66.634 45.867a1.47 1.47 0 00-.258-.019h-5.04v-.193c.216 0 .32-.063.32-.192v-4.841c0-.128-.104-.19-.32-.19v-.195h1.823v.195c-.195 0-.296.062-.296.19v4.245h3.513a.41.41 0 00.258-.077.234.234 0 00.102-.199h.193v1.456h-.193c0-.106-.034-.167-.102-.18m5.446-3.719c0-.134-.111-.205-.33-.205h-2.582v1.067h1.63c.12 0 .208-.01.264-.025.059-.022.086-.067.086-.144h.188v1.128h-.209c.02-.076-.006-.125-.084-.144a1.7 1.7 0 00-.327-.026h-1.548v1.257h2.709a.383.383 0 00.211-.054c.06-.045.087-.093.087-.161h.187v1.123h-.187c0-.064-.028-.1-.087-.109a1.617 1.617 0 00-.211-.013h-3.882v-.186a.195.195 0 00.105-.039c.034-.025.051-.064.051-.121v-3.99c0-.057-.017-.095-.05-.121a.168.168 0 00-.106-.035v-.196h3.755c.219 0 .33-.06.33-.189h.192v1.183h-.193zm8.696.352c0-.018 0-.031-.003-.044a.252.252 0 01-.007-.05c0-.04-.034-.084-.106-.146a1.184 1.184 0 00-.3-.176 2.003 2.003 0 00-.461-.141 2.374 2.374 0 00-.582-.06c-.255 0-.486.034-.695.098a1.64 1.64 0 00-.544.305 1.333 1.333 0 00-.36.503 1.7 1.7 0 00-.127.68c0 .257.05.481.145.686.094.202.221.378.374.526.156.142.333.25.529.33.198.074.4.11.603.11.192 0 .383-.023.582-.075.199-.05.379-.108.541-.176.161-.067.295-.14.395-.22.102-.078.153-.148.153-.213v-.086c0-.039 0-.074-.01-.106l.118-.103.782 1.129-.104.052a.568.568 0 00-.183-.052c-.056 0-.146.032-.273.096a9.85 9.85 0 01-.483.215 4.06 4.06 0 01-.675.211 4.177 4.177 0 01-.864.087c-.325 0-.645-.048-.962-.14a2.318 2.318 0 01-1.45-1.2 2.249 2.249 0 01-.235-1.049c0-.397.08-.746.236-1.041.156-.302.358-.555.612-.757.255-.2.545-.356.874-.449a3.354 3.354 0 011.011-.154c.267 0 .51.026.732.077.223.051.422.102.59.17.168.06.31.122.42.17a.715.715 0 00.246.077.126.126 0 00.09-.038.66.66 0 00.079-.052l.127.077-.697 1.013-.118-.083zm3.681-1.346v.195c-.159 0-.24.049-.24.158v3.546h2.856a.365.365 0 00.211-.054.194.194 0 00.085-.164h.193v1.116h-.193c0-.058-.03-.087-.085-.096-.055-.004-.127-.01-.211-.01h-4.146v-.19c.18 0 .273-.054.273-.16v-3.988c0-.11-.092-.158-.273-.158v-.195h1.53zm5.842.192c-.153 0-.231.055-.231.164v2.447c0 .34.121.615.368.824.248.201.628.307 1.134.307.51 0 .884-.106 1.133-.307a1.03 1.03 0 00.37-.824V41.51c0-.109-.087-.164-.264-.164v-.192h1.471v.192c-.156 0-.235.055-.235.161v2.7c0 .217-.048.43-.147.631a1.56 1.56 0 01-.449.539 2.33 2.33 0 01-.773.368 4.03 4.03 0 01-1.106.132c-.423 0-.792-.042-1.107-.132a2.273 2.273 0 01-.77-.368 1.562 1.562 0 01-.453-.539 1.428 1.428 0 01-.146-.631v-2.7c0-.058-.02-.096-.062-.122-.043-.026-.124-.039-.245-.039v-.192h1.512v.192zm5.668.039a.38.38 0 00-.167-.039v-.189h3.293c.268 0 .498.03.694.097.193.06.355.15.486.26.13.108.229.236.289.378a1.087 1.087 0 01.034.801 1.309 1.309 0 01-.163.302 1.68 1.68 0 01-.222.237 1.172 1.172 0 01-.25.173v.012c.1.042.199.097.296.168a1.346 1.346 0 01.456.595 1.254 1.254 0 01-.023.898 1.015 1.015 0 01-.3.392c-.14.115-.32.205-.541.275-.22.065-.488.097-.799.097H95.8v-.186a.38.38 0 00.167-.039c.053-.025.078-.063.078-.121v-3.99c0-.057-.025-.095-.078-.121zm2.977 1.622c.171 0 .327-.031.475-.102.15-.07.225-.218.225-.44a.531.531 0 00-.062-.269.45.45 0 00-.163-.157.45.45 0 00-.222-.077 1.687 1.687 0 00-.253-.016h-1.882v1.061h1.882zm-.021 2.046c.326 0 .548-.052.668-.154.121-.109.18-.257.18-.452 0-.215-.078-.382-.235-.49-.153-.103-.414-.155-.782-.155h-1.692v1.25h1.86zm6.542.602c.159 0 .244-.057.244-.16v-3.988c0-.106-.085-.16-.244-.16v-.19h2.94c.416 0 .771.068 1.07.203.296.134.537.31.722.525.19.218.326.465.414.747a2.892 2.892 0 01.003 1.734 1.984 1.984 0 01-.4.75 2.094 2.094 0 01-.708.527c-.29.134-.644.199-1.058.199h-2.983v-.187zm2.632-.602c.22 0 .429-.013.625-.045.198-.032.37-.103.52-.212a1.13 1.13 0 00.352-.48c.089-.209.133-.495.133-.847 0-.353-.044-.635-.133-.837a1.059 1.059 0 00-.352-.459 1.177 1.177 0 00-.52-.192 5.57 5.57 0 00-.625-.035h-1.375v3.107h1.375zm8.075-2.905c0-.134-.11-.205-.33-.205h-2.581v1.067h1.627c.124 0 .208-.01.267-.025.056-.022.086-.067.086-.144h.188v1.128h-.21c.022-.076-.008-.125-.087-.144a1.667 1.667 0 00-.326-.026h-1.545v1.257h2.71a.391.391 0 00.21-.054c.056-.045.086-.093.086-.161h.189v1.123h-.189c0-.064-.03-.1-.085-.109a1.662 1.662 0 00-.212-.013h-3.882v-.186a.205.205 0 00.105-.039c.035-.025.05-.064.05-.121v-3.99c0-.057-.015-.095-.05-.121a.174.174 0 00-.105-.035v-.196h3.755c.22 0 .329-.06.329-.189h.19v1.183h-.19zm2.105 2.065c0 .029 0 .06-.004.09-.006.032-.006.067-.006.105 0 .106.068.203.202.289.134.093.293.164.479.225.186.06.376.112.56.147.19.035.333.055.441.055.098 0 .221-.014.364-.023a2.18 2.18 0 00.428-.093c.141-.045.26-.109.362-.19a.42.42 0 00.147-.33c0-.153-.084-.266-.258-.34a3.038 3.038 0 00-.651-.163c-.261-.038-.544-.073-.846-.115a4.401 4.401 0 01-.847-.192 1.748 1.748 0 01-.652-.385c-.172-.167-.26-.404-.26-.709 0-.455.188-.818.564-1.087.37-.27.897-.404 1.574-.404a3.8 3.8 0 01.85.08c.239.052.438.109.6.177.164.06.296.119.399.173.101.054.176.08.224.08.058 0 .102-.006.13-.026a.674.674 0 01.106-.057l.117.115-.531 1.003-.19-.066c-.01-.04-.012-.084-.022-.126-.008-.041-.04-.087-.096-.128-.14-.122-.358-.224-.654-.31a3.68 3.68 0 00-.995-.13 3.03 3.03 0 00-.404.03 1.173 1.173 0 00-.34.092.585.585 0 00-.23.161.392.392 0 00-.086.25c0 .16.086.27.26.337.172.067.39.122.65.163.262.039.545.077.848.116.303.038.584.105.848.198.262.09.476.225.647.404.174.173.262.424.262.734 0 .315-.075.568-.228.767a1.628 1.628 0 01-.565.471 2.368 2.368 0 01-.75.222c-.27.038-.523.054-.765.054a3.82 3.82 0 01-.713-.067 7.817 7.817 0 01-.647-.16 8.509 8.509 0 01-.491-.174 1.173 1.173 0 00-.242-.077.159.159 0 00-.13.064l-.147-.11.485-1.191.203.051zm13.757-3.591c0-.128-.078-.189-.234-.189v-.196h1.63v.196a.224.224 0 00-.134.044c-.039.036-.054.081-.054.145v4.841c0 .061.015.11.054.142a.216.216 0 00.133.051v.193h-1.63v-.193c.157 0 .235-.064.235-.193V43.46h-3.41v2.004c0 .061.02.11.059.142a.212.212 0 00.134.051v.193h-1.602v-.193c.137 0 .202-.064.202-.193v-4.841c0-.128-.065-.189-.202-.189v-.196h1.602v.196a.22.22 0 00-.134.044.18.18 0 00-.06.145v1.815h3.41v-1.815zm2.57 5.033a.335.335 0 00.207-.128.973.973 0 00.124-.186l1.573-3.459c.04-.1.076-.18.101-.24a.454.454 0 00.035-.177c0-.041-.006-.067-.025-.08-.016-.013-.035-.02-.054-.035v-.193h1.594v.193a.2.2 0 01-.07.029c-.021.006-.035.038-.035.086 0 .042.016.093.049.154.032.06.063.128.101.209l1.71 3.622c.04.064.076.113.118.138.041.03.09.048.136.067v.19h-1.502v-.16a.24.24 0 00.112-.03c.04-.025.06-.06.06-.117a.345.345 0 00-.023-.12c-.015-.032-.032-.083-.054-.137l-.283-.607h-2.266l-.296.572c-.026.06-.051.108-.07.157a.4.4 0 00-.023.124c0 .055.013.09.052.103a.32.32 0 00.149.025v.19h-1.42v-.19zm3.533-1.769l-.855-1.795-.752 1.795h1.607zm4.486-2.54c-.153 0-.23.055-.23.164v2.447c0 .34.121.615.37.824.245.201.624.307 1.133.307.506 0 .882-.106 1.13-.307.246-.209.376-.484.376-.824V41.51c0-.109-.095-.164-.267-.164v-.192h1.47v.192c-.158 0-.235.055-.235.161v2.7c0 .217-.048.43-.146.631a1.598 1.598 0 01-.452.539 2.32 2.32 0 01-.771.368c-.315.09-.68.132-1.105.132-.427 0-.796-.042-1.107-.132a2.295 2.295 0 01-.774-.368 1.56 1.56 0 01-.449-.539 1.47 1.47 0 01-.146-.631v-2.7a.133.133 0 00-.064-.122c-.041-.026-.124-.039-.245-.039v-.192h1.512v.192zm6.847 4.271c.035-.025.055-.067.055-.125v-3.546h-1.376a.311.311 0 00-.159.041.147.147 0 00-.076.139h-.188v-1.228h.188c0 .102.025.173.076.205a.271.271 0 00.159.054h3.766a.272.272 0 00.16-.054c.047-.032.073-.103.073-.205h.187v1.228h-.187a.151.151 0 00-.074-.139.311.311 0 00-.159-.04h-1.378v3.545c0 .106.066.164.197.164v.186h-1.372v-.186a.17.17 0 00.108-.039m4.38-1.404c0 .029-.002.06-.006.09-.003.032-.003.067-.003.105 0 .106.07.203.204.289.133.093.29.164.477.225.191.06.373.112.561.147.19.035.334.055.439.055.1 0 .22-.014.365-.023.144-.016.288-.048.431-.093.14-.045.258-.109.357-.19a.42.42 0 00.149-.33c0-.153-.086-.266-.261-.34a2.962 2.962 0 00-.65-.163c-.26-.038-.544-.073-.846-.115a4.488 4.488 0 01-.847-.192 1.721 1.721 0 01-.65-.385c-.175-.167-.26-.404-.26-.709 0-.455.19-.818.56-1.087.375-.27.9-.404 1.58-.404.33 0 .613.026.848.08a4.204 4.204 0 011 .35c.1.054.175.08.223.08.06 0 .102-.006.13-.026a.661.661 0 01.106-.057l.114.115-.528 1.003-.191-.066c-.007-.04-.013-.084-.023-.126-.005-.041-.037-.087-.091-.128-.14-.122-.363-.224-.656-.31a3.68 3.68 0 00-.997-.13c-.14 0-.277.013-.398.03a1.217 1.217 0 00-.344.092.602.602 0 00-.232.161.379.379 0 00-.083.25c0 .16.086.27.261.337a3.1 3.1 0 00.646.163c.262.039.545.077.85.116.3.038.583.105.844.198.261.09.477.225.652.404.172.173.261.424.261.734 0 .315-.079.568-.232.767-.15.202-.337.356-.563.471a2.339 2.339 0 01-.749.222 5.35 5.35 0 01-.763.054 3.82 3.82 0 01-.717-.067 8.19 8.19 0 01-.643-.16 7.432 7.432 0 01-.493-.174 1.136 1.136 0 00-.245-.077.16.16 0 00-.127.064l-.146-.11.486-1.191.2.051z" fill="#FFF"/><mask id="f" fill="#fff"><use xlink:href="#e"/></mask><path fill="#FFF" mask="url(#f)" d="M159.068 43.95h2.509v-.898h-2.51zm3.725 1.705c.16 0 .245-.057.245-.16v-3.988c0-.106-.085-.16-.245-.16v-.19h2.942c.417 0 .77.068 1.066.203.296.134.538.31.728.525.185.218.322.465.412.747.085.28.133.571.133.869 0 .302-.044.59-.13.866a2.059 2.059 0 01-.402.75 2.106 2.106 0 01-.706.526c-.29.134-.644.199-1.06.199h-2.983v-.187zm2.633-.602c.22 0 .426-.013.624-.045a1.19 1.19 0 00.522-.212c.146-.109.267-.272.353-.48.086-.209.13-.495.13-.847 0-.353-.044-.635-.13-.837a1.048 1.048 0 00-.353-.459 1.178 1.178 0 00-.522-.192 5.575 5.575 0 00-.624-.035h-1.376v3.107h1.376zm8.073-2.905c0-.134-.111-.205-.328-.205h-2.582v1.067h1.63c.124 0 .207-.01.264-.025.057-.022.086-.067.086-.144h.19v1.128h-.212c.022-.076-.007-.125-.08-.144a1.784 1.784 0 00-.33-.026h-1.548v1.257h2.709a.4.4 0 00.214-.054c.056-.045.083-.093.083-.161h.19v1.123h-.19c0-.064-.027-.1-.083-.109a1.7 1.7 0 00-.214-.013h-3.884v-.186a.213.213 0 00.109-.039c.034-.025.051-.064.051-.121v-3.99c0-.057-.017-.095-.051-.121a.181.181 0 00-.109-.035v-.196h3.757c.217 0 .328-.06.328-.189h.193v1.183h-.193zm1.438 1.802h2.512v-.898h-2.512zm4.339.135l.106.054a.35.35 0 00.041.17.758.758 0 00.293.253c.143.08.309.158.497.218.187.06.382.113.585.154.207.039.389.061.55.061.122 0 .278-.012.469-.028.19-.017.378-.055.56-.113a1.47 1.47 0 00.474-.237.461.461 0 00.204-.391c0-.167-.06-.283-.185-.363a1.299 1.299 0 00-.487-.17c-.2-.038-.43-.057-.687-.07-.258-.013-.522-.026-.79-.048a6.409 6.409 0 01-.79-.106 2.266 2.266 0 01-.687-.25c-.2-.115-.36-.276-.487-.48-.12-.2-.185-.47-.185-.793 0-.22.051-.44.153-.651.105-.218.261-.404.472-.564.216-.163.48-.298.805-.401a3.93 3.93 0 011.143-.154c.373 0 .697.03.975.08.273.061.511.122.712.186.2.065.37.126.51.18a.93.93 0 00.343.087c.099 0 .169-.02.213-.061l.125.083-.73 1.33-.108-.041a.577.577 0 00-.082-.247.94.94 0 00-.277-.25 2.739 2.739 0 00-.465-.221 3.51 3.51 0 00-.57-.15 3.051 3.051 0 00-.611-.059c-.16 0-.318.013-.484.035a2.517 2.517 0 00-.449.113.904.904 0 00-.334.195.415.415 0 00-.134.308c0 .167.06.295.188.385.124.083.283.147.484.189.204.042.43.07.69.087.256.012.52.032.787.051.267.022.53.057.786.11a2.4 2.4 0 01.688.256c.203.121.369.275.493.477.118.202.179.456.179.779 0 .366-.096.667-.29.905a2.033 2.033 0 01-.723.551c-.29.137-.602.228-.933.272-.34.049-.653.071-.938.071-.402 0-.742-.022-1.013-.07a3.464 3.464 0 01-.678-.17 3.659 3.659 0 01-.427-.18.665.665 0 00-.276-.08c-.048 0-.096.028-.137.086l-.15-.086.582-1.292zm10.687-1.937c0-.134-.108-.205-.327-.205h-2.583v1.067h1.63c.121 0 .207-.01.265-.025.057-.022.082-.067.082-.144h.195v1.128h-.214c.02-.076-.006-.125-.082-.144a1.752 1.752 0 00-.332-.026h-1.544v1.257h2.71a.386.386 0 00.21-.054c.06-.045.085-.093.085-.161h.191v1.123h-.19c0-.064-.025-.1-.086-.109a1.635 1.635 0 00-.21-.013h-3.884v-.186a.193.193 0 00.105-.039c.038-.025.054-.064.054-.121v-3.99c0-.057-.016-.095-.054-.121a.166.166 0 00-.105-.035v-.196h3.757c.219 0 .327-.06.327-.189h.194v1.183h-.194zm1.881 3.507c.115 0 .195-.012.236-.038a.134.134 0 00.064-.122v-3.988a.133.133 0 00-.064-.122.503.503 0 00-.236-.038v-.19h1.612v.19c-.195 0-.297.051-.297.16v3.988c0 .103.102.16.297.16v.19h-1.612v-.19zm3.432 0c.128 0 .191-.057.191-.16v-3.988c0-.109-.063-.16-.19-.16v-.19h1.556v.19c-.05.006-.076.025-.076.051 0 .042.08.135.232.288l2.54 2.713v-2.892c0-.109-.07-.16-.213-.16v-.19h1.293v.19c-.128 0-.192.051-.192.16v3.988c0 .103.064.16.192.16v.19h-1.376v-.19c.051 0 .073-.019.073-.057 0-.026-.028-.077-.101-.148-.061-.07-.14-.15-.226-.244l-2.627-2.814v3.103c0 .103.08.16.223.16v.19h-1.299v-.19zm11.152-3.507c0-.134-.112-.205-.328-.205h-2.582v1.067h1.63c.124 0 .21-.01.264-.025.057-.022.086-.067.086-.144h.191v1.128h-.213c.022-.076-.007-.125-.083-.144a1.74 1.74 0 00-.33-.026h-1.545v1.257h2.709a.386.386 0 00.21-.054c.06-.045.086-.093.086-.161h.191v1.123h-.191c0-.064-.025-.1-.086-.109a1.635 1.635 0 00-.21-.013h-3.884v-.186a.195.195 0 00.105-.039c.035-.025.055-.064.055-.121v-3.99c0-.057-.02-.095-.055-.121a.167.167 0 00-.105-.035v-.196h3.757c.216 0 .328-.06.328-.189h.194v1.183h-.194z"/></g></g></svg>