<svg viewBox="0 0 100 101" xmlns="http://www.w3.org/2000/svg" xmlns:xlink="http://www.w3.org/1999/xlink"><defs><path id="a" d="M0 .024h3.21V3.57H0z"/><path id="c" d="M0 99.943h100V0H0z"/></defs><g fill="none" fill-rule="evenodd"><path d="M4.19 91.207c.068.066.247.114.538.144v.264H0v-.264c.293-.03.472-.078.542-.144a.358.358 0 00.103-.258V80.624a.348.348 0 00-.103-.258c-.07-.065-.249-.112-.542-.141v-.27h8.398c1.698 0 2.933.302 3.696.9.765.6 1.147 1.525 1.147 2.78 0 1.018-.311 1.817-.927 2.394-.62.576-1.407.99-2.352 1.242l2.707 3.678c.183.266.404.401.664.401v.264H8.56v-.264c.338-.014.505-.148.505-.401 0-.032-.062-.13-.186-.31-.12-.178-.272-.393-.456-.643a43.286 43.286 0 00-.607-.807l-.643-.832a32.036 32.036 0 01-.538-.71 6.506 6.506 0 01-.3-.42H4.086v3.722c0 .101.033.19.103.258zm3.75-6.33c.674 0 1.135-.124 1.388-.365.25-.243.378-.53.378-.852 0-.33-.128-.61-.378-.855-.253-.243-.714-.364-1.387-.364H4.086v2.436h3.855zm14.909 6.466a.85.85 0 00.184-.026c.079-.015.117-.075.117-.181a.848.848 0 00-.08-.282c-.057-.13-.116-.269-.185-.424l-.216-.451a5.797 5.797 0 01-.188-.39h-5.333c-.03.108-.078.238-.15.39-.07.151-.141.303-.218.45l-.206.425c-.06.13-.092.22-.092.282 0 .106.038.166.117.181a.81.81 0 00.18.026v.27h-3.445v-.27a.689.689 0 00.273-.06.317.317 0 00.185-.167c.459-1.063.927-2.11 1.404-3.146.474-1.04.9-1.975 1.275-2.816l.929-2.096c.247-.55.369-.862.369-.94 0-.137-.103-.215-.298-.227v-.271h4.804v.27c-.198.013-.298.091-.298.228 0 .045.08.245.24.604.163.355.372.799.632 1.34.263.538.548 1.13.863 1.78l.942 1.954c.314.654.61 1.269.888 1.853.272.581.496 1.07.665 1.467.029.071.09.13.184.166.092.04.184.06.276.06v.272h-3.818v-.271zm-3.08-7.363l-1.882 3.976H21.7l-1.93-3.976zm17.007 1.028l-.32-.17c.013-.065.035-.129.056-.193a.65.65 0 00.033-.214c0-.1-.094-.209-.283-.343a3.564 3.564 0 00-.738-.344 7.807 7.807 0 00-1.01-.279 5.557 5.557 0 00-1.139-.12c-.428 0-.863.054-1.31.169a3.876 3.876 0 00-1.193.52 2.94 2.94 0 00-.875.895c-.23.364-.345.803-.345 1.32 0 .501.114.938.345 1.306.232.377.518.676.875.912.352.232.75.407 1.193.515a5.35 5.35 0 001.31.175c.46 0 .894-.062 1.3-.184a5.534 5.534 0 001.083-.434c.312-.166.554-.336.733-.506.173-.168.263-.29.263-.373v-.22a.768.768 0 00-.023-.217l.254-.165 2.182 3.29-.278.17c-.136-.177-.258-.264-.367-.264-.062 0-.225.07-.492.215-.27.143-.625.308-1.07.488-.442.182-.97.337-1.574.469a9.694 9.694 0 01-2.01.188 11.33 11.33 0 01-2.47-.266 6.059 6.059 0 01-2.148-.902 4.846 4.846 0 01-1.518-1.675c-.38-.69-.573-1.533-.573-2.535 0-.98.192-1.817.573-2.506a4.927 4.927 0 011.518-1.687 6.532 6.532 0 012.148-.952 10.066 10.066 0 012.47-.304c.504 0 .996.046 1.471.136a20.758 20.758 0 012.344.554c.29.088.496.131.619.131a.338.338 0 00.207-.071.57.57 0 00.139-.147l.276.099-1.656 3.52zm7.391-3.117a1.908 1.908 0 00-.497.09c-.115.046-.176.152-.176.32v8.629c0 .167.06.275.176.316.122.048.285.078.497.095v.273H40v-.273c.208-.017.373-.047.492-.095.12-.04.18-.15.18-.316V82.3c0-.167-.06-.273-.18-.318A1.882 1.882 0 0040 81.89v-.27h4.167v.27zm12.877 9.355c.12.047.273.078.456.095v.273h-4.234v-.273c.123 0 .263-.017.424-.048.16-.03.24-.112.24-.246 0-.139-.168-.394-.507-.764-.333-.37-.763-.83-1.29-1.375-.527-.546-1.119-1.15-1.775-1.828a42.86 42.86 0 01-1.946-2.143l-.045.043v5.95c0 .167.054.273.167.316.117.047.26.078.427.095v.273h-3.912v-.273c.152-.017.288-.048.4-.095.114-.043.172-.15.172-.316V82.3c0-.167-.062-.273-.186-.316a1.602 1.602 0 00-.435-.091v-.273h5.447v.273a1.155 1.155 0 00-.317.09c-.107.044-.163.15-.163.317 0 .03.131.186.38.467.253.278.576.633.97 1.053.4.424.84.896 1.328 1.411.49.513.98 1.026 1.468 1.542V82.3c0-.167-.059-.273-.183-.316a1.686 1.686 0 00-.456-.091v-.273H57.5v.273a1.636 1.636 0 00-.456.09c-.124.044-.186.15-.186.317v8.63c0 .167.062.273.186.316" fill="#fff"/><path d="M69.348 89.058c0 .16.04.308.114.437a.361.361 0 00.326.193H70v.288c-.374.19-.799.39-1.279.59a14.78 14.78 0 01-1.563.543 13.84 13.84 0 01-1.73.377c-.59.082-1.18.128-1.772.128-.9 0-1.732-.099-2.494-.287-.76-.193-1.412-.513-1.946-.954a4.513 4.513 0 01-1.263-1.687c-.302-.683-.454-1.5-.454-2.451 0-.947.172-1.763.514-2.446a4.786 4.786 0 011.374-1.685 5.899 5.899 0 011.972-.99 8.135 8.135 0 012.297-.327c.591 0 1.132.037 1.621.11.489.069.922.156 1.294.253.374.097.68.18.927.253.236.073.395.108.474.108.12 0 .204-.025.244-.071.04-.051.09-.106.152-.17l.28.048-1.214 3.181-.276-.142v-.168c0-.147-.111-.282-.318-.411a4.005 4.005 0 00-.783-.352 6.234 6.234 0 00-.987-.239 5.588 5.588 0 00-2.323.083 3.02 3.02 0 00-1.13.556 2.76 2.76 0 00-.758.98c-.187.39-.28.868-.28 1.429 0 .582.093 1.079.28 1.485.19.409.443.75.767 1.011.33.267.71.463 1.145.594.434.128.908.193 1.423.193.387 0 .77-.028 1.14-.088.374-.057.75-.147 1.122-.275v-1.568h-1.96c-.184 0-.302.073-.349.22a1.149 1.149 0 00-.066.359h-.283v-2.99h.283c0 .098.018.218.066.362.047.145.165.217.35.217h4.851v3.303zm8.242-1.204l.225.114v.208c.019.815 1.423 1.164 2.875 1.164 1.869 0 3.645-1.046 3.827-3.248-1.534.808-2.696 1.206-4.187 1.206-2.294 0-4.343-1.56-4.343-4.09 0-2.996 2.944-4.087 5.32-4.087 3.722 0 6.193 1.975 6.193 6.041 0 4.084-3.165 6.452-6.81 6.452-1.161 0-2.138-.188-2.856-.396-.71-.207-1.133-.395-1.221-.395-.18 0-.332.067-.512.255l-.268-.112 1.757-3.112zm1.294-4.647c0 1.374 1.605 1.718 2.447 1.718.847 0 2.451-.344 2.451-1.718 0-1.369-1.604-1.718-2.45-1.718-.843 0-2.448.349-2.448 1.718zm20.288 5.233c.357 0 .493-.096.56-.522H100v3.696h-.268c-.044-.43-.227-.524-.675-.524h-9.982c-.29 0-.45.117-.45.524h-.272c-.178-4.188 4.34-5.81 7.267-7.634.45-.269.65-.511.65-1.036 0-.558-.468-1.168-1.597-1.168-2.092 0-3.775 1.509-3.775 2.091 0 .09.042.225.093.34l-.274.206-2.384-3.356.249-.182a.553.553 0 00.404.182c.47 0 2.224-1.936 5.641-1.936 2.564 0 4.878 1.62 4.878 3.871 0 3.33-4.586 3.759-6.428 5.448h6.095z" fill="#fff"/><path d="M50.418 75.79c14.446-5.213 23.679-14.366 28.67-25.156 7.148-15.466 5.814-42.393 5.814-42.393-21.436 0-34.484-8.24-34.484-8.24s-13.05 8.24-34.486 8.24c0 0-1.335 26.927 5.817 42.393 4.99 10.79 14.224 19.944 28.668 25.156" fill="#C9DFF5"/><path fill="#fff" d="M33.234 64.32l4.822 3.974h23.636l4.901-3.888 4.24-4.44H29.167zM17.589 19.989h65.654c.117-3.532.1-6.463.062-8.329H17.528c-.037 1.866-.055 4.797.061 8.329m.937 15.824h62.948c.456-2.804.787-5.623 1.026-8.329h-65c.238 2.705.57 5.524 1.025 8.329m2.308 8.328l1.325 3.931 1.899 4.397H76.83c.312-.62.61-1.246.894-1.879.89-1.985 1.64-4.164 2.275-6.45H20.833z"/><path d="M50.417 74.124l-.079-.026c-12.704-4.608-22.12-12.903-27.232-24.001-6.705-14.563-5.53-40.088-5.52-40.343l.013-.228h.22c19.957 0 32.35-7.701 32.476-7.78l.122-.08.125.08c.125.079 12.52 7.78 32.47 7.78h.224l.011.228c.013.255 1.187 25.78-5.518 40.343-5.111 11.098-14.526 19.393-27.23 24l-.082.027zM18.046 9.999c-.1 2.548-.841 26.168 5.486 39.899 5.049 10.958 14.343 19.159 26.885 23.725C62.96 69.057 72.26 60.856 77.306 49.898c6.322-13.732 5.582-37.351 5.485-39.899-18.897-.054-31.022-6.97-32.374-7.781-1.35.81-13.475 7.727-32.37 7.781z" fill="#fff"/><path d="M50.417 74.124l-.079-.027c-12.704-4.608-22.12-12.903-27.232-24-6.706-14.564-5.53-40.089-5.52-40.344l.012-.227h.222c19.956 0 32.35-7.702 32.475-7.78l.122-.08.125.08c.125.078 12.52 7.78 32.47 7.78h.224l.01.227c.014.255 1.188 25.78-5.517 40.343-5.111 11.098-14.526 19.393-27.23 24.001l-.082.027zM18.046 9.999c-.101 2.548-.841 26.168 5.485 39.899 5.05 10.958 14.344 19.159 26.885 23.725 12.544-4.566 21.844-12.767 26.89-23.725 6.322-13.731 5.581-37.351 5.485-39.899-18.897-.054-31.023-6.97-32.374-7.78-1.35.81-13.475 7.726-32.371 7.78zm32.371 64.125l-.079-.027c-12.704-4.608-22.12-12.903-27.232-24-6.706-14.564-5.53-40.089-5.52-40.344l.012-.227h.222c19.956 0 32.35-7.702 32.475-7.78l.122-.08.125.08c.125.078 12.52 7.78 32.47 7.78h.224l.01.227c.014.255 1.188 25.78-5.517 40.343-5.111 11.098-14.526 19.393-27.23 24.001l-.082.027zM18.046 9.999c-.101 2.548-.841 26.168 5.485 39.899 5.05 10.958 14.344 19.159 26.885 23.725 12.544-4.566 21.844-12.767 26.89-23.725 6.322-13.731 5.581-37.351 5.485-39.899-18.897-.054-31.023-6.97-32.374-7.78-1.35.81-13.475 7.726-32.371 7.78z" stroke="#fff" stroke-width=".5"/><path d="M39.167 63.338c0 .398-.144.769-.44 1.112-.295.34-.614.513-.959.513a1.09 1.09 0 01-.407-.067.678.678 0 00-.248-.07l-.338.096c-.104.03-.212.04-.318.04a.874.874 0 01-.415-.092c-.138-.066-.208-.165-.208-.285 0-.082.04-.148.114-.206.063-.046.113-.068.155-.068h.325c.034 0 .143.037.326.111.062.02.152.055.271.107.082 0 .153-.139.217-.415.066-.274.132-.556.197-.843.098-.372.217-.646.359-.828.031-.037.073-.1.13-.189.06-.087.112-.133.166-.133a.53.53 0 01.12.024c-.065.105-.137.21-.203.31a.754.754 0 00-.09.344v.971c-.019.144-.08.298-.177.452a1.744 1.744 0 01-.257.324.599.599 0 01-.136.12c.071.049.154.09.248.117a.898.898 0 00.23.043c.27 0 .503-.115.698-.341.23-.27.344-.645.344-1.121a1.89 1.89 0 00-.28-.995c-.223-.365-.508-.549-.851-.549h-.506c-.177 0-.376.082-.593.247-.244.185-.363.384-.363.595 0 .152.064.28.196.381a.56.56 0 00.342.132.545.545 0 00.141-.044c.076-.027.16-.047.248-.062v.106a.824.824 0 01-.301.268.64.64 0 01-.297.082.751.751 0 01-.486-.183c-.152-.125-.23-.27-.23-.44 0-.151.059-.322.178-.504a1.61 1.61 0 01.546-.526c.277-.159.592-.24.945-.24.43 0 .803.116 1.119.353.328.245.488.543.488.893v.46zm-2.35 1.328c-.138-.055-.26-.1-.357-.137a.71.71 0 00-.24-.052.305.305 0 00-.173.045c-.044.03-.065.06-.065.087 0 .046.041.087.123.117a.82.82 0 00.292.048c.07 0 .134-.006.186-.013a.53.53 0 00.233-.095zm4.85.626a3.094 3.094 0 01-.254.252c-.2.165-.378.251-.536.251h-.292c-.116 0-.236-.06-.362-.18a.69.69 0 01-.223-.513c0-.084.034-.197.107-.34.09-.173.2-.313.335-.423a.913.913 0 01.58-.21c.164 0 .282.039.352.112.055.056.088.15.088.266 0 .18-.088.336-.261.465-.088.072-.247.156-.476.26-.171.076-.256.136-.256.186 0 .05.03.098.09.145a.37.37 0 00.229.073.712.712 0 00.425-.119l.454-.38v.155zm-.584-.785c0-.07-.011-.122-.037-.15-.02-.026-.058-.04-.11-.04-.108 0-.193.06-.255.178s-.123.238-.184.357v.284c.131-.052.226-.1.291-.147.196-.137.295-.296.295-.482zm3.084.887c-.099.16-.227.298-.382.41a.908.908 0 01-.533.192h-.318a.571.571 0 01-.401-.177c-.108-.106-.161-.215-.161-.323 0-.048.013-.096.042-.141a.193.193 0 01.171-.096c.043 0 .083.018.122.05a.16.16 0 01.053.12c0 .023-.013.05-.047.08a.414.414 0 00-.128.218h.279c.15-.14.24-.227.268-.267a.527.527 0 00.12-.332v-.298c0-.09-.03-.167-.09-.233a.3.3 0 00-.228-.098c-.112 0-.234.07-.36.218-.149.17-.267.406-.357.708-.11.367-.16.796-.16 1.3 0 .089-.005.17-.007.251l-.007.228c0 .1.002.187.013.258h-.389v-1.466l.048-.265c.044-.218.09-.443.13-.668.056-.304.114-.59.173-.866l.083-.475c.058-.231.146-.373.27-.425h.176v.163c0 .091-.016.21-.054.358-.08.325-.121.51-.121.55v.332c.146-.133.256-.23.328-.287.13-.1.279-.15.448-.15.216 0 .374.065.475.196.078.1.117.237.117.404a.926.926 0 01-.226.593c-.174.173-.285.286-.33.336h.205c.149-.017.301-.096.458-.238l.32-.295v.135z" fill="#1D1D1B"/><path d="M46.667 65.242c0 .088-.083.206-.253.346-.165.142-.313.208-.441.208-.207 0-.331-.076-.38-.228-.066-.212-.12-.334-.156-.36-.13.186-.243.316-.347.392a.776.776 0 01-.503.164c-.157 0-.271-.06-.338-.18a.75.75 0 01-.082-.376c.013-.092.025-.18.036-.276.04-.212.095-.386.164-.52.099-.188.226-.282.376-.282a.12.12 0 01.077.026c.022.016.06.05.114.104-.078.068-.14.22-.184.46a7.152 7.152 0 01-.12.552v.328h.19a1.93 1.93 0 00.631-.668c.076-.184.152-.364.23-.546.071-.146.182-.222.331-.222h.07c.02 0 .04.004.06.004.024 0 .044-.004.065-.004v.264c-.074.068-.122.186-.15.352a2.638 2.638 0 01-.084.428v.36a.545.545 0 00.305-.082c.095-.066.196-.188.31-.374.054.034.079.076.079.13" fill="#1D1D1B"/><path d="M48 65.047c0 .127-.08.279-.24.45-.185.2-.385.299-.597.299-.152 0-.281-.077-.38-.23a.573.573 0 01-.116-.319v-.312c.046-.265.085-.463.121-.592.119-.392.254-.59.409-.59.08 0 .134.015.16.042.028.024.04.068.04.127a1.103 1.103 0 00-.007.108c0 .058-.037.273-.113.65-.076.377-.114.619-.114.722 0 .105.051.154.151.154.061 0 .14-.054.239-.164.137-.154.274-.306.41-.463a.105.105 0 01.028.03c.004.01.009.039.009.088m-.342-2.275c0 .098-.047.177-.139.243-.066.05-.123.075-.166.075a.3.3 0 01-.21-.088c-.064-.058-.096-.122-.096-.19s.032-.142.096-.22c.073-.084.158-.128.247-.128.112 0 .188.04.227.113.026.044.04.112.04.195M50 65.326c-.07.102-.175.202-.313.298-.167.114-.32.172-.46.172h-.336a.553.553 0 01-.34-.124.552.552 0 01-.218-.462c0-.052.105-.244.312-.578.207-.334.332-.502.366-.502.064 0 .105.014.116.038.007.008.009.032.009.072v.196c0 .08.072.188.215.328.145.142.218.282.218.42a2.643 2.643 0 01-.036.126c-.022.098-.045.164-.056.206.145-.018.237-.06.285-.13A.41.41 0 0150 65.21v.116zm-.894-.086v-.248a.504.504 0 00-.07-.194c-.03-.054-.057-.11-.089-.168a.397.397 0 00-.175.154c-.046.068-.089.14-.13.208.039.02.069.048.09.078.024.03.033.066.033.118a.28.28 0 01-.061.168c-.041.054-.061.088-.061.104 0 .022.015.046.048.072.03.03.056.04.074.04.046 0 .107-.028.187-.086.104-.074.154-.156.154-.246zm4.227-3.403a4.965 4.965 0 00-.517 1.603c-.11.718-.168 1.085-.178 1.111-.092.274-.305.412-.636.412-.221 0-.334-.082-.334-.247 0-.18.065-.41.203-.691.126-.245.254-.494.389-.751.133-.258.203-.455.203-.592 0-.038-.008-.07-.015-.105l-1.507 1.108h-.108v-.163l2.28-1.89h.22v.205zm3.334.584c0 .104-.053.205-.165.307-.023.023-.231.16-.614.404.213.14.366.241.452.308.149.118.225.293.225.522 0 .308-.148.556-.445.734-.295.176-.703.267-1.22.267-.55 0-.958-.087-1.225-.26-.23-.144-.341-.335-.341-.572 0-.122.086-.25.25-.39a2.77 2.77 0 01.466-.31c.089-.047.181-.09.272-.135a18.743 18.743 0 01-.35-.316.668.668 0 01-.116-.394c0-.193.125-.391.38-.595.297-.24.661-.36 1.079-.36.33 0 .629.07.9.208.303.154.452.348.452.582m-.78 1.793c0-.142-.101-.274-.31-.396a2.614 2.614 0 00-.573-.237 2.063 2.063 0 00-.313-.078c-.153 0-.306.089-.467.263-.14.161-.21.297-.21.404 0 .132.065.26.204.376.127.113.25.167.366.167h.675a.766.766 0 00.346-.117c.19-.108.283-.237.283-.382m.155-1.834c0-.156-.095-.283-.283-.383a.751.751 0 00-.341-.113c-.246 0-.454.05-.628.148-.174.1-.26.219-.26.348 0 .126.127.254.378.378.216.108.366.163.455.163a.682.682 0 00.529-.222c.101-.113.15-.219.15-.319m3.957.041c0 .104-.055.205-.169.307-.028.023-.232.16-.611.404.212.14.363.241.449.308.15.118.227.293.227.522 0 .308-.15.556-.445.734-.296.176-.702.267-1.22.267-.546 0-.955-.087-1.226-.26-.225-.144-.338-.335-.338-.572 0-.122.085-.25.25-.39.132-.108.282-.212.468-.31.088-.047.178-.09.268-.135-.113-.103-.231-.208-.347-.316a.638.638 0 01-.118-.394c0-.193.125-.391.38-.595.299-.24.66-.36 1.077-.36.331 0 .63.07.901.208.302.154.454.348.454.582m-.78 1.793c0-.142-.107-.274-.31-.396a2.71 2.71 0 00-.573-.237 1.872 1.872 0 00-.317-.078c-.149 0-.302.089-.461.263-.142.161-.213.297-.213.404 0 .132.067.26.203.376.13.113.25.167.368.167h.674c.089 0 .202-.04.346-.117.19-.108.283-.237.283-.382m.155-1.834c0-.156-.096-.283-.283-.383a.758.758 0 00-.34-.113c-.246 0-.457.05-.63.148-.172.1-.258.219-.258.348 0 .126.125.254.378.378.215.108.366.163.452.163a.688.688 0 00.53-.222c.102-.113.15-.219.15-.319m4.793.123c0 .29-.173.545-.515.772-.149.1-.482.263-1.002.493-.389.172-.61.319-.666.443l1.31.336c.064 0 .21-.074.447-.219a2.03 2.03 0 01.316-.16v.17c-.243.261-.457.432-.636.508-.18.077-.387.117-.62.117-.207 0-.443-.054-.703-.167-.263-.112-.467-.167-.61-.167-.042 0-.156.05-.334.152a1.69 1.69 0 01-.32.137v-.167c.163-.2.48-.464.965-.785.586-.387.96-.649 1.118-.786.362-.31.538-.607.538-.887 0-.148-.085-.272-.258-.376a.793.793 0 00-.396-.126c-.19 0-.387.052-.587.16-.262.14-.393.324-.393.548 0 .164.087.273.265.327.15.044.26.089.333.133-.073.054-.134.09-.166.108a.187.187 0 01-.09.028l-.08-.006a1.302 1.302 0 00-.153-.007c-.253 0-.43-.045-.542-.143a.488.488 0 01-.17-.397c0-.254.18-.48.542-.677.297-.16.552-.234.768-.234h.601c.211 0 .423.063.632.199.272.172.406.393.406.673" fill="#1D1D1B"/><g transform="translate(0 96.611)" fill="#fff"><mask id="b"><use xlink:href="#a"/></mask><path d="M3.04 3.46a.773.773 0 00-.148-.012H0v-.117c.123 0 .184-.04.184-.118V.26C.184.18.124.143 0 .143V.024h1.046v.12c-.112 0-.17.037-.17.115v2.59h2.016a.225.225 0 00.149-.046.146.146 0 00.058-.122h.11v.888H3.1c0-.064-.02-.101-.058-.109" mask="url(#b)"/></g><path d="M7.284 97.4c0-.09-.084-.137-.252-.137h-1.97v.712h1.244c.092 0 .16-.007.202-.018.045-.014.065-.044.065-.096h.144v.753h-.16c.016-.051-.004-.083-.064-.096a1.476 1.476 0 00-.25-.018h-1.18v.838h2.066c.067 0 .12-.013.162-.036.045-.03.066-.062.066-.107H7.5v.748h-.143c0-.043-.021-.066-.066-.073a1.477 1.477 0 00-.162-.008H4.167v-.124a.16.16 0 00.08-.026c.026-.017.04-.043.04-.08v-2.66c0-.038-.014-.063-.04-.08a.14.14 0 00-.08-.024v-.13h2.865c.168 0 .252-.04.252-.127h.147v.789h-.147zm6.228.193c0-.013 0-.022-.002-.03a.19.19 0 01-.004-.037c0-.026-.022-.058-.068-.1a.744.744 0 00-.192-.123 1.2 1.2 0 00-.293-.098 1.405 1.405 0 00-.371-.042c-.163 0-.31.024-.443.069a.932.932 0 00-.576.562 1.277 1.277 0 00-.081.472 1.189 1.189 0 00.33.844c.1.098.213.173.338.23.126.05.255.075.384.075.123 0 .244-.015.371-.051a2.42 2.42 0 00.345-.123 1.07 1.07 0 00.252-.153c.065-.054.097-.103.097-.148v-.06c0-.027 0-.051-.006-.073l.075-.072.499.785-.066.036a.336.336 0 00-.117-.036.436.436 0 00-.174.067 5.578 5.578 0 01-.308.15 2.457 2.457 0 01-.43.147 2.45 2.45 0 01-.551.06 1.99 1.99 0 01-.613-.099 1.457 1.457 0 01-.54-.307 1.592 1.592 0 01-.384-.527c-.1-.21-.15-.452-.15-.729a1.636 1.636 0 01.54-1.251c.162-.138.347-.247.557-.312.208-.072.424-.107.645-.107.17 0 .325.018.466.054.142.035.27.07.377.118.106.042.197.085.268.118a.43.43 0 00.156.053.08.08 0 00.058-.026.42.42 0 00.05-.036l.08.053-.444.705-.075-.058zm2.589-.982v.136c-.114 0-.173.033-.173.11v2.462h2.054a.27.27 0 00.152-.038.132.132 0 00.06-.113h.14v.774h-.14c0-.04-.02-.06-.06-.066-.04-.003-.092-.007-.152-.007H15v-.131c.13 0 .197-.038.197-.111v-2.77c0-.077-.066-.11-.197-.11v-.136h1.101zm3.983.136c-.093 0-.14.038-.14.115v1.726c0 .24.074.434.223.581.15.143.381.217.689.217.309 0 .536-.074.687-.217a.78.78 0 00.225-.58v-1.727c0-.077-.053-.115-.16-.115v-.136h.892v.136c-.095 0-.143.038-.143.113v1.904c0 .154-.029.304-.089.446a1.08 1.08 0 01-.272.38c-.123.109-.28.197-.47.26-.19.063-.413.093-.67.093-.257 0-.481-.03-.673-.093a1.308 1.308 0 01-.467-.26 1.087 1.087 0 01-.363-.826V96.86c0-.04-.013-.068-.038-.086-.026-.018-.075-.027-.148-.027v-.136h.917v.136zm4.194.026a.238.238 0 00-.112-.028v-.134h2.202c.18 0 .333.02.464.069a.93.93 0 01.325.184.72.72 0 01.193.27.814.814 0 01.023.57.955.955 0 01-.109.214c-.045.061-.096.12-.149.169a.807.807 0 01-.167.123v.008a.962.962 0 01.375.302c.052.073.096.15.129.24a.952.952 0 01-.016.64.72.72 0 01-.2.278 1.046 1.046 0 01-.362.196 1.814 1.814 0 01-.534.068h-2.174v-.132c.04 0 .077-.01.112-.027a.09.09 0 00.052-.087V96.86a.09.09 0 00-.052-.087zm1.99 1.154c.115 0 .22-.023.318-.073.1-.05.15-.155.15-.312a.398.398 0 00-.04-.192.31.31 0 00-.11-.112.29.29 0 00-.149-.054 1.028 1.028 0 00-.169-.012H25.01v.755h1.258zm-.014 1.454c.219 0 .366-.036.447-.109a.42.42 0 00.12-.322c0-.153-.052-.27-.157-.348-.102-.073-.277-.11-.523-.11h-1.13v.89h1.243zm4.579.43c.1 0 .154-.041.154-.114V96.86c0-.075-.054-.113-.154-.113v-.135h1.856c.263 0 .487.048.676.144.187.096.34.221.456.374.12.155.206.33.261.53.056.2.084.407.084.619a2.3 2.3 0 01-.082.615 1.496 1.496 0 01-.252.534 1.35 1.35 0 01-.448.374 1.43 1.43 0 01-.668.141h-1.883v-.132zm1.662-.429c.139 0 .27-.01.394-.032a.699.699 0 00.329-.15.802.802 0 00.222-.342 1.76 1.76 0 00.084-.602c0-.25-.028-.451-.084-.595a.745.745 0 00-.222-.326.692.692 0 00-.329-.137 3.064 3.064 0 00-.394-.025h-.868v2.21h.868zm5.622-1.982c0-.09-.084-.137-.251-.137h-1.97v.712h1.24a.903.903 0 00.205-.018c.043-.014.065-.044.065-.096h.144v.753h-.16c.016-.051-.006-.083-.066-.096a1.447 1.447 0 00-.25-.018h-1.179v.838h2.068a.335.335 0 00.161-.036c.043-.03.066-.062.066-.107h.143v.748h-.143c0-.043-.023-.066-.066-.073a1.533 1.533 0 00-.161-.008H35v-.124a.164.164 0 00.08-.026c.027-.017.039-.043.039-.08v-2.66c0-.038-.012-.063-.039-.08a.146.146 0 00-.08-.024v-.13h2.866c.167 0 .251-.04.251-.127h.145v.789h-.145z" fill="#fff"/><path d="M38.82 98.784c0 .02 0 .042-.002.062-.005.023-.005.047-.005.074 0 .074.049.14.143.2.095.066.207.115.34.157.13.043.265.078.396.103.134.025.235.038.312.038.069 0 .156-.009.257-.016a1.61 1.61 0 00.303-.064.794.794 0 00.256-.132.29.29 0 00.104-.23c0-.107-.06-.185-.183-.237a2.173 2.173 0 00-.46-.114c-.185-.026-.385-.05-.598-.08a3.15 3.15 0 01-.6-.134 1.239 1.239 0 01-.461-.268c-.122-.116-.185-.281-.185-.493 0-.317.134-.57.4-.757.262-.188.634-.282 1.114-.282.235 0 .435.018.601.057.169.035.31.075.425.122.115.043.208.083.281.12a.398.398 0 00.159.056c.041 0 .072-.004.092-.018a.484.484 0 01.075-.04l.083.08-.376.7-.134-.047c-.007-.027-.01-.058-.016-.087-.006-.03-.028-.06-.068-.09-.099-.084-.253-.156-.462-.216a2.654 2.654 0 00-.99-.07.836.836 0 00-.24.065.412.412 0 00-.163.112.27.27 0 00-.061.174c0 .112.06.188.184.234.12.047.275.085.46.114.184.027.385.054.6.08.214.027.412.074.599.14.185.062.337.155.458.28.123.121.185.295.185.512a.84.84 0 01-.16.534c-.11.14-.24.247-.4.328-.162.078-.337.13-.53.154a3.879 3.879 0 01-.543.038c-.17 0-.337-.016-.504-.047a5.592 5.592 0 01-.457-.112 6.36 6.36 0 01-.348-.12.844.844 0 00-.172-.054.113.113 0 00-.092.045l-.104-.076.344-.83.143.035zm10.244-1.944c0-.076-.052-.112-.157-.112v-.116H50v.116a.166.166 0 00-.09.026c-.026.021-.036.048-.036.086v2.874c0 .037.01.065.036.084.026.02.058.03.09.03v.115h-1.093v-.114c.105 0 .157-.038.157-.115v-1.19h-2.286v1.19c0 .037.013.065.04.084.025.02.056.03.09.03v.115h-1.075v-.114c.092 0 .136-.038.136-.115V96.84c0-.076-.044-.112-.136-.112v-.116h1.074v.116a.163.163 0 00-.09.026.101.101 0 00-.04.086v1.078h2.287V96.84zm1.769 2.969a.2.2 0 00.124-.091.71.71 0 00.075-.132l.942-2.459.06-.17a.376.376 0 00.021-.126c0-.03-.003-.048-.015-.057-.01-.01-.02-.014-.032-.025v-.137h.955v.137a.11.11 0 01-.042.02c-.013.005-.02.027-.02.062 0 .03.009.066.028.11.019.042.038.09.06.148l1.025 2.574a.3.3 0 00.07.098c.025.02.054.034.082.048v.134h-.9v-.114a.126.126 0 00.067-.02c.025-.018.036-.043.036-.084 0-.03-.005-.06-.013-.085-.01-.023-.02-.059-.032-.098l-.17-.43h-1.358l-.177.406c-.015.043-.03.077-.042.111a.324.324 0 00-.013.089c0 .038.007.063.03.073a.173.173 0 00.09.018v.134h-.851v-.134zm2.117-1.258l-.513-1.276-.45 1.276h.963zm2.967-1.804c-.093 0-.139.038-.139.115v1.726c0 .24.073.434.224.581.149.143.379.217.688.217.307 0 .534-.074.685-.217a.786.786 0 00.228-.58v-1.727c0-.077-.058-.115-.162-.115v-.136h.892v.136c-.096 0-.143.038-.143.113v1.904a1.085 1.085 0 01-.363.826 1.331 1.331 0 01-.467.26 2.122 2.122 0 01-.67.093c-.26 0-.483-.03-.672-.093a1.316 1.316 0 01-.47-.26 1.071 1.071 0 01-.272-.38 1.171 1.171 0 01-.09-.446V96.86c0-.04-.012-.068-.038-.086-.025-.018-.075-.027-.148-.027v-.136h.917v.136zm4.511 3.045c.025-.017.04-.045.04-.084v-2.39h-.995a.239.239 0 00-.115.028c-.037.022-.055.048-.055.093h-.136v-.827h.136c0 .068.018.116.055.138a.206.206 0 00.115.037h2.723a.206.206 0 00.115-.037c.035-.022.053-.07.053-.138h.136v.827h-.136c0-.045-.018-.071-.053-.093a.239.239 0 00-.115-.028H61.2v2.39c0 .071.049.11.143.11v.125h-.992v-.125a.13.13 0 00.078-.026m3.391-1.008a.49.49 0 01-.005.062c-.002.023-.002.047-.002.074 0 .074.05.14.144.2.095.066.205.115.339.157.135.043.263.078.396.103.135.025.237.038.311.038.07 0 .156-.009.26-.016.1-.011.202-.033.304-.064a.764.764 0 00.252-.132.29.29 0 00.106-.23c0-.107-.06-.185-.185-.237a2.128 2.128 0 00-.46-.114c-.184-.026-.385-.05-.599-.08a3.228 3.228 0 01-.6-.134 1.222 1.222 0 01-.46-.268c-.123-.116-.184-.281-.184-.493 0-.317.135-.57.397-.757.266-.188.637-.282 1.118-.282.234 0 .435.018.601.057a2.887 2.887 0 01.708.243c.07.037.124.055.158.055.042 0 .072-.004.092-.018a.48.48 0 01.075-.04l.08.08-.373.7-.136-.047-.015-.087c-.005-.03-.027-.06-.066-.09-.099-.084-.257-.156-.464-.216a2.656 2.656 0 00-.706-.09c-.099 0-.195.01-.281.02a.87.87 0 00-.244.065.428.428 0 00-.164.112.262.262 0 00-.059.174c0 .112.06.188.185.234.12.047.273.085.457.114.185.027.386.054.602.08.212.027.413.074.598.14.184.062.338.155.461.28.122.121.185.295.185.512a.84.84 0 01-.164.534c-.106.14-.239.247-.399.328-.16.078-.336.13-.53.154a3.898 3.898 0 01-.54.038c-.172 0-.341-.016-.508-.047a5.877 5.877 0 01-.455-.112 5.532 5.532 0 01-.35-.12.819.819 0 00-.173-.054.114.114 0 00-.09.045l-.104-.076.345-.83.142.035z" fill="#fff"/><mask id="d" fill="#fff"><use xlink:href="#c"/></mask><path fill="#fff" mask="url(#d)" d="M67.5 99.11h1.667v-.833H67.5zm2.5.701c.1 0 .154-.041.154-.114V96.86c0-.075-.053-.113-.154-.113v-.135h1.857c.263 0 .486.048.673.144.186.096.34.221.46.374.116.155.203.33.259.53a2.357 2.357 0 01.002 1.234 1.55 1.55 0 01-.253.534c-.117.15-.263.278-.446.374a1.43 1.43 0 01-.67.141H70v-.132zm1.662-.429c.138 0 .269-.01.393-.032a.698.698 0 00.33-.15.793.793 0 00.223-.342c.054-.148.082-.352.082-.602s-.028-.451-.082-.595a.737.737 0 00-.223-.326.691.691 0 00-.33-.137 3.065 3.065 0 00-.393-.025h-.869v2.21h.869zm5.62-1.982c0-.09-.085-.137-.25-.137h-1.969v.712h1.243a.868.868 0 00.201-.018c.044-.014.066-.044.066-.096h.146v.753h-.163c.017-.051-.005-.083-.06-.096a1.547 1.547 0 00-.253-.018h-1.18v.838h2.066a.34.34 0 00.163-.036c.043-.03.063-.062.063-.107h.145v.748h-.145c0-.043-.02-.066-.063-.073a1.554 1.554 0 00-.163-.008h-2.962v-.124a.172.172 0 00.082-.026c.027-.017.04-.043.04-.08v-2.66c0-.038-.013-.063-.04-.08a.152.152 0 00-.082-.024v-.13h2.865c.165 0 .25-.04.25-.127h.148v.789h-.148zm1.051 1.71H80v-.833h-1.667zm2.849-.215l.063.032c0 .04.01.071.025.1.032.05.087.1.175.147.086.047.185.092.298.128.112.035.228.065.35.09.125.022.233.035.33.035.073 0 .166-.007.28-.017a1.66 1.66 0 00.337-.065.895.895 0 00.284-.139.268.268 0 00.122-.228c0-.098-.036-.166-.111-.212a.786.786 0 00-.292-.1 3.164 3.164 0 00-.412-.04c-.154-.008-.312-.016-.473-.029a3.933 3.933 0 01-.473-.062 1.386 1.386 0 01-.411-.146.815.815 0 01-.292-.28.874.874 0 01-.11-.464c0-.129.03-.257.09-.38a.908.908 0 01.283-.33c.13-.095.288-.174.482-.234a2.4 2.4 0 01.685-.09c.223 0 .418.017.584.047.164.035.307.071.427.108.12.038.221.074.305.105.082.034.15.051.206.051.059 0 .1-.011.128-.036l.074.05-.437.777-.065-.024a.333.333 0 00-.05-.145.565.565 0 00-.165-.146c-.08-.047-.17-.09-.278-.13a2.115 2.115 0 00-.342-.087 1.87 1.87 0 00-.366-.034c-.096 0-.19.007-.29.02a1.535 1.535 0 00-.269.066.548.548 0 00-.2.114.24.24 0 00-.08.18c0 .098.036.173.112.225a.82.82 0 00.29.11c.122.025.257.042.414.051.153.008.31.02.471.03.16.013.318.034.47.064.155.034.293.082.413.15a.838.838 0 01.296.279c.07.118.106.266.106.455 0 .214-.057.39-.173.529a1.22 1.22 0 01-.433.322 1.96 1.96 0 01-.559.16 4.097 4.097 0 01-.562.04c-.24 0-.444-.012-.607-.04a2.096 2.096 0 01-.406-.1 2.198 2.198 0 01-.256-.105.405.405 0 00-.165-.047c-.029 0-.058.017-.082.051l-.09-.05.349-.756zm7.767-1.495c0-.09-.083-.137-.25-.137h-1.97v.712h1.244a.884.884 0 00.201-.018c.044-.014.063-.044.063-.096h.149v.753h-.163c.014-.051-.005-.083-.063-.096a1.52 1.52 0 00-.253-.018H86.73v.838h2.066a.328.328 0 00.16-.036c.047-.03.066-.062.066-.107h.145v.748h-.145c0-.043-.02-.066-.066-.073a1.494 1.494 0 00-.16-.008h-2.962v-.124a.16.16 0 00.08-.026c.029-.017.04-.043.04-.08v-2.66c0-.038-.011-.063-.04-.08a.14.14 0 00-.08-.024v-.13h2.865c.168 0 .25-.04.25-.127h.148v.789h-.148zM90 99.809c.06 0 .1-.009.122-.028.021-.017.033-.047.033-.086V96.86c0-.04-.012-.068-.033-.086-.021-.018-.063-.027-.122-.027v-.135h.833v.135c-.1 0-.153.036-.153.113v2.835c0 .073.053.114.153.114v.134H90v-.134zm2.5 0c.08 0 .12-.041.12-.114V96.86c0-.077-.04-.113-.12-.113v-.135h.973v.135c-.032.004-.048.018-.048.036 0 .03.05.096.145.205l1.589 1.928V96.86c0-.077-.044-.113-.134-.113v-.135h.808v.135c-.08 0-.12.036-.12.113v2.835c0 .073.04.114.12.114v.134h-.86v-.134c.032 0 .046-.014.046-.041 0-.018-.018-.055-.063-.105-.038-.05-.088-.107-.142-.173l-1.641-2v2.205c0 .073.05.114.139.114v.134H92.5v-.134zm7.281-2.409c0-.09-.085-.137-.25-.137h-1.969v.712h1.243a.83.83 0 00.201-.018c.044-.014.066-.044.066-.096h.146v.753h-.163c.017-.051-.005-.083-.063-.096a1.505 1.505 0 00-.253-.018h-1.177v.838h2.066a.33.33 0 00.16-.036c.046-.03.066-.062.066-.107H100v.748h-.146c0-.043-.02-.066-.066-.073a1.506 1.506 0 00-.16-.008h-2.962v-.124a.158.158 0 00.08-.026.09.09 0 00.041-.08v-2.66a.088.088 0 00-.041-.08.14.14 0 00-.08-.024v-.13h2.865c.165 0 .25-.04.25-.127h.148v.789h-.148z"/></g></svg>