<svg viewBox="0 0 38 48" xmlns="http://www.w3.org/2000/svg" xmlns:xlink="http://www.w3.org/1999/xlink"><defs><path id="a" d="M0 1.857h37.295v19.611H0z"/></defs><g fill="none" fill-rule="evenodd"><g transform="translate(0 -.702)"><mask id="b" fill="#fff"><use xlink:href="#a"/></mask><path d="M37.204 20.155a.574.574 0 01-.046-.092.29.29 0 00.016-.08.35.35 0 00-.088-.218.515.515 0 00.004-.172c-.002-.003-.002-.01-.004-.013a.468.468 0 00-.076-.206 2.11 2.11 0 01-.044-.094.254.254 0 00.018-.09c-.002-.089-.052-.173-.126-.254a2.823 2.823 0 01-.01-.121c.01-.198.008-.39-.001-.587-.036-.58-.15-1.156-.207-1.735-.08-.811-.187-1.62-.259-2.434a11.967 11.967 0 00-.104-.821 15.24 15.24 0 00-.247-1.285 15.764 15.764 0 00-1.78-4.346c-.286-.487-.683-.873-1.07-1.27-.04-.038-.078-.078-.116-.117-.027-.028-.065-.057-.105-.092a3.506 3.506 0 00-.129-.092s.048.032 0-.004c-.072-.05-.154-.1-.247-.158-1.007-.59-3.066-1.41-3.718-1.607-1.887-.839-3.838-1.675-4.758-2.195-.256-.146-.594-.21-.921-.215a3.45 3.45 0 00-.323.023c-1.406.185-2.81.277-4.216.283a33.381 33.381 0 01-4.214-.283 3.456 3.456 0 00-.322-.023c-.328.006-.667.07-.925.215-.918.52-2.869 1.356-4.756 2.195-.712.215-3.102 1.173-3.965 1.765v.004a1.385 1.385 0 00-.234.185 4.176 4.176 0 00-.114.117c-.39.396-.786.782-1.073 1.269a15.816 15.816 0 00-1.779 4.346c-.102.425-.18.854-.245 1.285-.043.273-.083.546-.108.82-.072.814-.177 1.624-.256 2.435-.06.58-.171 1.154-.206 1.735a4.646 4.646 0 00-.002.587c-.003.038-.007.08-.013.12-.074.082-.121.164-.121.255-.002.03.003.06.015.09a.874.874 0 01-.046.094.52.52 0 00-.076.206c-.002.004-.002.01-.002.013a.431.431 0 00.004.172c-.055.07-.091.144-.087.219 0 .027.005.052.015.079-.02.042-.032.075-.046.092a.525.525 0 00-.091.277c-.004.1.023.198.097.26l.025.019c.112.09.247.175.39.25.301.16.628.282.809.356.074.028.231.084.44.151-.003-.18-.007-.36.002-.538.034-.688.15-1.37.207-2.052.08-.961.188-1.92.26-2.88.025-.326.063-.649.107-.972.068-.511.146-1.017.249-1.521a20.73 20.73 0 011.797-5.14c.082-.162.198-.31.323-.452v-.004a.81.81 0 01.008.067 7.693 7.693 0 015.778-2.61h16.31a7.676 7.676 0 015.78 2.599.561.561 0 01.007-.056l.002.004c.126.142.24.29.321.452a20.73 20.73 0 011.798 5.14c.102.504.18 1.01.247 1.521.045.323.083.646.108.971.074.962.18 1.92.26 2.881.057.685.175 1.364.207 2.052.01.179.006.358.002.539.207-.068.365-.124.441-.152.18-.073.507-.197.808-.356.144-.075.279-.158.391-.25.008-.006.017-.012.025-.02.074-.06.1-.159.097-.259a.542.542 0 00-.092-.277" fill="#C2E0F3" mask="url(#b)"/></g><path d="M25.758 2.21a7.099 7.099 0 01-1.096-.638c-.105-.075-.21-.148-.306-.233-.034-.027-.069-.046-.105-.069-.03-.021-.059-.044-.093-.062-.034-.019-.074-.034-.11-.051a1.121 1.121 0 00-.093-.037 1.378 1.378 0 00-.127-.035.917.917 0 00-.1-.023 1.608 1.608 0 00-.138-.017l-.032-.006.005.004c-.005-.002-.01-.002-.017-.002l-.013-.002.004.002h-.002c-.023-.01-.038-.017-.06-.025-.01-.002-.018-.002-.027-.002a.207.207 0 00-.035-.004l.006.002-.028-.002c-.006-.002-.012-.003-.018-.007h-.064c-.03 0-.059.002-.09.004a1.972 1.972 0 00-.11-.004c-.013 0-.028-.002-.045 0-.81.034-1.62.08-2.43.09-.654.008-1.308.023-1.961.035-.652-.012-1.305-.027-1.959-.035-.81-.01-1.619-.056-2.428-.09-.017-.002-.033 0-.048 0-.038 0-.074.002-.108.004-.03-.002-.059-.004-.09-.004-.016-.002-.032 0-.045 0h-.019a.079.079 0 01-.019.007l-.028.002.005-.002c-.011 0-.02.002-.034.004l.008-.004-.027.002c-.025.008-.04.018-.06.025-.01.002-.02.002-.03.002h-.003a.37.37 0 00-.029.006 2 2 0 00-.138.017.853.853 0 00-.1.023 1.34 1.34 0 00-.22.072c-.037.017-.075.032-.112.051-.032.018-.06.04-.09.062-.037.023-.073.042-.105.07-.099.084-.202.157-.306.232a5.056 5.056 0 01-.298.2 7.381 7.381 0 01-.798.438c-.01.006-.01.027-.008.048l.01.037a1.633 1.633 0 00.123.279h.002c1.29 1.527 3.756 2.777 3.756 2.777l-.002-.002c.432.286.903.579 1.418.865.121.073.25.152.363.218.868.507 1.4.742 1.406.744h.001c.004 0 .008-.002.012-.006l.011.006.264-.139c.175-.086.418-.213.722-.382.12-.066.257-.137.41-.218.022-.013.043-.023.067-.036l.31-.187a21.32 21.32 0 001.42-.867l-.003.004s2.463-1.25 3.755-2.775c0 0 .002 0 .002-.002l.045-.09c.023-.047.042-.085.053-.12a.968.968 0 00.027-.075c.004-.011.006-.023.008-.032.002-.02.003-.04-.006-.047" fill="#fff"/><path d="M26.492 13.79H10.857c-1.82 0-3.397.715-4.212 1.992.298 1.08.566 1.975.745 2.573.066.243.13.437.182.608.047.385.085.77.131 1.154.042.348.097.692.152 1.04.397 4.618.247 9.248.087 13.873-.062 1.873-.186 3.739-.296 5.61a19.55 19.55 0 00-.019.342c-.006.079-.01.16-.015.24-.006.149-.013.297-.023.447-.019.319-.038.638-.053.957a6.206 6.206 0 00-.002.324c-.084.369-.152.742-.139 1.124a.935.935 0 01-.032.252c-.11.397-.217.793-.192 1.212 0 .008.004.013.004.021.036.842.365 1.22 1.337 1.45 1.013.242 2.083.385 3.122.36h.034a87.457 87.457 0 003.95-.206c.821-.054 1.644-.112 2.463-.16.144-.007.29-.01.433-.011.05 0 .1-.004.15-.004.194 0 .39.004.583.015 2.138.125 4.273.318 6.411.366 1.009.023 2.044-.112 3.029-.345.047-.005.093-.003.138-.015.931-.221 1.27-.577 1.33-1.346a.418.418 0 00.023-.125c.027-.42-.082-.816-.19-1.212a.805.805 0 01-.032-.252c.011-.382-.055-.755-.139-1.125.002-.1.004-.205-.002-.323l-.053-.957c-.008-.15-.015-.298-.025-.446-.005-.081-.01-.162-.013-.24-.008-.116-.013-.23-.019-.343-.11-1.871-.234-3.737-.298-5.61-.158-4.625-.31-9.256.089-13.873.053-.348.11-.692.152-1.04.048-.385.082-.77.131-1.154.051-.171.114-.365.18-.608a99.17 99.17 0 00.747-2.573c-.815-1.277-2.394-1.992-4.214-1.992" fill="#C2E0F3"/><path d="M7.415 43.748c-.008.11-.023.215-.02.327a.935.935 0 01-.032.252c-.11.396-.216.792-.192 1.211 0 .008.002.012.004.02.036.844.365 1.22 1.338 1.451 1.012.243 2.082.385 3.121.36h.035a87.457 87.457 0 003.95-.206c.82-.054 1.643-.111 2.462-.161a8.14 8.14 0 01.433-.01c.05 0 .101-.004.15-.004.194 0 .388.004.584.014 2.137.127 4.273.317 6.41.367 1.01.023 2.045-.111 3.029-.344.047-.006.093-.004.139-.016.93-.22 1.27-.576 1.33-1.346a.418.418 0 00.022-.125c.027-.419-.081-.815-.19-1.211a.805.805 0 01-.032-.252c.004-.112-.011-.22-.019-.33-9.515-.272-18.326-.11-22.523.003m.607-11.198c-.025.829-.05 1.654-.078 2.48-.032.928-.095 1.855-.146 2.782 4.195-.21 12.413-.475 21.759.002-.051-.927-.118-1.854-.148-2.783-.029-.829-.051-1.656-.078-2.485-8.848-.296-17.005-.13-21.308.004m-.298-12.294c.04.3.084.6.131.902.154 1.79.211 3.586.23 5.383 4.237-.247 12.173-.531 21.18.005.02-1.798.075-3.596.231-5.388.046-.302.093-.606.131-.908-9.177-.38-17.645-.161-21.903.006" fill="#fff"/><path d="M35.558 20.228c-.034-.688-.15-1.367-.207-2.052-.08-.961-.186-1.92-.26-2.88a15.171 15.171 0 00-.109-.972 20.293 20.293 0 00-.249-1.521 20.624 20.624 0 00-1.795-5.14 2.264 2.264 0 00-.321-.454l-.004-.002c-.004.015-.006.034-.01.054a7.678 7.678 0 00-5.775-2.598h-16.31a7.682 7.682 0 00-5.775 2.61l-.011-.066s-.002 0-.002.002a2.354 2.354 0 00-.323.454 20.7 20.7 0 00-1.795 5.14c-.105.502-.183 1.01-.25 1.521-.043.323-.081.646-.106.971-.072.962-.18 1.92-.26 2.881-.057.683-.173 1.364-.207 2.052-.01.179-.006.358-.002.537.435.14 1.108.325 1.805.426H3.6c.098.016.216.027.338.037h.004c.002.002.005.002.01.002.288.021.619.034.951.04l.09.002h.425l.205-.004h.053c.088-.004.173-.005.251-.01.308-.013.519-.032.528-.059.314-.048.506-.15.61-.335.07-.123.105-.284.105-.494v-.057c-.002-.322-.027-.356-.095-.231a.841.841 0 00.076-.216c.017-.08.024-.173.024-.278v-.058c-.001-.321 0-.642.042-.96l.14-.173.012-.015a.05.05 0 01.01-.012c.004-.004.005-.007.01-.011-.039-.125-.08-.266-.126-.416-.006-.015-.008-.03-.013-.048l-.133-.444c-.014-.046-.025-.088-.038-.135-.046-.152-.09-.31-.14-.477a13.87 13.87 0 00-.049-.169c-.038-.142-.081-.288-.123-.438a24.49 24.49 0 01-.074-.266l-.051-.184c.817-1.277 2.394-1.993 4.214-1.993H26.49c1.82 0 3.399.716 4.212 1.993-.019.079-.011.048-.05.184-.026.09-.049.18-.073.266-.044.15-.084.296-.126.438a3.572 3.572 0 01-.05.17c-.045.167-.092.324-.136.476l-.04.135-.131.444a.629.629 0 00-.013.048c-.044.15-.088.29-.126.416l.012.011c.002.006.005.008.005.012l.014.015.14.175c.04.316.044.637.042.958l.002.044v.014c0 .105.008.198.025.278.015.081.04.154.074.216-.069-.125-.093-.09-.095.23l.002.045v.013c-.002.21.032.371.102.494.105.185.299.287.612.335.008.027.217.046.526.06l.251.01h.051c.069.001.137.003.208.003h.425l.09-.002c.331-.004.664-.019.95-.04h.012c0-.002.002-.002.002-.002.123-.01.24-.021.34-.037h.007a11.684 11.684 0 001.805-.427 7.078 7.078 0 00-.001-.536" fill="#fff"/><path d="M18.664 7.1l.006.003.01-.002h.001l.236-.125c.148-.075.393-.2.72-.383l.477-.254c.097-.057.203-.12.308-.184.486-.272.96-.562 1.415-.866l.281-.188-.038.061c.646-.352 2.46-1.41 3.496-2.628l.032-.068c.027-.056.046-.094.06-.129.007-.023.017-.048.022-.067l.002-.013a6.347 6.347 0 01-.59-.316c-.062-.034-.12-.07-.18-.107a6.452 6.452 0 01-.302-.206l-.047-.033a5.036 5.036 0 01-.262-.202.384.384 0 00-.063-.042l-.063-.042a.388.388 0 00-.058-.039.821.821 0 00-.08-.038l-.027-.012a4.452 4.452 0 00-.09-.035c-.037-.013-.077-.023-.117-.034a1.725 1.725 0 00-.097-.02h-.008l-.205-.03c-.004 0-.015-.006-.026-.01l-.063-.011v.002l-.046-.006c-.019-.004-.028-.004-.036-.004l-.142.002-.078-.002h-.046c-.19.008-.382.017-.572.027-.61.029-1.24.056-1.86.063-.475.006-.95.016-1.425.023l-.534.012-.537-.012c-.475-.007-.95-.017-1.423-.023a53.47 53.47 0 01-1.86-.063c-.19-.01-.382-.02-.574-.027h-.046c-.026 0-.051 0-.078.002l-.026.002-.093-.004h-.046l-.03.008-.075.004-.013.005c-.01.004-.02.01-.032.014l-.017.004-.06.005c-.047.006-.088.014-.132.02a1.238 1.238 0 00-.097.019c-.042.011-.082.021-.122.034a2.104 2.104 0 01-.087.035l-.023.01c-.028.013-.057.025-.082.04a.405.405 0 00-.06.039l-.027.019a.357.357 0 00-.038.025c-.019.013-.04.023-.06.04a5.071 5.071 0 01-.265.202l-.044.033c-.1.07-.2.14-.304.206-.057.034-.117.073-.178.107-.198.12-.397.225-.591.316l.002.019c.004.011.01.025.013.038.03.075.065.146.107.223 1.048 1.239 2.912 2.312 3.526 2.645l-.025-.045.232.154c.464.31.925.59 1.414.864l.098.057c.092.056.18.112.265.16.765.446 1.263.68 1.373.73l.004-.001zm-.02.157l-.02-.02a16.223 16.223 0 01-1.672-.905l-.097-.06c-.484-.267-.944-.55-1.406-.858l-.006-.002C15.42 5.4 12.951 4.14 11.666 2.62l-.01-.015a1.882 1.882 0 01-.108-.231c-.01-.029-.018-.046-.022-.06-.004-.017-.008-.032-.01-.046-.004-.033-.007-.096.046-.12a7.366 7.366 0 00.79-.434c.099-.063.2-.127.297-.198l.043-.032c.086-.064.175-.127.257-.197a.615.615 0 01.076-.053l.057-.037c.025-.02.05-.035.074-.05.03-.015.063-.03.095-.044l.023-.01.097-.04c.043-.014.089-.023.133-.035a.969.969 0 01.104-.023 3.52 3.52 0 01.143-.021l.07-.012.038-.015.017-.004.12-.01h.045l.168-.01-.01.007.055-.004-.015.008h.047c.192.007.382.017.574.026.608.027 1.237.056 1.857.064.475.006.948.015 1.423.025l.535.008.532-.008c.475-.01.95-.02 1.425-.025.618-.008 1.247-.037 1.857-.064.188-.01.382-.019.572-.026h.049l-.017-.008.182.01.029-.002h.028l.109.01.002.01.001-.005-.001.011.019.002.003-.017.03.006c.014.004.025.01.035.013l.055.008.156.023a1.3 1.3 0 01.104.023l.13.035.098.04.025.012a.502.502 0 01.167.092l.057.037a.815.815 0 01.078.053c.082.07.167.133.253.197l.047.034c.097.07.196.133.297.196a7.703 7.703 0 00.788.435h.002c.05.023.046.084.044.113l-.006.037c-.008.03-.019.06-.03.09a1.992 1.992 0 01-.106.22l-.012.015c-1.283 1.515-3.747 2.775-3.773 2.788l-.008.004c-.452.302-.925.593-1.406.858-.105.063-.21.129-.31.186l-.07.04-.409.216a16.6 16.6 0 01-.723.383l-.287.154-.017-.008-.03.012z" fill="#000"/><path d="M11.825 2.087c-.078.04-.154.086-.234.123-.01.005-.01.027-.007.05a.49.49 0 00.028.09 1.882 1.882 0 00.105.225h.002c.01.013.024.025.034.036 2.048.381 4.36.608 6.836.608 2.56 0 4.944-.242 7.043-.646l.044-.09a.871.871 0 00.053-.12.749.749 0 00.027-.075.109.109 0 00.007-.03c.002-.021.004-.043-.005-.048-.093-.043-.18-.095-.27-.14-1.984.353-4.328.568-6.882.568-2.508 0-4.82-.207-6.781-.551" fill="#000"/><path d="M11.611 2.31a1.804 1.804 0 00.106.227h.002c1.288 1.525 3.755 2.775 3.755 2.775l-.002-.002c.433.287.902.577 1.417.865.124.075.251.152.365.218.868.507 1.398.742 1.404.746l.002-.002v.002l.013-.006a.03.03 0 01.012.006c.019-.012.076-.042.262-.14.175-.087.418-.214.722-.383.121-.066.256-.135.41-.218.023-.011.042-.025.067-.038.099-.058.205-.121.31-.185a20.95 20.95 0 001.419-.865l-.002.002s2.462-1.248 3.754-2.773c0-.002.002-.002.002-.002a.83.83 0 00.046-.092 1.51 1.51 0 00.055-.12c.011-.028.019-.055.025-.075l.007-.032c.002-.021.004-.04-.006-.045a7.4 7.4 0 01-.62-.33 6.484 6.484 0 01-.476-.308 5.146 5.146 0 01-.306-.233c-.034-.029-.068-.048-.104-.07-.029-.02-.06-.045-.091-.062-.037-.022-.076-.035-.113-.052-.032-.014-.06-.027-.093-.039a2.392 2.392 0 00-.125-.032c-.034-.008-.067-.016-.1-.022-.044-.01-.092-.015-.138-.02l-.034-.007.006.004c-.006 0-.011 0-.017-.002-.004 0-.008 0-.013-.002.001.002.001.002.003.002l-.062-.005c.123.044.235.086.334.136h.002c.104.05.196.102.274.16.013.007.02.017.034.027.045.036.085.073.123.113.014.014.033.025.044.039a.832.832 0 01.106.173c.004.01.012.017.016.029.013.032.017.067.022.103.114.187-.51 1.173-1.755 2.262a13.528 13.528 0 01-3.985 2.404v-.02a.175.175 0 00-.015.01.175.175 0 00-.015-.01v.02a13.512 13.512 0 01-3.984-2.402c-1.245-1.089-1.87-2.077-1.758-2.264.006-.036.01-.07.023-.104.004-.011.013-.019.017-.028a.72.72 0 01.107-.174c.011-.013.028-.025.041-.038a.5.5 0 01.048-.042c.025-.023.047-.048.078-.071l.01-.01c.005-.004.013-.012.022-.017a1.72 1.72 0 01.274-.16h.003a2.92 2.92 0 01.34-.138.964.964 0 00-.089.007V.998L13.788 1c-.011 0-.02.002-.03.004a1.458 1.458 0 00-.137.021 1.38 1.38 0 00-.102.021c-.044.01-.084.022-.126.033a1.3 1.3 0 00-.091.039c-.04.017-.076.03-.114.051-.032.018-.06.043-.091.062-.034.023-.072.042-.103.071a4.974 4.974 0 01-.308.233c-.095.07-.197.134-.298.2-.059.036-.116.073-.177.108a7.19 7.19 0 01-.62.33c-.01.004-.01.023-.009.046.002.012.006.024.01.039l.019.052" fill="#fff"/><path d="M15.473 5.319l-.798-1.27-1.613-2.569c.011-.015.03-.027.044-.04l.045-.04c.027-.026.05-.049.078-.072l.012-.008a.081.081 0 01.022-.02 1.97 1.97 0 01.272-.158l.004-.002c.104-.048.222-.096.351-.139V1c.002 0 .004 0 .006-.002.004 0 .008-.002.011-.003a1.13 1.13 0 00-.117.01V1c-.001.002-.003.002-.005.002-.008 0-.015.002-.025.004h-.004a1.726 1.726 0 00-.138.021 1.379 1.379 0 00-.226.054c-.03.013-.061.025-.094.037-.024.011-.05.025-.076.036l-.034.017c-.01.004-.015.01-.025.016a.712.712 0 00-.068.046l-.08.052-.024.017c-.097.083-.202.158-.304.233a6.314 6.314 0 01-.3.202c-.058.034-.117.073-.175.106-.1.06-.2.105-.299.16-.108.057-.213.118-.323.17-.011.004-.011.027-.007.052.002.01.003.025.01.04a1.754 1.754 0 00.123.28c1.292 1.526 3.758 2.776 3.758 2.776l-.002-.003z" fill="#fff"/><path d="M11.622 2.205c0 .004 0 .01.002.015 0 .01.004.02.007.033s.01.029.016.044l.003.01c.023.061.057.135.103.215 1.094 1.297 3.072 2.406 3.604 2.69l-2.344-3.736.019-.025a.073.073 0 01.028-.025c.006-.006.012-.01.015-.015.016-.014.029-.025.042-.039.017-.015.027-.02.036-.032a1.05 1.05 0 01.052-.045l.036.025-.027-.034a1.693 1.693 0 01.304-.18l.01-.009h.003l.044-.019-.047.012a2.25 2.25 0 00-.122.032.548.548 0 00-.078.031l-.011.006c-.027.011-.05.023-.076.033l-.015.007a.057.057 0 00-.02.008l-.009.008-.008.005a.692.692 0 00-.055.039l-.049.03-.046.033a.04.04 0 00-.011.008l-.01.006c-.087.075-.182.142-.273.208l-.032.026c-.097.07-.194.131-.304.202l-.175.11-.196.104a1.33 1.33 0 00-.106.054c-.033.019-.067.034-.1.054-.066.036-.132.073-.2.107l-.01.004zm3.99 3.233l-.156-.08c-.024-.01-2.489-1.27-3.77-2.784l-.007-.015a1.927 1.927 0 01-.106-.223l-.004-.012a.654.654 0 01-.027-.092c-.002-.017-.006-.05.006-.073v-.012l.025-.011c.076-.035.148-.075.22-.116l.1-.053a4.516 4.516 0 00.298-.158c.058-.035.117-.07.174-.108.108-.067.203-.13.298-.198l.036-.027c.09-.063.18-.13.266-.204l.02-.013c.024-.017.041-.027.056-.039l.048-.03.055-.039.025-.017.024-.012.012-.005c.026-.01.053-.024.08-.035l.01-.006.084-.033c.044-.013.086-.025.13-.034.034-.01.07-.017.102-.023.048-.008.093-.016.14-.021l.04-.006V.96l.02-.002c.03-.004.062-.006.093-.008l.207-.008-.215.099a2.859 2.859 0 00-.34.136l-.01.004a1.6 1.6 0 00-.262.152.045.045 0 00-.013.013c-.007.008-.011.01-.017.014a.437.437 0 00-.044.04c-.011.01-.02.021-.032.03-.019.014-.032.028-.046.04l-.017.017 2.39 3.807.107.143z" fill="#000"/><path d="M21.908 5.319l.796-1.27L24.32 1.48c-.011-.015-.03-.027-.044-.04a.459.459 0 01-.045-.04c-.029-.026-.052-.049-.08-.072l-.01-.008c-.007-.007-.013-.015-.022-.02a1.917 1.917 0 00-.274-.158c0-.002 0-.002-.002-.002a3.296 3.296 0 00-.352-.14c-.002 0-.004 0-.006-.002-.004 0-.008-.002-.011-.003.04.001.078.005.116.01V1a.006.006 0 00.003.002c.01 0 .017.002.025.004h.004c.047.006.093.012.138.021a1.34 1.34 0 01.226.054l.094.037c.024.011.051.025.078.036l.034.017.023.016c.024.013.045.029.07.046.026.017.051.035.08.052l.022.017c.097.083.202.158.306.233.1.071.198.136.299.202.059.034.117.073.176.106.097.06.198.105.299.16.108.057.21.118.323.17.011.004.01.027.007.052-.002.01-.005.025-.01.04-.003.016-.013.037-.018.054-.021.06-.055.133-.105.224l-.002.003c-1.292 1.525-3.756 2.775-3.756 2.775l.002-.003z" fill="#fff"/><path d="M25.749 2.201a6.82 6.82 0 01-.203-.107c-.03-.02-.065-.035-.1-.054a1.381 1.381 0 00-.106-.054l-.193-.104a13.999 13.999 0 01-.175-.11c-.11-.07-.21-.132-.304-.202l-.032-.026a3.983 3.983 0 01-.276-.208l-.008-.006-.01-.008a.7.7 0 00-.048-.032l-.048-.031c-.017-.014-.036-.025-.055-.039l-.008-.005a.028.028 0 00-.011-.008.065.065 0 00-.017-.008l-.015-.007c-.027-.01-.05-.022-.076-.033l-.012-.006c-.026-.011-.053-.023-.078-.03a2.846 2.846 0 00-.121-.033l-.048-.012c.016.006.029.014.044.02h.002l.011.007a1.777 1.777 0 01.304.18l-.026.035.036-.025a.543.543 0 01.05.045c.009.011.02.017.035.032.014.014.029.025.042.039l.017.015c.01.006.021.016.029.025l.019.025-2.345 3.737c.532-.285 2.508-1.394 3.604-2.69a1.78 1.78 0 00.103-.216l.004-.01.015-.044.008-.033.001-.015-.009-.004zm-3.876 3.094l2.392-3.807-.019-.018c-.011-.011-.025-.025-.044-.038-.013-.01-.02-.021-.032-.03-.015-.014-.028-.03-.044-.041-.005-.004-.01-.006-.017-.014a1.657 1.657 0 00-.276-.165l-.01-.004a2.737 2.737 0 00-.34-.136l-.214-.099.208.008c.03.002.062.004.093.008l.019.002V.959l.04.006c.045.005.09.013.138.02.034.007.07.014.105.024.042.01.085.021.129.034l.084.033.011.006c.025.011.053.025.08.035l.011.005a.307.307 0 00.025.012c.006.004.011.01.025.017l.055.039.047.03c.015.012.032.022.057.039l.02.013c.085.073.176.14.265.204l.036.027c.093.067.188.13.297.198.057.039.117.073.174.108.061.036.126.07.189.102.036.017.074.036.108.056s.066.034.102.053c.07.04.145.081.219.116l.025.011v.012c.013.023.01.056.007.073a.271.271 0 01-.011.046.279.279 0 01-.017.046l-.004.012c-.025.065-.06.142-.106.223l-.008.015c-1.28 1.514-3.743 2.773-3.768 2.785l-.156.079.105-.143z" fill="#000"/></g></svg>