<svg width="75" height="68" xmlns="http://www.w3.org/2000/svg" xmlns:xlink="http://www.w3.org/1999/xlink"><defs><path id="a" d="M0 1.857h37.295v19.611H0z"/></defs><g fill="none" fill-rule="evenodd"><circle fill="#134669" cx="41" cy="34" r="34"/><g transform="translate(22 9.298)"><mask id="b" fill="#fff"><use xlink:href="#a"/></mask><path d="M37.204 20.155a.574.574 0 01-.046-.093.29.29 0 00.016-.078.35.35 0 00-.088-.22.515.515 0 00.004-.17l-.004-.014a.468.468 0 00-.076-.206 1.78 1.78 0 01-.043-.094.254.254 0 00.017-.09c-.002-.089-.052-.174-.126-.254a2.823 2.823 0 01-.01-.122c.01-.198.008-.39-.001-.586-.036-.58-.15-1.156-.207-1.735-.08-.811-.186-1.62-.259-2.434a11.968 11.968 0 00-.104-.821 14.86 14.86 0 00-.247-1.285 15.763 15.763 0 00-1.78-4.346c-.285-.487-.683-.873-1.07-1.27-.04-.038-.078-.078-.116-.117-.027-.029-.065-.058-.105-.092a3.505 3.505 0 00-.129-.092s.048.032 0-.004c-.072-.05-.154-.1-.247-.158-1.007-.59-3.066-1.41-3.718-1.608-1.887-.838-3.838-1.675-4.758-2.194-.256-.146-.594-.21-.921-.215a3.45 3.45 0 00-.323.023c-1.406.184-2.81.277-4.216.283a33.38 33.38 0 01-4.214-.283 3.456 3.456 0 00-.322-.023c-.328.006-.666.069-.925.215-.918.52-2.869 1.356-4.756 2.194-.712.216-3.102 1.173-3.965 1.766v.004a1.385 1.385 0 00-.234.185l-.114.117c-.389.396-.786.782-1.073 1.269a15.816 15.816 0 00-1.778 4.346c-.103.425-.18.854-.246 1.285-.043.273-.083.546-.108.82-.072.814-.177 1.624-.256 2.435-.06.58-.171 1.154-.206 1.735a4.646 4.646 0 00-.001.586c-.004.039-.008.081-.014.122-.074.08-.121.163-.121.253a.201.201 0 00.015.09.874.874 0 01-.046.095.52.52 0 00-.076.206c-.002.004-.002.01-.002.013a.431.431 0 00.004.171c-.055.072-.091.145-.087.22 0 .027.005.052.015.078-.019.043-.032.075-.046.093a.525.525 0 00-.091.277c-.004.1.023.198.097.26l.025.019c.112.09.247.175.39.25.301.16.628.282.809.355.074.03.231.085.44.152-.003-.18-.007-.36.002-.538.035-.689.15-1.37.207-2.052.08-.962.189-1.92.26-2.88.025-.326.063-.649.107-.972.069-.512.146-1.017.25-1.521a20.73 20.73 0 011.796-5.14 2.21 2.21 0 01.323-.453V7.91a.81.81 0 01.008.067 7.693 7.693 0 015.778-2.61h16.31a7.676 7.676 0 015.78 2.598.561.561 0 01.007-.055 2.2 2.2 0 01.323.456 20.73 20.73 0 011.797 5.14c.103.504.18 1.01.247 1.521.046.323.084.646.109.971.074.962.18 1.92.26 2.88.057.686.175 1.364.207 2.053.01.179.006.358.002.538.207-.067.365-.123.44-.152.181-.073.508-.196.808-.355a2.25 2.25 0 00.392-.25c.007-.006.017-.012.024-.02.074-.061.101-.16.098-.26a.542.542 0 00-.092-.276" fill="#C2E0F3" mask="url(#b)"/></g><path d="M47.758 12.21a7.099 7.099 0 01-1.097-.638c-.104-.075-.209-.148-.305-.233-.035-.027-.069-.046-.105-.069-.03-.021-.059-.044-.093-.062-.034-.019-.074-.034-.11-.051-.033-.014-.063-.027-.093-.037a1.379 1.379 0 00-.128-.035.917.917 0 00-.098-.023 1.608 1.608 0 00-.14-.017l-.031-.006.005.004c-.005-.002-.011-.002-.017-.002l-.013-.002.004.002h-.002c-.023-.01-.038-.017-.061-.025-.01-.002-.017-.002-.027-.002a.207.207 0 00-.034-.004l.006.002-.029-.002c-.005-.002-.011-.003-.017-.007h-.064c-.03 0-.06.002-.09.004a1.972 1.972 0 00-.11-.004c-.013 0-.028-.002-.045 0-.81.034-1.621.08-2.43.09-.654.008-1.308.023-1.961.035-.652-.012-1.306-.027-1.96-.035-.809-.01-1.618-.056-2.427-.09-.018-.002-.033 0-.048 0-.038 0-.074.002-.108.004-.03-.002-.06-.004-.09-.004-.017-.002-.032 0-.045 0h-.02a.056.056 0 01-.018.007l-.029.002.006-.002c-.011 0-.02.002-.034.004.004-.002.006-.002.007-.004l-.026.002c-.025.008-.04.018-.061.025-.01.002-.019.002-.028.002h-.004a.37.37 0 00-.029.006 2 2 0 00-.138.017.853.853 0 00-.101.023 1.34 1.34 0 00-.219.072c-.038.017-.076.032-.112.051-.032.018-.06.04-.091.062-.036.023-.072.042-.104.07-.1.084-.202.157-.306.232a5.057 5.057 0 01-.299.2 7.38 7.38 0 01-.798.438c-.01.006-.01.027-.007.048a.23.23 0 00.01.037 1.633 1.633 0 00.122.275v.004h.003c1.29 1.527 3.756 2.777 3.756 2.777l-.002-.002c.431.286.903.579 1.417.865.122.073.251.152.363.218.869.507 1.4.742 1.406.744h.002c.004 0 .008-.002.012-.006a.03.03 0 00.011.006l.264-.139c.175-.086.418-.213.722-.382.12-.066.257-.137.41-.218.021-.013.042-.023.067-.036l.31-.187c.517-.288.986-.579 1.419-.867l-.002.004s2.463-1.25 3.755-2.775l.001-.002c.018-.033.03-.062.046-.09.023-.047.042-.085.053-.12a.968.968 0 00.027-.075.143.143 0 00.007-.032c.002-.02.004-.04-.005-.047" fill="#FFF"/><path d="M48.492 23.79H32.857c-1.82 0-3.397.716-4.212 1.993.298 1.078.566 1.974.745 2.573.066.242.131.436.182.607.048.385.086.77.131 1.154.042.348.097.692.152 1.04.397 4.618.247 9.249.088 13.874-.063 1.873-.186 3.738-.297 5.61l-.019.342-.015.24c-.006.148-.013.296-.023.446-.019.32-.038.639-.053.958a6.206 6.206 0 00-.002.323c-.083.369-.152.742-.138 1.125a.935.935 0 01-.033.252c-.11.396-.216.792-.192 1.211 0 .008.004.014.004.021.036.843.365 1.22 1.338 1.45 1.012.243 2.082.385 3.121.36h.035a87.466 87.466 0 003.95-.206c.82-.054 1.643-.111 2.462-.16.145-.007.29-.009.433-.01.05 0 .101-.005.15-.005.194 0 .39.004.584.016 2.137.125 4.273.317 6.41.365 1.01.023 2.045-.111 3.029-.344.047-.006.093-.004.139-.016.93-.22 1.269-.577 1.33-1.346a.418.418 0 00.022-.125c.027-.419-.081-.815-.19-1.211a.805.805 0 01-.032-.252c.012-.383-.055-.756-.139-1.125a5 5 0 00-.001-.323l-.054-.958a33.22 33.22 0 00-.024-.446c-.006-.08-.01-.162-.014-.24l-.019-.343c-.11-1.871-.233-3.736-.298-5.61-.158-4.624-.31-9.255.09-13.873.053-.348.11-.692.151-1.04.048-.384.082-.77.131-1.154.052-.17.114-.365.181-.607.182-.599.448-1.495.747-2.574-.815-1.276-2.394-1.992-4.215-1.992" fill="#C2E0F3"/><path d="M29.415 53.748c-.008.11-.023.215-.02.327a.935.935 0 01-.032.252c-.11.396-.216.792-.192 1.211 0 .008.002.012.004.02.036.844.365 1.22 1.338 1.452 1.012.242 2.082.384 3.121.36h.035a87.466 87.466 0 003.95-.207c.82-.053 1.643-.111 2.462-.161a8.14 8.14 0 01.433-.01c.05 0 .101-.004.15-.004.194 0 .388.004.584.014 2.137.127 4.273.317 6.41.367 1.01.023 2.045-.111 3.029-.344.047-.006.093-.004.139-.015.93-.222 1.27-.577 1.33-1.347a.418.418 0 00.022-.125c.027-.419-.081-.815-.19-1.211a.805.805 0 01-.032-.252c.004-.112-.011-.22-.019-.33-9.515-.272-18.325-.11-22.522.003m.606-11.198c-.024.828-.05 1.653-.078 2.48-.032.927-.095 1.854-.146 2.781 4.195-.21 12.413-.475 21.759.002-.051-.927-.118-1.854-.148-2.783-.029-.828-.052-1.655-.078-2.484-8.849-.296-17.005-.131-21.309.004m-.297-12.294c.04.3.084.6.131.902.154 1.79.211 3.587.23 5.383 4.237-.246 12.174-.531 21.18.006.02-1.799.076-3.597.231-5.389.046-.302.093-.606.131-.908-9.177-.38-17.645-.161-21.903.006" fill="#FFF"/><path d="M57.558 30.228c-.034-.688-.15-1.367-.207-2.052-.08-.961-.186-1.92-.26-2.88a15.172 15.172 0 00-.108-.972 20.286 20.286 0 00-.25-1.52 20.623 20.623 0 00-1.795-5.141 2.264 2.264 0 00-.32-.454l-.005-.002c-.003.015-.005.035-.01.054a7.678 7.678 0 00-5.775-2.598h-16.31a7.682 7.682 0 00-5.774 2.61l-.011-.066s-.002 0-.002.002a2.354 2.354 0 00-.323.454 20.7 20.7 0 00-1.796 5.14c-.104.502-.182 1.01-.249 1.521-.043.323-.081.646-.106.971-.072.962-.18 1.92-.26 2.881-.057.683-.173 1.364-.207 2.052-.01.179-.006.358-.002.537.435.14 1.107.325 1.805.427h.007c.1.015.217.026.339.036h.003c.002.002.006.002.01.002.289.021.62.035.952.04l.089.002h.426l.205-.004h.053c.087-.003.173-.005.25-.01.309-.013.52-.032.529-.059.314-.048.505-.15.61-.334.07-.123.104-.285.104-.495v-.057c-.001-.321-.026-.356-.095-.231a.841.841 0 00.076-.215c.018-.081.025-.174.025-.28-.002-.003 0-.007 0-.013v-.044a6.99 6.99 0 01.042-.96l.14-.173.012-.015c.002-.004.006-.008.01-.012l.009-.011-.125-.416c-.006-.015-.008-.03-.014-.048l-.133-.444-.038-.134-.138-.477-.05-.17c-.038-.142-.082-.288-.123-.438-.025-.087-.05-.175-.074-.265l-.052-.185c.817-1.277 2.394-1.992 4.214-1.992h15.636c1.82 0 3.399.715 4.212 1.992-.02.079-.012.048-.05.185l-.074.265c-.043.15-.083.296-.125.438a3.57 3.57 0 01-.05.17c-.045.167-.093.325-.136.477l-.04.134-.131.444-.014.048c-.043.15-.087.29-.125.416l.011.011c.002.006.006.008.006.012.006.006.01.01.013.015.05.062.095.12.141.175.04.316.044.637.042.958l.002.044v.014c0 .105.007.198.024.279.016.08.04.153.075.215-.069-.125-.094-.09-.095.23l.001.045v.013c-.001.21.033.372.103.495.105.184.298.286.612.334.007.027.216.046.526.06.076.004.162.008.25.01h.052c.069.001.137.003.207.003h.424l.091-.002c.33-.003.663-.019.95-.04h.012c0-.002.002-.002.002-.002.123-.01.239-.021.34-.036h.007a11.684 11.684 0 001.805-.427 7.078 7.078 0 00-.002-.537" fill="#FFF"/><path d="M40.664 17.1l.006.003.01-.002h.001l.236-.125c.148-.075.393-.2.72-.383l.477-.254c.097-.057.203-.12.308-.184.486-.272.961-.562 1.415-.866l.281-.188-.038.061c.646-.352 2.461-1.41 3.496-2.629l.033-.067c.026-.056.045-.094.059-.129.007-.023.017-.048.022-.067l.002-.013a6.347 6.347 0 01-.59-.316c-.061-.034-.12-.071-.18-.108a6.449 6.449 0 01-.301-.205l-.048-.033a5.034 5.034 0 01-.262-.202.346.346 0 00-.063-.042l-.062-.043a.388.388 0 00-.06-.038.635.635 0 00-.079-.038l-.027-.012a4.452 4.452 0 00-.089-.035c-.038-.013-.078-.023-.118-.034a1.514 1.514 0 00-.097-.02h-.007l-.205-.03c-.004 0-.016-.006-.027-.01l-.063-.011v.002l-.045-.006c-.02-.004-.029-.004-.036-.004l-.143.002-.078-.002h-.046c-.19.008-.381.017-.571.027-.61.029-1.241.056-1.86.063-.475.006-.95.016-1.425.023l-.534.012-.538-.012c-.475-.007-.95-.017-1.423-.023a53.472 53.472 0 01-1.86-.063c-.19-.01-.382-.02-.574-.027h-.046c-.026 0-.05 0-.078.002l-.026.002-.093-.004h-.046l-.03.008-.074.003a.092.092 0 00-.014.006c-.01.004-.02.01-.032.014l-.017.004-.059.005c-.047.006-.09.014-.133.02a1.239 1.239 0 00-.097.019c-.042.011-.082.02-.121.034a2.104 2.104 0 01-.088.035l-.023.01c-.028.013-.057.025-.081.04a.405.405 0 00-.061.038l-.027.02c-.013.007-.026.017-.038.025-.019.013-.04.023-.06.04a5.072 5.072 0 01-.265.202l-.043.033c-.101.07-.2.14-.304.205-.057.035-.118.074-.179.108-.198.12-.397.225-.59.316l.001.019c.004.011.01.025.013.038.03.075.065.146.107.223 1.049 1.239 2.912 2.312 3.526 2.645l-.025-.045.232.154c.464.31.926.59 1.414.864l.099.057c.09.056.18.112.264.16.765.446 1.263.68 1.373.73l.004-.001zm-.02.157l-.02-.02a16.223 16.223 0 01-1.406-.744l-.266-.161-.097-.06c-.484-.267-.944-.55-1.406-.858l-.005-.002c-.025-.013-2.493-1.273-3.777-2.792l-.01-.015a1.882 1.882 0 01-.108-.231c-.012-.029-.02-.046-.023-.06-.004-.017-.008-.032-.01-.046-.003-.033-.007-.096.046-.12a7.365 7.365 0 00.79-.434c.1-.063.2-.127.297-.198l.044-.033c.085-.063.174-.126.256-.196a.615.615 0 01.076-.054l.057-.036a.836.836 0 01.074-.05c.03-.015.063-.03.095-.044l.023-.01.097-.04c.044-.014.09-.023.133-.035a.969.969 0 01.104-.023 3.52 3.52 0 01.143-.021l.07-.012.038-.015.017-.004.12-.01h.046l.167-.01-.01.007.055-.004-.015.007h.048c.192.008.382.018.573.027.608.027 1.237.056 1.857.064.475.006.948.015 1.423.025l.536.008.532-.008c.475-.01.95-.02 1.425-.025.617-.008 1.246-.037 1.856-.064.188-.01.382-.019.572-.027h.049l-.017-.007.183.01.028-.003h.029l.108.01.002.012.002-.006-.002.011.019.002.004-.017.03.006.034.013.055.008.156.023a1.3 1.3 0 01.105.023l.129.035.099.04.024.012a.502.502 0 01.167.092l.057.036a.815.815 0 01.078.054c.082.07.168.133.253.196l.048.035c.096.07.195.133.296.196a7.704 7.704 0 00.788.435h.002c.05.023.046.084.044.113l-.006.037c-.007.03-.019.06-.03.09a1.992 1.992 0 01-.106.22l-.012.015c-1.282 1.515-3.747 2.775-3.773 2.788l-.008.004a19.65 19.65 0 01-1.406.858c-.104.063-.209.129-.31.186l-.07.04-.408.216c-.329.183-.576.31-.724.383l-.287.154-.017-.008-.03.012z" fill="#000"/><path d="M33.825 12.087c-.078.04-.154.086-.234.123-.01.005-.01.027-.007.05a.49.49 0 00.029.09c.02.058.054.13.102.221l.002.004h.001c.01.013.025.025.035.037 2.048.38 4.36.607 6.836.607 2.56 0 4.944-.242 7.043-.646l.044-.09a.871.871 0 00.053-.12.749.749 0 00.027-.075l.007-.03c.002-.021.004-.043-.005-.048-.094-.043-.181-.095-.27-.14-1.984.353-4.328.568-6.882.568-2.508 0-4.82-.207-6.781-.551" fill="#000"/><path d="M33.611 12.31a1.805 1.805 0 00.107.227h.002c1.288 1.525 3.754 2.775 3.754 2.775l-.002-.002c.433.287.903.577 1.418.865.123.075.25.152.364.218.869.507 1.399.742 1.405.746l.001-.002v.002l.014-.006a.03.03 0 01.011.006c.02-.012.076-.042.262-.14.175-.087.418-.214.722-.383.122-.066.257-.135.41-.218.024-.011.043-.025.067-.038.1-.058.205-.121.31-.185.519-.288.988-.578 1.42-.865l-.003.002s2.463-1.248 3.755-2.773c0-.002.002-.002.002-.002a.83.83 0 00.045-.092 1.51 1.51 0 00.055-.12.503.503 0 00.025-.075c.004-.011.006-.023.008-.032.002-.021.003-.04-.006-.045a7.399 7.399 0 01-.798-.438c-.1-.065-.201-.13-.298-.2a5.145 5.145 0 01-.306-.233c-.034-.029-.069-.048-.105-.07-.028-.02-.059-.045-.09-.062-.037-.022-.077-.035-.113-.052-.032-.014-.06-.027-.093-.039a2.392 2.392 0 00-.126-.032c-.034-.008-.066-.016-.1-.022-.044-.01-.091-.015-.137-.02l-.034-.007.005.004c-.005 0-.01 0-.017-.002-.003 0-.007 0-.013-.002l.004.002-.063-.005c.124.044.236.086.335.136h.001c.105.05.196.102.274.16.013.007.021.017.034.027.046.036.086.073.124.113.013.014.032.025.043.039a.833.833 0 01.107.173c.004.01.011.017.015.029.013.032.017.067.023.103.114.187-.511 1.173-1.756 2.262a13.53 13.53 0 01-3.984 2.404v-.02a.175.175 0 00-.015.01.175.175 0 00-.015-.01v.02a13.512 13.512 0 01-3.985-2.402c-1.244-1.089-1.87-2.077-1.757-2.264a.44.44 0 01.023-.103c.003-.012.013-.02.017-.03a.72.72 0 01.106-.172c.011-.014.029-.025.042-.039a.5.5 0 01.047-.042c.025-.023.048-.048.078-.071l.01-.01c.005-.004.013-.011.023-.017.077-.058.17-.11.273-.16h.004a2.92 2.92 0 01.34-.138l-.09.007v-.002V11a1.38 1.38 0 00-.27.046c-.044.01-.084.022-.125.033-.03.012-.063.025-.092.039-.04.017-.076.03-.114.052-.032.017-.06.042-.09.061-.035.023-.073.042-.103.071a5.186 5.186 0 01-.308.233c-.095.07-.198.135-.298.2-.06.037-.116.073-.177.108a7.36 7.36 0 01-.621.33c-.01.004-.01.024-.008.047l.01.038a.637.637 0 00.018.052" fill="#FFF"/><path d="M37.473 15.318l-.798-1.269-1.613-2.569c.011-.015.03-.027.043-.04.016-.012.03-.027.046-.04.027-.026.05-.049.078-.072l.011-.008a.081.081 0 01.023-.02c.078-.057.171-.108.272-.158l.004-.002a3.21 3.21 0 01.351-.139V11c.002 0 .004 0 .006-.002a.027.027 0 00.011-.004c-.04.002-.078.006-.118.01 0 0 .002 0 .002-.002-.002.002-.003.002-.005.002-.008 0-.016.002-.025.004h-.004a1.726 1.726 0 00-.139.021 1.379 1.379 0 00-.226.054c-.03.013-.06.025-.093.036l-.076.037c-.011.006-.023.01-.034.017-.01.004-.015.01-.025.016a.712.712 0 00-.068.046l-.08.052c-.007.006-.017.011-.025.017-.096.083-.201.158-.304.233a6.317 6.317 0 01-.3.202c-.057.034-.116.073-.175.105-.098.06-.2.106-.298.16-.108.058-.213.12-.323.171-.011.004-.011.027-.007.052a.37.37 0 00.029.094c.02.06.054.133.102.223l.002.004c1.292 1.525 3.758 2.775 3.758 2.775l-.002-.004z" fill="#FFF"/><path d="M33.622 12.205c0 .004 0 .01.002.015 0 .01.004.02.008.033.003.014.01.029.015.044l.004.01c.022.061.057.135.102.215 1.095 1.296 3.073 2.406 3.605 2.69l-2.345-3.736.019-.025a.073.073 0 01.028-.025l.016-.015c.015-.014.028-.025.041-.039.018-.015.027-.02.037-.032l.05-.045.037.025-.027-.034a1.694 1.694 0 01.304-.18l.01-.009h.004l.043-.019a.548.548 0 00-.247.075l-.011.006c-.027.011-.05.023-.076.033l-.015.007a.057.057 0 00-.02.008l-.009.008-.007.005a.692.692 0 00-.055.039l-.05.03a.672.672 0 00-.057.041l-.01.006c-.087.075-.182.142-.273.207l-.032.027c-.097.07-.194.131-.304.202l-.175.11-.196.104a1.33 1.33 0 00-.106.054c-.032.019-.067.034-.099.053a4.836 4.836 0 01-.201.108l-.01.004zm3.99 3.233l-.156-.08c-.024-.01-2.489-1.27-3.77-2.784l-.007-.015a1.928 1.928 0 01-.106-.223l-.004-.012a.654.654 0 01-.027-.092.145.145 0 01.006-.073v-.012l.025-.011c.076-.035.148-.075.22-.116.034-.019.067-.034.1-.053a5.783 5.783 0 00.299-.158c.057-.035.116-.07.173-.108.108-.067.203-.13.298-.198l.036-.027c.09-.063.18-.13.266-.204l.02-.013c.024-.017.041-.027.056-.039l.048-.03.055-.039.025-.017a.308.308 0 00.024-.012l.012-.005c.026-.01.053-.024.08-.035l.011-.006c.029-.011.055-.023.084-.033a1.44 1.44 0 01.129-.034c.034-.01.07-.017.102-.023.048-.008.094-.016.141-.021l.04-.006v.002l.019-.002c.03-.004.063-.006.093-.008l.207-.008-.215.099a2.859 2.859 0 00-.34.136l-.01.004a1.6 1.6 0 00-.261.152.045.045 0 00-.014.013c-.007.008-.011.01-.017.014-.015.011-.03.027-.043.04-.012.01-.021.021-.033.03-.019.014-.032.028-.045.04l-.017.017 2.39 3.807.106.143z" fill="#000"/><path d="M43.908 15.318l.796-1.269 1.615-2.569c-.012-.015-.03-.027-.044-.04a.459.459 0 01-.046-.04c-.028-.026-.05-.049-.08-.072-.003-.002-.005-.006-.009-.008-.008-.007-.013-.015-.023-.02a1.917 1.917 0 00-.273-.158c0-.002 0-.002-.002-.002a3.296 3.296 0 00-.352-.14c-.002 0-.004 0-.005-.002a.027.027 0 01-.012-.004c.04.002.078.006.116.01v-.002a.006.006 0 00.004.002c.01 0 .017.002.025.004h.003c.048.006.093.011.14.021a1.34 1.34 0 01.226.054c.03.013.062.025.092.036l.078.037c.01.006.023.01.034.017.008.004.016.01.023.016.025.013.046.029.07.046l.08.052.023.017a7.404 7.404 0 00.604.435c.06.034.118.073.177.105.097.06.198.106.298.16.109.058.211.12.323.171.012.004.01.027.008.052l-.01.04c-.003.016-.013.037-.019.054-.02.06-.055.133-.104.223l-.002.004c-1.292 1.525-3.756 2.775-3.756 2.775l.002-.004z" fill="#FFF"/><path d="M47.749 12.201a6.816 6.816 0 01-.203-.108c-.03-.019-.065-.034-.1-.053a1.382 1.382 0 00-.106-.054l-.193-.104a14.058 14.058 0 01-.175-.11c-.11-.07-.21-.132-.304-.202l-.033-.027a3.983 3.983 0 01-.275-.207l-.008-.006-.011-.008a.7.7 0 00-.048-.032l-.047-.031c-.017-.014-.036-.025-.055-.039l-.008-.005a.04.04 0 00-.011-.008c-.006-.004-.012-.006-.017-.008l-.015-.007c-.027-.01-.05-.022-.076-.033l-.012-.006a.812.812 0 00-.2-.063 1.774 1.774 0 01-.047-.012l.044.02h.002l.011.007a1.777 1.777 0 01.304.18l-.026.035.036-.025a.543.543 0 01.049.045c.01.011.02.017.036.032.013.014.029.025.042.039l.017.015c.01.006.02.016.029.025l.019.025-2.345 3.737c.532-.285 2.508-1.395 3.604-2.69a1.78 1.78 0 00.103-.216l.004-.01a.621.621 0 00.015-.044.163.163 0 00.007-.033l.002-.015-.01-.004zm-3.876 3.094l2.392-3.807-.02-.018a.314.314 0 00-.043-.038c-.013-.01-.02-.021-.032-.03-.015-.014-.029-.03-.044-.041-.006-.004-.01-.006-.017-.014a1.657 1.657 0 00-.276-.165l-.01-.004a2.737 2.737 0 00-.34-.136l-.214-.099.207.008c.03.002.063.004.093.008l.02.002v-.002l.04.006c.045.005.09.013.138.02.034.007.07.014.105.024.041.01.085.021.129.034.028.01.055.022.083.033l.012.006c.024.011.053.025.08.035l.011.005a.308.308 0 00.025.012c.005.004.011.01.024.017l.055.039.048.03c.015.012.032.022.057.039l.019.013c.085.073.177.14.266.204l.036.027c.093.067.188.13.296.198.057.039.118.073.175.108.061.036.126.07.188.102.036.017.074.036.109.056.034.019.066.034.102.053.07.04.145.081.219.116l.024.011v.012c.014.023.01.056.008.073a.271.271 0 01-.011.046.279.279 0 01-.017.046l-.004.012a1.691 1.691 0 01-.107.223l-.007.015c-1.28 1.514-3.743 2.773-3.768 2.785l-.156.079.105-.143z" fill="#000"/><g transform="translate(0 35)"><circle fill="#BF9A56" cx="11" cy="11" r="11"/><path d="M4.25 11h14m-7-7v14" stroke="#FFF" stroke-width="3"/></g></g></svg>