<svg width="74" height="68" xmlns="http://www.w3.org/2000/svg" xmlns:xlink="http://www.w3.org/1999/xlink"><defs><path id="a" d="M0 .008h21.947v7.966H0z"/><path id="c" d="M0 .053h21.947V28H0z"/></defs><g fill="none" fill-rule="evenodd"><path fill="#FFF" d="M-947-591H493v5308H-947z"/><circle fill="#134669" cx="34" cy="34" r="34"/><g transform="translate(52 35)"><circle fill="#BF9A56" cx="11" cy="11" r="11"/><path d="M4.25 11h14m-7-7v14" stroke="#FFF" stroke-width="3"/></g><g transform="rotate(20 -20.035 92.72)"><mask id="b" fill="#fff"><use xlink:href="#a"/></mask><path d="M21.947 7.974V.008h-5.61c0 2.545-2.402 4.609-5.364 4.609-2.962 0-5.363-2.064-5.363-4.61H0v7.967h21.947z" fill="#FFF" mask="url(#b)"/></g><g transform="rotate(20 -54.062 86.72)"><mask id="d" fill="#fff"><use xlink:href="#c"/></mask><path d="M0 .053V28h5.615c-.002-.057-.005-.113-.005-.17 0-2.594 2.401-4.697 5.363-4.697 2.962 0 5.364 2.103 5.364 4.697 0 .057-.003.113-.005.17h5.615V.053H0z" fill="#FFF" mask="url(#d)"/></g></g></svg>