<svg viewBox="0 0 36 46" xmlns="http://www.w3.org/2000/svg" xmlns:xlink="http://www.w3.org/1999/xlink"><defs><path id="a" d="M0 .008h21.947v7.966H0z"/><path id="c" d="M0 .053h21.947V28H0z"/></defs><g transform="rotate(20 5.993 41.35)" fill="#fff" fill-rule="evenodd"><mask id="b"><use xlink:href="#a"/></mask><path d="M21.947 7.974V.008h-5.61c0 2.545-2.401 4.609-5.363 4.609-2.962 0-5.364-2.064-5.364-4.61H0v7.967h21.947z" mask="url(#b)"/><g transform="translate(0 12)"><mask id="d"><use xlink:href="#c"/></mask><path d="M0 .053V28h5.615c-.002-.056-.005-.113-.005-.17 0-2.594 2.401-4.697 5.363-4.697 2.962 0 5.364 2.103 5.364 4.697 0 .057-.003.114-.005.17h5.615V.053H0z" mask="url(#d)"/></g></g></svg>