<svg xmlns="http://www.w3.org/2000/svg" viewBox="0 0 33.84 33.84"><defs><style>.cls-1{fill:#1d1d1b;}</style></defs><title>a_savoir</title><g id="Calque_2" data-name="Calque 2"><g id="Calque_1-2" data-name="Calque 1"><path class="cls-1" d="M17.85,13.08H16a1,1,0,0,0-1,1V25a1.52,1.52,0,0,0,1.55,1.54h.77A1.52,1.52,0,0,0,18.88,25v-11A1,1,0,0,0,17.85,13.08Z"/><path class="cls-1" d="M15,9.22a2,2,0,0,0,3.92,0A2,2,0,0,0,15,9.22Z"/><path class="cls-1" d="M16.92,0A16.92,16.92,0,1,0,33.84,16.92,16.93,16.93,0,0,0,16.92,0Zm0,30.43A13.51,13.51,0,1,1,30.43,16.92,13.52,13.52,0,0,1,16.92,30.43Z"/></g></g></svg>