<?xml version="1.0" encoding="utf-8"?>
<!-- Generator: Adobe Illustrator 22.0.1, SVG Export Plug-In . SVG Version: 6.00 Build 0)  -->
<svg version="1.1" id="Calque_1" xmlns="http://www.w3.org/2000/svg" xmlns:xlink="http://www.w3.org/1999/xlink" x="0px" y="0px"
	 viewBox="0 0 70.7 63.3" style="enable-background:new 0 0 70.7 63.3;" xml:space="preserve">
<style type="text/css">
	.st0{fill:#B3B3B3;}
</style>
<path class="st0" d="M54.3,35.4h-40c-1.9,0-3.5-1.6-3.5-3.5v0c0-1.9,1.6-3.5,3.5-3.5h40c1.9,0,3.5,1.6,3.5,3.5v0
	C57.8,33.8,56.2,35.4,54.3,35.4z"/>
<g>
	<path class="st0" d="M34.7,40.5l17.7-11.2c1.6-1,3.8-0.5,4.8,1.1l0,0c1,1.6,0.5,3.8-1.1,4.8L38.5,46.4c-1.6,1-3.8,0.5-4.8-1.1l0,0
		C32.6,43.7,33.1,41.5,34.7,40.5z"/>
	<path class="st0" d="M34.7,23.2l17.7,11.2c1.6,1,3.8,0.5,4.8-1.1l0,0c1-1.6,0.5-3.8-1.1-4.8L38.5,17.3c-1.6-1-3.8-0.5-4.8,1.1l0,0
		C32.6,20,33.1,22.2,34.7,23.2z"/>
</g>
</svg>
