<?xml version="1.0" encoding="UTF-8"?>
<svg version="1.1" viewBox="0 0 100 101" xmlns="http://www.w3.org/2000/svg" xmlns:xlink="http://www.w3.org/1999/xlink">
<title>LOGO RACING FOOTER</title>
<desc>Created with Sketch.</desc>
<defs>
<polygon id="c" points="4.7619e-5 0.024297 3.2096 0.024297 3.2096 3.5694 4.7619e-5 3.5694"/>
<polygon id="b" points="0 99.943 100 99.943 100 0 0 0"/>
</defs>
<g fill="none" fill-rule="evenodd">
<g transform="translate(-138 -32)">
<g transform="translate(113 6)">
<g transform="translate(25 26)">
<path d="m4.1891 91.207c0.068987 0.065524 0.2483 0.11425 0.53907 0.14371v0.26402h-4.7282v-0.26402c0.29305-0.029458 0.47236-0.078188 0.54249-0.14371 0.066707-0.067451 0.10263-0.15638 0.10263-0.25769v-10.325c0-0.10572-0.035919-0.19244-0.10263-0.25797-0.070127-0.065524-0.24944-0.11205-0.54249-0.14151v-0.27036h8.3982c1.6976 0 2.9328 0.30229 3.6962 0.89972 0.76427 0.60018 1.1471 1.5255 1.1471 2.7806 0 1.0184-0.31187 1.8168-0.92734 2.3938-0.62031 0.5765-1.4068 0.99057-2.3518 1.2422l2.7062 3.6782c0.18359 0.26623 0.40452 0.4014 0.66479 0.4014v0.26402h-4.7732v-0.26402c0.33781-0.014867 0.50515-0.14812 0.50515-0.4014 0-0.031661-0.062145-0.13077-0.18587-0.31028-0.12001-0.17785-0.27224-0.39315-0.45611-0.6423-0.18387-0.25163-0.38798-0.52199-0.60692-0.80721-0.22435-0.28935-0.43787-0.56852-0.6434-0.83227-0.20668-0.2665-0.38713-0.50327-0.53821-0.71003-0.15394-0.20511-0.25457-0.34634-0.29961-0.42068h-2.2489v3.7228c0 0.10131 0.033068 0.19024 0.10291 0.25769zm3.7518-6.3297c0.67277 0 1.1343-0.12472 1.3869-0.36561 0.25058-0.24282 0.37857-0.53025 0.37857-0.85126 0-0.32955-0.128-0.61064-0.37857-0.85567-0.25257-0.2431-0.7141-0.36369-1.3869-0.36369h-3.8547v2.4362h3.8547z" fill="#fff"/>
<path d="m22.849 91.343c0.04484 0 0.10853-0.0081837 0.18393-0.025962 0.078828-0.014956 0.1171-0.075347 0.1171-0.18145 0-0.060672-0.027133-0.15182-0.080827-0.28163-0.055979-0.12981-0.1151-0.26893-0.18422-0.42442-0.069117-0.14759-0.14338-0.29913-0.21592-0.45067-0.079685-0.15182-0.14138-0.28163-0.18822-0.39h-5.3329c-0.03056 0.10836-0.077686 0.23817-0.14994 0.39-0.069117 0.15154-0.14138 0.30308-0.2182 0.45067-0.075401 0.15549-0.14338 0.29461-0.20592 0.42442-0.060263 0.12981-0.091966 0.22096-0.091966 0.28163 0 0.10611 0.038272 0.1665 0.1171 0.18145 0.073401 0.017778 0.13595 0.025962 0.18079 0.025962v0.27091h-3.4461v-0.27091c0.09168 0 0.18365-0.021447 0.27361-0.06039 0.091966-0.036968 0.15451-0.095383 0.18422-0.16678 0.45926-1.0633 0.92794-2.1091 1.4049-3.1462 0.47325-1.0399 0.89967-1.9751 1.2747-2.8158 0.37443-0.84462 0.68346-1.5419 0.9288-2.0959 0.24705-0.55028 0.36872-0.86211 0.36872-0.94 0-0.13658-0.10225-0.21447-0.29732-0.22717v-0.27119h4.8036v0.27119c-0.19764 0.012699-0.29817 0.090585-0.29817 0.22717 0 0.045434 0.079685 0.24495 0.23991 0.60418 0.16308 0.35472 0.37272 0.7989 0.63234 1.3404 0.26276 0.53702 0.54751 1.1302 0.86254 1.7801 0.31531 0.65159 0.62777 1.3012 0.94222 1.9536 0.31445 0.65357 0.61063 1.2688 0.88853 1.8532 0.2719 0.58076 0.49582 1.0698 0.66432 1.4663 0.029418 0.071396 0.089681 0.12981 0.18422 0.16678 0.09168 0.038943 0.18393 0.06039 0.27618 0.06039v0.27091h-3.818v-0.27091zm-3.0797-7.3628l-1.8824 3.9759h3.8134l-1.931-3.9759z" fill="#fff"/>
<path d="m36.776 85.008l-0.32085-0.17014c0.013987-0.064401 0.035967-0.1288 0.056805-0.1932 0.02198-0.0647 0.032827-0.1333 0.032827-0.21387 0-0.099148-0.093914-0.20878-0.2826-0.34237-0.19268-0.12401-0.43903-0.23933-0.73818-0.34477-0.29801-0.10574-0.63628-0.20009-1.0108-0.27827-0.3748-0.07818-0.7536-0.11982-1.1381-0.11982-0.42818 0-0.86321 0.053318-1.3099 0.16834-0.44359 0.11472-0.84123 0.28486-1.1929 0.5194-0.35682 0.23424-0.6437 0.53288-0.87491 0.89592-0.23122 0.36334-0.34511 0.80277-0.34511 1.3198 0 0.50113 0.1139 0.93786 0.34511 1.3057 0.23122 0.37712 0.5181 0.67606 0.87491 0.9127 0.35168 0.23184 0.74931 0.40647 1.1929 0.51491 0.44673 0.11263 0.88177 0.17463 1.3099 0.17463 0.45987 0 0.89375-0.062005 1.2991-0.18422 0.4062-0.11682 0.76559-0.26419 1.0833-0.43403 0.312-0.16565 0.55406-0.33548 0.73362-0.50562 0.17298-0.16804 0.26319-0.28965 0.26319-0.37293v-0.22076c0-0.09136-0.0068508-0.16295-0.023122-0.21597l0.25405-0.16505 2.1814 3.2889-0.27803 0.17044c-0.13559-0.17703-0.25719-0.26419-0.36652-0.26419-0.061658 0-0.22465 0.070991-0.49212 0.21567-0.26947 0.14258-0.62543 0.30823-1.0699 0.48735-0.4416 0.18212-0.9694 0.33788-1.574 0.46908-0.60602 0.1288-1.2748 0.18871-2.011 0.18871-0.84351 0-1.6616-0.087466-2.4689-0.26659-0.80384-0.17493-1.5212-0.47387-2.1486-0.90161-0.62885-0.42954-1.1338-0.98608-1.5172-1.6753-0.38108-0.68954-0.57376-1.5333-0.57376-2.5353 0-0.97949 0.19268-1.8164 0.57376-2.5059 0.38336-0.68924 0.88833-1.2527 1.5172-1.687 0.62743-0.43463 1.3448-0.74915 2.1486-0.95134 0.80726-0.20279 1.6254-0.30403 2.4689-0.30403 0.50497 0 0.9968 0.04583 1.4721 0.13569 0.47528 0.085069 0.91031 0.17733 1.3099 0.27348 0.39764 0.098848 0.74047 0.19111 1.0339 0.28067 0.28916 0.087466 0.49612 0.1309 0.61886 0.1309 0.076787 0 0.14672-0.025461 0.20695-0.070991 0.062514-0.048226 0.10733-0.096452 0.13902-0.14707l0.27603 0.098848-1.6559 3.5193z" fill="#fff"/>
<path d="m44.167 81.891c-0.21206 0.014953-0.37548 0.04768-0.49681 0.090847-0.11531 0.045424-0.1765 0.15151-0.1765 0.31825v8.6299c0 0.16674 0.061186 0.27508 0.1765 0.31627 0.12133 0.04768 0.28475 0.078151 0.49681 0.095079v0.2731h-4.1667v-0.2731c0.20761-0.016928 0.37235-0.047398 0.49158-0.095079 0.12028-0.041192 0.18068-0.14953 0.18068-0.31627v-8.6299c0-0.16674-0.060402-0.27282-0.18068-0.31825-0.11923-0.043166-0.28397-0.075894-0.49158-0.090847v-0.27085h4.1667v0.27085z" fill="#fff"/>
<path d="m57.044 91.246c0.12001 0.047398 0.27272 0.077869 0.45614 0.095079v0.2731h-4.2338v-0.2731c0.12257 0 0.26219-0.01721 0.42372-0.04768 0.15925-0.029906 0.23973-0.11229 0.23973-0.24658 0-0.13853-0.16778-0.39414-0.50647-0.7643-0.33357-0.37044-0.76326-0.82919-1.2894-1.3748-0.52808-0.54565-1.1196-1.1497-1.7762-1.8277-0.65719-0.67486-1.3053-1.3895-1.9457-2.1428l-0.044647 0.042602v5.9499c0 0.16702 0.053463 0.2731 0.16693 0.31627 0.11659 0.047398 0.25963 0.077869 0.42656 0.095079v0.2731h-3.9116v-0.2731c0.15157-0.01721 0.28807-0.04768 0.39898-0.095079 0.1146-0.043166 0.17262-0.14925 0.17262-0.31627v-8.6299c0-0.16674-0.062278-0.2731-0.18541-0.31599-0.12143-0.045141-0.26646-0.077869-0.43538-0.090847v-0.2731h5.4466v0.2731c-0.10664 0.012978-0.21129 0.045706-0.31623 0.090847-0.10721 0.042884-0.16352 0.14925-0.16352 0.31599 0 0.03047 0.1311 0.18621 0.37993 0.46749 0.25281 0.27734 0.57586 0.63254 0.97086 1.0526 0.39926 0.42433 0.84004 0.89634 1.3269 1.4115 0.49083 0.51292 0.97996 1.0258 1.4688 1.5416v-4.4732c0-0.16674-0.05915-0.2731-0.18371-0.31599-0.12427-0.045141-0.27471-0.077869-0.45585-0.090847v-0.2731h4.0262v0.2731c-0.18342 0.012978-0.33613 0.045706-0.45614 0.090847-0.12427 0.042884-0.1857 0.14925-0.1857 0.31599v8.6299c0 0.16702 0.061425 0.2731 0.1857 0.31627" fill="#fff"/>
<path d="m69.348 89.058c0 0.16056 0.039982 0.30824 0.11357 0.43675 0.077647 0.12911 0.18658 0.19321 0.32652 0.19321h0.2115v0.28757c-0.37346 0.19052-0.79849 0.39032-1.2786 0.59042-0.48674 0.2022-1.0071 0.38193-1.5631 0.5428-0.56236 0.15847-1.1383 0.28937-1.7297 0.37684-0.58931 0.082677-1.1809 0.12881-1.772 0.12881-0.90076 0-1.732-0.099153-2.4946-0.28757-0.76024-0.19261-1.4118-0.51254-1.9458-0.95349-0.53773-0.44184-0.96016-1.005-1.2626-1.6874-0.30248-0.68269-0.45371-1.4993-0.45371-2.451 0-0.9472 0.17123-1.7632 0.51369-2.4459 0.34043-0.68239 0.7982-1.2411 1.3742-1.6847 0.57569-0.44394 1.2316-0.77495 1.9719-0.99093 0.73823-0.21598 1.5031-0.32622 2.297-0.32622 0.59104 0 1.1317 0.036845 1.6207 0.11024 0.48906 0.068598 0.92249 0.15607 1.2939 0.25283 0.37375 0.096756 0.68028 0.17913 0.92742 0.25253 0.23555 0.073691 0.39519 0.10844 0.47341 0.10844 0.11995 0 0.20455-0.025462 0.24453-0.071294 0.039982-0.050924 0.088946-0.10574 0.15153-0.17045l0.27988 0.048528-1.214 3.1813-0.27582-0.14199v-0.16805c0-0.14738-0.11097-0.28248-0.31783-0.41159-0.20716-0.12641-0.47168-0.24564-0.78255-0.35168-0.31146-0.10335-0.6403-0.18393-0.98739-0.23905-0.35173-0.054819-0.66927-0.082977-0.9448-0.082977-0.4824 0-0.94277 0.055418-1.3782 0.16595-0.43604 0.11683-0.81384 0.30105-1.1299 0.55598-0.31783 0.25552-0.56874 0.58383-0.75793 0.97955-0.18687 0.39062-0.28046 0.86871-0.28046 1.4295 0 0.58204 0.093582 1.0787 0.28046 1.4852 0.18919 0.40889 0.4427 0.74949 0.76691 1.0113 0.32913 0.2669 0.70954 0.46221 1.1453 0.59342 0.43343 0.12851 0.90714 0.19291 1.4229 0.19291 0.38679 0 0.76952-0.027559 1.1401-0.08747 0.37375-0.057215 0.74981-0.14708 1.1212-0.27559v-1.5679h-1.9588c-0.18456 0-0.30248 0.073391-0.34941 0.22047-0.048384 0.14289-0.066348 0.2669-0.066348 0.35857h-0.28277v-2.9908h0.28277c0 0.098854 0.017963 0.21898 0.066348 0.36336 0.046936 0.14469 0.16485 0.21628 0.34941 0.21628h4.8512v3.3032z" fill="#fff"/>
<path d="m77.59 87.854l0.22477 0.11383v0.20815c0.019266 0.81514 1.4229 1.1639 2.8756 1.1639 1.8685 0 3.6446-1.0457 3.8269-3.2483-1.534 0.80873-2.6958 1.2061-4.1868 1.2061-2.2949 0-4.3432-1.5592-4.3432-4.0902 0-2.9959 2.944-4.0862 5.3204-4.0862 3.7216 0 6.1921 1.975 6.1921 6.041 0 4.0835-3.1649 6.4518-6.8095 6.4518-1.1615 0-2.1385-0.18777-2.8564-0.39563-0.7092-0.20757-1.1333-0.39534-1.221-0.39534-0.18009 0-0.33226 0.067249-0.51208 0.25473l-0.26777-0.1115 1.7568-3.1124zm1.2942-4.6466c0 1.3738 1.6049 1.7179 2.447 1.7179 0.8463 0 2.4509-0.3441 2.4509-1.7179 0-1.3694-1.6046-1.7182-2.4509-1.7182-0.84211 0-2.447 0.34876-2.447 1.7182z" fill="#fff"/>
<path d="m99.172 88.44c0.35654 0 0.49296-0.095645 0.55976-0.52196h0.26832v3.696h-0.26832c-0.043405-0.42913-0.22717-0.52393-0.67475-0.52393h-9.9818c-0.29031 0-0.44983 0.11681-0.44983 0.52393h-0.27255c-0.17757-4.1878 4.3411-5.8093 7.2675-7.6344 0.44955-0.2686 0.64882-0.51095 0.64882-1.0352 0-0.55807-0.46703-1.1689-1.5964-1.1689-2.0916 0-3.7743 1.5092-3.7743 2.0918 0 0.090567 0.04115 0.22515 0.093011 0.33941l-0.27452 0.20624-2.3836-3.3561 0.24859-0.18198c0.088783 0.093106 0.22266 0.18198 0.40446 0.18198 0.46956 0 2.2235-1.9358 5.641-1.9358 2.5632 0 4.8772 1.6195 4.8772 3.8712 0 3.3298-4.5852 3.7587-6.4279 5.4476h6.0953z" fill="#fff"/>
<path d="m50.418 75.79c14.446-5.2125 23.679-14.366 28.67-25.156 7.1481-15.466 5.8136-42.393 5.8136-42.393-21.436 0-34.484-8.2404-34.484-8.2404s-13.049 8.2404-34.486 8.2404c0 0-1.3342 26.927 5.8173 42.393 4.9894 10.79 14.224 19.944 28.668 25.156" fill="#C9DFF5"/>
<polygon points="33.234 64.32 38.056 68.294 61.692 68.294 66.593 64.406 70.833 59.966 29.167 59.966" fill="#fff"/>
<path d="m17.589 19.989h65.654c0.11685-3.5319 0.099177-6.4634 0.062413-8.3286h-65.777c-0.037334 1.8652-0.055573 4.7966 0.060703 8.3286" fill="#fff"/>
<path d="m18.526 35.813h62.948c0.45625-2.8045 0.78706-5.6235 1.0259-8.3286h-65c0.23858 2.7051 0.56939 5.524 1.0256 8.3286" fill="#fff"/>
<path d="m20.833 44.141l1.3254 3.931 1.8983 4.3975h52.774c0.31257-0.62074 0.61116-1.2468 0.89462-1.879 0.88919-1.9855 1.6397-4.1641 2.2742-6.4496h-59.167z" fill="#fff"/>
<path d="m50.417 74.124l-0.07879-0.026344c-12.704-4.6081-22.121-12.903-27.232-24.001-6.7057-14.563-5.5307-40.088-5.5196-40.343l0.01199-0.22736h0.22124c19.956 0 32.35-7.7017 32.475-7.7808l0.12247-0.080176 0.12504 0.080176c0.12475 0.07903 12.52 7.7808 32.47 7.7808h0.22352l0.011133 0.22736c0.012846 0.25513 1.1873 25.78-5.5184 40.343-5.1108 11.098-14.526 19.393-27.23 24.001l-0.081359 0.026344zm-32.371-64.125c-0.10077 2.5479-0.84128 26.168 5.4856 39.899 5.0494 10.958 14.343 19.159 26.885 23.725 12.544-4.5663 21.844-12.767 26.889-23.725 6.3226-13.732 5.5821-37.351 5.4856-39.899-18.897-0.053832-31.022-6.9701-32.374-7.7811-1.3506 0.81092-13.475 7.7272-32.371 7.7811z" fill="#fff"/>
<path d="m50.417 74.124l-0.078825-0.026642c-12.704-4.6079-22.12-12.903-27.232-24.001-6.7059-14.563-5.5309-40.088-5.5195-40.343l0.01171-0.22717h0.22134c19.956 0 32.35-7.7018 32.475-7.7809l0.12252-0.080212 0.12509 0.080212c0.12481 0.079066 12.52 7.7809 32.47 7.7809h0.22362l0.010853 0.22717c0.013138 0.25496 1.1875 25.78-5.5183 40.343-5.1108 11.098-14.526 19.393-27.23 24.001l-0.081396 0.026642zm-32.371-64.125c-0.1011 2.5479-0.84137 26.168 5.4852 39.899 5.0497 10.958 14.344 19.159 26.885 23.725 12.544-4.5664 21.844-12.767 26.889-23.725 6.3226-13.731 5.582-37.351 5.4858-39.899-18.897-0.053857-31.023-6.9702-32.374-7.7809-1.3506 0.81072-13.475 7.727-32.371 7.7809zm32.371 64.125l-0.078825-0.026642c-12.704-4.6079-22.12-12.903-27.232-24.001-6.7059-14.563-5.5309-40.088-5.5195-40.343l0.01171-0.22717h0.22134c19.956 0 32.35-7.7018 32.475-7.7809l0.12252-0.080212 0.12509 0.080212c0.12481 0.079066 12.52 7.7809 32.47 7.7809h0.22362l0.010853 0.22717c0.013138 0.25496 1.1875 25.78-5.5183 40.343-5.1108 11.098-14.526 19.393-27.23 24.001l-0.081396 0.026642zm-32.371-64.125c-0.1011 2.5479-0.84137 26.168 5.4852 39.899 5.0497 10.958 14.344 19.159 26.885 23.725 12.544-4.5664 21.844-12.767 26.889-23.725 6.3226-13.731 5.582-37.351 5.4858-39.899-18.897-0.053857-31.023-6.9702-32.374-7.7809-1.3506 0.81072-13.475 7.727-32.371 7.7809z" stroke="#fff" stroke-width=".5"/>
<path d="m39.167 63.338c0 0.39838-0.14398 0.769-0.44044 1.1118-0.29487 0.34092-0.61391 0.51307-0.95819 0.51307-0.16072 0-0.29646-0.022213-0.40697-0.06688-0.10865-0.048047-0.19233-0.07026-0.24838-0.07026-0.11928 0.035251-0.23138 0.066638-0.33843 0.096336-0.10387 0.029939-0.21119 0.040804-0.31718 0.040804-0.15886 0-0.29646-0.029698-0.41574-0.092714-0.1376-0.066638-0.208-0.16491-0.208-0.28539 0-0.081366 0.039847-0.14825 0.11423-0.20547 0.063224-0.046598 0.11317-0.06857 0.15487-0.06857h0.32542c0.033472 0 0.14265 0.036941 0.32595 0.11131 0.062161 0.020281 0.15195 0.05529 0.27123 0.10744 0.081554 0 0.15275-0.13931 0.21703-0.41504 0.065349-0.27452 0.1315-0.55604 0.19684-0.84312 0.097758-0.37255 0.21703-0.64658 0.35862-0.82815 0.031612-0.037182 0.073318-0.1002 0.12964-0.18905 0.060036-0.087402 0.1121-0.13352 0.16683-0.13352 0.030815 0 0.072522 0.011106 0.1206 0.024144-0.066412 0.10551-0.1376 0.20933-0.20402 0.30953-0.063224 0.12579-0.089788 0.2371-0.089788 0.34454v0.77431 0.19653c-0.019127 0.14462-0.079428 0.29818-0.17745 0.45222-0.073318 0.11831-0.15886 0.22792-0.25661 0.32426-0.077303 0.079676-0.12565 0.12024-0.13575 0.12024 0.070662 0.048289 0.15408 0.088851 0.24785 0.11686 0.096961 0.027766 0.17347 0.042494 0.23032 0.042494 0.2691 0 0.5026-0.11493 0.69706-0.34092 0.22952-0.27042 0.34481-0.64489 0.34481-1.121 0-0.35734-0.094836-0.68739-0.28052-0.99499-0.22314-0.36482-0.50738-0.54832-0.85113-0.54832h-0.50526c-0.17745 0-0.37616 0.081608-0.59345 0.24627-0.2436 0.18543-0.36261 0.38389-0.36261 0.59492 0 0.15187 0.064021 0.27959 0.19578 0.38172 0.11263 0.087161 0.22819 0.13159 0.34215 0.13159 0.017533 0 0.063224-0.013038 0.14079-0.044426 0.076241-0.026076 0.15992-0.046357 0.24758-0.061326v0.10575c-0.075178 0.11106-0.17506 0.20185-0.30071 0.26848-0.10573 0.055773-0.20588 0.081608-0.29673 0.081608-0.17214 0-0.33525-0.059395-0.48613-0.18326-0.15168-0.12434-0.22925-0.26897-0.22925-0.43943 0-0.15187 0.058177-0.32233 0.17745-0.50389 0.1376-0.21682 0.31718-0.3909 0.54537-0.5261 0.27707-0.15935 0.59186-0.24096 0.9449-0.24096 0.42982 0 0.80385 0.11662 1.1192 0.35396 0.32807 0.24458 0.48826 0.54276 0.48826 0.89286v0.45971zm-2.3507 1.3284c-0.13734-0.055532-0.25874-0.099957-0.3565-0.1369-0.098024-0.037182-0.18144-0.052152-0.23988-0.052152-0.071193 0-0.1291 0.014969-0.1732 0.044667-0.043832 0.029456-0.065083 0.059154-0.065083 0.08692 0 0.046357 0.041706 0.087161 0.12326 0.11662 0.083679 0.03187 0.18144 0.04853 0.29248 0.04853 0.070396 0 0.13335-0.0057946 0.18569-0.013038 0.091648-0.01666 0.17108-0.046357 0.23324-0.094646z" fill="#1D1D1B"/>
<path d="m41.667 65.292c-0.10291 0.1119-0.18863 0.19543-0.25449 0.25164-0.19977 0.1655-0.37726 0.25164-0.53538 0.25164h-0.29251c-0.11599 0-0.23609-0.060112-0.36128-0.17982-0.14892-0.14391-0.22301-0.31566-0.22301-0.51343 0-0.083533 0.034142-0.19751 0.10678-0.33934 0.089108-0.17383 0.19977-0.31331 0.3344-0.42339 0.17289-0.13766 0.36709-0.20974 0.58066-0.20974 0.16369 0 0.28161 0.037993 0.35232 0.1119 0.054724 0.055949 0.087171 0.14989 0.087171 0.26569 0 0.17982-0.087171 0.33543-0.26103 0.46529-0.087171 0.071823-0.24699 0.15562-0.47557 0.25945-0.17119 0.075726-0.25643 0.1361-0.25643 0.18606 0 0.049703 0.03051 0.097585 0.091046 0.14547 0.062957 0.047882 0.13923 0.072083 0.22834 0.072083 0.17119 0 0.31236-0.037993 0.42472-0.11814 0.1494-0.12569 0.30195-0.2532 0.45426-0.38123v0.15588zm-0.58429-0.78485c0-0.070001-0.011139-0.12179-0.036321-0.14989-0.02034-0.026023-0.058356-0.039815-0.10945-0.039815-0.10896 0-0.1942 0.059852-0.2557 0.17774-0.062231 0.11788-0.12349 0.23759-0.18379 0.35729v0.28365c0.131-0.051785 0.22568-0.099667 0.29057-0.14755 0.19614-0.1361 0.29469-0.29588 0.29469-0.48142z" fill="#1D1D1B"/>
<path d="m44.167 65.394c-0.098809 0.16036-0.2274 0.29766-0.38235 0.41027-0.17786 0.12699-0.35256 0.19157-0.53299 0.19157h-0.31762c-0.14377 0-0.27695-0.058339-0.40125-0.17692-0.1074-0.10637-0.16124-0.21463-0.16124-0.3229 0-0.047756 0.013174-0.095784 0.042674-0.14137 0.038378-0.060509 0.094799-0.096055 0.17127-0.096055 0.042101 0 0.082484 0.018723 0.12143 0.050198 0.0358 0.033104 0.053557 0.07489 0.053557 0.12048 0 0.023064-0.013174 0.049927-0.047256 0.079232-0.073605 0.075162-0.11628 0.14598-0.12774 0.2187h0.27838c0.14922-0.13947 0.23972-0.22711 0.26836-0.26673 0.079047-0.10175 0.11943-0.21002 0.11943-0.33294v-0.29766c0-0.089543-0.029499-0.16688-0.090216-0.23335-0.057853-0.06268-0.1349-0.097954-0.2274-0.097954-0.11198 0-0.23399 0.07082-0.36029 0.2187-0.14836 0.17067-0.26721 0.40593-0.35714 0.7082-0.10883 0.36631-0.16038 0.7953-0.16038 1.2992 0 0.089272-0.0045824 0.17067-0.0065872 0.25181-0.0022912 0.079232-0.0045825 0.15222-0.0065873 0.22711 0 0.099854 0.0020048 0.18723 0.013174 0.25805h-0.38922v-1.4658c0.015466-0.085473 0.032077-0.17474 0.047543-0.26456 0.044679-0.21843 0.089644-0.44364 0.13031-0.66832 0.056421-0.3039 0.11456-0.58936 0.17299-0.86612 0.027208-0.15629 0.054703-0.31476 0.083629-0.47485 0.057567-0.23118 0.14578-0.37255 0.27008-0.42465h0.17556v0.16226c0 0.091442-0.016325 0.21029-0.053844 0.35817-0.081052 0.3248-0.12172 0.51012-0.12172 0.54974v0.33294c0.14606-0.13296 0.25604-0.23091 0.3285-0.28708 0.13089-0.10013 0.27896-0.15032 0.44822-0.15032 0.21566 0 0.37375 0.064851 0.47457 0.19591 0.078188 0.10013 0.11685 0.23742 0.11685 0.40403 0 0.20839-0.073605 0.40593-0.2254 0.59343-0.1747 0.17284-0.28554 0.28545-0.33079 0.33538h0.20564c0.14836-0.016823 0.30101-0.095784 0.45824-0.23742 0.10425-0.097954 0.21194-0.19564 0.31962-0.29576v0.1354z" fill="#1D1D1B"/>
<path d="m46.667 65.242c0 0.087806-0.083068 0.20584-0.25288 0.34601-0.16552 0.142-0.31265 0.20792-0.44109 0.20792-0.2069 0-0.33135-0.076081-0.37978-0.22798-0.066516-0.21209-0.12108-0.33403-0.15633-0.35982-0.13058 0.18603-0.24338 0.31579-0.34668 0.39161-0.14039 0.11204-0.30622 0.16415-0.50362 0.16415-0.15633 0-0.27066-0.060188-0.33748-0.18004-0.052722-0.091975-0.082148-0.21574-0.082148-0.37572 0.012567-0.092236 0.024522-0.18004 0.03617-0.27619 0.038928-0.21183 0.094409-0.38588 0.16368-0.5198 0.0987-0.18786 0.22652-0.28192 0.3761-0.28192 0.029426 0 0.053028 0.0080772 0.076631 0.026055 0.02207 0.015894 0.061305 0.050026 0.11403 0.10396-0.07755 0.067744-0.14008 0.21965-0.18361 0.45988-0.06437 0.32387-0.1033 0.50782-0.11985 0.55159v0.32804h0.18943c0.27955-0.18577 0.4889-0.41167 0.63144-0.6678 0.075711-0.18395 0.15173-0.36373 0.22959-0.54586 0.07142-0.14591 0.18238-0.22173 0.33135-0.22173h0.0705c0.019004 0 0.040154 0.0039083 0.060385 0.0039083 0.023296 0 0.04322-0.0039083 0.06437-0.0039083v0.26394c-0.073872 0.068004-0.122 0.18577-0.14928 0.35175-0.034331 0.22798-0.062224 0.37207-0.084907 0.42809v0.35982c0.12108 0 0.22254-0.02814 0.30499-0.082074 0.094716-0.06592 0.19648-0.18812 0.3102-0.37389 0.053335 0.033872 0.078776 0.076081 0.078776 0.13002" fill="#1D1D1B"/>
<path d="m48 65.047c0 0.12716-0.079876 0.27887-0.23994 0.45001-0.18462 0.20047-0.38508 0.29863-0.59736 0.29863-0.15136 0-0.28096-0.076171-0.37918-0.23042-0.077389-0.11218-0.11686-0.21991-0.11686-0.31775v-0.31297c0.04662-0.26421 0.085781-0.46212 0.12183-0.59184 0.1181-0.39137 0.25392-0.58961 0.40808-0.58961 0.080808 0 0.13458 0.01466 0.16099 0.04175 0.02704 0.02454 0.03885 0.068522 0.03885 0.12748-0.004662 0.043663-0.0068376 0.082864-0.0068376 0.1074 0 0.058642-0.036985 0.27377-0.1122 0.65048-0.076146 0.37639-0.11469 0.61861-0.11469 0.72155 0 0.10517 0.051282 0.15393 0.15167 0.15393 0.060606 0 0.14048-0.053542 0.23838-0.16381 0.13706-0.15393 0.27444-0.30564 0.40995-0.46244 0.018337 0.014979 0.025486 0.02454 0.027972 0.02964 0.0043512 0.0095612 0.009324 0.038882 0.009324 0.087963m-0.34219-2.2746c0 0.097843-0.04662 0.17624-0.13831 0.24222-0.066822 0.051312-0.12308 0.075852-0.1669 0.075852-0.0777 0-0.14701-0.02964-0.20979-0.088282-0.063403-0.058323-0.095416-0.12206-0.095416-0.19059s0.032012-0.14182 0.095416-0.22023c0.07366-0.083182 0.15851-0.12716 0.24678-0.12716 0.1122 0 0.18803 0.039201 0.22751 0.11282 0.026418 0.043981 0.040715 0.11218 0.040715 0.19537" fill="#1D1D1B"/>
<path d="m50 65.326c-0.070916 0.10215-0.17541 0.20222-0.31319 0.29812-0.16644 0.11388-0.32071 0.17199-0.45965 0.17199h-0.33663c-0.11896 0-0.22983-0.041956-0.33866-0.12404-0.14328-0.10997-0.21854-0.26372-0.21854-0.46203 0-0.051858 0.1042-0.24366 0.31145-0.57774 0.20696-0.33408 0.33229-0.5019 0.36587-0.5019 0.064258 0 0.10536 0.013812 0.11665 0.037786 0.006368 0.0080784 0.0086836 0.032053 0.0086836 0.071924v0.19623c0 0.079742 0.072363 0.18789 0.21535 0.32783 0.14473 0.14202 0.21796 0.28196 0.21796 0.42008-0.014473 0.053943-0.026051 0.095898-0.035892 0.12587-0.021998 0.098244-0.045444 0.16391-0.056443 0.20613 0.14531-0.017981 0.23677-0.060197 0.2854-0.13004 0.053259-0.085996 0.13315-0.14385 0.23764-0.17616v0.11596zm-0.89412-0.085735v-0.24809c0-0.038047-0.021998-0.10189-0.070048-0.19414-0.029814-0.053943-0.056443-0.10997-0.088572-0.16782-0.073232 0.033877-0.13228 0.083911-0.1757 0.15401-0.045444 0.068015-0.088572 0.13968-0.12881 0.20795 0.037918 0.020066 0.068021 0.047949 0.09002 0.077918 0.023446 0.030229 0.032419 0.066191 0.032419 0.11805 0 0.058112-0.022577 0.11805-0.061364 0.16808-0.040813 0.053943-0.061074 0.08782-0.061074 0.10398 0 0.02189 0.01563 0.045864 0.048049 0.071663 0.030971 0.030229 0.056443 0.040131 0.074389 0.040131 0.045444 0 0.10652-0.027884 0.18641-0.085996 0.10449-0.073748 0.15428-0.15584 0.15428-0.24574z" fill="#1D1D1B"/>
<path d="m53.333 61.837c-0.25323 0.47468-0.42609 1.0085-0.5166 1.6035-0.11012 0.71745-0.16795 1.0846-0.17808 1.1105-0.092472 0.27442-0.30552 0.41163-0.63652 0.41163-0.22089 0-0.33362-0.081649-0.33362-0.24664 0-0.17997 0.065024-0.4097 0.20291-0.69136 0.12547-0.24495 0.25356-0.49328 0.38884-0.75079 0.13266-0.25775 0.20324-0.45438 0.20324-0.59159 0-0.03865-0.0078421-0.070296-0.015358-0.10532l-1.507 1.1083h-0.10783v-0.16306l2.2794-1.891h0.22056v0.20581z" fill="#1D1D1B"/>
<path d="m56.667 62.421c0 0.10358-0.053198 0.20547-0.16473 0.30736-0.022972 0.022213-0.23153 0.15911-0.6145 0.40393 0.2134 0.13907 0.36664 0.24096 0.45218 0.3076 0.14871 0.11855 0.22518 0.29263 0.22518 0.52248 0 0.3076-0.14841 0.5558-0.44523 0.73375-0.2947 0.17601-0.70306 0.26679-1.2205 0.26679-0.54951 0-0.95756-0.087161-1.2245-0.25931-0.22972-0.14462-0.34125-0.33536-0.34125-0.5727 0-0.12217 0.086144-0.25013 0.25088-0.38896 0.12997-0.10937 0.28292-0.21319 0.46578-0.31122 0.088562-0.046357 0.18105-0.088851 0.27173-0.13521-0.11637-0.10213-0.23395-0.20764-0.35032-0.31508-0.076472-0.10744-0.11577-0.24096-0.11577-0.39476 0-0.19267 0.12514-0.3909 0.38024-0.59467 0.29712-0.24072 0.66104-0.35951 1.0785-0.35951 0.32977 0 0.629 0.06857 0.90013 0.2074 0.30347 0.1538 0.45218 0.3484 0.45218 0.58212m-0.77923 1.7934c0-0.14269-0.10216-0.27428-0.31072-0.39645-0.14871-0.088851-0.34095-0.16684-0.57309-0.23734-0.17864-0.05191-0.28292-0.077745-0.31314-0.077745-0.15325 0-0.30619 0.088851-0.46639 0.26293-0.14116 0.16128-0.21098 0.29673-0.21098 0.40393 0 0.13183 0.065288 0.25955 0.20433 0.37641 0.12755 0.113 0.25027 0.1666 0.36634 0.1666h0.67525c0.087958 0 0.20614-0.038872 0.34518-0.11662 0.19042-0.10768 0.28322-0.23734 0.28322-0.38172m0.15536-1.8342c0-0.15573-0.095212-0.2837-0.28322-0.38365-0.14116-0.077986-0.25511-0.113-0.34095-0.113-0.24574 0-0.4543 0.049979-0.6284 0.14825-0.1738 0.099957-0.25964 0.21875-0.25964 0.3484 0 0.12579 0.12755 0.25376 0.37783 0.37786 0.21612 0.10744 0.36664 0.16297 0.4549 0.16297 0.21793 0 0.39415-0.074123 0.52896-0.22213 0.10156-0.11324 0.15053-0.21875 0.15053-0.3187" fill="#1D1D1B"/>
<path d="m60 62.421c0 0.10358-0.055244 0.20547-0.16875 0.30736-0.028075 0.022213-0.23184 0.15911-0.6116 0.40393 0.21282 0.13907 0.36376 0.24096 0.44919 0.3076 0.15034 0.11855 0.22701 0.29263 0.22701 0.52248 0 0.3076-0.15064 0.5558-0.44467 0.73375-0.29644 0.17601-0.70187 0.26679-1.2208 0.26679-0.54489 0-0.95454-0.087161-1.2256-0.25931-0.2246-0.14462-0.3381-0.33536-0.3381-0.5727 0-0.12217 0.085733-0.25013 0.25026-0.38896 0.13162-0.10937 0.28226-0.21319 0.46761-0.31122 0.088148-0.046357 0.17871-0.088851 0.26867-0.13521-0.11351-0.10213-0.23154-0.20764-0.34716-0.31508-0.081205-0.10744-0.11834-0.24096-0.11834-0.39476 0-0.19267 0.12498-0.3909 0.38037-0.59467 0.29856-0.24072 0.6599-0.35951 1.0771-0.35951 0.33116 0 0.62972 0.06857 0.9011 0.2074 0.30127 0.1538 0.45372 0.3484 0.45372 0.58212m-0.78035 1.7934c0-0.14269-0.10686-0.27428-0.31033-0.39645-0.15064-0.088851-0.34323-0.16684-0.57266-0.23734-0.17599-0.05191-0.28226-0.077745-0.31697-0.077745-0.14852 0-0.30127 0.088851-0.46097 0.26293-0.14158 0.16128-0.21313 0.29673-0.21313 0.40393 0 0.13183 0.067017 0.25955 0.20377 0.37641 0.12951 0.113 0.24995 0.1666 0.36799 0.1666h0.67409c0.088148 0 0.20196-0.038872 0.34535-0.11662 0.19018-0.10768 0.28286-0.23734 0.28286-0.38172m0.15486-1.8342c0-0.15573-0.095091-0.2837-0.28256-0.38365-0.14098-0.077986-0.2572-0.113-0.34052-0.113-0.24543 0-0.45614 0.049979-0.63002 0.14825-0.17177 0.099957-0.2572 0.21875-0.2572 0.3484 0 0.12579 0.12528 0.25376 0.37765 0.37786 0.21524 0.10744 0.36588 0.16297 0.45191 0.16297 0.21765 0 0.39365-0.074123 0.5304-0.22213 0.10173-0.11324 0.15034-0.21875 0.15034-0.3187" fill="#1D1D1B"/>
<path d="m64.167 62.503c0 0.28932-0.17267 0.54529-0.51516 0.77152-0.14859 0.10031-0.48189 0.26346-1.0018 0.49332-0.38906 0.17258-0.61052 0.31905-0.66629 0.44329l1.3104 0.33573c0.063365 0 0.20911-0.073962 0.44704-0.21874 0.12927-0.077588 0.23604-0.13149 0.31619-0.15953v0.16895c-0.24301 0.26153-0.45718 0.43217-0.63682 0.50807-0.18027 0.077829-0.38685 0.11699-0.62003 0.11699-0.20689 0-0.44229-0.0539-0.70272-0.16702-0.26233-0.11118-0.46669-0.16678-0.60989-0.16678-0.041504 0-0.15588 0.049791-0.33362 0.15203-0.11152 0.059218-0.21639 0.10732-0.32063 0.13729v-0.16702c0.16285-0.20037 0.48126-0.46383 0.96505-0.78482 0.58613-0.38745 0.96062-0.64898 1.1187-0.78627 0.36182-0.30987 0.53734-0.60668 0.53734-0.88658 0-0.14841-0.085226-0.27264-0.2579-0.37658-0.1413-0.083388-0.27437-0.12617-0.39635-0.12617-0.18978 0-0.38653 0.051967-0.58613 0.15953-0.26233 0.14116-0.39382 0.32461-0.39382 0.54891 0 0.16339 0.087761 0.27289 0.26518 0.32654 0.15049 0.044474 0.26043 0.088948 0.33298 0.13342-0.072553 0.0539-0.1337 0.089189-0.16538 0.10756-0.0339 0.018853-0.063048 0.028038-0.089662 0.028038-0.0025346 0-0.029148-0.0019336-0.080474-0.0055592-0.046257-0.0058009-0.10234-0.0074929-0.15303-0.0074929-0.25314 0-0.43025-0.044474-0.54241-0.14285-0.11152-0.092815-0.17014-0.22454-0.17014-0.39688 0-0.25427 0.17996-0.48027 0.54241-0.67702 0.29655-0.15953 0.5516-0.23373 0.76799-0.23373h0.60102c0.21101 0 0.42296 0.063085 0.63175 0.19844 0.27247 0.17258 0.40617 0.3935 0.40617 0.67339" fill="#1D1D1B"/>
<g transform="translate(0 96.611)">
<mask id="d" fill="white">
<use xlink:href="#c"/>
</mask>
<path d="m3.0405 3.4601c-0.039286-0.0076487-0.085952-0.011728-0.14833-0.011728h-2.8921v-0.11779c0.12333 0 0.18357-0.038753 0.18357-0.11728v-2.9544c0-0.077762-0.060238-0.1155-0.18357-0.1155v-0.11906h1.046v0.11906c-0.11214 0-0.16976 0.037734-0.16976 0.1155v2.5906h2.016c0.062381 0 0.10905-0.015552 0.14833-0.046912 0.039048-0.03136 0.058333-0.070368 0.058333-0.12136h0.11071v0.88827h-0.11071c0-0.064504-0.019286-0.10198-0.058333-0.10938" fill="#fff" mask="url(#d)"/>
</g>
<path d="m7.2838 97.4c0-0.089662-0.084212-0.13672-0.25137-0.13672h-1.9704v0.71145h1.2439c0.092443 0 0.15924-0.0064044 0.20167-0.017264 0.044955-0.014758 0.065533-0.044553 0.065533-0.096067h0.14341v0.75238h-0.15924c0.015829-0.051236-0.0047488-0.083258-0.064267-0.096067-0.059518-0.010581-0.14215-0.017264-0.24915-0.017264h-1.1818v0.83731h2.0673c0.066166 0 0.1203-0.01253 0.16146-0.035921 0.044955-0.029516 0.06585-0.061817 0.06585-0.1072h0.14341v0.74821h-0.14341c0-0.042604-0.020895-0.065994-0.06585-0.072398-0.041156-0.0044553-0.095292-0.0089106-0.16146-0.0089106h-2.9626v-0.12363c0.028176 0 0.054769-0.01086 0.080413-0.025896 0.026277-0.016986 0.03894-0.042604 0.03894-0.080752v-2.6587c0-0.038427-0.012663-0.064044-0.03894-0.081309-0.025643-0.016986-0.052237-0.02339-0.080413-0.02339v-0.13032h2.8657c0.16716 0 0.25137-0.040376 0.25137-0.12614h0.1469v0.78858h-0.1469z" fill="#fff"/>
<path d="m13.512 97.593c0-0.013368 0-0.022086-0.0021156-0.030804-0.0021155-0.011624-0.0039667-0.022667-0.0039667-0.035744 0-0.026735-0.022213-0.05812-0.067962-0.10055-0.043634-0.042428-0.10842-0.08224-0.19172-0.12263-0.0833-0.042718-0.18088-0.073812-0.29327-0.098222-0.1116-0.030804-0.23641-0.042137-0.37128-0.042137-0.16237 0-0.3094 0.02441-0.44268 0.068872-0.13064 0.049111-0.24726 0.11827-0.34669 0.21185-0.098638 0.093864-0.1748 0.20749-0.22954 0.35017-0.053947 0.13571-0.081185 0.29409-0.081185 0.47251 0 0.17901 0.031469 0.33506 0.092556 0.47745 0.059765 0.14036 0.14095 0.26299 0.23827 0.36616 0.099431 0.098222 0.21209 0.17349 0.33717 0.22928 0.1264 0.051436 0.25545 0.075846 0.38424 0.075846 0.1227 0 0.24461-0.015402 0.37128-0.051145 0.12693-0.035744 0.24144-0.075846 0.3451-0.12292 0.1026-0.046496 0.18776-0.097932 0.25175-0.15344 0.064789-0.053761 0.097316-0.10287 0.097316-0.14733v-0.060154c0-0.027026 0-0.051436-0.0060822-0.073522l0.074838-0.071487 0.49848 0.78491-0.065847 0.035744c-0.056062-0.024701-0.093349-0.035744-0.11688-0.035744-0.035436 0-0.093349 0.022086-0.17427 0.066838-0.081185 0.042428-0.183 0.093573-0.30755 0.14937-0.1227 0.057829-0.26603 0.10491-0.43025 0.14733-0.1666 0.038068-0.34722 0.059863-0.5511 0.059863-0.2068 0-0.41095-0.033128-0.61298-0.097932-0.20257-0.066838-0.3845-0.16506-0.53973-0.30774-0.1584-0.13803-0.28481-0.31675-0.38424-0.52628-0.099431-0.20981-0.15047-0.45275-0.15047-0.7294 0-0.27636 0.051038-0.5193 0.15047-0.72446 0.099432-0.20981 0.22822-0.38563 0.39059-0.52657 0.1621-0.13803 0.34695-0.2473 0.55692-0.3121 0.20785-0.071487 0.42417-0.10694 0.64445-0.10694 0.1703 0 0.32553 0.018017 0.46648 0.053761 0.14227 0.035744 0.26921 0.071197 0.37657 0.11798 0.10657 0.042137 0.19781 0.084855 0.26788 0.11798 0.073251 0.035744 0.12482 0.053761 0.15629 0.053761 0.022478 0 0.041518-0.0092991 0.057914-0.026444 0.015073-0.0090086 0.03332-0.022376 0.049716-0.036034l0.081185 0.05318-0.44427 0.70499-0.075367-0.05812z" fill="#fff"/>
<path d="m16.101 96.611v0.13581c-0.11425 0-0.17302 0.033372-0.17302 0.1094v2.4626h2.0539c0.060557 0 0.11217-0.011027 0.15214-0.037725 0.039676-0.028729 0.060856-0.064423 0.060856-0.11347h0.13842v0.77482h-0.13842c0-0.039757-0.02118-0.06007-0.060856-0.066745-0.039974-0.0023216-0.091582-0.0066745-0.15214-0.0066745h-2.9819v-0.13146c0.13066 0 0.19718-0.037725 0.19718-0.11085v-2.7705c0-0.076031-0.066523-0.1094-0.19718-0.1094v-0.13581h1.1011z" fill="#fff"/>
<path d="m20.084 96.747c-0.092642 0-0.13997 0.038316-0.13997 0.11524v1.726c0 0.23962 0.073509 0.43415 0.2233 0.58122 0.15054 0.14236 0.38064 0.21693 0.68852 0.21693 0.30914 0 0.53596-0.074569 0.68676-0.21693 0.14979-0.14707 0.22506-0.3416 0.22506-0.58122v-1.726c0-0.076927-0.052866-0.11524-0.16036-0.11524v-0.13558h0.89268v0.13558c-0.094656 0-0.14274 0.038316-0.14274 0.11318v1.9043c0 0.15356-0.029202 0.30329-0.089117 0.44535-0.05916 0.14265-0.1518 0.26939-0.27239 0.38021-0.12285 0.10846-0.27918 0.19659-0.4695 0.25966-0.18956 0.063664-0.41311 0.093137-0.67039 0.093137-0.25703 0-0.48133-0.029474-0.67241-0.093137-0.19032-0.063074-0.34665-0.1512-0.46749-0.25966-0.12235-0.11082-0.21323-0.23756-0.2744-0.38021-0.059663-0.14206-0.088614-0.29179-0.088614-0.44535v-1.9043c0-0.040969-0.012587-0.068085-0.037762-0.086064-0.026181-0.018274-0.075271-0.027116-0.14853-0.027116v-0.13558h0.91735v0.13558z" fill="#fff"/>
<path d="m24.278 96.773c-0.035228-0.018422-0.072675-0.027633-0.11179-0.027633v-0.1343h2.2019c0.17919 0 0.33314 0.020502 0.46434 0.068637 0.12898 0.043084 0.23744 0.10726 0.32454 0.18452 0.087099 0.077254 0.15312 0.16877 0.19334 0.2692 0.041885 0.10013 0.064076 0.20502 0.064076 0.31882 0 0.089436-0.01276 0.17323-0.04133 0.25137-0.028848 0.079334-0.064908 0.15005-0.10873 0.21423-0.045491 0.061506-0.096807 0.12064-0.14896 0.16877-0.05409 0.052295-0.11068 0.091219-0.16699 0.12301v0.0086167c0.06685 0.03001 0.13314 0.068637 0.19805 0.11915 0.064631 0.050215 0.12455 0.11142 0.17669 0.18244 0.052148 0.072797 0.095698 0.15035 0.12871 0.24097 0.02968 0.091813 0.04771 0.18927 0.04771 0.29654 0 0.12361-0.019972 0.23503-0.063798 0.34229-0.043549 0.10489-0.10846 0.20086-0.19999 0.27811-0.093479 0.082305-0.21414 0.14619-0.36199 0.19611-0.14785 0.046055-0.32648 0.068637-0.53424 0.068637h-2.1733v-0.13222c0.039111 0 0.076558-0.0095082 0.11179-0.027336 0.03495-0.018422 0.052148-0.045461 0.052148-0.086465v-2.8367c0-0.041301-0.017198-0.06834-0.052148-0.086762zm1.9902 1.1538c0.11484 0 0.21913-0.022582 0.31816-0.073094 0.10014-0.049918 0.15007-0.1551 0.15007-0.31199 0-0.080225-0.014979-0.14381-0.04133-0.19195-0.031067-0.050215-0.065185-0.086762-0.10873-0.11172-0.041608-0.031793-0.09126-0.048135-0.14896-0.054375-0.054367-0.009211-0.11262-0.011588-0.1692-0.011588h-1.2579v0.75471h1.2579zm-0.013869 1.4545c0.2183 0 0.36615-0.036547 0.44687-0.10934 0.080996-0.077551 0.12038-0.18214 0.12038-0.32179 0-0.15273-0.052148-0.27069-0.15755-0.34853-0.10208-0.073094-0.27683-0.10964-0.52259-0.10964h-1.1312v0.88931h1.2441z" fill="#fff"/>
<path d="m30.833 99.811c0.10032 0 0.15375-0.041 0.15375-0.11409v-2.8365c0-0.075464-0.053434-0.11349-0.15375-0.11349v-0.13518h1.8563c0.26298 0 0.48719 0.048725 0.67526 0.1441 0.18702 0.095668 0.33972 0.22134 0.45628 0.37376 0.11944 0.15509 0.20588 0.33097 0.26141 0.53122 0.056053 0.19847 0.08408 0.40614 0.08408 0.61768 0 0.21451-0.028027 0.42011-0.082246 0.6159-0.051076 0.20084-0.13568 0.37821-0.25224 0.5336-0.11577 0.15033-0.26429 0.27809-0.44738 0.37405-0.18257 0.095668-0.40678 0.14112-0.66819 0.14112h-1.8833v-0.13221zm1.662-0.42872c0.13882 0 0.27057-0.0095074 0.39421-0.032087 0.12546-0.022283 0.2339-0.07279 0.32846-0.15063 0.092724-0.077247 0.16685-0.19341 0.22238-0.34137 0.056053-0.14826 0.08408-0.35177 0.08408-0.60223 0-0.25046-0.028027-0.4513-0.08408-0.5951-0.055529-0.1435-0.12966-0.25313-0.22238-0.32592-0.094557-0.07279-0.203-0.11854-0.32846-0.13696-0.12363-0.016044-0.25538-0.025254-0.39421-0.025254h-0.8683v2.2096h0.8683z" fill="#fff"/>
<path d="m38.117 97.4c0-0.089662-0.083579-0.13672-0.25137-0.13672h-1.9704v0.71145h1.2417c0.094659 0 0.15893-0.0064044 0.20388-0.017264 0.042739-0.014758 0.065533-0.044553 0.065533-0.096067h0.14373v0.75238h-0.15956c0.015829-0.051236-0.0069649-0.083258-0.0668-0.096067-0.056669-0.010581-0.14183-0.017264-0.24884-0.017264h-1.1796v0.83731h2.0676c0.065533 0 0.11745-0.01253 0.16146-0.035921 0.042422-0.029516 0.065217-0.061817 0.065217-0.1072h0.14373v0.74821h-0.14373c0-0.042604-0.022794-0.065994-0.065217-0.072398-0.044005-0.0044553-0.095926-0.0089106-0.16146-0.0089106h-2.9629v-0.12363c0.025644 0 0.054769-0.01086 0.080413-0.025896 0.026593-0.016986 0.038624-0.042604 0.038624-0.080752v-2.6587c0-0.038427-0.01203-0.064044-0.038624-0.081309-0.025643-0.016986-0.054769-0.02339-0.080413-0.02339v-0.13032h2.8657c0.16779 0 0.25137-0.040376 0.25137-0.12614h0.14468v0.78858h-0.14468z" fill="#fff"/>
<path d="m38.82 98.784c0 0.020076 0 0.042479-0.0023478 0.062264-0.0044022 0.022694-0.0044022 0.047135-0.0044022 0.073612 0 0.073902 0.048424 0.14082 0.14292 0.20105 0.094794 0.064592 0.2072 0.11405 0.33897 0.15653 0.13148 0.042479 0.26589 0.077976 0.39649 0.10242 0.13412 0.024731 0.23537 0.038115 0.31197 0.038115 0.068968 0 0.15642-0.0090196 0.25767-0.015712 0.10154-0.011347 0.20397-0.03346 0.30287-0.064592 0.099489-0.031423 0.18401-0.075648 0.25562-0.13209 0.068968-0.060228 0.10389-0.13588 0.10389-0.22985 0-0.10678-0.059576-0.18505-0.18254-0.23655-0.12385-0.049171-0.27587-0.084959-0.46076-0.11376-0.1846-0.026768-0.38475-0.051208-0.59782-0.080304-0.216-0.027059-0.41674-0.073612-0.59928-0.13413-0.1846-0.062555-0.33867-0.15188-0.46135-0.26797-0.12179-0.11609-0.1846-0.28135-0.1846-0.49317 0-0.31714 0.13353-0.5694 0.39942-0.75706 0.26237-0.18767 0.63421-0.28135 1.1138-0.28135 0.23537 0 0.43582 0.017748 0.60163 0.056154 0.16846 0.035787 0.30933 0.075357 0.42437 0.1222 0.11592 0.04277 0.20866 0.082922 0.28145 0.12104 0.071902 0.037533 0.12502 0.055572 0.15907 0.055572 0.04138 0 0.071902-0.0043643 0.092152-0.018039 0.01937-0.013093 0.043728-0.026186 0.074544-0.039861l0.083055 0.080012-0.37595 0.69887-0.13412-0.046553c-0.00675-0.026768-0.0090978-0.058191-0.015848-0.087286-0.0055761-0.028804-0.028174-0.060228-0.067794-0.089323-0.098609-0.084668-0.25327-0.15624-0.46252-0.21647-0.21042-0.0579-0.44609-0.089323-0.70376-0.089323-0.10125 0-0.19575 0.0090196-0.28614 0.020076-0.090098 0.011347-0.1711 0.03346-0.23977 0.064592-0.068674 0.029386-0.12532 0.064883-0.16317 0.11202-0.03962 0.048589-0.061044 0.10707-0.061044 0.17428 0 0.11144 0.061044 0.18737 0.1846 0.23393 0.12062 0.047135 0.27499 0.084959 0.45959 0.11405 0.1846 0.027059 0.38504 0.053536 0.59928 0.080303 0.21483 0.026768 0.41322 0.073612 0.59987 0.13849 0.18519 0.062846 0.33691 0.15624 0.45841 0.28164 0.12267 0.12046 0.18489 0.29445 0.18489 0.51092 0 0.21909-0.05312 0.39541-0.16112 0.5339-0.10947 0.14053-0.23977 0.2476-0.39972 0.32791-0.16112 0.078267-0.33691 0.12977-0.53032 0.1545-0.19164 0.026768-0.37066 0.037824-0.54176 0.037824-0.16992 0-0.33691-0.015712-0.50449-0.046844-0.1667-0.033751-0.32107-0.071866-0.45724-0.11173-0.13647-0.04277-0.25327-0.084959-0.34807-0.12075-0.0945-0.035496-0.15202-0.053827-0.1711-0.053827-0.036978 0-0.066326 0.013675-0.092152 0.044807l-0.10389-0.075939 0.34337-0.83038 0.14322 0.035787z" fill="#fff"/>
<path d="m49.064 96.84c0-0.076402-0.052292-0.11237-0.15688-0.11237v-0.11609h1.0928v0.11609c-0.031709 0-0.063974 0.0094262-0.089564 0.026294-0.025868 0.021085-0.036437 0.048123-0.036437 0.086076v2.8743c0 0.036217 0.01057 0.064743 0.036437 0.084092 0.02559 0.018852 0.057855 0.030263 0.089564 0.030263v0.11436h-1.0928v-0.11436c0.10458 0 0.15688-0.037953 0.15688-0.11436v-1.1897h-2.2861v1.1897c0 0.036217 0.012795 0.064743 0.039497 0.084092 0.025868 0.018852 0.056464 0.030263 0.089842 0.030263v0.11436h-1.0739v-0.11436c0.091789 0 0.13546-0.037953 0.13546-0.11436v-2.8743c0-0.076402-0.043669-0.11237-0.13546-0.11237v-0.11609h1.0739v0.11609c-0.033378 0-0.063974 0.0094262-0.089842 0.026294-0.026702 0.021085-0.039497 0.048123-0.039497 0.086076v1.0776h2.2861v-1.0776z" fill="#fff"/>
<path d="m50.833 99.809c0.051439-0.013658 0.091695-0.040975 0.12375-0.091451 0.032802-0.045132 0.055415-0.088482 0.074798-0.13183l0.94205-2.4585c0.024601-0.070964 0.045723-0.12768 0.060633-0.17103 0.015407-0.043647 0.021122-0.086403 0.021122-0.1253 0-0.029692-0.0037275-0.047804-0.015158-0.057305-0.0094429-0.0089075-0.020874-0.013658-0.032553-0.024941v-0.13688h0.95547v0.13688c-0.013419 0.011283-0.026589 0.016034-0.041996 0.020784-0.01317 0.0041568-0.020874 0.02702-0.020874 0.061462 0 0.029395 0.0094429 0.065916 0.028577 0.10956 0.019134 0.042756 0.03802 0.091154 0.060882 0.14816l1.0246 2.5746c0.024353 0.045132 0.045475 0.079574 0.070076 0.097686 0.02485 0.020487 0.053675 0.034443 0.082004 0.048101v0.13421h-0.90005v-0.11402c0.021122 0 0.045972-0.0065322 0.066846-0.02019 0.02485-0.018409 0.036032-0.04335 0.036032-0.084028 0-0.029989-0.0054669-0.059384-0.01317-0.084622-0.0094429-0.022863-0.019134-0.059384-0.032305-0.097983l-0.16972-0.43083h-1.3578l-0.17743 0.40618c-0.015158 0.043053-0.030565 0.076902-0.041748 0.11134-0.0094428 0.034146-0.013419 0.061759-0.013419 0.088482 0 0.038896 0.0074549 0.063838 0.030565 0.073042 0.020874 0.013658 0.05119 0.018409 0.089459 0.018409v0.13421h-0.8506v-0.13421zm2.1167-1.2577l-0.51265-1.2759-0.45028 1.2759h0.96292z" fill="#fff"/>
<path d="m55.917 96.747c-0.092614 0-0.13892 0.038316-0.13892 0.11524v1.726c0 0.23962 0.073235 0.43415 0.22424 0.58122 0.14848 0.14236 0.37826 0.21693 0.6873 0.21693 0.30703 0 0.53479-0.074569 0.68554-0.21693 0.14874-0.14707 0.22801-0.3416 0.22801-0.58122v-1.726c0-0.076927-0.057884-0.11524-0.16233-0.11524v-0.13558h0.89241v0.13558c-0.09664 0-0.14295 0.038316-0.14295 0.11318v1.9043c0 0.15356-0.029193 0.30329-0.088838 0.44535-0.061658 0.14265-0.15276 0.26939-0.27407 0.38021-0.12206 0.10846-0.2786 0.19659-0.4676 0.25966-0.19127 0.063664-0.41324 0.093137-0.67019 0.093137-0.25897 0-0.48295-0.029474-0.67195-0.093137-0.19127-0.063074-0.3478-0.1512-0.46936-0.25966-0.12181-0.11082-0.21241-0.23756-0.2723-0.38021-0.058135-0.14206-0.08909-0.29179-0.08909-0.44535v-1.9043c0-0.040969-0.013338-0.068085-0.038505-0.086064-0.025167-0.018274-0.075248-0.027116-0.14848-0.027116v-0.13558h0.91708v0.13558z" fill="#fff"/>
<path d="m60.428 99.792c0.025498-0.017455 0.039297-0.045328 0.039297-0.084461v-2.3894h-0.99442c-0.041397 0-0.078294 0.0084462-0.11519 0.027872-0.036897 0.02196-0.054896 0.04758-0.054896 0.093189h-0.13619v-0.82744h0.13619c0 0.068695 0.017998 0.11656 0.054896 0.13795 0.036897 0.023931 0.073794 0.036881 0.11519 0.036881h2.7232c0.041397 0 0.078294-0.012951 0.11519-0.036881 0.034497-0.021397 0.053096-0.069258 0.053096-0.13795h0.13559v0.82744h-0.13559c0-0.045609-0.018598-0.071229-0.053096-0.093189-0.036897-0.019426-0.073794-0.027872-0.11519-0.027872h-0.99682v2.3894c0 0.07151 0.048596 0.11036 0.14279 0.11036v0.12528h-0.99202v-0.12528c0.029698 0 0.053096-0.0087277 0.077994-0.025901" fill="#fff"/>
<path d="m63.82 98.784c0 0.020076-0.002056 0.042479-0.0046994 0.062264-0.002056 0.022694-0.002056 0.047135-0.002056 0.073612 0 0.073902 0.049931 0.14082 0.14392 0.20105 0.094869 0.064592 0.2053 0.11405 0.33836 0.15653 0.13511 0.042479 0.26375 0.077976 0.3968 0.10242 0.13511 0.024731 0.23644 0.038115 0.31104 0.038115 0.069903 0 0.15567-0.0090196 0.25876-0.015712 0.10162-0.011347 0.20325-0.03346 0.30487-0.064592 0.098981-0.031423 0.18239-0.075648 0.2523-0.13209 0.069903-0.060228 0.10574-0.13588 0.10574-0.22985 0-0.10678-0.060798-0.18505-0.18474-0.23655-0.1216-0.049171-0.27491-0.084959-0.45966-0.11376-0.18504-0.026768-0.38535-0.051208-0.59947-0.080304-0.21441-0.027059-0.41472-0.073612-0.59976-0.13413-0.18474-0.062555-0.33806-0.15188-0.45966-0.26797-0.12424-0.11609-0.18474-0.28135-0.18474-0.49317 0-0.31714 0.13511-0.5694 0.3968-0.75706 0.26581-0.18767 0.63735-0.28135 1.1179-0.28135 0.23409 0 0.43499 0.017748 0.60152 0.056154 0.16918 0.035787 0.30869 0.075357 0.42618 0.1222 0.11279 0.04277 0.20736 0.082922 0.28196 0.12104 0.06961 0.037533 0.12365 0.055572 0.15743 0.055572 0.042588 0 0.072253-0.0043643 0.092519-0.018039 0.017916-0.013093 0.044938-0.026186 0.074309-0.039861l0.081064 0.080012-0.37389 0.69887-0.1354-0.046553c-0.0046994-0.026768-0.0091051-0.058191-0.01586-0.087286-0.0044057-0.028804-0.026728-0.060228-0.065204-0.089323-0.099274-0.084668-0.257-0.15624-0.46436-0.21647-0.20971-0.0579-0.44644-0.089323-0.7055-0.089323-0.099274 0-0.19591 0.0090196-0.28167 0.020076-0.09017 0.011347-0.17388 0.03346-0.24349 0.064592-0.069903 0.029386-0.12395 0.064883-0.16448 0.11202-0.040532 0.048589-0.058742 0.10707-0.058742 0.17428 0 0.11144 0.060798 0.18737 0.18474 0.23393 0.11983 0.047135 0.27286 0.084959 0.4576 0.11405 0.18474 0.027059 0.38535 0.053536 0.60182 0.080303 0.21177 0.026768 0.41266 0.073612 0.59741 0.13849 0.18445 0.062846 0.33806 0.15624 0.46171 0.28164 0.12189 0.12046 0.18504 0.29445 0.18504 0.51092 0 0.21909-0.056393 0.39541-0.16448 0.5339-0.10632 0.14053-0.23879 0.2476-0.39886 0.32791-0.16007 0.078267-0.33571 0.12977-0.52986 0.1545-0.1915 0.026768-0.37184 0.037824-0.54072 0.037824-0.17123 0-0.34071-0.015712-0.50724-0.046844-0.16477-0.033751-0.3178-0.071866-0.45525-0.11173-0.13981-0.04277-0.25494-0.084959-0.34952-0.12075-0.094282-0.035496-0.15332-0.053827-0.17358-0.053827-0.033777 0-0.063148 0.013675-0.089876 0.044807l-0.10368-0.075939 0.34452-0.83038 0.14216 0.035787z" fill="#fff"/>
<mask id="a" fill="white">
<use xlink:href="#b"/>
</mask>
<polygon points="67.5 99.11 69.167 99.11 69.167 98.277 67.5 98.277" fill="#fff" mask="url(#a)"/>
<path d="m70 99.811c0.10054 0 0.15448-0.041 0.15448-0.11409v-2.8365c0-0.075464-0.053937-0.11349-0.15448-0.11349v-0.13518h1.8566c0.26314 0 0.48595 0.048725 0.6729 0.1441 0.18695 0.095668 0.33959 0.22134 0.46003 0.37376 0.11651 0.15509 0.20318 0.33097 0.25947 0.53122 0.053937 0.19847 0.084309 0.40614 0.084309 0.61768 0 0.21451-0.028016 0.42011-0.082476 0.6159-0.052104 0.20084-0.13851 0.37821-0.25319 0.5336-0.11678 0.15033-0.26314 0.27809-0.44589 0.37405-0.18302 0.095668-0.4061 0.14112-0.66923 0.14112h-1.8825v-0.13221zm1.6618-0.42872c0.13851 0 0.26916-0.0095074 0.39353-0.032087 0.12463-0.022283 0.23695-0.07279 0.32964-0.15063 0.092425-0.077247 0.16862-0.19341 0.22282-0.34137 0.05446-0.14826 0.082476-0.35177 0.082476-0.60223 0-0.25046-0.028016-0.4513-0.082476-0.5951-0.054198-0.1435-0.13039-0.25313-0.22282-0.32592-0.092687-0.07279-0.20501-0.11854-0.32964-0.13696-0.12437-0.016044-0.25502-0.025254-0.39353-0.025254h-0.86848v2.2096h0.86848z" fill="#fff" mask="url(#a)"/>
<path d="m77.282 97.4c0-0.089662-0.084789-0.13672-0.24994-0.13672h-1.9691v0.71145h1.243c0.094596 0 0.15756-0.0064044 0.20121-0.017264 0.043976-0.014758 0.065806-0.044553 0.065806-0.096067h0.14553v0.75238h-0.16262c0.017084-0.051236-0.0047456-0.083258-0.060744-0.096067-0.062642-0.010581-0.14553-0.017264-0.25215-0.017264h-1.1801v0.83731h2.0659c0.065806 0 0.11927-0.01253 0.16293-0.035921 0.043343-0.029516 0.063275-0.061817 0.063275-0.1072h0.14522v0.74821h-0.14522c0-0.042604-0.019932-0.065994-0.063275-0.072398-0.04366-0.0044553-0.097127-0.0089106-0.16293-0.0089106h-2.9619v-0.12363c0.026892 0 0.055998-0.01086 0.082574-0.025896 0.026576-0.016986 0.039231-0.042604 0.039231-0.080752v-2.6587c0-0.038427-0.012655-0.064044-0.039231-0.081309-0.026576-0.016986-0.055682-0.02339-0.082574-0.02339v-0.13032h2.8651c0.16515 0 0.24994-0.040376 0.24994-0.12614h0.14775v0.78858h-0.14775z" fill="#fff" mask="url(#a)"/>
<polygon points="78.333 99.11 80 99.11 80 98.277 78.333 98.277" fill="#fff" mask="url(#a)"/>
<path d="m81.182 98.895l0.063118 0.031742c0 0.039555 0.0094429 0.071297 0.024601 0.099376 0.032304 0.050543 0.087719 0.10109 0.17569 0.14821 0.085483 0.046636 0.18463 0.091807 0.29745 0.12721 0.11232 0.035648 0.22862 0.065925 0.35063 0.089854 0.12425 0.022708 0.23284 0.035893 0.32975 0.035893 0.072561 0 0.16624-0.0075692 0.28055-0.016848 0.11431-0.0095225 0.22688-0.031986 0.33572-0.065437 0.11058-0.034184 0.20576-0.078866 0.28403-0.13893 0.080016-0.056159 0.12201-0.13307 0.12201-0.22854 0-0.097423-0.036032-0.16506-0.11058-0.21169-0.0743-0.04688-0.16972-0.078866-0.29174-0.099376-0.12002-0.022219-0.25744-0.033695-0.41201-0.041264-0.15432-0.0075693-0.31261-0.014894-0.47289-0.028079-0.16003-0.011232-0.31832-0.031986-0.47314-0.062019-0.15432-0.029788-0.28975-0.078622-0.41151-0.14577-0.12052-0.067635-0.21545-0.16115-0.29198-0.28128-0.072312-0.11598-0.11058-0.27371-0.11058-0.4627 0-0.12916 0.030565-0.25686 0.091695-0.38066 0.062621-0.12721 0.1563-0.23587 0.28229-0.32938 0.12947-0.095714 0.28801-0.17434 0.48233-0.2344 0.19457-0.058112 0.42319-0.089854 0.68461-0.089854 0.22315 0 0.41772 0.017092 0.58372 0.046636 0.16376 0.035648 0.30689 0.071297 0.42692 0.10865 0.12002 0.037846 0.22141 0.07325 0.30515 0.10499 0.082252 0.033939 0.15059 0.050787 0.206 0.050787 0.058894 0 0.10089-0.011476 0.12773-0.035648l0.0743 0.048834-0.43661 0.77743-0.065106-0.024173c-0.0072064-0.058356-0.024353-0.10695-0.049202-0.1443-0.034541-0.048834-0.089707-0.099376-0.166-0.1465-0.080264-0.046636-0.16972-0.089854-0.27832-0.12892-0.10511-0.035893-0.21743-0.067635-0.34143-0.088145-0.12201-0.024417-0.24601-0.033695-0.36604-0.033695-0.095671 0-0.19085 0.0073251-0.28975 0.02051-0.099399 0.014894-0.18712 0.037358-0.26912 0.065437-0.082004 0.028324-0.1486 0.065681-0.20029 0.11427-0.051687 0.048834-0.080016 0.10865-0.080016 0.17995 0 0.097423 0.036032 0.17238 0.11232 0.22488 0.074797 0.048834 0.16972 0.086191 0.29 0.11036 0.12201 0.024417 0.25719 0.041264 0.41375 0.050787 0.15258 0.0075692 0.31087 0.019045 0.47115 0.030277 0.16003 0.012697 0.31808 0.033207 0.47065 0.063484 0.15456 0.033695 0.29223 0.082285 0.41226 0.15016 0.12201 0.071053 0.22116 0.16115 0.29546 0.27884 0.070573 0.11793 0.10685 0.26614 0.10685 0.45513 0 0.21365-0.057154 0.38994-0.1737 0.52862-0.1163 0.13698-0.25918 0.24344-0.43263 0.32255-0.1737 0.080331-0.36082 0.13307-0.55887 0.15895-0.20402 0.028324-0.39113 0.041264-0.5626 0.041264-0.24005 0-0.44406-0.012941-0.60633-0.041264-0.16426-0.025882-0.29571-0.057868-0.40629-0.099132-0.10685-0.037602-0.19258-0.07325-0.2557-0.10524-0.064609-0.030033-0.11779-0.046636-0.1655-0.046636-0.028577 0-0.057403 0.016603-0.082004 0.050787l-0.089707-0.050787 0.34889-0.75521z" fill="#fff" mask="url(#a)"/>
<path d="m88.949 97.4c0-0.089662-0.082582-0.13672-0.24996-0.13672h-1.9693v0.71145h1.2432c0.092074 0 0.15757-0.0064044 0.20123-0.017264 0.043664-0.014758 0.063281-0.044553 0.063281-0.096067h0.14808v0.75238h-0.16263c0.014555-0.051236-0.0050625-0.083258-0.062965-0.096067-0.061383-0.010581-0.14333-0.017264-0.25281-0.017264h-1.1773v0.83731h2.0661c0.065812 0 0.11644-0.01253 0.1601-0.035921 0.046512-0.029516 0.065496-0.061817 0.065496-0.1072h0.14555v0.74821h-0.14555c0-0.042604-0.018984-0.065994-0.065496-0.072398-0.043664-0.0044553-0.094289-0.0089106-0.1601-0.0089106h-2.9622v-0.12363c0.026894 0 0.055687-0.01086 0.080051-0.025896 0.029109-0.016986 0.041133-0.042604 0.041133-0.080752v-2.6587c0-0.038427-0.012023-0.064044-0.041133-0.081309-0.024363-0.016986-0.053156-0.02339-0.080051-0.02339v-0.13032h2.8654c0.16738 0 0.24996-0.040376 0.24996-0.12614h0.14776v0.78858h-0.14776z" fill="#fff" mask="url(#a)"/>
<path d="m90 99.809c0.059233 0 0.10065-0.0089076 0.1219-0.027614 0.021461-0.017815 0.032835-0.047507 0.032835-0.086403v-2.8347c0-0.040678-0.011374-0.067994-0.032835-0.0867-0.021246-0.017815-0.062666-0.026723-0.1219-0.026723v-0.1351h0.83333v0.1351c-0.10065 0-0.15323 0.036224-0.15323 0.11342v2.8347c0 0.073042 0.05258 0.11402 0.15323 0.11402v0.13421h-0.83333v-0.13421z" fill="#fff" mask="url(#a)"/>
<path d="m92.5 99.809c0.079612 0 0.11929-0.040975 0.11929-0.11402v-2.8347c0-0.077199-0.039676-0.11342-0.11929-0.11342v-0.1351h0.97298v0.1351c-0.031637 0.0041569-0.047715 0.017815-0.047715 0.036224 0 0.029692 0.04979 0.095905 0.14522 0.20517l1.5881 1.9273v-2.0553c0-0.077199-0.043826-0.11342-0.13329-0.11342v-0.1351h0.80805v0.1351c-0.079612 0-0.11955 0.036224-0.11955 0.11342v2.8347c0 0.073042 0.039936 0.11402 0.11955 0.11402v0.13421h-0.85965v-0.13421c0.031637 0 0.045641-0.013658 0.045641-0.040975 0-0.018409-0.017893-0.054633-0.063534-0.10481-0.03812-0.050179-0.087651-0.10748-0.14133-0.1734l-1.6418-2.0003v2.2055c0 0.073042 0.04979 0.11402 0.139 0.11402v0.13421h-0.81168v-0.13421z" fill="#fff" mask="url(#a)"/>
<path d="m99.781 97.4c0-0.089662-0.085105-0.13672-0.24994-0.13672h-1.9691v0.71145h1.243c0.094596 0 0.16009-0.0064044 0.20153-0.017264 0.04366-0.014758 0.06549-0.044553 0.06549-0.096067h0.14585v0.75238h-0.16262c0.016768-0.051236-0.005062-0.083258-0.063592-0.096067-0.060428-0.010581-0.143-0.017264-0.25215-0.017264h-1.1776v0.83731h2.0659c0.063275 0 0.11896-0.01253 0.1604-0.035921 0.045874-0.029516 0.06549-0.061817 0.06549-0.1072h0.14585v0.74821h-0.14585c0-0.042604-0.019615-0.065994-0.06549-0.072398-0.041445-0.0044553-0.097127-0.0089106-0.1604-0.0089106h-2.9616v-0.12363c0.026576 0 0.055366-0.01086 0.079727-0.025896 0.026576-0.016986 0.041445-0.042604 0.041445-0.080752v-2.6587c0-0.038427-0.01487-0.064044-0.041445-0.081309-0.024361-0.016986-0.053151-0.02339-0.079727-0.02339v-0.13032h2.8648c0.16483 0 0.24994-0.040376 0.24994-0.12614h0.14806v0.78858h-0.14806z" fill="#fff" mask="url(#a)"/>
</g>
</g>
</g>
</g>
</svg>
