<?xml version="1.0" encoding="UTF-8"?>
<svg width="207px" height="62px" viewBox="0 0 207 62" version="1.1" xmlns="http://www.w3.org/2000/svg" xmlns:xlink="http://www.w3.org/1999/xlink">
    <!-- Generator: Sketch 55.2 (78181) - https://sketchapp.com -->
    <title>LOGO</title>
    <desc>Created with Sketch.</desc>
    <defs>
        <polygon id="path-1" points="0 0.320458904 55.7555215 0.320458904 55.7555215 60.9999582 0 60.9999582"></polygon>
        <path d="M0.191551181,6.47831655 C0.191551181,6.47831655 -0.825464567,26.5948058 4.60724409,38.1457122 L4.60724409,38.1457122 C8.39737008,46.2077266 15.4083937,53.0432158 26.3814803,56.9376691 L26.3814803,56.9376691 C37.3499764,53.0432158 44.3601654,46.2077266 48.1515433,38.1457122 L48.1515433,38.1457122 C53.5800787,26.5948058 52.5680709,6.47831655 52.5680709,6.47831655 L52.5680709,6.47831655 C36.2895591,6.47831655 26.3814803,0.326417266 26.3814803,0.326417266 L26.3814803,0.326417266 C26.3814803,0.326417266 16.4717323,6.47831655 0.191551181,6.47831655 L0.191551181,6.47831655 Z" id="path-3"></path>
        <polygon id="path-5" points="0 61 206.713768 61 206.713768 0.320458904 0 0.320458904"></polygon>
    </defs>
    <g id="Symbols" stroke="none" stroke-width="1" fill="none" fill-rule="evenodd">
        <g id="LOGO-RACING-92">
            <g id="LOGO">
                <g id="Group-3" transform="translate(0.000000, 0.500000)">
                    <mask id="mask-2" fill="white">
                        <use xlink:href="#path-1"></use>
                    </mask>
                    <g id="Clip-2"></g>
                    <path d="M27.8785263,60.9999582 C39.5231579,56.8268897 46.9661053,49.4981158 50.9896842,40.8590952 C56.7517895,28.476513 55.676,6.91802671 55.676,6.91802671 C38.3964211,6.91802671 27.8785263,0.320417123 27.8785263,0.320417123 C27.8785263,0.320417123 17.3593684,6.91802671 0.0793684211,6.91802671 C0.0793684211,6.91802671 -0.996,28.476513 4.76905263,40.8590952 C8.79094737,49.4981158 16.2343158,56.8268897 27.8785263,60.9999582" id="Fill-1" fill="#C9DFF5" mask="url(#mask-2)"></path>
                </g>
                <g id="Group-9" transform="translate(1.000000, 4.500000)">
                    <mask id="mask-4" fill="white">
                        <use xlink:href="#path-3"></use>
                    </mask>
                    <g id="Clip-5"></g>
                    <polygon id="Fill-4" fill="#FFFFFF" mask="url(#mask-4)" points="-0.830472441 14.4710288 53.5884252 14.4710288 53.5884252 8.14853957 -0.830472441 8.14853957"></polygon>
                    <polygon id="Fill-6" fill="#FFFFFF" mask="url(#mask-4)" points="-0.830472441 27.0212806 53.5884252 27.0212806 53.5884252 20.6987914 -0.830472441 20.6987914"></polygon>
                    <polygon id="Fill-7" fill="#FFFFFF" mask="url(#mask-4)" points="3.88819685 36.2340799 5.40015748 39.5724755 53.5888425 39.5724755 53.5888425 33.2499863 2.83237008 33.2499863"></polygon>
                    <polygon id="Fill-8" fill="#FFFFFF" mask="url(#mask-4)" points="13.0772283 49.1048849 16.9299528 52.1230144 35.8167323 52.1230144 39.7324724 49.1700863 43.1207165 45.7988849 9.82711811 45.7988849"></polygon>
                </g>
                <g id="Group-88" transform="translate(0.000000, 0.500000)">
                    <path d="M27.4891852,59.5223377 L27.4269607,59.5010295 C17.368586,55.837687 9.91243768,49.2430021 5.86494469,40.4197281 C0.55553988,28.8414267 1.48558798,8.54889932 1.49471423,8.34626233 L1.50425531,8.16535137 L1.67931343,8.16535137 C17.4801752,8.16535137 27.2933856,2.04237192 27.392115,1.97886507 L27.4891852,1.91577603 L27.5879146,1.97886507 C27.6870589,2.04237192 37.5006842,8.16535137 53.2969828,8.16535137 L53.474115,8.16535137 L53.4832413,8.34626233 C53.4931972,8.54889932 54.4232453,28.8414267 49.1134257,40.4197281 C45.0671772,49.2430021 37.6118585,55.837687 27.5534838,59.5010295 L27.4891852,59.5223377 Z M1.85893467,8.54096096 C1.77928737,10.5664952 1.19271824,29.3444678 6.20261603,40.2617966 C10.2003295,48.9739336 17.5594076,55.493413 27.4891852,59.1237486 C37.4210369,55.493413 44.7842633,48.9739336 48.7782433,40.2617966 C53.7848224,29.3444678 53.1986681,10.5664952 53.1219246,8.54096096 C38.1598485,8.49792671 28.5594457,2.99915274 27.4891852,2.35447466 C26.4197543,2.99915274 16.8201812,8.49792671 1.85893467,8.54096096 L1.85893467,8.54096096 Z" id="Fill-10" fill="#FFFFFF"></path>
                    <path d="M27.4891852,59.509887 L27.4269607,59.4889966 C17.3727343,55.8269075 9.92031944,49.2351473 5.8749006,40.4160514 C0.56756994,28.8435993 1.49720321,8.55942808 1.50632946,8.3567911 L1.51587054,8.17629795 L1.69092866,8.17629795 C17.4847383,8.17629795 27.2933856,2.05624315 27.392115,1.99315411 L27.4891852,1.92922945 L27.5879146,1.99315411 C27.6870589,2.05624315 37.496121,8.17629795 53.2857824,8.17629795 L53.4624998,8.17629795 L53.4712112,8.3567911 C53.481582,8.55942808 54.4108004,28.8435993 49.1038846,40.4160514 C45.0588806,49.2351473 37.6077102,55.8269075 27.5534838,59.4889966 L27.4891852,59.509887 Z M1.8705499,8.55190753 C1.79048778,10.5761884 1.2047483,29.3462226 6.21174228,40.2581199 C10.2077964,48.9664966 17.5635559,55.4830514 27.4891852,59.1117158 C37.4168886,55.4830514 44.7767964,48.9664966 48.769117,40.2581199 C53.7727924,29.3462226 53.1870529,10.5761884 53.1107242,8.55190753 C38.1548705,8.50887329 28.558616,3.01260616 27.4891852,2.3687637 C26.4201691,3.01260616 16.8247443,8.50887329 1.8705499,8.55190753 L1.8705499,8.55190753 Z M27.4891852,59.509887 L27.4269607,59.4889966 C17.3727343,55.8269075 9.92031944,49.2351473 5.8749006,40.4160514 C0.56756994,28.8435993 1.49720321,8.55942808 1.50632946,8.3567911 L1.51587054,8.17629795 L1.69092866,8.17629795 C17.4847383,8.17629795 27.2933856,2.05624315 27.392115,1.99315411 L27.4891852,1.92922945 L27.5879146,1.99315411 C27.6870589,2.05624315 37.496121,8.17629795 53.2857824,8.17629795 L53.4624998,8.17629795 L53.4712112,8.3567911 C53.481582,8.55942808 54.4108004,28.8435993 49.1038846,40.4160514 C45.0588806,49.2351473 37.6077102,55.8269075 27.5534838,59.4889966 L27.4891852,59.509887 Z M1.8705499,8.55190753 C1.79048778,10.5761884 1.2047483,29.3462226 6.21174228,40.2581199 C10.2077964,48.9664966 17.5635559,55.4830514 27.4891852,59.1117158 C37.4168886,55.4830514 44.7767964,48.9664966 48.769117,40.2581199 C53.7727924,29.3462226 53.1870529,10.5761884 53.1107242,8.55190753 C38.1548705,8.50887329 28.558616,3.01260616 27.4891852,2.3687637 C26.4201691,3.01260616 16.8247443,8.50887329 1.8705499,8.55190753 Z" id="Stroke-12" stroke="#FFFFFF" stroke-width="0.5"></path>
                    <path d="M19.5045024,51.3409842 C19.5045024,51.7165938 19.3821277,52.0662993 19.1299112,52.3892651 C18.8785244,52.7109774 18.6072259,52.873087 18.3143561,52.873087 C18.1774623,52.873087 18.0621397,52.8521966 17.9679733,52.8099979 C17.8758812,52.7648747 17.8045305,52.7439842 17.7568251,52.7439842 C17.6551918,52.7774089 17.559781,52.8062377 17.4689333,52.8346486 C17.3805745,52.8630596 17.289312,52.873087 17.1988792,52.873087 C17.0636447,52.873087 16.9466627,52.8450938 16.8450295,52.7857651 C16.7280475,52.7230938 16.668312,52.6303404 16.668312,52.5166966 C16.668312,52.4398199 16.7023281,52.3767308 16.7653822,52.3228336 C16.81931,52.2789637 16.8616226,52.2580733 16.897298,52.2580733 L17.1739894,52.2580733 C17.2021978,52.2580733 17.2955345,52.2931692 17.4515104,52.363361 C17.5041938,52.3825801 17.5805224,52.4151692 17.6817409,52.4644705 C17.7514323,52.4644705 17.8119974,52.3332788 17.8667549,52.0729842 C17.9227569,51.814361 17.9787589,51.5490527 18.0343461,51.278313 C18.1177269,50.9269363 18.2189453,50.6687308 18.3392459,50.4974295 C18.3662098,50.4623336 18.4018852,50.4030048 18.4500054,50.3190253 C18.5010295,50.2367171 18.5450014,50.1932651 18.5918772,50.1932651 C18.6180114,50.1932651 18.6532719,50.2037103 18.6943401,50.2162445 C18.6379232,50.3152651 18.5769433,50.41345 18.5205265,50.5078747 C18.4670134,50.6265322 18.4441978,50.7314021 18.4441978,50.8329295 L18.4441978,51.5628404 L18.4441978,51.7483473 C18.4280194,51.8845527 18.3769954,52.0291144 18.2936146,52.1745116 C18.2309754,52.2860664 18.1583802,52.3892651 18.0749994,52.4803473 C18.0094563,52.5555527 17.9679733,52.5935733 17.9596768,52.5935733 C18.0198271,52.6391144 18.0907629,52.6775527 18.1704102,52.7038747 C18.2529613,52.7301966 18.3180896,52.7439842 18.3662098,52.7439842 C18.5956106,52.7439842 18.7938992,52.6353541 18.9594162,52.4222719 C19.154801,52.1674089 19.2531156,51.814361 19.2531156,51.3652171 C19.2531156,51.0284637 19.1722238,50.7171966 19.0141737,50.4272377 C18.8241818,50.0833815 18.5823361,49.9104089 18.2898812,49.9104089 L17.8601176,49.9104089 C17.7091196,49.9104089 17.540284,49.9872856 17.3552699,50.1422925 C17.1478551,50.3173541 17.0466367,50.5045322 17.0466367,50.7034089 C17.0466367,50.8467171 17.1013942,50.9666281 17.2133982,51.0631418 C17.3092238,51.14545 17.4075385,51.1872308 17.5041938,51.1872308 C17.5191277,51.1872308 17.5581216,51.1751144 17.6240796,51.14545 C17.6892078,51.1207993 17.7601437,51.1019979 17.834813,51.0877925 L17.834813,51.1872308 C17.7709293,51.2921007 17.6858892,51.3777514 17.5784483,51.4404226 C17.4888451,51.4930664 17.403805,51.5172993 17.3266467,51.5172993 C17.179797,51.5172993 17.0412439,51.4617308 16.9126467,51.3447445 C16.7836347,51.2277582 16.7176768,51.0911349 16.7176768,50.9302788 C16.7176768,50.7873884 16.7670415,50.6265322 16.8686747,50.4552308 C16.9856567,50.2509226 17.1387289,50.086724 17.3328691,49.9592925 C17.5684924,49.8088815 17.8364723,49.7320048 18.136809,49.7320048 C18.5022739,49.7320048 18.8208631,49.8418884 19.0892579,50.0654158 C19.3680234,50.2964637 19.5045024,50.5776486 19.5045024,50.9077171 L19.5045024,51.3409842 Z M17.5041938,52.5935733 C17.3872118,52.5409295 17.2839192,52.4991486 17.2009533,52.4644705 C17.1175725,52.4293747 17.0466367,52.4151692 16.9968571,52.4151692 C16.936292,52.4151692 16.8869273,52.4293747 16.8495926,52.4573678 C16.8122579,52.485361 16.7940054,52.5129363 16.7940054,52.539676 C16.7940054,52.5831281 16.8296808,52.6215664 16.8989573,52.6491418 C16.970308,52.6796418 17.0532739,52.6951007 17.1478551,52.6951007 C17.2075906,52.6951007 17.2615184,52.6896692 17.3054904,52.6829842 C17.3838932,52.6671075 17.4515104,52.6391144 17.5041938,52.5935733 L17.5041938,52.5935733 Z" id="Fill-14" fill="#1D1D1B"></path>
                    <path d="M21.0619389,52.4328425 C20.9656984,52.5310274 20.8860511,52.603726 20.8242415,52.6530274 C20.6375681,52.7980068 20.4724659,52.8732123 20.3243717,52.8732123 L20.0514138,52.8732123 C19.9431433,52.8732123 19.8311393,52.8205685 19.7141573,52.7156986 C19.5756042,52.5899384 19.5059128,52.4399452 19.5059128,52.2669726 C19.5059128,52.1934384 19.5382695,52.094 19.6058868,51.9703288 C19.6888527,51.8178288 19.7921453,51.6958288 19.9178387,51.5997329 C20.0792074,51.4794041 20.260488,51.4158973 20.460021,51.4158973 C20.6126784,51.4158973 20.723023,51.4493219 20.7885661,51.5140822 C20.840005,51.5629658 20.8698727,51.6448562 20.8698727,51.7463836 C20.8698727,51.9038973 20.7885661,52.0396849 20.6263677,52.1533288 C20.5450611,52.2164178 20.3961373,52.2895342 20.1825,52.3806164 C20.0227906,52.4466301 19.9431433,52.499274 19.9431433,52.5431438 C19.9431433,52.5870137 19.9717665,52.6283767 20.0281834,52.6701575 C20.0870892,52.7123562 20.1584399,52.7332466 20.240991,52.7332466 C20.4011152,52.7332466 20.5330311,52.7002397 20.6375681,52.6300479 C20.7769509,52.5201644 20.9196523,52.4086096 21.0619389,52.296637 L21.0619389,52.4328425 Z M20.5164379,51.7463836 C20.5164379,51.6853836 20.5060671,51.6402603 20.4828367,51.6151918 C20.4637545,51.5926301 20.4280792,51.5805137 20.3799589,51.5805137 C20.2783257,51.5805137 20.1990932,51.6327397 20.1418467,51.7359384 C20.0837705,51.839137 20.026524,51.9440068 19.9701072,52.0488767 L19.9701072,52.296637 C20.092482,52.2510959 20.1808407,52.2093151 20.240991,52.1675342 C20.4243457,52.0488767 20.5164379,51.9084932 20.5164379,51.7463836 L20.5164379,51.7463836 Z" id="Fill-16" fill="#1D1D1B"></path>
                    <path d="M22.9066034,52.3681658 C22.8286154,52.5031178 22.7269822,52.6180151 22.6046074,52.7124397 C22.464395,52.8189808 22.3266715,52.8732959 22.1839701,52.8732959 L21.933413,52.8732959 C21.8197497,52.8732959 21.7147978,52.8239945 21.616898,52.724974 C21.5322727,52.635563 21.4891305,52.5444808 21.4891305,52.4538164 C21.4891305,52.4137068 21.4995012,52.3735973 21.5235613,52.3351589 C21.5534291,52.2846041 21.5982307,52.2545219 21.658381,52.2545219 C21.6915673,52.2545219 21.7235092,52.2703986 21.7542066,52.2971384 C21.782415,52.3247137 21.7965192,52.3593918 21.7965192,52.3978301 C21.7965192,52.4174671 21.7861485,52.439611 21.7591846,52.4642616 C21.7011084,52.5273507 21.6675072,52.5866795 21.658381,52.6476795 L21.8778259,52.6476795 C21.9960523,52.531111 22.0669882,52.4571589 22.0898038,52.4237342 C22.1520283,52.3385014 22.1839701,52.247837 22.1839701,52.1446384 L22.1839701,51.894789 C22.1839701,51.8200014 22.1607397,51.7552411 22.1126194,51.6992548 C22.0669882,51.646611 22.006423,51.6169466 21.933413,51.6169466 C21.8450543,51.6169466 21.7488138,51.6762753 21.6492547,51.8007822 C21.5322727,51.9436726 21.4381064,52.1408781 21.3671705,52.3944877 C21.2817156,52.7019945 21.2406475,53.0621452 21.2406475,53.4845493 C21.2406475,53.559337 21.236914,53.6278575 21.2352547,53.6959603 C21.2335954,53.7623918 21.2319361,53.8238096 21.2302768,53.8864808 C21.2302768,53.9700425 21.2319361,54.0435767 21.2406475,54.1029055 L20.9336735,54.1029055 L20.9336735,52.8732959 C20.9452888,52.8014329 20.9589782,52.7262274 20.9710082,52.6510219 C21.0062687,52.4680219 21.0419441,52.2791726 21.073886,52.0903233 C21.1182727,51.8354603 21.1643188,51.5960562 21.2103649,51.3641726 C21.2319361,51.2329808 21.2535072,51.0997 21.2763228,50.9655836 C21.3215393,50.7713027 21.3916455,50.653063 21.4891305,50.6091932 L21.6280984,50.6091932 L21.6280984,50.7453986 C21.6280984,50.8218575 21.6152387,50.9217137 21.5853709,51.0458027 C21.5214872,51.3186315 21.4891305,51.4736384 21.4891305,51.507063 L21.4891305,51.7861589 C21.6044531,51.6746041 21.6915673,51.5927137 21.7488138,51.5455014 C21.8521064,51.4619397 21.9690884,51.4193233 22.1022487,51.4193233 C22.2727437,51.4193233 22.3971926,51.4736384 22.4772547,51.5839397 C22.5386495,51.6679192 22.5693469,51.7832342 22.5693469,51.9227822 C22.5693469,52.0978438 22.5112707,52.2632959 22.391385,52.4203918 C22.2532467,52.565789 22.1661325,52.6602137 22.1300423,52.7019945 L22.2926555,52.7019945 C22.4096375,52.687789 22.5303529,52.6213575 22.654387,52.5031178 C22.7361084,52.4203918 22.8215633,52.3385014 22.9066034,52.2545219 L22.9066034,52.3681658 Z" id="Fill-18" fill="#1D1D1B"></path>
                    <path d="M24.7494427,52.4173418 C24.7494427,52.4942185 24.6884627,52.5969993 24.5631842,52.7194171 C24.4408094,52.843924 24.332124,52.9011637 24.2375429,52.9011637 C24.0853004,52.9011637 23.9932082,52.8347322 23.9575329,52.702287 C23.908583,52.5167801 23.8683445,52.410239 23.8422102,52.3876774 C23.7463846,52.5502048 23.662589,52.6634308 23.5866752,52.7298623 C23.4829677,52.8276295 23.360593,52.8731705 23.2154026,52.8731705 C23.0996651,52.8731705 23.0158695,52.8205267 22.9665048,52.7160747 C22.9275108,52.6354377 22.9059397,52.5272253 22.9059397,52.3876774 C22.9154808,52.3070404 22.9241922,52.2305815 22.9329036,52.1466021 C22.961112,51.9610952 23.0021802,51.809013 23.0532042,51.6920267 C23.1257994,51.5282459 23.2199657,51.4455199 23.3307253,51.4455199 C23.3522964,51.4455199 23.3697192,51.4530404 23.3871421,51.4684993 C23.4033204,51.4827048 23.4323585,51.5119514 23.4713525,51.5591637 C23.414106,51.6184925 23.3680599,51.7513555 23.3357032,51.9610952 C23.2884126,52.2439514 23.2593745,52.4048075 23.2473445,52.4432459 L23.2473445,52.7298623 L23.3871421,52.7298623 C23.5933124,52.5673349 23.7472142,52.3701295 23.852581,52.1466021 C23.908583,51.9857459 23.964585,51.8282322 24.0218315,51.6694651 C24.0749297,51.5416158 24.1566511,51.4756021 24.2661661,51.4756021 L24.3184347,51.4756021 C24.332124,51.4756021 24.3478876,51.4789445 24.3628214,51.4789445 C24.3798295,51.4789445 24.3947633,51.4756021 24.4105269,51.4756021 L24.4105269,51.7062322 C24.3557693,51.765561 24.3205088,51.8687596 24.3001822,52.013739 C24.2748776,52.2130336 24.2545509,52.3387938 24.2375429,52.3876774 L24.2375429,52.702287 C24.3271461,52.702287 24.4018154,52.6776363 24.4623806,52.630424 C24.5324868,52.5727664 24.6071561,52.4662253 24.6909517,52.3036979 C24.7307754,52.3333623 24.7494427,52.3701295 24.7494427,52.4173418" id="Fill-20" fill="#1D1D1B"></path>
                    <path d="M26.0436025,52.3385849 C26.0436025,52.4292493 25.9619745,52.5378795 25.8004552,52.6602973 C25.6128844,52.8031877 25.4091038,52.8733795 25.1937447,52.8733795 C25.0403303,52.8733795 24.9083361,52.8186466 24.8093404,52.708763 C24.730607,52.6285438 24.6906613,52.5516671 24.6906613,52.4818932 L24.6906613,52.2579479 C24.737554,52.0695164 24.7769207,51.9282973 24.8139718,51.8355438 C24.9338086,51.5560301 25.0715921,51.4139753 25.22848,51.4139753 C25.3101081,51.4139753 25.3651057,51.4248384 25.3917361,51.4440575 C25.4189454,51.4616055 25.4311028,51.4933589 25.4311028,51.5351397 C25.4264714,51.5660575 25.4241557,51.5940507 25.4241557,51.6120164 C25.4241557,51.6537973 25.3865258,51.8075507 25.3101081,52.0766192 C25.2331114,52.3456877 25.1937447,52.5186603 25.1937447,52.5917767 C25.1937447,52.6669822 25.2458477,52.7020781 25.347738,52.7020781 C25.4091038,52.7020781 25.4901529,52.6636397 25.5897275,52.584674 C25.7292477,52.4752082 25.8681891,52.3665781 26.0059726,52.2546055 C26.0239191,52.2654685 26.0314451,52.2721534 26.0343397,52.2759137 C26.0383922,52.2825986 26.0436025,52.303489 26.0436025,52.3385849 M25.6962492,50.7137288 C25.6962492,50.7839205 25.6487776,50.8399068 25.5555711,50.8867014 C25.4878372,50.9234685 25.4311028,50.9410164 25.3865258,50.9410164 C25.3077924,50.9410164 25.2371639,50.9197082 25.1734824,50.8779274 C25.1092221,50.8361466 25.0768024,50.7906055 25.0768024,50.7417219 C25.0768024,50.6928384 25.1092221,50.6406123 25.1734824,50.584626 C25.2481634,50.5252973 25.3344228,50.4935438 25.4241557,50.4935438 C25.5376245,50.4935438 25.6152001,50.521537 25.6551457,50.5741808 C25.6817761,50.6059342 25.6962492,50.6544 25.6962492,50.7137288" id="Fill-22" fill="#1D1D1B"></path>
                    <path d="M26.9874229,52.4624233 C26.9296307,52.5518342 26.8450989,52.6391562 26.7329648,52.7231356 C26.5979725,52.8221562 26.4728999,52.8731288 26.3599032,52.8731288 L26.0868998,52.8731288 C25.9898606,52.8731288 25.9001533,52.8367795 25.8117399,52.7649164 C25.695293,52.6688205 25.6344818,52.5342863 25.6344818,52.3613137 C25.6344818,52.3157726 25.7190136,52.1482315 25.8872148,51.8566014 C26.0549847,51.5645534 26.1567679,51.4179027 26.1843702,51.4179027 C26.2365557,51.4179027 26.2697646,51.4300192 26.2788216,51.4513274 C26.283997,51.4580123 26.2861535,51.4789027 26.2861535,51.5135808 L26.2861535,51.6853 C26.2861535,51.755074 26.3448082,51.8494986 26.4608239,51.9714986 C26.5781334,52.0955877 26.6380821,52.2180055 26.6380821,52.3387521 C26.6260061,52.3855466 26.6165178,52.4223137 26.6087547,52.4486356 C26.591072,52.5342863 26.5716642,52.5919438 26.5626072,52.628711 C26.6807793,52.6128342 26.7549603,52.5760671 26.7946385,52.5150671 C26.837767,52.4398616 26.9028911,52.3893068 26.9874229,52.3613137 L26.9874229,52.4624233 Z M26.2615702,52.3876356 L26.2615702,52.1707932 C26.2615702,52.1377863 26.2434562,52.0818 26.2046406,52.001163 C26.1804886,51.9543685 26.1589244,51.9050671 26.132616,51.8545123 C26.0730987,51.8841767 26.025226,51.9280466 25.9898606,51.9890466 C25.9536327,52.0487932 25.9182673,52.1110466 25.8859209,52.1707932 C25.9165422,52.1883411 25.9406941,52.212574 25.9583768,52.2388959 C25.9777847,52.2652178 25.9846852,52.2969712 25.9846852,52.3420945 C25.9846852,52.3926493 25.9665712,52.4448753 25.9350874,52.4887452 C25.9018785,52.5359575 25.8859209,52.5656219 25.8859209,52.5798274 C25.8859209,52.5990466 25.8984282,52.6195192 25.9247366,52.6424986 C25.9497511,52.6688205 25.9704528,52.6775945 25.9846852,52.6775945 C26.022207,52.6775945 26.0713735,52.6529438 26.1360663,52.6019712 C26.2210294,52.5376288 26.2615702,52.4661836 26.2615702,52.3876356 L26.2615702,52.3876356 Z" id="Fill-24" fill="#1D1D1B"></path>
                    <path d="M30.2226222,49.9276226 C30.0475641,50.3750952 29.9280932,50.8781363 29.8654539,51.4388349 C29.7891253,52.1148486 29.7488868,52.4607938 29.7422495,52.4854445 C29.6783657,52.7440678 29.5306864,52.8731705 29.3021152,52.8731705 C29.1490431,52.8731705 29.0710551,52.7962938 29.0710551,52.6408692 C29.0710551,52.471239 29.1162715,52.2548144 29.2112675,51.9895062 C29.2979669,51.7584582 29.3871553,51.5244856 29.480492,51.281739 C29.5721693,51.0389925 29.6211192,50.8534856 29.6211192,50.7239651 C29.6211192,50.6876158 29.6157265,50.6579514 29.6103337,50.6249445 L28.5682816,51.6694651 L28.4936122,51.6694651 L28.4936122,51.5161295 L30.0699649,49.7337596 L30.2226222,49.7337596 L30.2226222,49.9276226 Z" id="Fill-26" fill="#1D1D1B"></path>
                    <path d="M32.8904747,50.4764137 C32.8904747,50.5741808 32.8506511,50.6702767 32.7672703,50.7659548 C32.7502623,50.787263 32.5942864,50.9163658 32.3076391,51.1469959 C32.4673485,51.2777699 32.5818415,51.3738658 32.6457253,51.4369548 C32.7568996,51.5489274 32.8141461,51.713126 32.8141461,51.9299685 C32.8141461,52.2195096 32.7033866,52.4539 32.4814527,52.6214411 C32.2607633,52.787311 31.9554487,52.8729616 31.5684126,52.8729616 C31.1577313,52.8729616 30.8524166,52.7910712 30.6528836,52.6285438 C30.4811441,52.4923384 30.3977633,52.312263 30.3977633,52.0887356 C30.3977633,51.9734205 30.4620619,51.852674 30.5852663,51.7219 C30.6827513,51.6187014 30.7968295,51.5209342 30.9337232,51.4285986 C30.9996812,51.3847288 31.0689577,51.3446192 31.1365749,51.3011671 C31.0498756,51.2046534 30.9619317,51.1052151 30.8748174,51.0036877 C30.8175709,50.9025781 30.7885329,50.7764 30.7885329,50.6318384 C30.7885329,50.4500918 30.8818695,50.2633315 31.0726912,50.0711397 C31.2950399,49.8438521 31.5671681,49.7318795 31.87912,49.7318795 C32.1259437,49.7318795 32.3495369,49.7966397 32.5523886,49.9278315 C32.7793004,50.072811 32.8904747,50.255811 32.8904747,50.4764137 M32.3076391,52.1672836 C32.3076391,52.0331671 32.2313104,51.9090781 32.0757493,51.793763 C31.9641601,51.7097836 31.8202142,51.6362493 31.6468154,51.5698178 C31.5132403,51.5209342 31.4356671,51.4962836 31.4124367,51.4962836 C31.2979437,51.4962836 31.1838655,51.580263 31.0639798,51.7444616 C30.9581982,51.896126 30.9059297,52.0243932 30.9059297,52.1250849 C30.9059297,52.2495918 30.9548796,52.3699205 31.0590018,52.4802219 C31.1539978,52.586763 31.24609,52.6369 31.3327894,52.6369 L31.8376371,52.6369 C31.903595,52.6369 31.9919537,52.6005507 32.0956611,52.5274342 C32.2383625,52.4259068 32.3076391,52.303489 32.3076391,52.1672836 M32.4237914,50.4379753 C32.4237914,50.2913247 32.3528555,50.1705781 32.2122283,50.0761534 C32.1064467,50.0026192 32.0214066,49.9696123 31.957108,49.9696123 C31.7733385,49.9696123 31.6173625,50.0164068 31.487106,50.1095781 C31.3572643,50.2040027 31.2929657,50.3159753 31.2929657,50.4379753 C31.2929657,50.5566329 31.3883766,50.6773795 31.5754647,50.7943658 C31.7372483,50.8954753 31.8496671,50.9477014 31.9156251,50.9477014 C32.0786531,50.9477014 32.2105689,50.8779274 32.3113725,50.7383795 C32.3872864,50.6318384 32.4237914,50.5324 32.4237914,50.4379753" id="Fill-28" fill="#1D1D1B"></path>
                    <path d="M35.6360663,50.4764137 C35.6360663,50.5741808 35.5945834,50.6702767 35.5095433,50.7659548 C35.4888018,50.787263 35.3361445,50.9163658 35.0515713,51.1469959 C35.2112808,51.2777699 35.3241144,51.3738658 35.3879982,51.4369548 C35.500417,51.5489274 35.5580784,51.713126 35.5580784,51.9299685 C35.5580784,52.2195096 35.4452447,52.4539 35.225385,52.6214411 C35.0030363,52.787311 34.6997958,52.8729616 34.3115152,52.8729616 C33.902908,52.8729616 33.5963489,52.7910712 33.3934972,52.6285438 C33.2250764,52.4923384 33.1400363,52.312263 33.1400363,52.0887356 C33.1400363,51.9734205 33.2043349,51.852674 33.3275393,51.7219 C33.4262687,51.6187014 33.5391024,51.5209342 33.6776555,51.4285986 C33.7436134,51.3847288 33.8120603,51.3446192 33.8792627,51.3011671 C33.7942226,51.2046534 33.7054491,51.1052151 33.6191645,51.0036877 C33.5585994,50.9025781 33.530391,50.7764 33.530391,50.6318384 C33.530391,50.4500918 33.6241425,50.2633315 33.8149641,50.0711397 C34.0389721,49.8438521 34.3094411,49.7318795 34.6218078,49.7318795 C34.8694611,49.7318795 35.0934691,49.7966397 35.2963208,49.9278315 C35.5219882,50.072811 35.6360663,50.255811 35.6360663,50.4764137 M35.0515713,52.1672836 C35.0515713,52.0331671 34.971924,51.9090781 34.8196816,51.793763 C34.7068479,51.7097836 34.5624872,51.6362493 34.3907477,51.5698178 C34.2588319,51.5209342 34.1795994,51.4962836 34.1534651,51.4962836 C34.0422908,51.4962836 33.9277978,51.580263 33.8083269,51.7444616 C33.7021305,51.896126 33.6486174,52.0243932 33.6486174,52.1250849 C33.6486174,52.2495918 33.6992267,52.3699205 33.8012747,52.4802219 C33.8983449,52.586763 33.9883629,52.6369 34.0771365,52.6369 L34.5815693,52.6369 C34.6475273,52.6369 34.7325673,52.6005507 34.840423,52.5274342 C34.9822948,52.4259068 35.0515713,52.303489 35.0515713,52.1672836 M35.1681385,50.4379753 C35.1681385,50.2913247 35.0963729,50.1705781 34.9561605,50.0761534 C34.850379,50.0026192 34.7636796,49.9696123 34.7014551,49.9696123 C34.5176856,49.9696123 34.3600503,50.0164068 34.229379,50.1095781 C34.1007818,50.2040027 34.0373128,50.3159753 34.0373128,50.4379753 C34.0373128,50.5566329 34.1310643,50.6773795 34.3198118,50.7943658 C34.4811806,50.8954753 34.5940142,50.9477014 34.657898,50.9477014 C34.8213409,50.9477014 34.9532567,50.8779274 35.0553048,50.7383795 C35.1316335,50.6318384 35.1681385,50.5324 35.1681385,50.4379753" id="Fill-30" fill="#1D1D1B"></path>
                    <path d="M38.2623944,50.5568 C38.2623944,50.829211 38.13919,51.0702863 37.8948553,51.2833685 C37.7886589,51.3777932 37.5513764,51.5315466 37.1801038,51.7479712 C36.9025828,51.9104986 36.7445327,52.0483753 36.704709,52.1653616 L37.6397351,52.4816425 C37.6845367,52.4816425 37.7886589,52.4118685 37.9587391,52.275663 C38.0508313,52.2025466 38.1267451,52.1519918 38.1839916,52.1252521 L38.1839916,52.284437 C38.0110076,52.5309438 37.8579355,52.6918 37.7301679,52.7628274 C37.6011559,52.8363616 37.4538914,52.8731288 37.2875447,52.8731288 C37.1398653,52.8731288 36.9718593,52.8221562 36.7864305,52.7156151 C36.5993423,52.611163 36.4533222,52.558937 36.3512741,52.558937 C36.3214064,52.558937 36.2400998,52.6057315 36.1127471,52.7022452 C36.0335146,52.7578137 35.9588453,52.802937 35.884176,52.8313479 L35.884176,52.6742521 C36.0003283,52.4854027 36.2276549,52.2372247 36.5727932,51.9347315 C36.9909415,51.5699849 37.2585066,51.3234781 37.3713403,51.1943753 C37.6289495,50.9027452 37.7542281,50.6232315 37.7542281,50.3591767 C37.7542281,50.2196288 37.6932481,50.1026425 37.5704585,50.0044575 C37.4692401,49.9259096 37.3742441,49.8858 37.2875447,49.8858 C37.1518954,49.8858 37.011683,49.9346836 36.8693964,50.036211 C36.6823082,50.169074 36.5885567,50.3420466 36.5885567,50.5530397 C36.5885567,50.7067932 36.6507812,50.8099918 36.777719,50.8609644 C36.8847451,50.9027452 36.9631479,50.9441082 37.0150016,50.9863068 C36.9631479,51.0368616 36.9200056,51.0702863 36.89719,51.0878342 C36.8731299,51.1049644 36.8523884,51.1137384 36.8333062,51.1137384 C36.8312321,51.1137384 36.8121499,51.1120671 36.7756449,51.1087247 C36.7424585,51.1032932 36.7030497,51.1016219 36.6665447,51.1016219 C36.4860938,51.1016219 36.3595707,51.0598411 36.2799234,50.9670877 C36.1998613,50.8797658 36.1583784,50.7556767 36.1583784,50.5931493 C36.1583784,50.3537452 36.2869756,50.1410808 36.5449996,49.955574 C36.7569776,49.805163 36.9390878,49.7358068 37.0929896,49.7358068 L37.5219234,49.7358068 C37.6725066,49.7358068 37.8239194,49.7947178 37.9728433,49.9225671 C38.1669836,50.0850945 38.2623944,50.293163 38.2623944,50.5568" id="Fill-32" fill="#1D1D1B"></path>
                    <path d="M67.4916655,32.6703884 C67.5920543,32.7694089 67.8529822,32.8437788 68.2761084,32.8880664 L68.2761084,33.2887445 L61.3957437,33.2887445 L61.3957437,32.8880664 C61.8221886,32.8437788 62.0831164,32.7694089 62.1851645,32.6703884 C62.2822347,32.5680253 62.3345032,32.4330733 62.3345032,32.2789021 L62.3345032,16.6102582 C62.3345032,16.4502377 62.2822347,16.3182103 62.1851645,16.2191897 C62.0831164,16.1197514 61.8221886,16.0491418 61.3957437,16.0040185 L61.3957437,15.5941486 L73.6166255,15.5941486 C76.0869361,15.5941486 77.884393,16.0524842 78.9953068,16.9591281 C80.1074651,17.8703678 80.6645814,19.2742034 80.6645814,21.1794089 C80.6645814,22.7244637 80.2107577,23.9365253 79.3151405,24.8118336 C78.4124711,25.6871418 77.2679561,26.3155253 75.8927958,26.6974021 L79.8307737,32.2789021 C80.097924,32.6833404 80.419417,32.8880664 80.7981565,32.8880664 L80.7981565,33.2887445 L73.8522487,33.2887445 L73.8522487,32.8880664 C74.3438218,32.8659226 74.5873269,32.6632856 74.5873269,32.2789021 C74.5873269,32.2312719 74.496894,32.080861 74.3168579,31.8080322 C74.1422146,31.5385459 73.9206956,31.2118199 73.6531305,30.8332856 C73.3855653,30.4514089 73.0885473,30.041539 72.7699581,29.6086897 C72.4434872,29.1695733 72.1327798,28.7454979 71.8336876,28.3452377 C71.5329361,27.9412171 71.2703489,27.5814842 71.0504892,27.2677103 C70.8264812,26.956861 70.6800463,26.7421075 70.6145032,26.6297171 L67.341912,26.6297171 L67.341912,32.2789021 C67.341912,32.4330733 67.3900323,32.5680253 67.4916655,32.6703884 L67.4916655,32.6703884 Z M72.9512387,23.0645596 C73.9302367,23.0645596 74.6018459,22.8752925 74.969385,22.5097103 C75.3340202,22.1412034 75.5202788,21.7050116 75.5202788,21.2178473 C75.5202788,20.7177308 75.3340202,20.2911486 74.969385,19.9188815 C74.6018459,19.5503747 73.9302367,19.3673747 72.9512387,19.3673747 L67.341912,19.3673747 L67.341912,23.0645596 L72.9512387,23.0645596 Z" id="Fill-34" fill="#FFFFFF"></path>
                    <path d="M95.2765413,32.8882753 C95.3416695,32.8882753 95.4341766,32.8757411 95.5436916,32.849837 C95.6581846,32.8276932 95.7137717,32.7378644 95.7137717,32.5807685 C95.7137717,32.4909397 95.6743629,32.3564055 95.5963749,32.1637959 C95.5150683,31.9716041 95.4291986,31.7660425 95.3288098,31.5354123 C95.228421,31.3173164 95.1205653,31.0929534 95.0151986,30.8685904 C94.8994611,30.6438096 94.8098579,30.4516178 94.7418259,30.2911795 L86.9961265,30.2911795 C86.9517397,30.4516178 86.8832928,30.6438096 86.7783409,30.8685904 C86.6775373,31.0929534 86.5730002,31.3173164 86.461411,31.5354123 C86.351896,31.7660425 86.2531665,31.9716041 86.1623188,32.1637959 C86.0747898,32.3564055 86.0287437,32.4909397 86.0287437,32.5807685 C86.0287437,32.7378644 86.0843309,32.8276932 86.1988238,32.849837 C86.3054351,32.8757411 86.3962828,32.8882753 86.461411,32.8882753 L86.461411,33.2893712 L81.4560764,33.2893712 L81.4560764,32.8882753 C81.5892367,32.8882753 81.7228118,32.8561041 81.8534832,32.7988644 C81.9870583,32.7441315 82.077906,32.6576452 82.1210483,32.5519397 C82.7880944,30.9772205 83.4688299,29.4288233 84.1615954,27.8933781 C84.8489681,26.3541726 85.467894,24.9691384 86.0129802,23.7249055 C86.556407,22.4744055 87.0056675,21.4420014 87.3620062,20.621426 C87.7208339,19.8071178 87.8975513,19.3454397 87.8975513,19.2301247 C87.8975513,19.0279055 87.7490423,18.9121726 87.4657136,18.8933712 L87.4657136,18.4922753 L94.4427337,18.4922753 L94.4427337,18.8933712 C94.1556715,18.9121726 94.0096515,19.0279055 94.0096515,19.2301247 C94.0096515,19.296974 94.125389,19.5923644 94.3581084,20.1246521 C94.5945613,20.649837 94.8994611,21.3074671 95.2765413,22.1092411 C95.6581846,22.9043301 96.0717697,23.782563 96.5293269,24.7443575 C96.9872988,25.7094945 97.4411224,26.671289 97.8978499,27.6368438 C98.3545774,28.6049055 98.7847557,29.5153096 99.188385,30.3810082 C99.5833028,31.2404397 99.9085293,31.9649192 100.153279,32.5519397 C100.196006,32.6576452 100.283535,32.7441315 100.420844,32.7988644 C100.554004,32.8561041 100.687994,32.8882753 100.821984,32.8882753 L100.821984,33.2893712 L95.2765413,33.2893712 L95.2765413,32.8882753 Z M90.8034331,21.9872411 L88.0692908,27.8737411 L93.6080964,27.8737411 L90.8034331,21.9872411 Z" id="Fill-36" fill="#FFFFFF"></path>
                    <path d="M114.620422,24.1738822 L114.154153,23.9369849 C114.17448,23.8471562 114.206422,23.7569096 114.236289,23.6670808 C114.268231,23.5772521 114.283995,23.481574 114.283995,23.3691836 C114.283995,23.230889 114.147516,23.0775534 113.873313,22.8916288 C113.593303,22.7186562 113.23572,22.5573822 112.800564,22.4107315 C112.367482,22.2632452 111.876323,22.1316356 111.331652,22.0225877 C110.787396,21.9131219 110.236917,21.8554644 109.678141,21.8554644 C109.055897,21.8554644 108.423696,21.9294164 107.774488,22.0902726 C107.129428,22.2502932 106.551985,22.4871904 106.0405,22.8143342 C105.521963,23.1414781 105.105474,23.5580329 104.769462,24.0644164 C104.433035,24.5712178 104.267933,25.1837247 104.267933,25.9052795 C104.267933,26.6042726 104.433035,27.213437 104.769462,27.7260877 C105.105474,28.252526 105.521963,28.6694986 106.0405,28.9995671 C106.551985,29.3229507 107.129428,29.5665329 107.774488,29.7177795 C108.423696,29.8748753 109.055897,29.9613616 109.678141,29.9613616 C110.346017,29.9613616 110.976973,29.8748753 111.566031,29.7044096 C112.156333,29.5414644 112.678189,29.3359027 113.140309,29.0985877 C113.593303,28.8679575 113.945494,28.6306425 114.206422,28.3937452 C114.457394,28.158937 114.588895,27.9897247 114.588895,27.873574 L114.588895,27.5656493 C114.588895,27.4378 114.578524,27.3383616 114.555293,27.2644096 L114.924077,27.0341973 L118.09462,31.6217315 L117.690161,31.8594644 C117.493532,31.6125397 117.316814,31.4909575 117.15752,31.4909575 C117.067917,31.4909575 116.831464,31.5895603 116.442768,31.7917795 C116.050754,31.9902384 115.533877,32.2217041 114.887987,32.4715534 C114.246245,32.7255808 113.479225,32.9428411 112.600616,33.1258411 C111.719933,33.3054986 110.747987,33.3890603 109.678141,33.3890603 C108.452319,33.3890603 107.263418,33.2670603 106.090279,33.0167932 C104.922119,32.7727932 103.879237,32.3558205 102.967442,31.7596082 C102.053987,31.1604712 101.319738,30.3841836 100.763037,29.4228068 C100.209239,28.4610123 99.9292293,27.2840466 99.9292293,25.8864781 C99.9292293,24.5198274 100.209239,23.352889 100.763037,22.3910945 C101.319738,21.4297178 102.053987,20.6438205 102.967442,20.0379986 C103.879237,19.4317589 104.922119,18.9930603 106.090279,18.7110397 C107.263418,18.4277658 108.452319,18.2869644 109.678141,18.2869644 C110.41156,18.2869644 111.126311,18.350889 111.817003,18.4762315 C112.507694,18.5944712 113.140309,18.7231562 113.721071,18.8576904 C114.298929,18.9955671 114.797139,19.1238342 115.223584,19.2487589 C115.643806,19.3707589 115.944143,19.4317589 116.122935,19.4317589 C116.234524,19.4317589 116.336157,19.3962452 116.423686,19.3323205 C116.514119,19.2650534 116.579662,19.1977863 116.625708,19.1271767 L117.026848,19.2650534 L114.620422,24.1738822 Z" id="Fill-38" fill="#FFFFFF"></path>
                    <path d="M125.262586,18.8933295 C124.925744,18.9154733 124.666476,18.963939 124.47441,19.0278637 C124.29147,19.094713 124.1944,19.2518089 124.1944,19.4991514 L124.1944,32.2790692 C124.1944,32.5259938 124.29147,32.6864322 124.47441,32.7474322 C124.666476,32.8180418 124.925744,32.8627473 125.262586,32.8882336 L125.262586,33.2926719 L118.651861,33.2926719 L118.651861,32.8882336 C118.981235,32.8627473 119.242578,32.8180418 119.43174,32.7474322 C119.622562,32.6864322 119.718803,32.5259938 119.718803,32.2790692 L119.718803,19.4991514 C119.718803,19.2518089 119.622562,19.094713 119.43174,19.0278637 C119.242578,18.963939 118.981235,18.9154733 118.651861,18.8933295 L118.651861,18.4922336 L125.262586,18.4922336 L125.262586,18.8933295 Z" id="Fill-40" fill="#FFFFFF"></path>
                    <path d="M144.418051,32.7475158 C144.593524,32.8177075 144.815873,32.8628308 145.083438,32.8883171 L145.083438,33.2923377 L138.907869,33.2923377 L138.907869,32.8883171 C139.086245,32.8883171 139.290341,32.8628308 139.52555,32.8177075 C139.758269,32.7730021 139.875666,32.6510021 139.875666,32.4525432 C139.875666,32.2469815 139.630502,31.8688651 139.136855,31.3207007 C138.650259,30.7721185 138.023037,30.0927623 137.255602,29.2847212 C136.485263,28.4766801 135.622832,27.5817349 134.664576,26.5781596 C133.706319,25.5783445 132.760508,24.5200363 131.826311,23.4044884 L131.761183,23.4679952 L131.761183,32.2791527 C131.761183,32.5260774 131.839586,32.6831733 132.004688,32.7475158 C132.174768,32.8177075 132.383428,32.8628308 132.626933,32.8883171 L132.626933,33.2923377 L126.920951,33.2923377 L126.920951,32.8883171 C127.142055,32.8628308 127.341173,32.8177075 127.503372,32.7475158 C127.670133,32.6831733 127.754758,32.5260774 127.754758,32.2791527 L127.754758,19.4992349 C127.754758,19.2523103 127.663911,19.0947966 127.484704,19.0312897 C127.307157,18.9640226 127.095594,18.9155568 126.849185,18.8963377 L126.849185,18.4923171 L134.794832,18.4923171 L134.794832,18.8963377 C134.639271,18.9155568 134.486614,18.9640226 134.333127,19.0312897 C134.177151,19.0947966 134.0946,19.2523103 134.0946,19.4992349 C134.0946,19.5443582 134.285836,19.7749884 134.648812,20.1915432 C135.018011,20.6018308 135.489257,21.1282692 136.065041,21.7499678 C136.647877,22.3783514 137.290448,23.0777623 138.000636,23.8402623 C138.717047,24.6002555 139.430554,25.3598308 140.143231,26.1235842 L140.143231,19.4992349 C140.143231,19.2523103 140.056947,19.0947966 139.875666,19.0312897 C139.693971,18.9640226 139.474526,18.9155568 139.210279,18.8963377 L139.210279,18.4923171 L145.083438,18.4923171 L145.083438,18.8963377 C144.815873,18.9155568 144.593524,18.9640226 144.418051,19.0312897 C144.23677,19.0947966 144.147582,19.2523103 144.147582,19.4992349 L144.147582,32.2791527 C144.147582,32.5260774 144.23677,32.6831733 144.418051,32.7475158" id="Fill-42" fill="#FFFFFF"></path>
                    <path d="M162.636955,29.823276 C162.636955,30.0472212 162.694201,30.2532007 162.799568,30.4324404 C162.910742,30.6120979 163.066718,30.7015089 163.267081,30.7015089 L163.569907,30.7015089 L163.569907,31.1030226 C163.035191,31.3687486 162.426636,31.6474267 161.739263,31.9265226 C161.041935,32.2085432 160.296901,32.4588103 159.500842,32.6831733 C158.696073,32.9046116 157.871392,33.0871938 157.024724,33.2091938 C156.180961,33.3245089 155.333879,33.3888514 154.487626,33.3888514 C153.197921,33.3888514 152.007774,33.2505568 150.915943,32.9877555 C149.82743,32.718687 148.894478,32.2728856 148.129532,31.6574541 C147.360023,31.0416048 146.755201,30.2561253 146.322119,29.3039404 C145.889037,28.3521733 145.672496,27.2132281 145.672496,25.8858514 C145.672496,24.5647418 145.917245,23.4266322 146.407989,22.4744473 C146.895414,21.5222623 147.550844,20.74305 148.375526,20.1246938 C149.199378,19.5050842 150.138967,19.043824 151.198857,18.7425842 C152.255842,18.4409267 153.350578,18.2871733 154.487626,18.2871733 C155.333879,18.2871733 156.107951,18.3385637 156.807768,18.4409267 C157.508416,18.5370226 158.129001,18.6590226 158.660812,18.7935568 C159.195943,18.9285089 159.634832,19.043824 159.988682,19.146187 C160.325939,19.2489678 160.55451,19.2970158 160.666514,19.2970158 C160.838253,19.2970158 160.959384,19.2615021 161.01663,19.1979952 C161.073462,19.1269678 161.143568,19.0500911 161.233171,18.9602623 L161.634311,19.0279473 L159.896175,23.4650705 L159.500842,23.2666116 L159.500842,23.032639 C159.500842,22.8270774 159.342378,22.6382281 159.046189,22.4585705 C158.749586,22.2822555 158.370846,22.11555 157.925734,21.9680637 C157.479378,21.8239199 157.008961,21.7115295 156.51158,21.6346527 C156.008392,21.557776 155.553738,21.5189199 155.159235,21.5189199 C154.468544,21.5189199 153.80938,21.5957966 153.185891,21.7499678 C152.561572,21.9133308 152.020219,22.1698651 151.56764,22.5258377 C151.112987,22.8818103 150.753744,23.3401459 150.482861,23.8916527 C150.215295,24.4368925 150.080891,25.1037144 150.080891,25.8858514 C150.080891,26.6972349 150.215295,27.389961 150.482861,27.9573445 C150.753744,28.5276527 151.11672,29.0027007 151.580915,29.3678651 C152.051746,29.7397144 152.596832,30.0125432 153.220736,30.1951253 C153.841321,30.3747829 154.519568,30.4646116 155.257965,30.4646116 C155.811762,30.4646116 156.359752,30.4261733 156.890319,30.3426116 C157.42545,30.2623925 157.963484,30.1374678 158.49571,29.9582281 L158.49571,27.7714199 L155.691047,27.7714199 C155.4268,27.7714199 155.257965,27.8737829 155.190762,28.0789267 C155.121486,28.2778034 155.095352,28.450776 155.095352,28.5790432 L154.690893,28.5790432 L154.690893,24.4076459 L155.095352,24.4076459 C155.095352,24.5455226 155.121486,24.7126459 155.190762,24.9144473 C155.257965,25.1162486 155.4268,25.215687 155.691047,25.215687 L162.636955,25.215687 L162.636955,29.823276 Z" id="Fill-44" fill="#FFFFFF"></path>
                    <path d="M174.142006,27.8064322 L174.475944,27.9697952 L174.475944,28.2681103 C174.504568,29.4379733 176.589501,29.9389253 178.748275,29.9389253 C181.524315,29.9389253 184.162632,28.4381582 184.43393,25.2766034 C182.154441,26.4376925 180.428335,27.0080007 178.213145,27.0080007 C174.804075,27.0080007 171.760884,24.7698021 171.760884,21.1377952 C171.760884,16.8381308 176.134848,15.273439 179.665048,15.273439 C185.194728,15.273439 188.864726,18.10785 188.864726,23.9433774 C188.864726,29.8035555 184.162632,33.2028432 178.748275,33.2028432 C177.022169,33.2028432 175.57068,32.9333568 174.504568,32.6350418 C173.4509,32.3371445 172.820359,32.0672404 172.690517,32.0672404 C172.422537,32.0672404 172.19687,32.1641719 171.92972,32.4328226 L171.531898,32.2728021 L174.142006,27.8064322 Z M176.064742,21.1377952 C176.064742,23.1094322 178.449183,23.6028637 179.699894,23.6028637 C180.957658,23.6028637 183.341684,23.1094322 183.341684,21.1377952 C183.341684,19.1724253 180.957658,18.6718911 179.699894,18.6718911 C178.449183,18.6718911 176.064742,19.1724253 176.064742,21.1377952 L176.064742,21.1377952 Z" id="Fill-46" fill="#FFFFFF"></path>
                    <path d="M205.438125,29.0729342 C205.962884,29.0729342 206.163662,28.9317151 206.261562,28.3004068 L206.656894,28.3004068 L206.656894,33.7732767 L206.261562,33.7732767 C206.198093,33.1382082 205.927624,32.9978247 205.268874,32.9978247 L190.577682,32.9978247 C190.150407,32.9978247 189.915614,33.1707973 189.915614,33.7732767 L189.514059,33.7732767 C189.252716,27.5721671 195.90368,25.1710233 200.210441,22.4682219 C200.87251,22.0704685 201.165794,21.7111534 201.165794,20.9352836 C201.165794,20.1084411 200.478421,19.2038863 198.816199,19.2038863 C195.737748,19.2038863 193.261215,21.4391603 193.261215,22.3015164 C193.261215,22.4360507 193.32178,22.6349274 193.398109,22.8045575 L192.994065,23.1099753 L189.48585,18.1397288 L189.85173,17.8706603 C189.981987,18.008537 190.179445,18.1397288 190.446596,18.1397288 C191.137702,18.1397288 193.719602,15.2735644 198.749411,15.2735644 C202.521872,15.2735644 205.927624,17.6713658 205.927624,21.006311 C205.927624,25.9372836 199.179175,26.5723521 196.467019,29.0729342 L205.438125,29.0729342 Z" id="Fill-48" fill="#FFFFFF"></path>
                    <path d="M66.6340882,45.8672788 C66.5656413,45.8551623 66.4843347,45.8480596 66.3756493,45.8480596 L61.3367134,45.8480596 L61.3367134,45.65545 C61.5515952,45.65545 61.6565471,45.5919432 61.6565471,45.4632582 L61.6565471,40.6216966 C61.6565471,40.4942651 61.5515952,40.4324295 61.3367134,40.4324295 L61.3367134,40.237313 L63.1590601,40.237313 L63.1590601,40.4324295 C62.9636754,40.4324295 62.8632866,40.4942651 62.8632866,40.6216966 L62.8632866,44.8670459 L66.3756493,44.8670459 C66.4843347,44.8670459 66.5656413,44.8411418 66.6340882,44.7897514 C66.7021202,44.7387788 66.7357214,44.6748541 66.7357214,44.5912925 L66.9286172,44.5912925 L66.9286172,46.0469363 L66.7357214,46.0469363 C66.7357214,45.9412308 66.7021202,45.879813 66.6340882,45.8672788" id="Fill-50" fill="#FFFFFF"></path>
                    <path d="M72.0791008,42.1482007 C72.0791008,42.0136664 71.9687561,41.9430568 71.7497261,41.9430568 L69.1678263,41.9430568 L69.1678263,43.010139 L70.797692,43.010139 C70.9188222,43.010139 71.0063513,43.0009473 71.0619385,42.9846527 C71.1208443,42.9625089 71.1478082,42.9178034 71.1478082,42.8405089 L71.3357261,42.8405089 L71.3357261,43.9694267 L71.1270667,43.9694267 C71.1478082,43.89255 71.1208443,43.8440842 71.0428563,43.8248651 C70.9648683,43.8089884 70.8565978,43.7993788 70.7163854,43.7993788 L69.1678263,43.7993788 L69.1678263,45.0557281 L71.8766639,45.0557281 C71.9633633,45.0557281 72.0342992,45.0369267 72.0882271,45.0018308 C72.1471329,44.9571253 72.1745116,44.9090774 72.1745116,44.8409747 L72.3624295,44.8409747 L72.3624295,45.9636253 L72.1745116,45.9636253 C72.1745116,45.8997007 72.1471329,45.864187 72.0882271,45.8549952 C72.0342992,45.8478925 71.9633633,45.8416253 71.8766639,45.8416253 L67.994688,45.8416253 L67.994688,45.6557007 C68.0316078,45.6557007 68.0664535,45.6394062 68.1000547,45.6172623 C68.1344856,45.591776 68.1510788,45.5533377 68.1510788,45.4956801 L68.1510788,41.5068651 C68.1510788,41.4492075 68.1344856,41.4107692 68.1000547,41.3848651 C68.0664535,41.3593788 68.0316078,41.3497692 67.994688,41.3497692 L67.994688,41.1542349 L71.7497261,41.1542349 C71.9687561,41.1542349 72.0791008,41.0932349 72.0791008,40.9649678 L72.2715818,40.9649678 L72.2715818,42.1482007 L72.0791008,42.1482007 Z" id="Fill-52" fill="#FFFFFF"></path>
                    <path d="M80.7759631,42.5007473 C80.7759631,42.4815281 80.7759631,42.468576 80.7726445,42.4564596 C80.7693259,42.4397473 80.766422,42.4238705 80.766422,42.4050692 C80.766422,42.366213 80.7315764,42.3215075 80.6598108,42.2600897 C80.5913639,42.1995075 80.4897307,42.14185 80.3590593,42.0841925 C80.228388,42.0227747 80.0753158,41.9780692 79.8990132,41.9429733 C79.7239551,41.8982678 79.5281555,41.8823911 79.3165924,41.8823911 C79.061887,41.8823911 78.8312417,41.917487 78.6221675,41.9809938 C78.4172417,42.0516034 78.2343018,42.1514596 78.0783259,42.2859938 C77.9235944,42.4205281 77.8041234,42.5843089 77.7182537,42.7894527 C77.6336285,42.9845692 77.590901,43.2122747 77.590901,43.4688089 C77.590901,43.725761 77.6402657,43.950124 77.7360914,44.1552678 C77.8298429,44.3570692 77.9571956,44.5333842 78.1098529,44.6812884 C78.2658289,44.8225075 78.4425463,44.9311377 78.6387607,45.010939 C78.8370493,45.0853089 79.0394862,45.1204048 79.2415082,45.1204048 C79.4339892,45.1204048 79.6252257,45.0978432 79.8239291,45.0464527 C80.0230473,44.9950623 80.2026685,44.9378226 80.3652818,44.8701377 C80.5262357,44.8028705 80.6598108,44.7293363 80.7601996,44.6491171 C80.8618329,44.5722404 80.9128569,44.5016308 80.9128569,44.4372884 L80.9128569,44.3508021 C80.9128569,44.3123637 80.9128569,44.2772678 80.9033158,44.2450966 L81.0207126,44.1423158 L81.8026665,45.2708158 L81.6993739,45.322624 C81.6114301,45.2871103 81.5529391,45.2708158 81.5160192,45.2708158 C81.4604321,45.2708158 81.3695844,45.302987 81.2426465,45.3673295 C81.1152938,45.4279116 80.9555844,45.5014459 80.7601996,45.5820829 C80.5677186,45.6652267 80.342881,45.7329116 80.0852717,45.7934938 C79.8239291,45.8482267 79.5406004,45.8799801 79.2207667,45.8799801 C78.8963699,45.8799801 78.5761214,45.8319322 78.2591916,45.7391788 C77.9414321,45.6430829 77.6560293,45.5014459 77.4125242,45.2967199 C77.1640413,45.0978432 76.9657527,44.8408911 76.8097768,44.5396514 C76.6538008,44.2384116 76.5737387,43.889124 76.5737387,43.4913705 C76.5737387,43.0940349 76.6538008,42.7447473 76.8097768,42.4497747 C76.9657527,42.1481171 77.1677747,41.8949253 77.4224802,41.6927062 C77.6767707,41.4938295 77.9667367,41.3367336 78.2961114,41.2439801 C78.6221675,41.1411993 78.9614982,41.0902267 79.3070513,41.0902267 C79.5742016,41.0902267 79.8177066,41.1161308 80.0388108,41.1671034 C80.2619892,41.2184938 80.4611074,41.2694664 80.6295283,41.3367336 C80.7967046,41.3977336 80.9398208,41.4587336 81.0497507,41.5067815 C81.1646585,41.5581719 81.2455503,41.5836582 81.294915,41.5836582 C81.3301756,41.5836582 81.3600433,41.5707062 81.3857627,41.5456377 C81.409408,41.5326856 81.4380313,41.5134664 81.4637507,41.4938295 L81.5911034,41.5707062 L80.8941896,42.5843089 L80.7759631,42.5007473 Z" id="Fill-54" fill="#FFFFFF"></path>
                    <path d="M84.4573689,41.1542767 L84.4573689,41.3493932 C84.2984892,41.3493932 84.2167677,41.3978589 84.2167677,41.5069068 L84.2167677,45.0528452 L87.0728699,45.0528452 C87.1570804,45.0528452 87.2292607,45.0369685 87.2844331,44.9985301 C87.3396054,44.9567493 87.3694731,44.9053589 87.3694731,44.8347493 L87.5615393,44.8347493 L87.5615393,45.9507151 L87.3694731,45.9507151 C87.3694731,45.8930575 87.3396054,45.8642288 87.2844331,45.8546192 C87.2292607,45.8512767 87.1570804,45.8445918 87.0728699,45.8445918 L82.9266475,45.8445918 L82.9266475,45.6557425 C83.1079281,45.6557425 83.2004351,45.6010096 83.2004351,45.4957219 L83.2004351,41.5069068 C83.2004351,41.3978589 83.1079281,41.3493932 82.9266475,41.3493932 L82.9266475,41.1542767 L84.4573689,41.1542767 Z" id="Fill-56" fill="#FFFFFF"></path>
                    <path d="M90.2990002,41.3464685 C90.1463429,41.3464685 90.0679401,41.4012014 90.0679401,41.5102493 L90.0679401,43.9565164 C90.0679401,44.2966123 90.1894852,44.5723658 90.4363088,44.7808521 C90.684377,44.9822356 91.0635313,45.0879411 91.5704531,45.0879411 C92.0802788,45.0879411 92.4540403,44.9822356 92.7025232,44.7808521 C92.9493469,44.5723658 93.0729661,44.2966123 93.0729661,43.9565164 L93.0729661,41.5102493 C93.0729661,41.4012014 92.9862667,41.3464685 92.8091345,41.3464685 L92.8091345,41.1542767 L94.2801204,41.1542767 L94.2801204,41.3464685 C94.1241445,41.3464685 94.044912,41.4012014 94.044912,41.5073247 L94.044912,44.2067836 C94.044912,44.4240438 93.9967918,44.6362904 93.8980623,44.8380918 C93.8001625,45.040311 93.64792,45.2199685 93.4492166,45.3766466 C93.2463649,45.5308178 92.9887557,45.6553247 92.6755593,45.7451534 C92.3631926,45.8349822 91.9948238,45.8771808 91.5704531,45.8771808 C91.1473269,45.8771808 90.7777136,45.8349822 90.4628579,45.7451534 C90.1492467,45.6553247 89.8916375,45.5308178 89.6925192,45.3766466 C89.490912,45.2199685 89.3407437,45.040311 89.2403549,44.8380918 C89.1420403,44.6362904 89.0943349,44.4240438 89.0943349,44.2067836 L89.0943349,41.5073247 C89.0943349,41.4488315 89.0735934,41.410811 89.0321104,41.3853247 C88.9889681,41.3590027 88.9076615,41.3464685 88.7869461,41.3464685 L88.7869461,41.1542767 L90.2990002,41.1542767 L90.2990002,41.3464685 Z" id="Fill-58" fill="#FFFFFF"></path>
                    <path d="M95.9672741,41.3848233 C95.9145908,41.359337 95.8585888,41.3463849 95.8000978,41.3463849 L95.8000978,41.1571178 L99.0930156,41.1571178 C99.3609956,41.1571178 99.5912261,41.1863644 99.7874405,41.2540493 C99.9803363,41.3142137 100.14212,41.4044603 100.272791,41.5135082 C100.403048,41.6221384 100.501777,41.7504055 100.561927,41.8916247 C100.624567,42.032426 100.657753,42.1803301 100.657753,42.3403507 C100.657753,42.4656932 100.638671,42.5839329 100.595943,42.6933986 C100.552801,42.8053712 100.498873,42.9048096 100.43333,42.9950562 C100.365298,43.0815425 100.288555,43.1642685 100.210567,43.2319534 C100.129675,43.3059055 100.04505,43.3606384 99.9608393,43.404926 L99.9608393,43.4174603 C100.060813,43.4592411 100.159543,43.513974 100.257028,43.5850014 C100.353683,43.655611 100.443286,43.7416795 100.521274,43.8411178 C100.599262,43.9434808 100.66439,44.0529466 100.71334,44.1803781 C100.758142,44.309063 100.785106,44.4465219 100.785106,44.5973507 C100.785106,44.7707411 100.755238,44.927837 100.689695,45.0782479 C100.624567,45.2261521 100.527497,45.3611041 100.390603,45.4697342 C100.250805,45.5854671 100.070354,45.6752959 99.8488353,45.7454877 C99.6281459,45.8098301 99.3609956,45.8415836 99.0502882,45.8415836 L95.8000978,45.8415836 L95.8000978,45.6560767 C95.8585888,45.6560767 95.9145908,45.6427068 95.9672741,45.6172205 C96.0195427,45.5917342 96.0448473,45.5537137 96.0448473,45.4956384 L96.0448473,41.5068233 C96.0448473,41.4491658 96.0195427,41.4107274 95.9672741,41.3848233 L95.9672741,41.3848233 Z M98.943677,43.0071726 C99.1154164,43.0071726 99.2713924,42.975837 99.4194866,42.9048096 C99.5692401,42.8346178 99.6439094,42.6867137 99.6439094,42.4656932 C99.6439094,42.3533027 99.6215086,42.2638918 99.5820998,42.1962068 C99.5356389,42.1255973 99.4846148,42.0742068 99.4194866,42.039111 C99.3572621,41.9939877 99.2830076,41.971426 99.196723,41.9622342 C99.1154164,41.9497 99.0283022,41.9463575 98.943677,41.9463575 L97.0624244,41.9463575 L97.0624244,43.0071726 L98.943677,43.0071726 Z M98.9229355,45.0527616 C99.2494064,45.0527616 99.4705106,45.0013712 99.5912261,44.8990082 C99.7123563,44.7899603 99.7712621,44.642474 99.7712621,44.4465219 C99.7712621,44.2317685 99.6928593,44.0654808 99.5356389,43.9564329 C99.3825667,43.8536521 99.1216389,43.8022616 98.7540998,43.8022616 L97.0624244,43.8022616 L97.0624244,45.0527616 L98.9229355,45.0527616 Z" id="Fill-60" fill="#FFFFFF"></path>
                    <path d="M105.465007,45.6554918 C105.623886,45.6554918 105.708512,45.5982521 105.708512,45.4954712 L105.708512,41.5066562 C105.708512,41.4005329 105.623886,41.3466356 105.465007,41.3466356 L105.465007,41.1569507 L108.404904,41.1569507 C108.821393,41.1569507 109.176488,41.2250534 109.474335,41.3595877 C109.770524,41.4937041 110.012369,41.670437 110.196969,41.8851904 C110.386131,42.1028685 110.523025,42.350211 110.610969,42.6322315 C110.699742,42.9113274 110.744544,43.2029575 110.744544,43.5008548 C110.744544,43.8025123 110.699742,44.0912178 110.613872,44.3665534 C110.532981,44.6489918 110.399405,44.8988411 110.214391,45.116937 C110.031037,45.3287658 109.795828,45.5084233 109.505862,45.6433753 C109.216726,45.7774918 108.861632,45.8418342 108.447632,45.8418342 L105.465007,45.8418342 L105.465007,45.6554918 Z M108.097101,45.0530123 C108.316961,45.0530123 108.52562,45.0396425 108.721834,45.007889 C108.920123,44.9761356 109.091862,44.9051082 109.241616,44.7960603 C109.388466,44.6874301 109.505862,44.5236493 109.593806,44.3155808 C109.68258,44.1070945 109.726967,43.8213137 109.726967,43.4691014 C109.726967,43.1164712 109.68258,42.8340329 109.593806,42.6322315 C109.505862,42.4304301 109.388466,42.2762589 109.241616,42.1734781 C109.091862,42.0711151 108.920123,42.0071904 108.721834,41.9808685 C108.52562,41.9587247 108.316961,41.9457726 108.097101,41.9457726 L106.72194,41.9457726 L106.72194,45.0530123 L108.097101,45.0530123 Z" id="Fill-62" fill="#FFFFFF"></path>
                    <path d="M116.171968,42.1482007 C116.171968,42.0136664 116.062453,41.9430568 115.842593,41.9430568 L113.260693,41.9430568 L113.260693,43.010139 L114.887655,43.010139 C115.011689,43.010139 115.095899,43.0009473 115.154805,42.9846527 C115.211222,42.9625089 115.240675,42.9178034 115.240675,42.8405089 L115.429008,42.8405089 L115.429008,43.9694267 L115.219933,43.9694267 C115.240675,43.89255 115.211222,43.8440842 115.132404,43.8248651 C115.05815,43.8089884 114.946561,43.7993788 114.806348,43.7993788 L113.260693,43.7993788 L113.260693,45.0557281 L115.97036,45.0557281 C116.05623,45.0557281 116.124262,45.0369267 116.181509,45.0018308 C116.237096,44.9571253 116.266964,44.9090774 116.266964,44.8409747 L116.455711,44.8409747 L116.455711,45.9636253 L116.266964,45.9636253 C116.266964,45.8997007 116.237096,45.864187 116.181509,45.8549952 C116.124262,45.8478925 116.05623,45.8416253 115.97036,45.8416253 L112.087555,45.8416253 L112.087555,45.6557007 C112.121156,45.6557007 112.15932,45.6394062 112.192921,45.6172623 C112.227767,45.591776 112.243531,45.5533377 112.243531,45.4956801 L112.243531,41.5068651 C112.243531,41.4492075 112.227767,41.4107692 112.192921,41.3848651 C112.15932,41.3593788 112.121156,41.3497692 112.087555,41.3497692 L112.087555,41.1542349 L115.842593,41.1542349 C116.062453,41.1542349 116.171968,41.0932349 116.171968,40.9649678 L116.361545,40.9649678 L116.361545,42.1482007 L116.171968,42.1482007 Z" id="Fill-64" fill="#FFFFFF"></path>
                    <path d="M118.276523,44.213176 C118.276523,44.241587 118.276523,44.2737582 118.272789,44.302587 C118.266982,44.335176 118.266982,44.3702719 118.266982,44.4082925 C118.266982,44.5144158 118.335429,44.6105116 118.469004,44.6969979 C118.602579,44.7897514 118.761874,44.8607788 118.947717,44.9217788 C119.133561,44.9827788 119.323553,45.0337514 119.508567,45.0688473 C119.698144,45.104361 119.840845,45.1235801 119.949116,45.1235801 C120.047016,45.1235801 120.17022,45.1102103 120.313336,45.1010185 C120.457282,45.084724 120.601643,45.0529705 120.741441,45.0082651 C120.882068,44.9631418 121.001539,44.8992171 121.102757,44.8185801 C121.200657,44.7320938 121.250022,44.6230459 121.250022,44.4885116 C121.250022,44.335176 121.165811,44.2223678 120.991998,44.1488336 C120.81694,44.078224 120.601643,44.0268336 120.340715,43.9854705 C120.079787,43.9470322 119.796874,43.9119363 119.495292,43.8701555 C119.189978,43.8312993 118.906649,43.76445 118.64821,43.6775459 C118.387697,43.5877171 118.169497,43.45945 117.996098,43.2927445 C117.823944,43.1256212 117.73517,42.888724 117.73517,42.5841418 C117.73517,42.1291486 117.923918,41.7664911 118.300168,41.4974226 C118.670611,41.2275185 119.196615,41.0934021 119.874447,41.0934021 C120.206725,41.0934021 120.490469,41.1188884 120.724433,41.1736212 C120.96296,41.2250116 121.161663,41.2818336 121.324691,41.3495185 C121.488134,41.4109363 121.619635,41.4685938 121.722513,41.5229089 C121.824146,41.5768062 121.898815,41.6031281 121.947351,41.6031281 C122.005427,41.6031281 122.048984,41.596861 122.077192,41.5768062 C122.104986,41.5580048 122.139417,41.5392034 122.182974,41.5199842 L122.299956,41.6348815 L121.768974,42.638039 L121.579397,42.5716075 C121.569441,42.5327514 121.566537,42.4880459 121.556581,42.4462651 C121.549114,42.4049021 121.517172,42.359361 121.46117,42.3179979 C121.321787,42.1964158 121.102757,42.0936349 120.807399,42.0071486 C120.509966,41.923587 120.176858,41.8788815 119.812222,41.8788815 C119.669106,41.8788815 119.535531,41.8914158 119.408178,41.9072925 C119.280825,41.923587 119.166332,41.9557582 119.068847,42.0004637 C118.972192,42.0426623 118.891715,42.0936349 118.838202,42.1613199 C118.782615,42.2310938 118.751918,42.3150733 118.751918,42.4111692 C118.751918,42.5716075 118.838202,42.6806555 119.012845,42.7475048 C119.183755,42.8151897 119.401956,42.8695048 119.662884,42.9112856 C119.923811,42.949724 120.206725,42.9877445 120.509966,43.0266007 C120.813206,43.065039 121.094046,43.1323062 121.357878,43.2254774 C121.619635,43.3153062 121.833687,43.4498404 122.005427,43.6294979 C122.178825,43.8024705 122.266769,44.0527377 122.266769,44.3631692 C122.266769,44.6781966 122.191685,44.9313884 122.039028,45.1302651 C121.884296,45.3320664 121.700527,45.4858199 121.474445,45.6011349 C121.246288,45.7135253 120.99822,45.7870596 120.724433,45.8225733 C120.453964,45.8614295 120.200918,45.8768884 119.959072,45.8768884 C119.718886,45.8768884 119.482433,45.8547445 119.24598,45.810039 C119.010357,45.7615733 118.791741,45.7068404 118.59926,45.6496007 C118.406365,45.5881829 118.241677,45.5276007 118.107687,45.4757925 C117.974112,45.4248199 117.892391,45.3989158 117.865841,45.3989158 C117.813573,45.3989158 117.771675,45.4185527 117.73517,45.4632582 L117.588735,45.3537925 L118.074086,44.1617856 L118.276523,44.213176 Z" id="Fill-66" fill="#FFFFFF"></path>
                    <path d="M132.03356,40.6218219 C132.03356,40.4935548 131.955572,40.4329726 131.799596,40.4329726 L131.799596,40.2370205 L133.429462,40.2370205 L133.429462,40.4329726 C133.382172,40.4329726 133.334051,40.4484315 133.295887,40.4772603 C133.257308,40.512774 133.241544,40.5583151 133.241544,40.6218219 L133.241544,45.4633836 C133.241544,45.5243836 133.257308,45.5724315 133.295887,45.6050205 C133.334051,45.6363562 133.382172,45.6559932 133.429462,45.6559932 L133.429462,45.8486027 L131.799596,45.8486027 L131.799596,45.6559932 C131.955572,45.6559932 132.03356,45.5920685 132.03356,45.4633836 L132.03356,43.4591575 L128.623661,43.4591575 L128.623661,45.4633836 C128.623661,45.5243836 128.643158,45.5724315 128.682981,45.6050205 C128.72156,45.6363562 128.767192,45.6559932 128.816971,45.6559932 L128.816971,45.8486027 L127.215314,45.8486027 L127.215314,45.6559932 C127.352208,45.6559932 127.417336,45.5920685 127.417336,45.4633836 L127.417336,40.6218219 C127.417336,40.4935548 127.352208,40.4329726 127.215314,40.4329726 L127.215314,40.2370205 L128.816971,40.2370205 L128.816971,40.4329726 C128.767192,40.4329726 128.72156,40.4484315 128.682981,40.4772603 C128.643158,40.512774 128.623661,40.5583151 128.623661,40.6218219 L128.623661,42.4371986 L132.03356,42.4371986 L132.03356,40.6218219 Z" id="Fill-68" fill="#FFFFFF"></path>
                    <path d="M134.603928,45.6554918 C134.689798,45.6362726 134.756585,45.5982521 134.810513,45.5272247 C134.865271,45.4633 134.90302,45.4027178 134.935377,45.3413 L136.507996,41.8822658 C136.548649,41.7824096 136.58391,41.7021904 136.609214,41.6416082 C136.634934,41.5801904 136.644475,41.520026 136.644475,41.4652932 C136.644475,41.4235123 136.637838,41.398026 136.618756,41.3846562 C136.602992,41.3717041 136.58391,41.365437 136.564828,41.3495603 L136.564828,41.1569507 L138.159433,41.1569507 L138.159433,41.3495603 C138.137447,41.365437 138.115461,41.3717041 138.089327,41.3788068 C138.067756,41.3846562 138.054481,41.4168274 138.054481,41.4652932 C138.054481,41.5066562 138.070244,41.5580466 138.102601,41.6190466 C138.134543,41.6796288 138.16607,41.7473137 138.204234,41.8275329 L139.914577,45.4503479 C139.954816,45.5142726 139.990076,45.5627384 140.031559,45.5878068 C140.073042,45.6170534 140.121162,45.6362726 140.168453,45.6554918 L140.168453,45.8447589 L138.66594,45.8447589 L138.66594,45.6843205 C138.7012,45.6843205 138.742683,45.674711 138.777529,45.6554918 C138.818597,45.6300055 138.837679,45.5949096 138.837679,45.5376699 C138.837679,45.4954712 138.828553,45.4541082 138.815279,45.4185945 C138.799515,45.3864233 138.783337,45.3350329 138.761351,45.2807178 L138.478437,44.6744781 L136.211808,44.6744781 L135.915619,45.2460397 C135.890315,45.3062041 135.864595,45.3542521 135.845513,45.4027178 C135.830164,45.4503479 135.823112,45.4896219 135.823112,45.5272247 C135.823112,45.5819575 135.835972,45.6170534 135.874551,45.6300055 C135.908982,45.6492247 135.960006,45.6554918 136.02389,45.6554918 L136.02389,45.8447589 L134.603928,45.8447589 L134.603928,45.6554918 Z M138.137447,43.886074 L137.281653,42.0907521 L136.529982,43.886074 L138.137447,43.886074 Z" id="Fill-70" fill="#FFFFFF"></path>
                    <path d="M142.622627,41.3464685 C142.470384,41.3464685 142.393641,41.4012014 142.393641,41.5102493 L142.393641,43.9565164 C142.393641,44.2966123 142.514356,44.5723658 142.763669,44.7808521 C143.008418,44.9822356 143.387158,45.0879411 143.896154,45.0879411 C144.402246,45.0879411 144.777667,44.9822356 145.02615,44.7808521 C145.271729,44.5723658 145.401985,44.2966123 145.401985,43.9565164 L145.401985,41.5102493 C145.401985,41.4012014 145.306989,41.3464685 145.134835,41.3464685 L145.134835,41.1542767 L146.605821,41.1542767 L146.605821,41.3464685 C146.446526,41.3464685 146.369783,41.4012014 146.369783,41.5073247 L146.369783,44.2067836 C146.369783,44.4240438 146.321663,44.6362904 146.223763,44.8380918 C146.12213,45.040311 145.971546,45.2199685 145.772013,45.3766466 C145.570406,45.5308178 145.312382,45.6553247 145.000845,45.7451534 C144.685989,45.8349822 144.32011,45.8771808 143.896154,45.8771808 C143.469294,45.8771808 143.100096,45.8349822 142.788559,45.7451534 C142.473703,45.6553247 142.215679,45.5308178 142.014901,45.3766466 C141.814538,45.2199685 141.664785,45.040311 141.566056,44.8380918 C141.470645,44.6362904 141.419621,44.4240438 141.419621,44.2067836 L141.419621,41.5073247 C141.419621,41.4488315 141.39722,41.410811 141.355737,41.3853247 C141.314669,41.3590027 141.231703,41.3464685 141.110987,41.3464685 L141.110987,41.1542767 L142.622627,41.1542767 L142.622627,41.3464685 Z" id="Fill-72" fill="#FFFFFF"></path>
                    <path d="M149.470178,45.617137 C149.505439,45.5916507 149.524521,45.5502877 149.524521,45.4917945 L149.524521,41.946274 L148.148946,41.946274 C148.092114,41.946274 148.04109,41.9583904 147.990066,41.9872192 C147.939042,42.020226 147.914152,42.0582466 147.914152,42.1259315 L147.72582,42.1259315 L147.72582,40.8975753 L147.914152,40.8975753 C147.914152,40.9999384 147.939042,41.0705479 147.990066,41.1027192 C148.04109,41.1382329 148.092114,41.1570342 148.148946,41.1570342 L151.915184,41.1570342 C151.972431,41.1570342 152.023455,41.1382329 152.074479,41.1027192 C152.122184,41.0705479 152.147904,40.9999384 152.147904,40.8975753 L152.335407,40.8975753 L152.335407,42.1259315 L152.147904,42.1259315 C152.147904,42.0582466 152.122184,42.020226 152.074479,41.9872192 C152.023455,41.9583904 151.972431,41.946274 151.915184,41.946274 L150.536705,41.946274 L150.536705,45.4917945 C150.536705,45.5979178 150.603493,45.6559932 150.734164,45.6559932 L150.734164,45.8415 L149.362323,45.8415 L149.362323,45.6559932 C149.403391,45.6559932 149.435747,45.6430411 149.470178,45.617137" id="Fill-74" fill="#FFFFFF"></path>
                    <path d="M153.850572,44.213176 C153.850572,44.241587 153.847668,44.2737582 153.843935,44.302587 C153.841446,44.335176 153.841446,44.3702719 153.841446,44.4082925 C153.841446,44.5144158 153.911552,44.6105116 154.044712,44.6969979 C154.178288,44.7897514 154.334264,44.8607788 154.522181,44.9217788 C154.713003,44.9827788 154.895113,45.0337514 155.083031,45.0688473 C155.273853,45.104361 155.416554,45.1235801 155.521921,45.1235801 C155.621065,45.1235801 155.742195,45.1102103 155.887386,45.1010185 C156.031332,45.084724 156.174863,45.0529705 156.317979,45.0082651 C156.457777,44.9631418 156.575588,44.8992171 156.674732,44.8185801 C156.773047,44.7320938 156.823656,44.6230459 156.823656,44.4885116 C156.823656,44.335176 156.737787,44.2223678 156.562728,44.1488336 C156.390989,44.078224 156.174863,44.0268336 155.913935,43.9854705 C155.652592,43.9470322 155.369264,43.9119363 155.067268,43.8701555 C154.764027,43.8312993 154.481528,43.76445 154.220185,43.6775459 C153.959258,43.5877171 153.742302,43.45945 153.570562,43.2927445 C153.395089,43.1256212 153.309634,42.888724 153.309634,42.5841418 C153.309634,42.1291486 153.500456,41.7664911 153.870484,41.4974226 C154.24549,41.2275185 154.770664,41.0934021 155.449326,41.0934021 C155.77953,41.0934021 156.063274,41.1188884 156.298482,41.1736212 C156.537839,41.2250116 156.734468,41.2818336 156.900815,41.3495185 C157.059694,41.4109363 157.193684,41.4685938 157.299051,41.5229089 C157.397366,41.5768062 157.47328,41.6031281 157.5214,41.6031281 C157.581135,41.6031281 157.623448,41.596861 157.651656,41.5768062 C157.677376,41.5580048 157.715125,41.5392034 157.756608,41.5199842 L157.871101,41.6348815 L157.343023,42.638039 L157.151787,42.5716075 C157.145149,42.5327514 157.139342,42.4880459 157.129386,42.4462651 C157.123578,42.4049021 157.091636,42.359361 157.037708,42.3179979 C156.897496,42.1964158 156.674732,42.0936349 156.381863,42.0071486 C156.085674,41.923587 155.750907,41.8788815 155.385027,41.8788815 C155.244815,41.8788815 155.108336,41.8914158 154.987205,41.9072925 C154.860268,41.923587 154.741626,41.9557582 154.643312,42.0004637 C154.544997,42.0426623 154.468254,42.0936349 154.411422,42.1613199 C154.353761,42.2310938 154.328041,42.3150733 154.328041,42.4111692 C154.328041,42.5716075 154.413911,42.6806555 154.588969,42.7475048 C154.758219,42.8151897 154.974346,42.8695048 155.235274,42.9112856 C155.496616,42.949724 155.77953,42.9877445 156.085674,43.0266007 C156.384352,43.065039 156.668095,43.1323062 156.929438,43.2254774 C157.189951,43.3153062 157.406492,43.4498404 157.581135,43.6294979 C157.75329,43.8024705 157.842478,44.0527377 157.842478,44.3631692 C157.842478,44.6781966 157.763245,44.9313884 157.610173,45.1302651 C157.460005,45.3320664 157.272917,45.4858199 157.046835,45.6011349 C156.820753,45.7135253 156.572684,45.7870596 156.298482,45.8225733 C156.028013,45.8614295 155.773722,45.8768884 155.535195,45.8768884 C155.29335,45.8768884 155.053578,45.8547445 154.81837,45.810039 C154.58565,45.7615733 154.369524,45.7068404 154.175384,45.6496007 C153.97834,45.5881829 153.815312,45.5276007 153.682151,45.4757925 C153.548576,45.4248199 153.465195,45.3989158 153.436572,45.3989158 C153.389282,45.3989158 153.347384,45.4185527 153.309634,45.4632582 L153.163614,45.3537925 L153.650209,44.1617856 L153.850572,44.213176 Z" id="Fill-76" fill="#FFFFFF"></path>
                    <mask id="mask-6" fill="white">
                        <use xlink:href="#path-5"></use>
                    </mask>
                    <g id="Clip-79"></g>
                    <polygon id="Fill-78" fill="#FFFFFF" mask="url(#mask-6)" points="159.067677 43.9492466 161.576567 43.9492466 161.576567 43.0522123 159.067677 43.0522123"></polygon>
                    <path d="M162.792931,45.6554918 C162.95264,45.6554918 163.03768,45.5982521 163.03768,45.4954712 L163.03768,41.5066562 C163.03768,41.4005329 162.95264,41.3466356 162.792931,41.3466356 L162.792931,41.1569507 L165.734903,41.1569507 C166.151806,41.1569507 166.504412,41.2250534 166.8006,41.3595877 C167.096788,41.4937041 167.338634,41.670437 167.529456,41.8851904 C167.714055,42.1028685 167.851364,42.350211 167.940552,42.6322315 C168.026007,42.9113274 168.074127,43.2029575 168.074127,43.5008548 C168.074127,43.8025123 168.02974,44.0912178 167.943456,44.3665534 C167.861319,44.6489918 167.724426,44.8988411 167.542315,45.116937 C167.357301,45.3287658 167.125412,45.5084233 166.835861,45.6433753 C166.545895,45.7774918 166.19246,45.8418342 165.775556,45.8418342 L162.792931,45.8418342 L162.792931,45.6554918 Z M165.426269,45.0530123 C165.645299,45.0530123 165.852299,45.0396425 166.049758,45.007889 C166.246802,44.9761356 166.424764,44.9051082 166.571614,44.7960603 C166.718049,44.6874301 166.838764,44.5236493 166.924634,44.3155808 C167.010919,44.1070945 167.055305,43.8213137 167.055305,43.4691014 C167.055305,43.1164712 167.010919,42.8340329 166.924634,42.6322315 C166.838764,42.4304301 166.718049,42.2762589 166.571614,42.1734781 C166.424764,42.0711151 166.246802,42.0071904 166.049758,41.9808685 C165.852299,41.9587247 165.645299,41.9457726 165.426269,41.9457726 L164.049865,41.9457726 L164.049865,45.0530123 L165.426269,45.0530123 Z" id="Fill-80" fill="#FFFFFF" mask="url(#mask-6)"></path>
                    <path d="M173.498689,42.1482007 C173.498689,42.0136664 173.387514,41.9430568 173.170973,41.9430568 L170.589073,41.9430568 L170.589073,43.010139 L172.218939,43.010139 C172.342973,43.010139 172.425524,43.0009473 172.482771,42.9846527 C172.540432,42.9625089 172.569055,42.9178034 172.569055,42.8405089 L172.759877,42.8405089 L172.759877,43.9694267 L172.546655,43.9694267 C172.569055,43.89255 172.540432,43.8440842 172.467007,43.8248651 C172.384871,43.8089884 172.276186,43.7993788 172.136388,43.7993788 L170.589073,43.7993788 L170.589073,45.0557281 L173.297911,45.0557281 C173.384196,45.0557281 173.454302,45.0369267 173.511548,45.0018308 C173.56838,44.9571253 173.594514,44.9090774 173.594514,44.8409747 L173.784921,44.8409747 L173.784921,45.9636253 L173.594514,45.9636253 C173.594514,45.8997007 173.56838,45.864187 173.511548,45.8549952 C173.454302,45.8478925 173.384196,45.8416253 173.297911,45.8416253 L169.414276,45.8416253 L169.414276,45.6557007 C169.449536,45.6557007 169.487701,45.6394062 169.522546,45.6172623 C169.557392,45.591776 169.573985,45.5533377 169.573985,45.4956801 L169.573985,41.5068651 C169.573985,41.4492075 169.557392,41.4107692 169.522546,41.3848651 C169.487701,41.3593788 169.449536,41.3497692 169.414276,41.3497692 L169.414276,41.1542349 L173.170973,41.1542349 C173.387514,41.1542349 173.498689,41.0932349 173.498689,40.9649678 L173.692414,40.9649678 L173.692414,42.1482007 L173.498689,42.1482007 Z" id="Fill-81" fill="#FFFFFF" mask="url(#mask-6)"></path>
                    <polygon id="Fill-82" fill="#FFFFFF" mask="url(#mask-6)" points="174.937401 43.9492466 177.449194 43.9492466 177.449194 43.0522123 174.937401 43.0522123"></polygon>
                    <path d="M179.276312,44.0846582 L179.381678,44.1389733 C179.381678,44.2066582 179.397442,44.2609733 179.423161,44.3090212 C179.476674,44.3955075 179.569181,44.4819938 179.716446,44.562213 C179.858732,44.6424322 180.024664,44.7197267 180.212582,44.7803089 C180.400085,44.8408911 180.59464,44.8926993 180.797907,44.9340623 C181.005322,44.9729185 181.186602,44.9950623 181.348386,44.9950623 C181.469516,44.9950623 181.625907,44.9825281 181.816728,44.9666514 C182.00755,44.9503568 182.195468,44.9119185 182.377578,44.854261 C182.561763,44.7961856 182.721057,44.7197267 182.851314,44.6169459 C182.984889,44.52085 183.054995,44.3892404 183.054995,44.2258774 C183.054995,44.0591719 182.994845,43.943439 182.870396,43.8632199 C182.746362,43.7834185 182.587067,43.7286856 182.383386,43.6935897 C182.183023,43.6551514 181.953622,43.6355144 181.695598,43.6229801 C181.437989,43.6100281 181.173742,43.5974938 180.906592,43.5749322 C180.639027,43.555713 180.374781,43.5201993 180.116342,43.4688089 C179.858732,43.4178363 179.63265,43.3342747 179.429384,43.2189596 C179.228606,43.1036445 179.069726,42.9432062 178.941959,42.7380623 C178.821243,42.5391856 178.75736,42.2696993 178.75736,41.9458979 C178.75736,41.7252952 178.808384,41.5067815 178.910432,41.2949527 C179.014969,41.0768568 179.17136,40.89135 179.381678,40.7309116 C179.597805,40.5675486 179.862466,40.4325966 180.186863,40.3298158 C180.512089,40.2307952 180.893318,40.1764801 181.329718,40.1764801 C181.70265,40.1764801 182.027462,40.2053089 182.304568,40.2562815 C182.577526,40.3172815 182.816468,40.3782815 183.017245,40.4422062 C183.217193,40.5069664 183.386444,40.5675486 183.526241,40.6218637 C183.66355,40.6795212 183.778043,40.7087678 183.870135,40.7087678 C183.968865,40.7087678 184.038556,40.6891308 184.083358,40.6477678 L184.207807,40.7309116 L183.478536,42.0616308 L183.369851,42.01985 C183.357821,41.9204116 183.329612,41.8372678 183.287714,41.7729253 C183.230053,41.6893637 183.138376,41.6028774 183.010608,41.5226582 C182.877033,41.442439 182.72728,41.3689048 182.545999,41.3016377 C182.370526,41.2406377 182.183023,41.1863226 181.976438,41.1512267 C181.772757,41.1094459 181.565757,41.0931514 181.364979,41.0931514 C181.20527,41.0931514 181.046805,41.1061034 180.881288,41.1282473 C180.715771,41.1541514 180.568921,41.1925897 180.432027,41.2406377 C180.295133,41.2886856 180.183959,41.3530281 180.097674,41.4361719 C180.01139,41.5197336 179.964099,41.6220966 179.964099,41.7440966 C179.964099,41.9108021 180.024664,42.0390692 180.151602,42.1288979 C180.276466,42.2120418 180.434931,42.2763842 180.635708,42.3177473 C180.839805,42.3595281 181.065057,42.3883568 181.3264,42.4046514 C181.58152,42.4171856 181.845352,42.4368226 182.112917,42.4564596 C182.380067,42.4781856 182.643899,42.5132815 182.898604,42.5650897 C183.156628,42.6227473 183.386444,42.7058911 183.587221,42.8220418 C183.790488,42.9432062 183.956005,43.0973774 184.080039,43.2991788 C184.197851,43.5009801 184.258831,43.7545897 184.258831,44.0779733 C184.258831,44.4435555 184.163005,44.745213 183.968865,44.9825281 C183.774724,45.2169185 183.536197,45.3990829 183.246231,45.5340349 C182.956266,45.6714938 182.643899,45.7617404 182.31328,45.8064459 C181.972704,45.8549116 181.660338,45.8770555 181.37452,45.8770555 C180.97338,45.8770555 180.633219,45.8549116 180.361921,45.8064459 C180.087718,45.7617404 179.868688,45.7070075 179.683674,45.6363979 C179.505712,45.5720555 179.362181,45.5114733 179.256815,45.4567404 C179.148959,45.40535 179.060185,45.3765212 178.980538,45.3765212 C178.933247,45.3765212 178.885127,45.40535 178.843644,45.4634253 L178.694306,45.3765212 L179.276312,44.0846582 Z" id="Fill-83" fill="#FFFFFF" mask="url(#mask-6)"></path>
                    <path d="M189.963444,42.1482007 C189.963444,42.0136664 189.854758,41.9430568 189.635728,41.9430568 L187.053414,41.9430568 L187.053414,43.010139 L188.683694,43.010139 C188.80441,43.010139 188.890279,43.0009473 188.947526,42.9846527 C189.004772,42.9625089 189.030492,42.9178034 189.030492,42.8405089 L189.224632,42.8405089 L189.224632,43.9694267 L189.01141,43.9694267 C189.030492,43.89255 189.004772,43.8440842 188.928859,43.8248651 C188.848382,43.8089884 188.740941,43.7993788 188.59741,43.7993788 L187.053414,43.7993788 L187.053414,45.0557281 L189.762666,45.0557281 C189.848951,45.0557281 189.915323,45.0369267 189.97257,45.0018308 C190.03355,44.9571253 190.05844,44.9090774 190.05844,44.8409747 L190.249261,44.8409747 L190.249261,45.9636253 L190.05844,45.9636253 C190.05844,45.8997007 190.03355,45.864187 189.97257,45.8549952 C189.915323,45.8478925 189.848951,45.8416253 189.762666,45.8416253 L185.878616,45.8416253 L185.878616,45.6557007 C185.913877,45.6557007 185.952041,45.6394062 185.983568,45.6172623 C186.022147,45.591776 186.037911,45.5533377 186.037911,45.4956801 L186.037911,41.5068651 C186.037911,41.4492075 186.022147,41.4107692 185.983568,41.3848651 C185.952041,41.3593788 185.913877,41.3497692 185.878616,41.3497692 L185.878616,41.1542349 L189.635728,41.1542349 C189.854758,41.1542349 189.963444,41.0932349 189.963444,40.9649678 L190.157169,40.9649678 L190.157169,42.1482007 L189.963444,42.1482007 Z" id="Fill-84" fill="#FFFFFF" mask="url(#mask-6)"></path>
                    <path d="M191.844364,45.6554918 C191.958857,45.6554918 192.039334,45.6433753 192.079988,45.6170534 C192.121471,45.5919849 192.143871,45.5497863 192.143871,45.4954712 L192.143871,41.5066562 C192.143871,41.4494164 192.121471,41.4105603 192.079988,41.3846562 C192.039334,41.3595877 191.958857,41.3466356 191.844364,41.3466356 L191.844364,41.1569507 L193.455563,41.1569507 L193.455563,41.3466356 C193.260593,41.3466356 193.15896,41.398026 193.15896,41.5066562 L193.15896,45.4954712 C193.15896,45.5982521 193.260593,45.6554918 193.455563,45.6554918 L193.455563,45.8447589 L191.844364,45.8447589 L191.844364,45.6554918 Z" id="Fill-85" fill="#FFFFFF" mask="url(#mask-6)"></path>
                    <path d="M195.276416,45.6554918 C195.403769,45.6554918 195.467238,45.5982521 195.467238,45.4954712 L195.467238,41.5066562 C195.467238,41.398026 195.403769,41.3466356 195.276416,41.3466356 L195.276416,41.1569507 L196.832857,41.1569507 L196.832857,41.3466356 C196.782248,41.3529027 196.756528,41.3717041 196.756528,41.398026 C196.756528,41.4398068 196.836176,41.5325603 196.988833,41.6863137 L199.52925,44.3987247 L199.52925,41.5066562 C199.52925,41.398026 199.459143,41.3466356 199.316027,41.3466356 L199.316027,41.1569507 L200.608636,41.1569507 L200.608636,41.3466356 C200.481284,41.3466356 200.4174,41.398026 200.4174,41.5066562 L200.4174,45.4954712 C200.4174,45.5982521 200.481284,45.6554918 200.608636,45.6554918 L200.608636,45.8447589 L199.233476,45.8447589 L199.233476,45.6554918 C199.284085,45.6554918 199.306486,45.6362726 199.306486,45.5982521 C199.306486,45.5719301 199.277863,45.5213753 199.204853,45.4503479 C199.143873,45.3797384 199.06464,45.2995192 198.978771,45.2063479 L196.352484,42.391574 L196.352484,45.4954712 C196.352484,45.5982521 196.432131,45.6554918 196.574833,45.6554918 L196.574833,45.8447589 L195.276416,45.8447589 L195.276416,45.6554918 Z" id="Fill-86" fill="#FFFFFF" mask="url(#mask-6)"></path>
                    <path d="M206.427825,42.1482007 C206.427825,42.0136664 206.315821,41.9430568 206.10011,41.9430568 L203.517795,41.9430568 L203.517795,43.010139 L205.148076,43.010139 C205.27211,43.010139 205.35798,43.0009473 205.412322,42.9846527 C205.469154,42.9625089 205.498192,42.9178034 205.498192,42.8405089 L205.689429,42.8405089 L205.689429,43.9694267 L205.476206,43.9694267 C205.498192,43.89255 205.469154,43.8440842 205.392825,43.8248651 C205.313178,43.8089884 205.205322,43.7993788 205.062206,43.7993788 L203.517795,43.7993788 L203.517795,45.0557281 L206.227048,45.0557281 C206.310014,45.0557281 206.383024,45.0369267 206.436952,45.0018308 C206.497517,44.9571253 206.522821,44.9090774 206.522821,44.8409747 L206.714058,44.8409747 L206.714058,45.9636253 L206.522821,45.9636253 C206.522821,45.8997007 206.497517,45.864187 206.436952,45.8549952 C206.383024,45.8478925 206.310014,45.8416253 206.227048,45.8416253 L202.343413,45.8416253 L202.343413,45.6557007 C202.378258,45.6557007 202.416423,45.6394062 202.448365,45.6172623 C202.48321,45.591776 202.502707,45.5533377 202.502707,45.4956801 L202.502707,41.5068651 C202.502707,41.4492075 202.48321,41.4107692 202.448365,41.3848651 C202.416423,41.3593788 202.378258,41.3497692 202.343413,41.3497692 L202.343413,41.1542349 L206.10011,41.1542349 C206.315821,41.1542349 206.427825,41.0932349 206.427825,40.9649678 L206.621966,40.9649678 L206.621966,42.1482007 L206.427825,42.1482007 Z" id="Fill-87" fill="#FFFFFF" mask="url(#mask-6)"></path>
                </g>
            </g>
        </g>
    </g>
</svg>