<?xml version="1.0" encoding="UTF-8"?>
<svg version="1.1" viewBox="0 0 38 48" xmlns="http://www.w3.org/2000/svg" xmlns:xlink="http://www.w3.org/1999/xlink">
<title>PICTO MAILLOT</title>
<desc>Created with Sketch.</desc>
<defs>
<polygon id="a" points="0 1.8567 37.295 1.8567 37.295 21.468 0 21.468"/>
</defs>
<g fill="none" fill-rule="evenodd">
<g transform="translate(-722 -302)">
<g transform="translate(0 88)">
<g transform="translate(639 204)">
<g transform="translate(83 9)">
<g transform="translate(0 .29769)">
<mask id="b" fill="white">
<use xlink:href="#a"/>
</mask>
<path d="m37.204 20.155c-0.0114-0.017308-0.0285-0.05-0.0456-0.092308 0.0095-0.026923 0.0133-0.051923 0.0152-0.078846 0.0019-0.075-0.0323-0.14808-0.0874-0.21923 0.0114-0.053846 0.0114-0.11346 0.0038-0.17115-0.0019-0.0038461-0.0019-0.0096154-0.0038-0.013462-0.0114-0.076923-0.0361-0.15192-0.076-0.20577-0.0095-0.019231-0.0266-0.053846-0.0437-0.094231 0.0114-0.030769 0.0171-0.059615 0.0171-0.090385-0.0019-0.088462-0.0513-0.17308-0.1254-0.25385-0.0038-0.040385-0.0076-0.082692-0.0095-0.12115 0.0095-0.19808 0.0076-0.39038-0.0019-0.58654-0.0361-0.58077-0.1501-1.1558-0.2071-1.7346-0.0798-0.81154-0.1862-1.6212-0.2584-2.4346-0.0228-0.275-0.0627-0.54808-0.1045-0.82115-0.0646-0.43077-0.1444-0.85962-0.247-1.2846-0.3705-1.5442-0.9785-2.9865-1.7803-4.3462-0.285-0.48654-0.6821-0.87308-1.0697-1.2692-0.0399-0.038462-0.0779-0.078846-0.1159-0.11731-0.0266-0.028846-0.0646-0.057692-0.1045-0.092308-0.038-0.028846-0.0817-0.059615-0.1292-0.092308 0 0 0.0475 0.032692 0-0.0038462-0.0722-0.05-0.1539-0.1-0.247-0.15769-1.007-0.59038-3.0666-1.4096-3.7183-1.6077-1.8867-0.83846-3.838-1.675-4.7576-2.1942-0.2565-0.14615-0.5947-0.20962-0.9215-0.21538-0.1121 0.0038462-0.2185 0.0096154-0.323 0.023077-1.406 0.18462-2.8101 0.27692-4.2161 0.28269-1.4041-0.0057692-2.8082-0.098077-4.2142-0.28269-0.1026-0.013462-0.2128-0.019231-0.3211-0.023077-0.3287 0.0057692-0.6669 0.069231-0.9253 0.21538-0.9177 0.51923-2.869 1.3558-4.7557 2.1942-0.7125 0.21538-3.1027 1.1731-3.9653 1.7654v0.0038462c-0.0475 0.032692-0.0912 0.063462-0.1292 0.092308-0.0399 0.032692-0.076 0.063462-0.1045 0.092308-0.038 0.038462-0.0779 0.078846-0.114 0.11731-0.3895 0.39615-0.7866 0.78269-1.0735 1.2692-0.7999 1.3596-1.4079 2.8019-1.7784 4.3462-0.1026 0.425-0.1805 0.85385-0.2451 1.2846-0.0437 0.27308-0.0836 0.54615-0.1083 0.82115-0.0722 0.81346-0.1767 1.6231-0.2565 2.4346-0.0589 0.57885-0.171 1.1538-0.2052 1.7346-0.0114 0.19615-0.0152 0.38846-0.0019 0.58654-0.0038 0.038462-0.0076 0.080769-0.0133 0.12115-0.0741 0.080769-0.1216 0.16346-0.1216 0.25385-0.0019 0.030769 0.0038 0.059615 0.0152 0.090385-0.0171 0.040385-0.0342 0.075-0.0456 0.094231-0.038 0.053846-0.0627 0.12885-0.076 0.20577-0.0019 0.0038461-0.0019 0.0096154-0.0019 0.013462-0.0095 0.057692-0.0095 0.11731 0.0038 0.17115-0.0551 0.071154-0.0912 0.14423-0.0874 0.21923 0 0.026923 0.0057 0.051923 0.0152 0.078846-0.019 0.042308-0.0323 0.075-0.0456 0.092308-0.0532 0.073077-0.0874 0.17692-0.091552 0.27692-0.0034478 0.1 0.023152 0.19808 0.097252 0.25962 0.0076 0.0057692 0.0171 0.013462 0.0247 0.019231 0.1121 0.090385 0.247 0.175 0.3895 0.25 0.3021 0.15962 0.6289 0.28269 0.8094 0.35577 0.0741 0.028846 0.2318 0.084615 0.4408 0.15192-0.0038-0.18077-0.0076-0.35962 0.0019-0.53846 0.0342-0.68846 0.1501-1.3692 0.2071-2.0519 0.0798-0.96154 0.1881-1.9192 0.2603-2.8808 0.0247-0.325 0.0627-0.64808 0.1064-0.97115 0.0684-0.51154 0.1463-1.0173 0.2489-1.5212 0.3762-1.825 0.9899-3.5327 1.7974-5.1404 0.0817-0.16154 0.1976-0.30962 0.323-0.45192v-0.0038462c0.0038 0.023077 0.0057 0.044231 0.0076 0.067308 1.4041-1.5923 3.4732-2.6096 5.7779-2.6096h16.31c2.3142 0 4.3814 1.0096 5.7798 2.5981 0.0019-0.019231 0.0038-0.036538 0.0076-0.055769 0 0.0019231 0 0.0019231 0.0019 0.0038462 0.1254 0.14231 0.2394 0.29038 0.3211 0.45192 0.8075 1.6077 1.4212 3.3154 1.7974 5.1404 0.1026 0.50385 0.1805 1.0096 0.247 1.5212 0.0456 0.32308 0.0836 0.64615 0.1083 0.97115 0.0741 0.96154 0.1805 1.9192 0.2603 2.8808 0.057 0.68462 0.1748 1.3635 0.2071 2.0519 0.0095 0.17885 0.0057 0.35769 0.0019 0.53846 0.2071-0.067308 0.3648-0.12308 0.4408-0.15192 0.1805-0.073077 0.5073-0.19615 0.8075-0.35577 0.1444-0.075 0.2793-0.15769 0.3914-0.25 0.0076-0.0057692 0.0171-0.011538 0.0247-0.019231 0.0741-0.061538 0.1007-0.15962 0.097252-0.25962-0.0041522-0.1-0.040252-0.20385-0.091552-0.27692" fill="#C2E0F3" mask="url(#b)"/>
</g>
<path d="m25.758 3.2104c-0.2128-0.1-0.4218-0.20962-0.6213-0.32885-0.0589-0.034615-0.1197-0.071154-0.1767-0.10962-0.1026-0.063462-0.2014-0.12885-0.2983-0.2-0.1045-0.075-0.209-0.14808-0.3059-0.23269-0.0342-0.026923-0.0684-0.046154-0.1045-0.069231-0.0304-0.021154-0.0589-0.044231-0.0931-0.061538-0.0342-0.019231-0.0741-0.034615-0.1102-0.051923-0.0323-0.013462-0.0627-0.026923-0.0931-0.036538-0.0418-0.013462-0.0836-0.025-0.1273-0.034615-0.0323-0.0096154-0.0665-0.017308-0.0988-0.023077-0.0456-0.0076923-0.0912-0.013462-0.1387-0.017308l-0.0323-0.0057692c0.0019 0.0019231 0.0038 0.0019231 0.0057 0.0038462-0.0057-0.0019231-0.0114-0.0019231-0.0171-0.0019231-0.0038 0-0.0076-0.0019231-0.0133-0.0019231 0.0019 0 0.0019 0 0.0038 0.0019231h-0.0019c-0.0228-0.0096154-0.038-0.017308-0.0608-0.025-0.0095-0.0019231-0.0171-0.0019231-0.0266-0.0019231-0.0114-0.0019231-0.0228-0.0038462-0.0342-0.0038462 0.0019 0 0.0038 0.0019231 0.0057 0.0019231-0.0095 0-0.019-0.0019231-0.0285-0.0019231-0.0057-0.0019231-0.0114-0.0038462-0.0171-0.0076923h-0.019-0.0171-0.0285c-0.0304 0-0.0589 0.0019231-0.0893 0.0038462-0.0342-0.0019231-0.0722-0.0038462-0.1102-0.0038462-0.0133 0-0.0285-0.0019231-0.0456 0-0.8094 0.034615-1.6207 0.080769-2.4301 0.090385-0.6536 0.0076923-1.3072 0.023077-1.9608 0.034615-0.6517-0.011538-1.3053-0.026923-1.9589-0.034615-0.8094-0.0096154-1.6188-0.055769-2.4282-0.090385-0.0171-0.0019231-0.0323 0-0.0475 0-0.038 0-0.0741 0.0019231-0.1083 0.0038462-0.0304-0.0019231-0.0589-0.0038462-0.0893-0.0038462-0.0171-0.0019231-0.0323 0-0.0456 0h-0.019c-0.0076 0.0038462-0.0114 0.0057692-0.019 0.0076923-0.0095 0-0.0171 0.0019231-0.0285 0.0019231 0.0019 0 0.0038-0.0019231 0.0057-0.0019231-0.0114 0-0.0209 0.0019231-0.0342 0.0038462 0.0038-0.0019231 0.0057-0.0019231 0.0076-0.0038462-0.0095 0-0.019 0.0019231-0.0266 0.0019231-0.0247 0.0076923-0.0399 0.017308-0.0608 0.025-0.0095 0.0019231-0.019 0.0019231-0.0285 0.0019231h-0.0038c-0.0114 0.0019231-0.0209 0.0038462-0.0285 0.0057692-0.0475 0.0038462-0.0931 0.0096154-0.1387 0.017308-0.0342 0.0057692-0.0684 0.013462-0.1007 0.023077-0.0437 0.0096154-0.0836 0.021154-0.1254 0.034615-0.0304 0.0096154-0.0627 0.023077-0.0931 0.036538-0.038 0.017308-0.076 0.032692-0.1121 0.051923-0.0323 0.017308-0.0608 0.040385-0.0912 0.061538-0.0361 0.023077-0.0722 0.042308-0.1045 0.069231-0.0988 0.084615-0.2014 0.15769-0.3059 0.23269-0.0969 0.071154-0.1976 0.13654-0.2983 0.2-0.0589 0.038462-0.1178 0.075-0.1767 0.10962-0.2014 0.11923-0.4085 0.22885-0.6213 0.32885-0.0095 0.0057692-0.0095 0.026923-0.0076 0.048077 0.0019 0.0096154 0.0057 0.023077 0.0095 0.036538 0.0038 0.015385 0.0114 0.034615 0.019 0.053846 0.0209 0.059615 0.0551 0.13269 0.1026 0.22115 0.0019 0.0019231 0.0019 0.0038462 0.0019 0.0038462h0.0019c1.2901 1.5269 3.7563 2.7769 3.7563 2.7769l-0.0019-0.0019231c0.4313 0.28654 0.9025 0.57885 1.4174 0.86538 0.1216 0.073077 0.2508 0.15192 0.3629 0.21731 0.8683 0.50769 1.4003 0.74231 1.406 0.74423h0.0019c0.0038 0 0.0076-0.0019231 0.0114-0.0057692 0.0057 0.0038462 0.0095 0.0057692 0.0114 0.0057692 0.0209-0.0096154 0.076-0.038462 0.2641-0.13846 0.1748-0.086538 0.418-0.21346 0.722-0.38269 0.1197-0.065385 0.2565-0.13654 0.4104-0.21731 0.0209-0.013462 0.0418-0.023077 0.0665-0.036538 0.0988-0.059615 0.2033-0.12308 0.3097-0.18654 0.5168-0.28846 0.9861-0.57885 1.4193-0.86731l-0.0019 0.0038462s2.4624-1.25 3.7544-2.775c0 0 0.0019 0 0.0019-0.0019231 0.0171-0.032692 0.0304-0.061538 0.0456-0.090385 0.0228-0.046154 0.0418-0.084615 0.0532-0.11923 0.0114-0.028846 0.0209-0.055769 0.0266-0.075 0.0038-0.011538 0.0057-0.023077 0.0076-0.032692 0.0019-0.019231 0.0038-0.040385-0.0057-0.046154" fill="#fff"/>
<path d="m26.492 14.79h-15.635c-1.8202 0-3.3972 0.71538-4.2123 1.9923 0.2983 1.0788 0.5662 1.975 0.7448 2.5731 0.0665 0.24231 0.1311 0.43654 0.1824 0.60769 0.0475 0.38462 0.0855 0.76923 0.1311 1.1538 0.0418 0.34808 0.0969 0.69231 0.152 1.0404 0.3971 4.6173 0.247 9.2481 0.0874 13.873-0.0627 1.8731-0.1862 3.7385-0.2964 5.6096-0.0076 0.11346-0.0133 0.22692-0.019 0.34231-0.0057 0.078846-0.0095 0.15962-0.0152 0.24038-0.0057 0.14808-0.0133 0.29615-0.0228 0.44615-0.019 0.31923-0.038 0.63846-0.0532 0.95769-0.0038 0.11731-0.0038 0.22308-0.0019 0.32308-0.0836 0.36923-0.152 0.74231-0.1387 1.125 0.0019 0.084615-0.0114 0.17115-0.0323 0.25192-0.1102 0.39615-0.2166 0.79231-0.1919 1.2115 0 0.0076923 0.0038 0.013462 0.0038 0.021154 0.0361 0.84231 0.3648 1.2192 1.3376 1.45 1.0127 0.24231 2.0824 0.38462 3.1217 0.35962h0.0095 0.0247c1.3186-0.030769 2.6334-0.11538 3.9501-0.20577 0.8208-0.053846 1.6435-0.11154 2.4624-0.15962 0.1444-0.0076923 0.2907-0.0096153 0.4332-0.011538 0.0494 0 0.1007-0.0038462 0.1501-0.0038462 0.1938 0 0.3895 0.0038462 0.5833 0.015385 2.1375 0.125 4.2731 0.31731 6.4106 0.36538 1.0089 0.023077 2.0444-0.11154 3.0286-0.34423 0.0475-0.0057692 0.0931-0.0038462 0.1387-0.015385 0.931-0.22115 1.2692-0.57692 1.33-1.3462 0.0133-0.036538 0.0209-0.078846 0.0228-0.125 0.0266-0.41923-0.0817-0.81538-0.19-1.2115-0.0228-0.080769-0.0361-0.16731-0.0323-0.25192 0.0114-0.38269-0.0551-0.75577-0.1387-1.125 0.0019-0.1 0.0038-0.20577-0.0019-0.32308-0.0171-0.31923-0.0361-0.63846-0.0532-0.95769-0.0076-0.15-0.0152-0.29808-0.0247-0.44615-0.0057-0.080769-0.0095-0.16154-0.0133-0.24038-0.0076-0.11538-0.0133-0.22885-0.019-0.34231-0.1102-1.8712-0.2337-3.7365-0.2983-5.6096-0.1577-4.625-0.3097-9.2558 0.0893-13.873 0.0532-0.34808 0.1102-0.69231 0.152-1.0404 0.0475-0.38462 0.0817-0.76923 0.1311-1.1538 0.0513-0.17115 0.114-0.36538 0.1805-0.60769 0.1824-0.59808 0.4484-1.4942 0.7467-2.5731-0.8151-1.2769-2.394-1.9923-4.2142-1.9923" fill="#C2E0F3"/>
<path d="m7.4146 44.748c-0.0076 0.10962-0.0228 0.21538-0.019 0.32692 0.0019 0.084615-0.0114 0.17115-0.0323 0.25192-0.1102 0.39615-0.2166 0.79231-0.1919 1.2115 0 0.0076923 0.0019 0.011538 0.0038 0.019231 0.0361 0.84423 0.3648 1.2212 1.3376 1.4519 1.0127 0.24231 2.0824 0.38462 3.1217 0.35962h0.0095 0.0247c1.3186-0.030769 2.6334-0.11538 3.9501-0.20577 0.8208-0.053846 1.6435-0.11154 2.4624-0.16154 0.1444-0.0076923 0.2888-0.0096154 0.4332-0.0096154 0.0494 0 0.1007-0.0038462 0.1501-0.0038462 0.1938 0 0.3876 0.0038462 0.5833 0.013462 2.1375 0.12692 4.2731 0.31731 6.4106 0.36731 1.0089 0.023077 2.0444-0.11154 3.0286-0.34423 0.0475-0.0057692 0.0931-0.0038462 0.1387-0.015385 0.931-0.22115 1.2711-0.57692 1.33-1.3462 0.0133-0.036538 0.0209-0.078846 0.0228-0.125 0.0266-0.41923-0.0817-0.81538-0.19-1.2115-0.0228-0.080769-0.0361-0.16731-0.0323-0.25192 0.0038-0.11154-0.0114-0.21923-0.019-0.33077-9.5152-0.27115-18.326-0.10962-22.523 0.0038461" fill="#fff"/>
<path d="m8.0212 33.55c-0.0247 0.82885-0.0494 1.6538-0.0779 2.4808-0.0323 0.92692-0.095 1.8538-0.1463 2.7808 4.1952-0.20962 12.413-0.475 21.759 0.0019231-0.0513-0.92692-0.1178-1.8538-0.1482-2.7827-0.0285-0.82885-0.0513-1.6558-0.0779-2.4846-8.8483-0.29615-17.005-0.13077-21.308 0.0038462" fill="#fff"/>
<path d="m7.7243 21.256c0.0399 0.3 0.0836 0.6 0.1311 0.90192 0.1539 1.7904 0.2109 3.5865 0.2299 5.3827 4.237-0.24615 12.173-0.53077 21.179 0.0057693 0.0209-1.7981 0.076-3.5962 0.2318-5.3885 0.0456-0.30192 0.0931-0.60577 0.1311-0.90769-9.177-0.38077-17.645-0.16154-21.903 0.0057692" fill="#fff"/>
<path d="m35.558 21.228c-0.0342-0.68846-0.1501-1.3673-0.2071-2.0519-0.0798-0.96154-0.1862-1.9192-0.2603-2.8808-0.0247-0.325-0.0627-0.64808-0.1083-0.97115-0.0665-0.51154-0.1444-1.0192-0.2489-1.5212-0.3743-1.8269-0.988-3.5327-1.7955-5.1404-0.0817-0.16154-0.1957-0.30962-0.3211-0.45385l-0.0038-0.0019231c-0.0038 0.015385-0.0057 0.034615-0.0095 0.053846-1.3984-1.5865-3.4637-2.5981-5.776-2.5981h-16.31c-2.3047 0-4.3719 1.0173-5.7741 2.6096-0.0038-0.023077-0.0076-0.046154-0.0114-0.065385 0 0-0.0019 0-0.0019 0.0019231-0.1235 0.14423-0.2413 0.29231-0.323 0.45385-0.8056 1.6077-1.4212 3.3135-1.7955 5.1404-0.1045 0.50192-0.1824 1.0096-0.2489 1.5212-0.0437 0.32308-0.0817 0.64615-0.1064 0.97115-0.0722 0.96154-0.1805 1.9192-0.2603 2.8808-0.057 0.68269-0.1729 1.3635-0.2071 2.0519-0.0095 0.17885-0.0059624 0.35769-0.0019 0.53654 0.4351 0.14038 1.1077 0.325 1.805 0.42692h0.0076c0.0988 0.015385 0.2166 0.026923 0.3382 0.036538h0.0038c0.0019 0.0019231 0.0057 0.0019231 0.0095 0.0019231 0.2888 0.021154 0.6194 0.034615 0.9519 0.040385 0.0304 0 0.0589 0.0019231 0.0893 0.0019231h0.1596 0.152 0.114c0.0703-0.0019231 0.1387-0.0019231 0.2052-0.0038462h0.0532c0.0874-0.0038461 0.1729-0.0057692 0.2508-0.0096153 0.3078-0.013462 0.5187-0.032692 0.5282-0.059615 0.3135-0.048077 0.5054-0.15 0.6099-0.33462 0.0703-0.12308 0.1045-0.28462 0.1045-0.49423v-0.013462-0.044231c-0.0019-0.32115-0.0266-0.35577-0.095-0.23077 0.0323-0.061538 0.0589-0.13462 0.076-0.21538 0.0171-0.080769 0.0247-0.17308 0.0247-0.27885-0.0019-0.0038461 0-0.0076923 0-0.013462v-0.044231c-0.0019-0.32115 0-0.64231 0.0418-0.95962 0.0437-0.053846 0.0912-0.11154 0.1406-0.17308 0.0038-0.0057692 0.0076-0.0096154 0.0114-0.015385 0.0019-0.0038462 0.0057-0.0076923 0.0095-0.011538 0.0038-0.0038461 0.0057-0.0076923 0.0095-0.011538-0.038-0.125-0.0798-0.26538-0.1254-0.41538-0.0057-0.015385-0.0076-0.030769-0.0133-0.048077-0.0418-0.13846-0.0855-0.28654-0.133-0.44423-0.0133-0.046154-0.0247-0.088462-0.038-0.13462-0.0456-0.15192-0.0893-0.30962-0.1387-0.47692-0.0152-0.053846-0.0323-0.11154-0.0494-0.16923-0.038-0.14231-0.0817-0.28846-0.1235-0.43846-0.0247-0.086538-0.0494-0.175-0.0741-0.26538-0.038-0.13654-0.0266-0.096154-0.0513-0.18462 0.817-1.2769 2.394-1.9923 4.2142-1.9923h15.635c1.8202 0 3.3991 0.71538 4.2123 1.9923-0.019 0.078846-0.0114 0.048077-0.0494 0.18462-0.0266 0.090385-0.0494 0.17885-0.0741 0.26538-0.0437 0.15-0.0836 0.29615-0.1254 0.43846-0.0152 0.057692-0.0323 0.11538-0.0494 0.16923-0.0456 0.16731-0.0931 0.325-0.1368 0.47692-0.0133 0.046154-0.0266 0.088462-0.0399 0.13462-0.0456 0.15769-0.0912 0.30577-0.1311 0.44423-0.0057 0.017308-0.0095 0.032692-0.0133 0.048077-0.0437 0.15-0.0874 0.29038-0.1254 0.41538l0.0114 0.011538c0.0019 0.0057692 0.0057 0.0076923 0.0057 0.011538 0.0057 0.0057692 0.0095 0.0096154 0.0133 0.015385 0.0494 0.061538 0.095 0.11923 0.1406 0.175 0.0399 0.31538 0.0437 0.63654 0.0418 0.95769 0 0.015385 0.0019 0.028846 0.0019 0.044231v0.013462c0 0.10577 0.0076 0.19808 0.0247 0.27885 0.0152 0.080769 0.0399 0.15385 0.0741 0.21538-0.0684-0.125-0.0931-0.090385-0.095 0.23077 0 0.015385 0.0019 0.030769 0.0019 0.044231v0.013462c-0.0019 0.20962 0.0323 0.37115 0.1026 0.49423 0.1045 0.18462 0.2983 0.28654 0.6118 0.33462 0.0076 0.026923 0.2166 0.046154 0.5263 0.059615 0.076 0.0038461 0.1615 0.0076923 0.2508 0.0096153h0.0513c0.0684 0.0019231 0.1368 0.0038462 0.2071 0.0038462h0.1121 0.152 0.1596c0.0304 0 0.0627-0.0019231 0.0912-0.0019231 0.3306-0.0038461 0.6631-0.019231 0.95-0.040385h0.0114c0-0.0019231 0.0019-0.0019231 0.0019-0.0019231 0.1235-0.0096154 0.2394-0.021154 0.3401-0.036538h0.0076c0.6973-0.10192 1.368-0.28654 1.805-0.42692 0.0040624-0.17885 0.0076-0.35769-0.0019-0.53654" fill="#fff"/>
<path d="m18.664 8.1008l0.0057 0.0019231 0.0095-0.0019231h0.0019l0.2356-0.125c0.1482-0.075 0.3933-0.2 0.7201-0.38269l0.4769-0.25385c0.0969-0.057692 0.2033-0.12115 0.3078-0.18462 0.4864-0.27115 0.9614-0.56154 1.4155-0.86538l0.2812-0.18846-0.038 0.061538c0.646-0.35192 2.4605-1.4096 3.496-2.6288 0.0095-0.021154 0.019-0.042308 0.0323-0.067308 0.0266-0.055769 0.0456-0.094231 0.0589-0.12885 0.0076-0.023077 0.0171-0.048077 0.0228-0.067308l0.0019-0.013462c-0.1938-0.090385-0.3895-0.19423-0.5909-0.31538-0.0608-0.034615-0.1197-0.071154-0.1786-0.10769-0.1026-0.065385-0.2033-0.13462-0.3021-0.20577l-0.0475-0.032692c-0.0874-0.063462-0.1767-0.13077-0.2622-0.20192-0.019-0.017308-0.0399-0.028846-0.0627-0.042308l-0.0627-0.042308c-0.019-0.015385-0.038-0.026923-0.0589-0.038462-0.0266-0.015385-0.0532-0.026923-0.0798-0.038462l-0.0266-0.011538c-0.0285-0.011538-0.0589-0.023077-0.0893-0.034615-0.038-0.013462-0.0779-0.023077-0.1178-0.034615-0.0323-0.0076923-0.0646-0.013462-0.0969-0.019231h-0.0076l-0.2052-0.030769c-0.0038 0-0.0152-0.0057692-0.0266-0.0096154l-0.0627-0.011538v0.0019231l-0.0456-0.0057692c-0.019-0.0038462-0.0285-0.0038462-0.0361-0.0038462l-0.1425 0.0019231c-0.0266 0-0.0475-0.0019231-0.0779-0.0019231h-0.0266-0.019c-0.19 0.0076923-0.3819 0.017308-0.5719 0.026923-0.6099 0.028846-1.2407 0.055769-1.8601 0.063462-0.475 0.0057692-0.95 0.015385-1.425 0.023077l-0.5339 0.011538-0.5377-0.011538c-0.475-0.0076923-0.95-0.017308-1.4231-0.023077-0.6213-0.0076923-1.2521-0.034615-1.8601-0.063462-0.19-0.0096154-0.3819-0.019231-0.5738-0.026923h-0.0171-0.0285c-0.0266 0-0.0513 0-0.0779 0.0019231l-0.0266 0.0019231-0.0931-0.0038462h-0.019-0.0266l-0.0304 0.0076923-0.0741 0.0038462c-0.0057 0.0019231-0.0095 0.0038462-0.0133 0.0057692-0.0095 0.0038462-0.0209 0.0096154-0.0323 0.013462l-0.0171 0.0038462-0.0589 0.0057692c-0.0475 0.0057692-0.0893 0.013462-0.133 0.019231-0.0342 0.0057692-0.0665 0.011538-0.0969 0.019231-0.0418 0.011538-0.0817 0.021154-0.1216 0.034615-0.0266 0.011538-0.057 0.023077-0.0874 0.034615l-0.0228 0.0096154c-0.0285 0.013462-0.057 0.025-0.0817 0.040385-0.0209 0.011538-0.0418 0.023077-0.0608 0.038462l-0.0266 0.019231c-0.0133 0.0076923-0.0266 0.017308-0.038 0.025-0.019 0.013462-0.0399 0.023077-0.0608 0.040385-0.0855 0.071154-0.1767 0.13846-0.2641 0.20192l-0.0437 0.032692c-0.1007 0.071154-0.1995 0.14038-0.304 0.20577-0.057 0.034615-0.1178 0.073077-0.1786 0.10769-0.1976 0.11923-0.3971 0.225-0.5909 0.31538 0 0.0057692 0.0019 0.011538 0.0019 0.019231 0.0038 0.011538 0.0095 0.025 0.0133 0.038462 0.0304 0.075 0.0646 0.14615 0.1064 0.22308 1.0488 1.2385 2.9127 2.3115 3.5264 2.6442l-0.0247-0.044231 0.2318 0.15385c0.4636 0.30962 0.9253 0.59038 1.4136 0.86346l0.0988 0.057692c0.0912 0.055769 0.1805 0.11154 0.2641 0.15962 0.7657 0.44615 1.2635 0.68077 1.3737 0.73077l0.0038-0.0019231zm-0.0209 0.15577l-0.019-0.019231c-0.0665-0.028846-0.5776-0.26346-1.406-0.74423-0.0836-0.05-0.1748-0.10577-0.266-0.16154l-0.0969-0.059615c-0.4845-0.26731-0.9443-0.55-1.406-0.85769l-0.0057-0.0019231c-0.0247-0.013462-2.4928-1.2731-3.7772-2.7923l-0.0095-0.015385c-0.0456-0.082692-0.0817-0.16154-0.1083-0.23077-0.0114-0.028846-0.019-0.046154-0.0228-0.059615-0.0038-0.017308-0.0076-0.032692-0.0095-0.046154-0.0038-0.032692-0.0076-0.096154 0.0456-0.11923 0.2014-0.094231 0.4104-0.20577 0.6156-0.32692 0.0589-0.034615 0.1159-0.069231 0.1748-0.10769 0.0988-0.063462 0.1995-0.12692 0.2964-0.19808l0.0437-0.032692c0.0855-0.063462 0.1748-0.12692 0.2565-0.19615 0.0247-0.021154 0.0513-0.038462 0.076-0.053846l0.057-0.036538c0.0247-0.019231 0.0494-0.034615 0.0741-0.05 0.0304-0.015385 0.0627-0.030769 0.095-0.044231l0.0228-0.0096154c0.0323-0.013462 0.0646-0.026923 0.0969-0.040385 0.0437-0.013462 0.0893-0.023077 0.133-0.034615 0.0361-0.0096154 0.0684-0.017308 0.1045-0.023077 0.0475-0.0076923 0.095-0.015385 0.1425-0.021154l0.0703-0.011538c0.0114-0.0057692 0.0228-0.0096154 0.038-0.015385l0.0171-0.0038462 0.1197-0.0096154h0.0456l0.1672-0.0096154-0.0095 0.0057692 0.0551-0.0038462-0.0152 0.0076923h0.019 0.0285c0.1919 0.0076923 0.3819 0.017308 0.5738 0.026923 0.608 0.026923 1.2369 0.055769 1.8563 0.063462 0.475 0.0057692 0.9481 0.015385 1.4231 0.025l0.5358 0.0076923 0.532-0.0076923c0.475-0.0096154 0.95-0.019231 1.425-0.025 0.6175-0.0076923 1.2464-0.036538 1.8563-0.063462 0.1881-0.0096154 0.3819-0.019231 0.5719-0.026923h0.0304 0.0171 0.0019l-0.0171-0.0076923 0.1824 0.0096154 0.0285-0.0019231h0.0285l0.1083 0.0096154 0.0019 0.011538 0.0019-0.0057692-0.0019 0.011538 0.019 0.0019231 0.0038-0.017308 0.0304 0.0057692c0.0133 0.0038462 0.0247 0.0096154 0.0342 0.013462l0.0551 0.0076923c0.0608 0.0076923 0.1064 0.015385 0.1558 0.023077 0.0323 0.0057692 0.0684 0.013462 0.1045 0.023077 0.0437 0.011538 0.0874 0.023077 0.1292 0.034615 0.0342 0.013462 0.0665 0.026923 0.0988 0.040385l0.0247 0.011538c0.0323 0.013462 0.0646 0.026923 0.0931 0.042308 0.0266 0.015385 0.0513 0.030769 0.0741 0.05l0.057 0.036538c0.0247 0.015385 0.0513 0.032692 0.0779 0.053846 0.0817 0.069231 0.1672 0.13269 0.2527 0.19615l0.0475 0.034615c0.0969 0.069231 0.1957 0.13269 0.2964 0.19615 0.057 0.036538 0.114 0.073077 0.1729 0.10769 0.2109 0.125 0.4142 0.23077 0.6156 0.32692h0.0019c0.0494 0.023077 0.0456 0.084615 0.0437 0.11346-0.0019 0.015385-0.0038 0.025-0.0057 0.036538-0.0076 0.030769-0.019 0.059615-0.0304 0.090385-0.0152 0.034615-0.0342 0.076923-0.057 0.125-0.019 0.038462-0.0323 0.063462-0.0494 0.094231l-0.0114 0.015385c-1.2825 1.5154-3.7468 2.775-3.7734 2.7885l-0.0076 0.0038462c-0.4522 0.30192-0.9253 0.59231-1.406 0.85769-0.1045 0.063462-0.209 0.12885-0.3097 0.18654l-0.0703 0.040385-0.4085 0.21538c-0.3287 0.18269-0.5757 0.30962-0.7239 0.38269l-0.2869 0.15385-0.0171-0.0076923-0.0304 0.011538z" fill="#000"/>
<path d="m11.825 3.0865c-0.0779 0.040385-0.1539 0.086538-0.2337 0.12308-0.0095 0.0057692-0.0095 0.026923-0.0076 0.05 0.0019 0.0096154 0.0057 0.023077 0.0095 0.034615 0.0038 0.015385 0.0114 0.036538 0.019 0.055769 0.0209 0.057692 0.0551 0.13077 0.1026 0.22115 0.0019 0.0019231 0.0019 0.0019231 0.0019 0.0038462h0.0019c0.0095 0.013462 0.0247 0.025 0.0342 0.036538 2.0482 0.38077 4.3605 0.60769 6.8362 0.60769 2.5593 0 4.9438-0.24231 7.0433-0.64615l0.0437-0.090385c0.0228-0.044231 0.0418-0.084615 0.0532-0.11923 0.0114-0.026923 0.0209-0.055769 0.0266-0.075 0.0038-0.0096154 0.0057-0.021154 0.0076-0.030769 0.0019-0.021154 0.0038-0.042308-0.0057-0.048077-0.0931-0.042308-0.1805-0.094231-0.2698-0.14038-1.9836 0.35385-4.3282 0.56923-6.8818 0.56923-2.508 0-4.8203-0.20769-6.7811-0.55192" fill="#000"/>
<path d="m11.611 3.31c0.0228 0.059615 0.0551 0.13077 0.1045 0.22115 0.0019 0.0019231 0.0019 0.0038462 0.0019 0.0057692h0.0019c1.2882 1.525 3.7544 2.775 3.7544 2.775l-0.0019-0.0019231c0.4332 0.28654 0.9025 0.57692 1.4174 0.86538 0.1235 0.075 0.2508 0.15192 0.3648 0.21731 0.8683 0.50769 1.3984 0.74231 1.4041 0.74615l0.0019-0.0019231v0.0019231c0.0038-0.0019231 0.0076-0.0038462 0.0133-0.0057692 0.0057 0.0019231 0.0095 0.0038462 0.0114 0.0057692 0.019-0.011538 0.076-0.042308 0.2622-0.14038 0.1748-0.086538 0.418-0.21346 0.722-0.38269 0.1216-0.065385 0.2565-0.13462 0.4104-0.21731 0.0228-0.011538 0.0418-0.025 0.0665-0.038462 0.0988-0.057692 0.2052-0.12115 0.3097-0.18462 0.5187-0.28846 0.988-0.57885 1.4193-0.86538l-0.0019 0.0019231s2.4624-1.2481 3.7544-2.7731c0-0.0019231 0.0019-0.0019231 0.0019-0.0019231 0.019-0.032692 0.0323-0.061538 0.0456-0.092308 0.0228-0.044231 0.0418-0.086538 0.0551-0.11923 0.0114-0.028846 0.019-0.055769 0.0247-0.075 0.0038-0.011538 0.0057-0.023077 0.0076-0.032692 0.0019-0.021154 0.0038-0.040385-0.0057-0.044231-0.2128-0.1-0.4199-0.21154-0.6213-0.33077-0.0589-0.034615-0.1178-0.071154-0.1767-0.10769-0.1007-0.065385-0.2014-0.13077-0.2983-0.2-0.1045-0.075-0.2071-0.15-0.3059-0.23269-0.0342-0.028846-0.0684-0.048077-0.1045-0.071154-0.0285-0.019231-0.0589-0.044231-0.0912-0.061538-0.0361-0.021154-0.076-0.034615-0.1121-0.051923-0.0323-0.013462-0.0608-0.026923-0.0931-0.038462-0.0399-0.011538-0.0836-0.023077-0.1254-0.032692-0.0342-0.0076923-0.0665-0.015385-0.1007-0.021154-0.0437-0.0096154-0.0912-0.015385-0.1368-0.021154l-0.0342-0.0057692c0.0019 0.0019231 0.0038 0.0019231 0.0057 0.0038462-0.0057 0-0.0114 0-0.0171-0.0019231-0.0038 0-0.0076 0-0.0133-0.0019231 0.0019 0.0019231 0.0019 0.0019231 0.0038 0.0019231-0.019-0.0019231-0.0418-0.0038462-0.0627-0.0057692 0.1235 0.044231 0.2356 0.086538 0.3344 0.13654h0.0019c0.1045 0.05 0.1957 0.10192 0.2736 0.15962 0.0133 0.0076923 0.0209 0.017308 0.0342 0.026923 0.0456 0.036538 0.0855 0.073077 0.1235 0.11346 0.0133 0.013462 0.0323 0.025 0.0437 0.038462 0.0456 0.055769 0.0779 0.11346 0.1064 0.17308 0.0038 0.0096154 0.0114 0.017308 0.0152 0.028846 0.0133 0.032692 0.0171 0.067308 0.0228 0.10385 0.114 0.18654-0.5111 1.1731-1.7556 2.2615-0.969 0.84808-2.3161 1.7577-3.9843 2.4038v-0.019231c-0.0038 0.0019231-0.0095 0.0057692-0.0152 0.0096154-0.0057-0.0038462-0.0114-0.0076923-0.0152-0.0096154v0.019231c-1.6682-0.64423-3.0134-1.5538-3.9843-2.4019-1.2445-1.0885-1.8696-2.0769-1.7575-2.2635 0.0057-0.036538 0.0095-0.071154 0.0228-0.10385 0.0038-0.011538 0.0133-0.019231 0.0171-0.028846 0.0285-0.059615 0.0589-0.11923 0.1064-0.17308 0.0114-0.013462 0.0285-0.025 0.0418-0.038462 0.0152-0.015385 0.0304-0.028846 0.0475-0.042308 0.0247-0.023077 0.0475-0.048077 0.0779-0.071154 0.0038-0.0038462 0.0057-0.0057692 0.0095-0.0096154 0.0057-0.0038462 0.0133-0.011538 0.0228-0.017308 0.0779-0.057692 0.171-0.10962 0.2736-0.15962h0.0038c0.0988-0.05 0.2147-0.094231 0.3401-0.13846-0.0285 0.0019231-0.0589 0.0038462-0.0893 0.0076923v-0.0019231c-0.0019 0.0019231-0.0019 0.0019231-0.0019 0.0019231-0.0114 0-0.0209 0.0019231-0.0304 0.0038462-0.0475 0.0057692-0.0931 0.011538-0.1368 0.021154-0.0361 0.0057692-0.0703 0.013462-0.1026 0.021154-0.0437 0.0096154-0.0836 0.021154-0.1254 0.032692-0.0304 0.011538-0.0627 0.025-0.0912 0.038462-0.0399 0.017308-0.076 0.030769-0.114 0.051923-0.0323 0.017308-0.0608 0.042308-0.0912 0.061538-0.0342 0.023077-0.0722 0.042308-0.1026 0.071154-0.0988 0.082692-0.2033 0.15769-0.3078 0.23269-0.095 0.069231-0.1976 0.13462-0.2983 0.2-0.0589 0.036538-0.1159 0.073077-0.1767 0.10769-0.2014 0.11923-0.4066 0.23077-0.6213 0.33077-0.0095 0.0038462-0.0095 0.023077-0.0076 0.046154 0.0019 0.011538 0.0057 0.023077 0.0095 0.038462 0.0038 0.013462 0.0114 0.032692 0.019 0.051923" fill="#fff"/>
<path d="m15.473 6.3185l-0.798-1.2692-1.6131-2.5692c0.0114-0.015385 0.0304-0.026923 0.0437-0.040385 0.0152-0.011538 0.0304-0.026923 0.0456-0.040385 0.0266-0.025 0.0494-0.048077 0.0779-0.071154 0.0038-0.0019231 0.0076-0.0057692 0.0114-0.0076923 0.0057-0.0076923 0.0133-0.015385 0.0228-0.021154 0.0779-0.055769 0.171-0.10769 0.2717-0.15769 0.0019-0.0019231 0.0019-0.0019231 0.0038-0.0019231 0.1045-0.048077 0.2223-0.096154 0.3515-0.13846v-0.0019231c0.0019 0 0.0038 0 0.0057-0.0019231 0.0038 0 0.0076-0.0019231 0.0114-0.0038462-0.0399 0.0019231-0.0779 0.0057692-0.1178 0.0096154 0 0 0.0019 0 0.0019-0.0019231-0.0019 0.0019231-0.0038 0.0019231-0.0057 0.0019231-0.0076 0-0.0152 0.0019231-0.0247 0.0038462h-0.0038c-0.0475 0.0057692-0.0912 0.011538-0.1387 0.021154-0.0323 0.0038462-0.0665 0.011538-0.0988 0.019231-0.0437 0.0096154-0.0855 0.021154-0.1273 0.034615-0.0304 0.013462-0.0608 0.025-0.0931 0.036538-0.0247 0.011538-0.0513 0.025-0.076 0.036538-0.0114 0.0057692-0.0228 0.0096154-0.0342 0.017308-0.0095 0.0038462-0.0152 0.0096154-0.0247 0.015385-0.0228 0.013462-0.0456 0.028846-0.0684 0.046154-0.0266 0.017308-0.0532 0.034615-0.0798 0.051923-0.0076 0.0057692-0.0171 0.011538-0.0247 0.017308-0.0969 0.082692-0.2014 0.15769-0.304 0.23269-0.0988 0.071154-0.1976 0.13654-0.3002 0.20192-0.057 0.034615-0.1159 0.073077-0.1748 0.10577-0.0988 0.059615-0.1995 0.10577-0.2983 0.15962-0.1083 0.057692-0.2128 0.11923-0.323 0.17115-0.0114 0.0038462-0.0114 0.026923-0.0076 0.051923 0.0019 0.0096154 0.0038 0.025 0.0095 0.040385 0.0038 0.015385 0.0114 0.036538 0.019 0.053846 0.0209 0.059615 0.0551 0.13269 0.1026 0.22308 0.0019 0.0019231 0.0019 0.0019231 0.0019 0.0038462 1.292 1.525 3.7582 2.775 3.7582 2.775l-0.0019-0.0038462z" fill="#fff"/>
<path d="m11.622 3.205c0 0.0038462 0 0.0096154 0.0019 0.015385 0 0.0096154 0.0038 0.019231 0.0076 0.032692s0.0095 0.028846 0.0152 0.044231l0.0038 0.0096154c0.0228 0.061538 0.057 0.13462 0.1026 0.21538 1.0944 1.2962 3.0723 2.4058 3.6043 2.6904l-2.3446-3.7365 0.019-0.025c0.0057-0.0096154 0.0171-0.019231 0.0285-0.025 0.0057-0.0057692 0.0114-0.0096154 0.0152-0.015385 0.0152-0.013462 0.0285-0.025 0.0418-0.038462 0.0171-0.015385 0.0266-0.021154 0.0361-0.032692 0.0171-0.015385 0.0342-0.030769 0.0513-0.044231l0.0361 0.025-0.0266-0.034615c0.0076-0.0076923 0.0152-0.013462 0.0247-0.019231 0.076-0.055769 0.1691-0.10962 0.2793-0.16154l0.0095-0.0076923h0.0038c0.0133-0.0057692 0.0285-0.013462 0.0437-0.019231-0.0171 0.0038462-0.0323 0.0076923-0.0475 0.011538-0.0399 0.0096154-0.0836 0.021154-0.1216 0.032692-0.0266 0.0076923-0.0532 0.019231-0.0779 0.030769l-0.0114 0.0057692c-0.0266 0.011538-0.0494 0.023077-0.076 0.032692l-0.0152 0.0076923c-0.0076 0.0019231-0.0133 0.0038462-0.019 0.0076923-0.0019 0.0019231-0.0057 0.0038462-0.0095 0.0076923l-0.0076 0.0057692c-0.0209 0.013462-0.038 0.025-0.0551 0.038462l-0.0494 0.030769c-0.0152 0.0096154-0.0304 0.021154-0.0456 0.032692-0.0038 0.0019231-0.0076 0.0038462-0.0114 0.0076923-0.0038 0.0019231-0.0057 0.0038462-0.0095 0.0057692-0.0874 0.075-0.1824 0.14231-0.2736 0.20769l-0.0323 0.026923c-0.0969 0.069231-0.1938 0.13077-0.304 0.20192-0.0589 0.036538-0.1159 0.073077-0.1748 0.10962-0.0646 0.034615-0.1292 0.069231-0.1957 0.10385-0.0342 0.015385-0.0703 0.034615-0.1064 0.053846-0.0323 0.019231-0.0665 0.034615-0.0988 0.053846-0.0665 0.036538-0.133 0.073077-0.2014 0.10769l-0.0095 0.0038462zm3.99 3.2327l-0.1558-0.078846c-0.0247-0.011538-2.489-1.2712-3.7696-2.7846l-0.0076-0.015385c-0.0456-0.080769-0.0798-0.15769-0.1064-0.22308l-0.0038-0.011538c-0.0057-0.015385-0.0114-0.032692-0.0152-0.046154-0.0057-0.017308-0.0095-0.032692-0.0114-0.046154-0.0019-0.017308-0.0057-0.05 0.0057-0.073077v-0.011538l0.0247-0.011538c0.076-0.034615 0.1482-0.075 0.2204-0.11538 0.0342-0.019231 0.0665-0.034615 0.1007-0.053846 0.0361-0.019231 0.0722-0.038462 0.1102-0.055769 0.0627-0.032692 0.1254-0.065385 0.1881-0.10192 0.057-0.034615 0.1159-0.069231 0.1729-0.10769 0.1083-0.067308 0.2033-0.13077 0.2983-0.19808l0.0361-0.026923c0.0893-0.063462 0.1805-0.13077 0.266-0.20385 0.0057-0.0057692 0.0133-0.0096154 0.019-0.013462 0.0247-0.017308 0.0418-0.026923 0.057-0.038462l0.0475-0.030769c0.019-0.013462 0.0361-0.025 0.0551-0.038462 0.0114-0.0076923 0.019-0.013462 0.0247-0.017308 0.0095-0.0038462 0.0171-0.0076923 0.0247-0.011538l0.0114-0.0057692c0.0266-0.0096154 0.0532-0.023077 0.0798-0.034615l0.0114-0.0057692c0.0285-0.011538 0.0551-0.023077 0.0836-0.032692 0.0437-0.013462 0.0855-0.025 0.1292-0.034615 0.0342-0.0096154 0.0703-0.017308 0.1026-0.023077 0.0475-0.0076923 0.0931-0.015385 0.1406-0.021154l0.0399-0.0057692v0.0019231l0.019-0.0019231c0.0304-0.0038462 0.0627-0.0057692 0.0931-0.0076923l0.2071-0.0076923-0.2147 0.098077c-0.1292 0.044231-0.2432 0.088462-0.3401 0.13654l-0.0095 0.0038462c-0.1083 0.051923-0.1919 0.1-0.2622 0.15192-0.0057 0.0038462-0.0095 0.0076923-0.0133 0.013462-0.0076 0.0076923-0.0114 0.0096154-0.0171 0.013462-0.0152 0.011538-0.0304 0.026923-0.0437 0.040385-0.0114 0.0096154-0.0209 0.021154-0.0323 0.030769-0.019 0.013462-0.0323 0.026923-0.0456 0.038462l-0.0171 0.017308 2.3902 3.8077 0.1064 0.14231z" fill="#000"/>
<path d="m21.908 6.3185l0.7961-1.2692 1.615-2.5692c-0.0114-0.015385-0.0304-0.026923-0.0437-0.040385-0.0152-0.011538-0.0323-0.026923-0.0456-0.040385-0.0285-0.025-0.0513-0.048077-0.0798-0.071154-0.0038-0.0019231-0.0057-0.0057692-0.0095-0.0076923-0.0076-0.0076923-0.0133-0.015385-0.0228-0.021154-0.0779-0.055769-0.171-0.10769-0.2736-0.15769 0-0.0019231 0-0.0019231-0.0019-0.0019231-0.1045-0.048077-0.2223-0.096154-0.3515-0.13846v-0.0019231c-0.0019 0-0.0038 0-0.0057-0.0019231-0.0038 0-0.0076-0.0019231-0.0114-0.0038462 0.0399 0.0019231 0.0779 0.0057692 0.1159 0.0096154v-0.0019231c0.0019 0.0019231 0.0038 0.0019231 0.0038 0.0019231 0.0095 0 0.0171 0.0019231 0.0247 0.0038462h0.0038c0.0475 0.0057692 0.0931 0.011538 0.1387 0.021154 0.0342 0.0038462 0.0684 0.011538 0.1007 0.019231 0.0437 0.0096154 0.0836 0.021154 0.1254 0.034615 0.0304 0.013462 0.0627 0.025 0.0931 0.036538 0.0247 0.011538 0.0513 0.025 0.0779 0.036538 0.0095 0.0057692 0.0228 0.0096154 0.0342 0.017308 0.0076 0.0038462 0.0152 0.0096154 0.0228 0.015385 0.0247 0.013462 0.0456 0.028846 0.0703 0.046154 0.0266 0.017308 0.0513 0.034615 0.0798 0.051923l0.0228 0.017308c0.0969 0.082692 0.2014 0.15769 0.3059 0.23269 0.0988 0.071154 0.1976 0.13654 0.2983 0.20192 0.0589 0.034615 0.1178 0.073077 0.1767 0.10577 0.0969 0.059615 0.1976 0.10577 0.2983 0.15962 0.1083 0.057692 0.2109 0.11923 0.323 0.17115 0.0114 0.0038462 0.0095 0.026923 0.0076 0.051923-0.0019 0.0096154-0.0057 0.025-0.0095 0.040385-0.0038 0.015385-0.0133 0.036538-0.019 0.053846-0.0209 0.059615-0.0551 0.13269-0.1045 0.22308 0 0.0019231 0 0.0019231-0.0019 0.0038462-1.292 1.525-3.7563 2.775-3.7563 2.775l0.0019-0.0038462z" fill="#fff"/>
<path d="m25.749 3.2012c-0.0684-0.034615-0.1368-0.071154-0.2033-0.10769-0.0304-0.019231-0.0646-0.034615-0.0988-0.053846-0.0342-0.019231-0.0722-0.038462-0.1064-0.053846-0.0646-0.034615-0.1292-0.069231-0.1938-0.10385-0.0589-0.036538-0.1178-0.073077-0.1748-0.10962-0.1102-0.071154-0.209-0.13269-0.304-0.20192l-0.0323-0.026923c-0.0931-0.065385-0.1862-0.13269-0.2755-0.20769-0.0019-0.0019231-0.0057-0.0038462-0.0076-0.0057692-0.0057-0.0038462-0.0076-0.0057692-0.0114-0.0076923-0.0152-0.011538-0.0323-0.023077-0.0475-0.032692l-0.0475-0.030769c-0.0171-0.013462-0.0361-0.025-0.0551-0.038462l-0.0076-0.0057692c-0.0038-0.0038462-0.0076-0.0057692-0.0114-0.0076923-0.0057-0.0038462-0.0114-0.0057692-0.0171-0.0076923l-0.0152-0.0076923c-0.0266-0.0096154-0.0494-0.021154-0.076-0.032692l-0.0114-0.0057692c-0.0266-0.011538-0.0532-0.023077-0.0779-0.030769-0.0399-0.011538-0.0817-0.023077-0.1216-0.032692-0.0171-0.0038462-0.0323-0.0076923-0.0475-0.011538 0.0152 0.0057692 0.0285 0.013462 0.0437 0.019231h0.0019l0.0114 0.0076923c0.1102 0.051923 0.2014 0.10577 0.2793 0.16154 0.0095 0.0057692 0.0171 0.011538 0.0247 0.019231l-0.0266 0.034615 0.0361-0.025c0.0171 0.013462 0.0342 0.028846 0.0494 0.044231 0.0095 0.011538 0.0209 0.017308 0.0361 0.032692 0.0133 0.013462 0.0285 0.025 0.0418 0.038462 0.0057 0.0057692 0.0114 0.0096154 0.0171 0.015385 0.0095 0.0057692 0.0209 0.015385 0.0285 0.025l0.019 0.025-2.3446 3.7365c0.532-0.28462 2.508-1.3942 3.6043-2.6904 0.0456-0.080769 0.0779-0.15385 0.1026-0.21538l0.0038-0.0096154c0.0057-0.015385 0.0114-0.030769 0.0152-0.044231s0.0057-0.023077 0.0076-0.032692c0-0.0057692 0.0019-0.011538 0.0019-0.015385l-0.0095-0.0038462zm-3.876 3.0942l2.3921-3.8077c-0.0057-0.0057692-0.0133-0.011538-0.019-0.017308-0.0114-0.011538-0.0247-0.025-0.0437-0.038462-0.0133-0.0096154-0.0209-0.021154-0.0323-0.030769-0.0152-0.013462-0.0285-0.028846-0.0437-0.040385-0.0057-0.0038462-0.0095-0.0057692-0.0171-0.013462-0.0038-0.0057692-0.0076-0.0096154-0.0152-0.013462-0.0703-0.051923-0.1539-0.1-0.2603-0.15192l-0.0114-0.0038462c-0.0969-0.048077-0.209-0.092308-0.3401-0.13654l-0.2128-0.098077 0.2071 0.0076923c0.0304 0.0019231 0.0627 0.0038462 0.0931 0.0076923l0.019 0.0019231v-0.0019231l0.0399 0.0057692c0.0456 0.0057692 0.0912 0.013462 0.1387 0.021154 0.0342 0.0057692 0.0703 0.013462 0.1045 0.023077 0.0418 0.0096154 0.0855 0.021154 0.1292 0.034615 0.0285 0.0096154 0.0551 0.021154 0.0836 0.032692l0.0114 0.0057692c0.0247 0.011538 0.0532 0.025 0.0798 0.034615l0.0114 0.0057692c0.0076 0.0038462 0.0152 0.0076923 0.0247 0.011538 0.0057 0.0038462 0.0114 0.0096154 0.0247 0.017308 0.019 0.013462 0.0361 0.025 0.0551 0.038462l0.0475 0.030769c0.0152 0.011538 0.0323 0.021154 0.057 0.038462 0.0057 0.0038462 0.0114 0.0076923 0.019 0.013462 0.0855 0.073077 0.1767 0.14038 0.266 0.20385l0.0361 0.026923c0.0931 0.067308 0.1881 0.13077 0.2964 0.19808 0.057 0.038462 0.1178 0.073077 0.1748 0.10769 0.0608 0.036538 0.1254 0.069231 0.1881 0.10192 0.0361 0.017308 0.0741 0.036538 0.1083 0.055769s0.0665 0.034615 0.1026 0.053846c0.0703 0.040385 0.1444 0.080769 0.2185 0.11538l0.0247 0.011538v0.011538c0.0133 0.023077 0.0095 0.055769 0.0076 0.073077-0.0019 0.013462-0.0057 0.028846-0.0114 0.046154-0.0038 0.013462-0.0095 0.030769-0.0171 0.046154l-0.0038 0.011538c-0.0247 0.065385-0.0608 0.14231-0.1064 0.22308l-0.0076 0.015385c-1.2806 1.5135-3.743 2.7731-3.7677 2.7846l-0.1558 0.078846 0.1045-0.14231z" fill="#000"/>
</g>
</g>
</g>
</g>
</g>
</svg>
