<?xml version="1.0" encoding="UTF-8"?>
<svg width="75px" height="68px" viewBox="0 0 75 68" version="1.1" xmlns="http://www.w3.org/2000/svg" xmlns:xlink="http://www.w3.org/1999/xlink">
    <!-- Generator: Sketch 55.2 (78181) - https://sketchapp.com -->
    <title>+ ACHETER@3x</title>
    <desc>Created with Sketch.</desc>
    <defs>
        <polygon id="path-1" points="0 1.85673077 37.2951 1.85673077 37.2951 21.4682692 0 21.4682692"></polygon>
    </defs>
    <g id="05_FICHE-JOUEUR-RACING-92" stroke="none" stroke-width="1" fill="none" fill-rule="evenodd">
        <g id="05_Desktop_FICHE-JOUEUR-RACING-92_01" transform="translate(-700.000000, -292.000000)">
            <g id="JOUEUR" transform="translate(0.000000, 88.000000)">
                <g id="+-ACHETER" transform="translate(700.000000, 204.000000)">
                    <circle id="Oval" fill="#134669" cx="41" cy="34" r="34"></circle>
                    <g id="PICTO-MAILLOT" transform="translate(22.000000, 9.000000)">
                        <g id="Group-30">
                            <g id="Group-3" transform="translate(0.000000, 0.297692)">
                                <mask id="mask-2" fill="white">
                                    <use xlink:href="#path-1"></use>
                                </mask>
                                <g id="Clip-2"></g>
                                <path d="M37.20409,20.1548077 C37.19269,20.1375 37.17559,20.1048077 37.15849,20.0625 C37.16799,20.0355769 37.17179,20.0105769 37.17369,19.9836538 C37.17559,19.9086538 37.14139,19.8355769 37.08629,19.7644231 C37.09769,19.7105769 37.09769,19.6509615 37.09009,19.5932692 C37.08819,19.5894231 37.08819,19.5836538 37.08629,19.5798077 C37.07489,19.5028846 37.05019,19.4278846 37.01029,19.3740385 C37.00079,19.3548077 36.98369,19.3201923 36.96659,19.2798077 C36.97799,19.2490385 36.98369,19.2201923 36.98369,19.1894231 C36.98179,19.1009615 36.93239,19.0163462 36.85829,18.9355769 C36.85449,18.8951923 36.85069,18.8528846 36.84879,18.8144231 C36.85829,18.6163462 36.85639,18.4240385 36.84689,18.2278846 C36.81079,17.6471154 36.69679,17.0721154 36.63979,16.4932692 C36.55999,15.6817308 36.45359,14.8721154 36.38139,14.0586538 C36.35859,13.7836538 36.31869,13.5105769 36.27689,13.2375 C36.21229,12.8067308 36.13249,12.3778846 36.02989,11.9528846 C35.65939,10.4086538 35.05139,8.96634615 34.24959,7.60673077 C33.96459,7.12019231 33.56749,6.73365385 33.17989,6.3375 C33.13999,6.29903846 33.10199,6.25865385 33.06399,6.22019231 C33.03739,6.19134615 32.99939,6.1625 32.95949,6.12788462 C32.92149,6.09903846 32.87779,6.06826923 32.83029,6.03557692 C32.83029,6.03557692 32.87779,6.06826923 32.83029,6.03173077 C32.75809,5.98173077 32.67639,5.93173077 32.58329,5.87403846 C31.57629,5.28365385 29.51669,4.46442308 28.86499,4.26634615 C26.97829,3.42788462 25.02699,2.59134615 24.10739,2.07211538 C23.85089,1.92596154 23.51269,1.8625 23.18589,1.85673077 C23.07379,1.86057692 22.96739,1.86634615 22.86289,1.87980769 C21.45689,2.06442308 20.05279,2.15673077 18.64679,2.1625 C17.24269,2.15673077 15.83859,2.06442308 14.43259,1.87980769 C14.32999,1.86634615 14.21979,1.86057692 14.11149,1.85673077 C13.78279,1.8625 13.44459,1.92596154 13.18619,2.07211538 C12.26849,2.59134615 10.31719,3.42788462 8.43049,4.26634615 C7.71799,4.48173077 5.32779,5.43942308 4.46519,6.03173077 L4.46519,6.03557692 C4.41769,6.06826923 4.37399,6.09903846 4.33599,6.12788462 C4.29609,6.16057692 4.25999,6.19134615 4.23149,6.22019231 C4.19349,6.25865385 4.15359,6.29903846 4.11749,6.3375 C3.72799,6.73365385 3.33089,7.12019231 3.04399,7.60673077 C2.24409,8.96634615 1.63609,10.4086538 1.26559,11.9528846 C1.16299,12.3778846 1.08509,12.8067308 1.02049,13.2375 C0.97679,13.5105769 0.93689,13.7836538 0.91219,14.0586538 C0.83999,14.8721154 0.73549,15.6817308 0.65569,16.4932692 C0.59679,17.0721154 0.48469,17.6471154 0.45049,18.2278846 C0.43909,18.4240385 0.43529,18.6163462 0.44859,18.8144231 C0.44479,18.8528846 0.44099,18.8951923 0.43529,18.9355769 C0.36119,19.0163462 0.31369,19.0990385 0.31369,19.1894231 C0.31179,19.2201923 0.31749,19.2490385 0.32889,19.2798077 C0.31179,19.3201923 0.29469,19.3548077 0.28329,19.3740385 C0.24529,19.4278846 0.22059,19.5028846 0.20729,19.5798077 C0.20539,19.5836538 0.20539,19.5894231 0.20539,19.5932692 C0.19589,19.6509615 0.19589,19.7105769 0.20919,19.7644231 C0.15409,19.8355769 0.11799,19.9086538 0.12179,19.9836538 C0.12179,20.0105769 0.12749,20.0355769 0.13699,20.0625 C0.11799,20.1048077 0.10469,20.1375 0.09139,20.1548077 C0.03819,20.2278846 0.00399,20.3317308 -0.000162181555,20.4317308 C-0.00361,20.5317308 0.02299,20.6298077 0.09709,20.6913462 C0.10469,20.6971154 0.11419,20.7048077 0.12179,20.7105769 C0.23389,20.8009615 0.36879,20.8855769 0.51129,20.9605769 C0.81339,21.1201923 1.14019,21.2432692 1.32069,21.3163462 C1.39479,21.3451923 1.55249,21.4009615 1.76149,21.4682692 C1.75769,21.2875 1.75389,21.1086538 1.76339,20.9298077 C1.79759,20.2413462 1.91349,19.5605769 1.97049,18.8778846 C2.05029,17.9163462 2.15859,16.9586538 2.23079,15.9971154 C2.25549,15.6721154 2.29349,15.3490385 2.33719,15.0259615 C2.40559,14.5144231 2.48349,14.0086538 2.58609,13.5048077 C2.96229,11.6798077 3.57599,9.97211538 4.38349,8.36442308 C4.46519,8.20288462 4.58109,8.05480769 4.70649,7.9125 C4.70649,7.91057692 4.70649,7.91057692 4.70649,7.90865385 C4.71029,7.93173077 4.71219,7.95288462 4.71409,7.97596154 C6.11819,6.38365385 8.18729,5.36634615 10.49199,5.36634615 L26.80159,5.36634615 C29.11579,5.36634615 31.18299,6.37596154 32.58139,7.96442308 C32.58329,7.94519231 32.58519,7.92788462 32.58899,7.90865385 C32.58899,7.91057692 32.58899,7.91057692 32.59089,7.9125 C32.71629,8.05480769 32.83029,8.20288462 32.91199,8.36442308 C33.71949,9.97211538 34.33319,11.6798077 34.70939,13.5048077 C34.81199,14.0086538 34.88989,14.5144231 34.95639,15.0259615 C35.00199,15.3490385 35.03999,15.6721154 35.06469,15.9971154 C35.13879,16.9586538 35.24519,17.9163462 35.32499,18.8778846 C35.38199,19.5625 35.49979,20.2413462 35.53209,20.9298077 C35.54159,21.1086538 35.53779,21.2875 35.53399,21.4682692 C35.74109,21.4009615 35.89879,21.3451923 35.97479,21.3163462 C36.15529,21.2432692 36.48209,21.1201923 36.78229,20.9605769 C36.92669,20.8855769 37.06159,20.8028846 37.17369,20.7105769 C37.18129,20.7048077 37.19079,20.6990385 37.19839,20.6913462 C37.27249,20.6298077 37.29909,20.5317308 37.2956422,20.4317308 C37.29149,20.3317308 37.25539,20.2278846 37.20409,20.1548077" id="Fill-1" fill="#C2E0F3" mask="url(#mask-2)"></path>
                            </g>
                            <path d="M25.75773,3.21038462 C25.54493,3.11038462 25.33593,3.00076923 25.13643,2.88153846 C25.07753,2.84692308 25.01673,2.81038462 24.95973,2.77192308 C24.85713,2.70846154 24.75833,2.64307692 24.66143,2.57192308 C24.55693,2.49692308 24.45243,2.42384615 24.35553,2.33923077 C24.32133,2.31230769 24.28713,2.29307692 24.25103,2.27 C24.22063,2.24884615 24.19213,2.22576923 24.15793,2.20846154 C24.12373,2.18923077 24.08383,2.17384615 24.04773,2.15653846 C24.01543,2.14307692 23.98503,2.12961538 23.95463,2.12 C23.91283,2.10653846 23.87103,2.095 23.82733,2.08538462 C23.79503,2.07576923 23.76083,2.06807692 23.72853,2.06230769 C23.68293,2.05461538 23.63733,2.04884615 23.58983,2.045 L23.55753,2.03923077 C23.55943,2.04115385 23.56133,2.04115385 23.56323,2.04307692 C23.55753,2.04115385 23.55183,2.04115385 23.54613,2.04115385 C23.54233,2.04115385 23.53853,2.03923077 23.53283,2.03923077 C23.53473,2.03923077 23.53473,2.03923077 23.53663,2.04115385 L23.53473,2.04115385 C23.51193,2.03153846 23.49673,2.02384615 23.47393,2.01615385 C23.46443,2.01423077 23.45683,2.01423077 23.44733,2.01423077 C23.43593,2.01230769 23.42453,2.01038462 23.41313,2.01038462 C23.41503,2.01038462 23.41693,2.01230769 23.41883,2.01230769 C23.40933,2.01230769 23.39983,2.01038462 23.39033,2.01038462 C23.38463,2.00846154 23.37893,2.00653846 23.37323,2.00269231 L23.35423,2.00269231 L23.33713,2.00269231 L23.30863,2.00269231 C23.27823,2.00269231 23.24973,2.00461538 23.21933,2.00653846 C23.18513,2.00461538 23.14713,2.00269231 23.10913,2.00269231 C23.09583,2.00269231 23.08063,2.00076923 23.06353,2.00269231 C22.25413,2.03730769 21.44283,2.08346154 20.63343,2.09307692 C19.97983,2.10076923 19.32623,2.11615385 18.67263,2.12769231 C18.02093,2.11615385 17.36733,2.10076923 16.71373,2.09307692 C15.90433,2.08346154 15.09493,2.03730769 14.28553,2.00269231 C14.26843,2.00076923 14.25323,2.00269231 14.23803,2.00269231 C14.20003,2.00269231 14.16393,2.00461538 14.12973,2.00653846 C14.09933,2.00461538 14.07083,2.00269231 14.04043,2.00269231 C14.02333,2.00076923 14.00813,2.00269231 13.99483,2.00269231 L13.97583,2.00269231 C13.96823,2.00653846 13.96443,2.00846154 13.95683,2.01038462 C13.94733,2.01038462 13.93973,2.01230769 13.92833,2.01230769 C13.93023,2.01230769 13.93213,2.01038462 13.93403,2.01038462 C13.92263,2.01038462 13.91313,2.01230769 13.89983,2.01423077 C13.90363,2.01230769 13.90553,2.01230769 13.90743,2.01038462 C13.89793,2.01038462 13.88843,2.01230769 13.88083,2.01230769 C13.85613,2.02 13.84093,2.02961538 13.82003,2.03730769 C13.81053,2.03923077 13.80103,2.03923077 13.79153,2.03923077 L13.78773,2.03923077 C13.77633,2.04115385 13.76683,2.04307692 13.75923,2.045 C13.71173,2.04884615 13.66613,2.05461538 13.62053,2.06230769 C13.58633,2.06807692 13.55213,2.07576923 13.51983,2.08538462 C13.47613,2.095 13.43623,2.10653846 13.39443,2.12 C13.36403,2.12961538 13.33173,2.14307692 13.30133,2.15653846 C13.26333,2.17384615 13.22533,2.18923077 13.18923,2.20846154 C13.15693,2.22576923 13.12843,2.24884615 13.09803,2.27 C13.06193,2.29307692 13.02583,2.31230769 12.99353,2.33923077 C12.89473,2.42384615 12.79213,2.49692308 12.68763,2.57192308 C12.59073,2.64307692 12.49003,2.70846154 12.38933,2.77192308 C12.33043,2.81038462 12.27153,2.84692308 12.21263,2.88153846 C12.01123,3.00076923 11.80413,3.11038462 11.59133,3.21038462 C11.58183,3.21615385 11.58183,3.23730769 11.58373,3.25846154 C11.58563,3.26807692 11.58943,3.28153846 11.59323,3.295 C11.59703,3.31038462 11.60463,3.32961538 11.61223,3.34884615 C11.63313,3.40846154 11.66733,3.48153846 11.71483,3.57 C11.71673,3.57192308 11.71673,3.57384615 11.71673,3.57384615 L11.71863,3.57384615 C13.00873,5.10076923 15.47493,6.35076923 15.47493,6.35076923 L15.47303,6.34884615 C15.90433,6.63538462 16.37553,6.92769231 16.89043,7.21423077 C17.01203,7.28730769 17.14123,7.36615385 17.25333,7.43153846 C18.12163,7.93923077 18.65363,8.17384615 18.65933,8.17576923 L18.66123,8.17576923 C18.66503,8.17576923 18.66883,8.17384615 18.67263,8.17 C18.67833,8.17384615 18.68213,8.17576923 18.68403,8.17576923 C18.70493,8.16615385 18.76003,8.13730769 18.94813,8.03730769 C19.12293,7.95076923 19.36613,7.82384615 19.67013,7.65461538 C19.78983,7.58923077 19.92663,7.51807692 20.08053,7.43730769 C20.10143,7.42384615 20.12233,7.41423077 20.14703,7.40076923 C20.24583,7.34115385 20.35033,7.27769231 20.45673,7.21423077 C20.97353,6.92576923 21.44283,6.63538462 21.87603,6.34692308 L21.87413,6.35076923 C21.87413,6.35076923 24.33653,5.10076923 25.62853,3.57576923 C25.62853,3.57576923 25.63043,3.57576923 25.63043,3.57384615 C25.64753,3.54115385 25.66083,3.51230769 25.67603,3.48346154 C25.69883,3.43730769 25.71783,3.39884615 25.72923,3.36423077 C25.74063,3.33538462 25.75013,3.30846154 25.75583,3.28923077 C25.75963,3.27769231 25.76153,3.26615385 25.76343,3.25653846 C25.76533,3.23730769 25.76723,3.21615385 25.75773,3.21038462" id="Fill-4" fill="#FFFFFF"></path>
                            <path d="M26.49246,14.7901923 L10.85736,14.7901923 C9.03716,14.7901923 7.46016,15.5055769 6.64506,16.7825 C6.94336,17.8613462 7.21126,18.7575 7.38986,19.3555769 C7.45636,19.5978846 7.52096,19.7921154 7.57226,19.9632692 C7.61976,20.3478846 7.65776,20.7325 7.70336,21.1171154 C7.74516,21.4651923 7.80026,21.8094231 7.85536,22.1575 C8.25246,26.7748077 8.10236,31.4055769 7.94276,36.0305769 C7.88006,37.9036538 7.75656,39.7690385 7.64636,41.6401923 C7.63876,41.7536538 7.63306,41.8671154 7.62736,41.9825 C7.62166,42.0613462 7.61786,42.1421154 7.61216,42.2228846 C7.60646,42.3709615 7.59886,42.5190385 7.58936,42.6690385 C7.57036,42.9882692 7.55136,43.3075 7.53616,43.6267308 C7.53236,43.7440385 7.53236,43.8498077 7.53426,43.9498077 C7.45066,44.3190385 7.38226,44.6921154 7.39556,45.0748077 C7.39746,45.1594231 7.38416,45.2459615 7.36326,45.3267308 C7.25306,45.7228846 7.14666,46.1190385 7.17136,46.5382692 C7.17136,46.5459615 7.17516,46.5517308 7.17516,46.5594231 C7.21126,47.4017308 7.53996,47.7786538 8.51276,48.0094231 C9.52546,48.2517308 10.59516,48.3940385 11.63446,48.3690385 L11.64396,48.3690385 L11.66866,48.3690385 C12.98726,48.3382692 14.30206,48.2536538 15.61876,48.1632692 C16.43956,48.1094231 17.26226,48.0517308 18.08116,48.0036538 C18.22556,47.9959615 18.37186,47.9940385 18.51436,47.9921154 C18.56376,47.9921154 18.61506,47.9882692 18.66446,47.9882692 C18.85826,47.9882692 19.05396,47.9921154 19.24776,48.0036538 C21.38526,48.1286538 23.52086,48.3209615 25.65836,48.3690385 C26.66726,48.3921154 27.70276,48.2575 28.68696,48.0248077 C28.73446,48.0190385 28.78006,48.0209615 28.82566,48.0094231 C29.75666,47.7882692 30.09486,47.4325 30.15566,46.6632692 C30.16896,46.6267308 30.17656,46.5844231 30.17846,46.5382692 C30.20506,46.1190385 30.09676,45.7228846 29.98846,45.3267308 C29.96566,45.2459615 29.95236,45.1594231 29.95616,45.0748077 C29.96756,44.6921154 29.90106,44.3190385 29.81746,43.9498077 C29.81936,43.8498077 29.82126,43.7440385 29.81556,43.6267308 C29.79846,43.3075 29.77946,42.9882692 29.76236,42.6690385 C29.75476,42.5190385 29.74716,42.3709615 29.73766,42.2228846 C29.73196,42.1421154 29.72816,42.0613462 29.72436,41.9825 C29.71676,41.8671154 29.71106,41.7536538 29.70536,41.6401923 C29.59516,39.7690385 29.47166,37.9036538 29.40706,36.0305769 C29.24936,31.4055769 29.09736,26.7748077 29.49636,22.1575 C29.54956,21.8094231 29.60656,21.4651923 29.64836,21.1171154 C29.69586,20.7325 29.73006,20.3478846 29.77946,19.9632692 C29.83076,19.7921154 29.89346,19.5978846 29.95996,19.3555769 C30.14236,18.7575 30.40836,17.8613462 30.70666,16.7825 C29.89156,15.5055769 28.31266,14.7901923 26.49246,14.7901923" id="Fill-6" fill="#C2E0F3"></path>
                            <path d="M7.41456,44.7480769 C7.40696,44.8576923 7.39176,44.9634615 7.39556,45.075 C7.39746,45.1596154 7.38416,45.2461538 7.36326,45.3269231 C7.25306,45.7230769 7.14666,46.1192308 7.17136,46.5384615 C7.17136,46.5461538 7.17326,46.55 7.17516,46.5576923 C7.21126,47.4019231 7.53996,47.7788462 8.51276,48.0096154 C9.52546,48.2519231 10.59516,48.3942308 11.63446,48.3692308 L11.64396,48.3692308 L11.66866,48.3692308 C12.98726,48.3384615 14.30206,48.2538462 15.61876,48.1634615 C16.43956,48.1096154 17.26226,48.0519231 18.08116,48.0019231 C18.22556,47.9942308 18.36996,47.9923077 18.51436,47.9923077 C18.56376,47.9923077 18.61506,47.9884615 18.66446,47.9884615 C18.85826,47.9884615 19.05206,47.9923077 19.24776,48.0019231 C21.38526,48.1288462 23.52086,48.3192308 25.65836,48.3692308 C26.66726,48.3923077 27.70276,48.2576923 28.68696,48.025 C28.73446,48.0192308 28.78006,48.0211538 28.82566,48.0096154 C29.75666,47.7884615 30.09676,47.4326923 30.15566,46.6634615 C30.16896,46.6269231 30.17656,46.5846154 30.17846,46.5384615 C30.20506,46.1192308 30.09676,45.7230769 29.98846,45.3269231 C29.96566,45.2461538 29.95236,45.1596154 29.95616,45.075 C29.95996,44.9634615 29.94476,44.8557692 29.93716,44.7442308 C20.42196,44.4730769 11.61166,44.6346154 7.41456,44.7480769" id="Fill-8" fill="#FFFFFF"></path>
                            <path d="M8.02123,33.5496154 C7.99653,34.3784615 7.97183,35.2034615 7.94333,36.0303846 C7.91103,36.9573077 7.84833,37.8842308 7.79703,38.8111538 C11.99223,38.6015385 20.20973,38.3361538 29.55583,38.8130769 C29.50453,37.8861538 29.43803,36.9592308 29.40763,36.0303846 C29.37913,35.2015385 29.35633,34.3746154 29.32973,33.5457692 C20.48143,33.2496154 12.32473,33.415 8.02123,33.5496154" id="Fill-10" fill="#FFFFFF"></path>
                            <path d="M7.72426,21.2561538 C7.76416,21.5561538 7.80786,21.8561538 7.85536,22.1580769 C8.00926,23.9484615 8.06626,25.7446154 8.08526,27.5407692 C12.32226,27.2946154 20.25856,27.01 29.26456,27.5465385 C29.28546,25.7484615 29.34056,23.9503846 29.49636,22.1580769 C29.54196,21.8561538 29.58946,21.5523077 29.62746,21.2503846 C20.45046,20.8696154 11.98216,21.0888462 7.72426,21.2561538" id="Fill-12" fill="#FFFFFF"></path>
                            <path d="M35.55831,21.2280769 C35.52411,20.5396154 35.40821,19.8607692 35.35121,19.1761538 C35.27141,18.2146154 35.16501,17.2569231 35.09091,16.2953846 C35.06621,15.9703846 35.02821,15.6473077 34.98261,15.3242308 C34.91611,14.8126923 34.83821,14.305 34.73371,13.8030769 C34.35941,11.9761538 33.74571,10.2703846 32.93821,8.66269231 C32.85651,8.50115385 32.74251,8.35307692 32.61711,8.20884615 L32.61331,8.20692308 C32.60951,8.22230769 32.60761,8.24153846 32.60381,8.26076923 C31.20541,6.67423077 29.14011,5.66269231 26.82781,5.66269231 L10.51821,5.66269231 C8.21351,5.66269231 6.14631,6.68 4.74411,8.27230769 C4.74031,8.24923077 4.73651,8.22615385 4.73271,8.20692308 C4.73271,8.20692308 4.73081,8.20692308 4.73081,8.20884615 C4.60731,8.35307692 4.48951,8.50115385 4.40781,8.66269231 C3.60221,10.2703846 2.98661,11.9761538 2.61231,13.8030769 C2.50781,14.305 2.42991,14.8126923 2.36341,15.3242308 C2.31971,15.6473077 2.28171,15.9703846 2.25701,16.2953846 C2.18481,17.2569231 2.07651,18.2146154 1.99671,19.1761538 C1.93971,19.8588462 1.82381,20.5396154 1.78961,21.2280769 C1.78011,21.4069231 1.78364763,21.5857692 1.78771,21.7646154 C2.22281,21.905 2.89541,22.0896154 3.59271,22.1915385 L3.60031,22.1915385 C3.69911,22.2069231 3.81691,22.2184615 3.93851,22.2280769 L3.94231,22.2280769 C3.94421,22.23 3.94801,22.23 3.95181,22.23 C4.24061,22.2511538 4.57121,22.2646154 4.90371,22.2703846 C4.93411,22.2703846 4.96261,22.2723077 4.99301,22.2723077 L5.15261,22.2723077 L5.30461,22.2723077 L5.41861,22.2723077 C5.48891,22.2703846 5.55731,22.2703846 5.62381,22.2684615 L5.67701,22.2684615 C5.76441,22.2646154 5.84991,22.2626923 5.92781,22.2588462 C6.23561,22.2453846 6.44651,22.2261538 6.45601,22.1992308 C6.76951,22.1511538 6.96141,22.0492308 7.06591,21.8646154 C7.13621,21.7415385 7.17041,21.58 7.17041,21.3703846 L7.17041,21.3569231 L7.17041,21.3126923 C7.16851,20.9915385 7.14381,20.9569231 7.07541,21.0819231 C7.10771,21.0203846 7.13431,20.9473077 7.15141,20.8665385 C7.16851,20.7857692 7.17611,20.6934615 7.17611,20.5876923 C7.17421,20.5838462 7.17611,20.58 7.17611,20.5742308 L7.17611,20.53 C7.17421,20.2088462 7.17611,19.8876923 7.21791,19.5703846 C7.26161,19.5165385 7.30911,19.4588462 7.35851,19.3973077 C7.36231,19.3915385 7.36611,19.3876923 7.36991,19.3819231 C7.37181,19.3780769 7.37561,19.3742308 7.37941,19.3703846 C7.38321,19.3665385 7.38511,19.3626923 7.38891,19.3588462 C7.35091,19.2338462 7.30911,19.0934615 7.26351,18.9434615 C7.25781,18.9280769 7.25591,18.9126923 7.25021,18.8953846 C7.20841,18.7569231 7.16471,18.6088462 7.11721,18.4511538 C7.10391,18.405 7.09251,18.3626923 7.07921,18.3165385 C7.03361,18.1646154 6.98991,18.0069231 6.94051,17.8396154 C6.92531,17.7857692 6.90821,17.7280769 6.89111,17.6703846 C6.85311,17.5280769 6.80941,17.3819231 6.76761,17.2319231 C6.74291,17.1453846 6.71821,17.0569231 6.69351,16.9665385 C6.65551,16.83 6.66691,16.8703846 6.64221,16.7819231 C7.45921,15.505 9.03621,14.7896154 10.85641,14.7896154 L26.49151,14.7896154 C28.31171,14.7896154 29.89061,15.505 30.70381,16.7819231 C30.68481,16.8607692 30.69241,16.83 30.65441,16.9665385 C30.62781,17.0569231 30.60501,17.1453846 30.58031,17.2319231 C30.53661,17.3819231 30.49671,17.5280769 30.45491,17.6703846 C30.43971,17.7280769 30.42261,17.7857692 30.40551,17.8396154 C30.35991,18.0069231 30.31241,18.1646154 30.26871,18.3165385 C30.25541,18.3626923 30.24211,18.405 30.22881,18.4511538 C30.18321,18.6088462 30.13761,18.7569231 30.09771,18.8953846 C30.09201,18.9126923 30.08821,18.9280769 30.08441,18.9434615 C30.04071,19.0934615 29.99701,19.2338462 29.95901,19.3588462 L29.97041,19.3703846 C29.97231,19.3761538 29.97611,19.3780769 29.97611,19.3819231 C29.98181,19.3876923 29.98561,19.3915385 29.98941,19.3973077 C30.03881,19.4588462 30.08441,19.5165385 30.13001,19.5723077 C30.16991,19.8876923 30.17371,20.2088462 30.17181,20.53 C30.17181,20.5453846 30.17371,20.5588462 30.17371,20.5742308 L30.17371,20.5876923 C30.17371,20.6934615 30.18131,20.7857692 30.19841,20.8665385 C30.21361,20.9473077 30.23831,21.0203846 30.27251,21.0819231 C30.20411,20.9569231 30.17941,20.9915385 30.17751,21.3126923 C30.17751,21.3280769 30.17941,21.3434615 30.17941,21.3569231 L30.17941,21.3703846 C30.17751,21.58 30.21171,21.7415385 30.28201,21.8646154 C30.38651,22.0492308 30.58031,22.1511538 30.89381,22.1992308 C30.90141,22.2261538 31.11041,22.2453846 31.42011,22.2588462 C31.49611,22.2626923 31.58161,22.2665385 31.67091,22.2684615 L31.72221,22.2684615 C31.79061,22.2703846 31.85901,22.2723077 31.92931,22.2723077 L32.04141,22.2723077 L32.19341,22.2723077 L32.35301,22.2723077 C32.38341,22.2723077 32.41571,22.2703846 32.44421,22.2703846 C32.77481,22.2665385 33.10731,22.2511538 33.39421,22.23 L33.40561,22.23 C33.40561,22.2280769 33.40751,22.2280769 33.40751,22.2280769 C33.53101,22.2184615 33.64691,22.2069231 33.74761,22.1915385 L33.75521,22.1915385 C34.45251,22.0896154 35.12321,21.905 35.56021,21.7646154 C35.5642724,21.5857692 35.56781,21.4069231 35.55831,21.2280769" id="Fill-14" fill="#FFFFFF"></path>
                            <path d="M18.66427,8.10076923 L18.66997,8.10269231 L18.67947,8.10076923 L18.68137,8.10076923 L18.91697,7.97576923 C19.06517,7.90076923 19.31027,7.77576923 19.63707,7.59307692 L20.11397,7.33923077 C20.21087,7.28153846 20.31727,7.21807692 20.42177,7.15461538 C20.90817,6.88346154 21.38317,6.59307692 21.83727,6.28923077 L22.11847,6.10076923 L22.08047,6.16230769 C22.72647,5.81038462 24.54097,4.75269231 25.57647,3.53346154 C25.58597,3.51230769 25.59547,3.49115385 25.60877,3.46615385 C25.63537,3.41038462 25.65437,3.37192308 25.66767,3.33730769 C25.67527,3.31423077 25.68477,3.28923077 25.69047,3.27 L25.69237,3.25653846 C25.49857,3.16615385 25.30287,3.06230769 25.10147,2.94115385 C25.04067,2.90653846 24.98177,2.87 24.92287,2.83346154 C24.82027,2.76807692 24.71957,2.69884615 24.62077,2.62769231 L24.57327,2.595 C24.48587,2.53153846 24.39657,2.46423077 24.31107,2.39307692 C24.29207,2.37576923 24.27117,2.36423077 24.24837,2.35076923 L24.18567,2.30846154 C24.16667,2.29307692 24.14767,2.28153846 24.12677,2.27 C24.10017,2.25461538 24.07357,2.24307692 24.04697,2.23153846 L24.02037,2.22 C23.99187,2.20846154 23.96147,2.19692308 23.93107,2.18538462 C23.89307,2.17192308 23.85317,2.16230769 23.81327,2.15076923 C23.78097,2.14307692 23.74867,2.13730769 23.71637,2.13153846 C23.71257,2.13153846 23.71067,2.13153846 23.70877,2.13153846 L23.50357,2.10076923 C23.49977,2.10076923 23.48837,2.095 23.47697,2.09115385 L23.41427,2.07961538 L23.41427,2.08153846 L23.36867,2.07576923 C23.34967,2.07192308 23.34017,2.07192308 23.33257,2.07192308 L23.19007,2.07384615 C23.16347,2.07384615 23.14257,2.07192308 23.11217,2.07192308 L23.08557,2.07192308 L23.06657,2.07192308 C22.87657,2.07961538 22.68467,2.08923077 22.49467,2.09884615 C21.88477,2.12769231 21.25397,2.15461538 20.63457,2.16230769 C20.15957,2.16807692 19.68457,2.17769231 19.20957,2.18538462 L18.67567,2.19692308 L18.13797,2.18538462 C17.66297,2.17769231 17.18797,2.16807692 16.71487,2.16230769 C16.09357,2.15461538 15.46277,2.12769231 14.85477,2.09884615 C14.66477,2.08923077 14.47287,2.07961538 14.28097,2.07192308 L14.26387,2.07192308 L14.23537,2.07192308 C14.20877,2.07192308 14.18407,2.07192308 14.15747,2.07384615 L14.13087,2.07576923 L14.03777,2.07192308 L14.01877,2.07192308 L13.99217,2.07192308 L13.96177,2.07961538 L13.88767,2.08346154 C13.88197,2.08538462 13.87817,2.08730769 13.87437,2.08923077 C13.86487,2.09307692 13.85347,2.09884615 13.84207,2.10269231 L13.82497,2.10653846 L13.76607,2.11230769 C13.71857,2.11807692 13.67677,2.12576923 13.63307,2.13153846 C13.59887,2.13730769 13.56657,2.14307692 13.53617,2.15076923 C13.49437,2.16230769 13.45447,2.17192308 13.41457,2.18538462 C13.38797,2.19692308 13.35757,2.20846154 13.32717,2.22 L13.30437,2.22961538 C13.27587,2.24307692 13.24737,2.25461538 13.22267,2.27 C13.20177,2.28153846 13.18087,2.29307692 13.16187,2.30846154 L13.13527,2.32769231 C13.12197,2.33538462 13.10867,2.345 13.09727,2.35269231 C13.07827,2.36615385 13.05737,2.37576923 13.03647,2.39307692 C12.95097,2.46423077 12.85977,2.53153846 12.77237,2.595 L12.72867,2.62769231 C12.62797,2.69884615 12.52917,2.76807692 12.42467,2.83346154 C12.36767,2.86807692 12.30687,2.90653846 12.24607,2.94115385 C12.04847,3.06038462 11.84897,3.16615385 11.65517,3.25653846 C11.65517,3.26230769 11.65707,3.26807692 11.65707,3.27576923 C11.66087,3.28730769 11.66657,3.30076923 11.67037,3.31423077 C11.70077,3.38923077 11.73497,3.46038462 11.77677,3.53730769 C12.82557,4.77576923 14.68947,5.84884615 15.30317,6.18153846 L15.27847,6.13730769 L15.51027,6.29115385 C15.97387,6.60076923 16.43557,6.88153846 16.92387,7.15461538 L17.02267,7.21230769 C17.11387,7.26807692 17.20317,7.32384615 17.28677,7.37192308 C18.05247,7.81807692 18.55027,8.05269231 18.66047,8.10269231 L18.66427,8.10076923 Z M18.64337,8.25653846 L18.62437,8.23730769 C18.55787,8.20846154 18.04677,7.97384615 17.21837,7.49307692 C17.13477,7.44307692 17.04357,7.38730769 16.95237,7.33153846 L16.85547,7.27192308 C16.37097,7.00461538 15.91117,6.72192308 15.44947,6.41423077 L15.44377,6.41230769 C15.41907,6.39884615 12.95097,5.13923077 11.66657,3.62 L11.65707,3.60461538 C11.61147,3.52192308 11.57537,3.44307692 11.54877,3.37384615 C11.53737,3.345 11.52977,3.32769231 11.52597,3.31423077 C11.52217,3.29692308 11.51837,3.28153846 11.51647,3.26807692 C11.51267,3.23538462 11.50887,3.17192308 11.56207,3.14884615 C11.76347,3.05461538 11.97247,2.94307692 12.17767,2.82192308 C12.23657,2.78730769 12.29357,2.75269231 12.35247,2.71423077 C12.45127,2.65076923 12.55197,2.58730769 12.64887,2.51615385 L12.69257,2.48346154 C12.77807,2.42 12.86737,2.35653846 12.94907,2.28730769 C12.97377,2.26615385 13.00037,2.24884615 13.02507,2.23346154 L13.08207,2.19692308 C13.10677,2.17769231 13.13147,2.16230769 13.15617,2.14692308 C13.18657,2.13153846 13.21887,2.11615385 13.25117,2.10269231 L13.27397,2.09307692 C13.30627,2.07961538 13.33857,2.06615385 13.37087,2.05269231 C13.41457,2.03923077 13.46017,2.02961538 13.50387,2.01807692 C13.53997,2.00846154 13.57227,2.00076923 13.60837,1.995 C13.65587,1.98730769 13.70337,1.97961538 13.75087,1.97384615 L13.82117,1.96230769 C13.83257,1.95653846 13.84397,1.95269231 13.85917,1.94692308 L13.87627,1.94307692 L13.99597,1.93346154 L14.04157,1.93346154 L14.20877,1.92384615 L14.19927,1.92961538 L14.25437,1.92576923 L14.23917,1.93346154 L14.25817,1.93346154 L14.28667,1.93346154 C14.47857,1.94115385 14.66857,1.95076923 14.86047,1.96038462 C15.46847,1.98730769 16.09737,2.01615385 16.71677,2.02384615 C17.19177,2.02961538 17.66487,2.03923077 18.13987,2.04884615 L18.67567,2.05653846 L19.20767,2.04884615 C19.68267,2.03923077 20.15767,2.02961538 20.63267,2.02384615 C21.25017,2.01615385 21.87907,1.98730769 22.48897,1.96038462 C22.67707,1.95076923 22.87087,1.94115385 23.06087,1.93346154 L23.09127,1.93346154 L23.10837,1.93346154 L23.11027,1.93346154 L23.09317,1.92576923 L23.27557,1.93538462 L23.30407,1.93346154 L23.33257,1.93346154 L23.44087,1.94307692 L23.44277,1.95461538 L23.44467,1.94884615 L23.44277,1.96038462 L23.46177,1.96230769 L23.46557,1.945 L23.49597,1.95076923 C23.50927,1.95461538 23.52067,1.96038462 23.53017,1.96423077 L23.58527,1.97192308 C23.64607,1.97961538 23.69167,1.98730769 23.74107,1.995 C23.77337,2.00076923 23.80947,2.00846154 23.84557,2.01807692 C23.88927,2.02961538 23.93297,2.04115385 23.97477,2.05269231 C24.00897,2.06615385 24.04127,2.07961538 24.07357,2.09307692 L24.09827,2.10461538 C24.13057,2.11807692 24.16287,2.13153846 24.19137,2.14692308 C24.21797,2.16230769 24.24267,2.17769231 24.26547,2.19692308 L24.32247,2.23346154 C24.34717,2.24884615 24.37377,2.26615385 24.40037,2.28730769 C24.48207,2.35653846 24.56757,2.42 24.65307,2.48346154 L24.70057,2.51807692 C24.79747,2.58730769 24.89627,2.65076923 24.99697,2.71423077 C25.05397,2.75076923 25.11097,2.78730769 25.16987,2.82192308 C25.38077,2.94692308 25.58407,3.05269231 25.78547,3.14884615 L25.78737,3.14884615 C25.83677,3.17192308 25.83297,3.23346154 25.83107,3.26230769 C25.82917,3.27769231 25.82727,3.28730769 25.82537,3.29884615 C25.81777,3.32961538 25.80637,3.35846154 25.79497,3.38923077 C25.77977,3.42384615 25.76077,3.46615385 25.73797,3.51423077 C25.71897,3.55269231 25.70567,3.57769231 25.68857,3.60846154 L25.67717,3.62384615 C24.39467,5.13923077 21.93037,6.39884615 21.90377,6.41230769 L21.89617,6.41615385 C21.44397,6.71807692 20.97087,7.00846154 20.49017,7.27384615 C20.38567,7.33730769 20.28117,7.40269231 20.18047,7.46038462 L20.11017,7.50076923 L19.70167,7.71615385 C19.37297,7.89884615 19.12597,8.02576923 18.97777,8.09884615 L18.69087,8.25269231 L18.67377,8.245 L18.64337,8.25653846 Z" id="Fill-16" fill="#000000"></path>
                            <path d="M11.82484,3.08653846 C11.74694,3.12692308 11.67094,3.17307692 11.59114,3.20961538 C11.58164,3.21538462 11.58164,3.23653846 11.58354,3.25961538 C11.58544,3.26923077 11.58924,3.28269231 11.59304,3.29423077 C11.59684,3.30961538 11.60444,3.33076923 11.61204,3.35 C11.63294,3.40769231 11.66714,3.48076923 11.71464,3.57115385 C11.71654,3.57307692 11.71654,3.57307692 11.71654,3.575 L11.71844,3.575 C11.72794,3.58846154 11.74314,3.6 11.75264,3.61153846 C13.80084,3.99230769 16.11314,4.21923077 18.58884,4.21923077 C21.14814,4.21923077 23.53264,3.97692308 25.63214,3.57307692 L25.67584,3.48269231 C25.69864,3.43846154 25.71764,3.39807692 25.72904,3.36346154 C25.74044,3.33653846 25.74994,3.30769231 25.75564,3.28846154 C25.75944,3.27884615 25.76134,3.26730769 25.76324,3.25769231 C25.76514,3.23653846 25.76704,3.21538462 25.75754,3.20961538 C25.66444,3.16730769 25.57704,3.11538462 25.48774,3.06923077 C23.50414,3.42307692 21.15954,3.63846154 18.60594,3.63846154 C16.09794,3.63846154 13.78564,3.43076923 11.82484,3.08653846" id="Fill-18" fill="#000000"></path>
                            <path d="M11.61147,3.31 C11.63427,3.36961538 11.66657,3.44076923 11.71597,3.53115385 C11.71787,3.53307692 11.71787,3.535 11.71787,3.53692308 L11.71977,3.53692308 C13.00797,5.06192308 15.47417,6.31192308 15.47417,6.31192308 L15.47227,6.31 C15.90547,6.59653846 16.37477,6.88692308 16.88967,7.17538462 C17.01317,7.25038462 17.14047,7.32730769 17.25447,7.39269231 C18.12277,7.90038462 18.65287,8.135 18.65857,8.13884615 L18.66047,8.13692308 L18.66047,8.13884615 C18.66427,8.13692308 18.66807,8.135 18.67377,8.13307692 C18.67947,8.135 18.68327,8.13692308 18.68517,8.13884615 C18.70417,8.12730769 18.76117,8.09653846 18.94737,7.99846154 C19.12217,7.91192308 19.36537,7.785 19.66937,7.61576923 C19.79097,7.55038462 19.92587,7.48115385 20.07977,7.39846154 C20.10257,7.38692308 20.12157,7.37346154 20.14627,7.36 C20.24507,7.30230769 20.35147,7.23884615 20.45597,7.17538462 C20.97467,6.88692308 21.44397,6.59653846 21.87527,6.31 L21.87337,6.31192308 C21.87337,6.31192308 24.33577,5.06384615 25.62777,3.53884615 C25.62777,3.53692308 25.62967,3.53692308 25.62967,3.53692308 C25.64867,3.50423077 25.66197,3.47538462 25.67527,3.44461538 C25.69807,3.40038462 25.71707,3.35807692 25.73037,3.32538462 C25.74177,3.29653846 25.74937,3.26961538 25.75507,3.25038462 C25.75887,3.23884615 25.76077,3.22730769 25.76267,3.21769231 C25.76457,3.19653846 25.76647,3.17730769 25.75697,3.17346154 C25.54417,3.07346154 25.33707,2.96192308 25.13567,2.84269231 C25.07677,2.80807692 25.01787,2.77153846 24.95897,2.735 C24.85827,2.66961538 24.75757,2.60423077 24.66067,2.535 C24.55617,2.46 24.45357,2.385 24.35477,2.30230769 C24.32057,2.27346154 24.28637,2.25423077 24.25027,2.23115385 C24.22177,2.21192308 24.19137,2.18692308 24.15907,2.16961538 C24.12297,2.14846154 24.08307,2.135 24.04697,2.11769231 C24.01467,2.10423077 23.98617,2.09076923 23.95387,2.07923077 C23.91397,2.06769231 23.87027,2.05615385 23.82847,2.04653846 C23.79427,2.03884615 23.76197,2.03115385 23.72777,2.02538462 C23.68407,2.01576923 23.63657,2.01 23.59097,2.00423077 L23.55677,1.99846154 C23.55867,2.00038462 23.56057,2.00038462 23.56247,2.00230769 C23.55677,2.00230769 23.55107,2.00230769 23.54537,2.00038462 C23.54157,2.00038462 23.53777,2.00038462 23.53207,1.99846154 C23.53397,2.00038462 23.53397,2.00038462 23.53587,2.00038462 C23.51687,1.99846154 23.49407,1.99653846 23.47317,1.99461538 C23.59667,2.03884615 23.70877,2.08115385 23.80757,2.13115385 L23.80947,2.13115385 C23.91397,2.18115385 24.00517,2.23307692 24.08307,2.29076923 C24.09637,2.29846154 24.10397,2.30807692 24.11727,2.31769231 C24.16287,2.35423077 24.20277,2.39076923 24.24077,2.43115385 C24.25407,2.44461538 24.27307,2.45615385 24.28447,2.46961538 C24.33007,2.52538462 24.36237,2.58307692 24.39087,2.64269231 C24.39467,2.65230769 24.40227,2.66 24.40607,2.67153846 C24.41937,2.70423077 24.42317,2.73884615 24.42887,2.77538462 C24.54287,2.96192308 23.91777,3.94846154 22.67327,5.03692308 C21.70427,5.885 20.35717,6.79461538 18.68897,7.44076923 L18.68897,7.42153846 C18.68517,7.42346154 18.67947,7.42730769 18.67377,7.43115385 C18.66807,7.42730769 18.66237,7.42346154 18.65857,7.42153846 L18.65857,7.44076923 C16.99037,6.79653846 15.64517,5.88692308 14.67427,5.03884615 C13.42977,3.95038462 12.80467,2.96192308 12.91677,2.77538462 C12.92247,2.73884615 12.92627,2.70423077 12.93957,2.67153846 C12.94337,2.66 12.95287,2.65230769 12.95667,2.64269231 C12.98517,2.58307692 13.01557,2.52346154 13.06307,2.46961538 C13.07447,2.45615385 13.09157,2.44461538 13.10487,2.43115385 C13.12007,2.41576923 13.13527,2.40230769 13.15237,2.38884615 C13.17707,2.36576923 13.19987,2.34076923 13.23027,2.31769231 C13.23407,2.31384615 13.23597,2.31192308 13.23977,2.30807692 C13.24547,2.30423077 13.25307,2.29653846 13.26257,2.29076923 C13.34047,2.23307692 13.43357,2.18115385 13.53617,2.13115385 L13.53997,2.13115385 C13.63877,2.08115385 13.75467,2.03692308 13.88007,1.99269231 C13.85157,1.99461538 13.82117,1.99653846 13.79077,2.00038462 L13.79077,1.99846154 C13.78887,2.00038462 13.78887,2.00038462 13.78887,2.00038462 C13.77747,2.00038462 13.76797,2.00230769 13.75847,2.00423077 C13.71097,2.01 13.66537,2.01576923 13.62167,2.02538462 C13.58557,2.03115385 13.55137,2.03884615 13.51907,2.04653846 C13.47537,2.05615385 13.43547,2.06769231 13.39367,2.07923077 C13.36327,2.09076923 13.33097,2.10423077 13.30247,2.11769231 C13.26257,2.135 13.22647,2.14846154 13.18847,2.16961538 C13.15617,2.18692308 13.12767,2.21192308 13.09727,2.23115385 C13.06307,2.25423077 13.02507,2.27346154 12.99467,2.30230769 C12.89587,2.385 12.79137,2.46 12.68687,2.535 C12.59187,2.60423077 12.48927,2.66961538 12.38857,2.735 C12.32967,2.77153846 12.27267,2.80807692 12.21187,2.84269231 C12.01047,2.96192308 11.80527,3.07346154 11.59057,3.17346154 C11.58107,3.17730769 11.58107,3.19653846 11.58297,3.21961538 C11.58487,3.23115385 11.58867,3.24269231 11.59247,3.25807692 C11.59627,3.27153846 11.60387,3.29076923 11.61147,3.31" id="Fill-20" fill="#FFFFFF"></path>
                            <path d="M15.47284,6.31846154 L14.67484,5.04923077 L13.06174,2.48 C13.07314,2.46461538 13.09214,2.45307692 13.10544,2.43961538 C13.12064,2.42807692 13.13584,2.41269231 13.15104,2.39923077 C13.17764,2.37423077 13.20044,2.35115385 13.22894,2.32807692 C13.23274,2.32615385 13.23654,2.32230769 13.24034,2.32038462 C13.24604,2.31269231 13.25364,2.305 13.26314,2.29923077 C13.34104,2.24346154 13.43414,2.19153846 13.53484,2.14153846 C13.53674,2.13961538 13.53674,2.13961538 13.53864,2.13961538 C13.64314,2.09153846 13.76094,2.04346154 13.89014,2.00115385 L13.89014,1.99923077 C13.89204,1.99923077 13.89394,1.99923077 13.89584,1.99730769 C13.89964,1.99730769 13.90344,1.99538462 13.90724,1.99346154 C13.86734,1.99538462 13.82934,1.99923077 13.78944,2.00307692 C13.78944,2.00307692 13.79134,2.00307692 13.79134,2.00115385 C13.78944,2.00307692 13.78754,2.00307692 13.78564,2.00307692 C13.77804,2.00307692 13.77044,2.005 13.76094,2.00692308 L13.75714,2.00692308 C13.70964,2.01269231 13.66594,2.01846154 13.61844,2.02807692 C13.58614,2.03192308 13.55194,2.03961538 13.51964,2.04730769 C13.47594,2.05692308 13.43414,2.06846154 13.39234,2.08192308 C13.36194,2.09538462 13.33154,2.10692308 13.29924,2.11846154 C13.27454,2.13 13.24794,2.14346154 13.22324,2.155 C13.21184,2.16076923 13.20044,2.16461538 13.18904,2.17230769 C13.17954,2.17615385 13.17384,2.18192308 13.16434,2.18769231 C13.14154,2.20115385 13.11874,2.21653846 13.09594,2.23384615 C13.06934,2.25115385 13.04274,2.26846154 13.01614,2.28576923 C13.00854,2.29153846 12.99904,2.29730769 12.99144,2.30307692 C12.89454,2.38576923 12.79004,2.46076923 12.68744,2.53576923 C12.58864,2.60692308 12.48984,2.67230769 12.38724,2.73769231 C12.33024,2.77230769 12.27134,2.81076923 12.21244,2.84346154 C12.11364,2.90307692 12.01294,2.94923077 11.91414,3.00307692 C11.80584,3.06076923 11.70134,3.12230769 11.59114,3.17423077 C11.57974,3.17807692 11.57974,3.20115385 11.58354,3.22615385 C11.58544,3.23576923 11.58734,3.25115385 11.59304,3.26653846 C11.59684,3.28192308 11.60444,3.30307692 11.61204,3.32038462 C11.63294,3.38 11.66714,3.45307692 11.71464,3.54346154 C11.71654,3.54538462 11.71654,3.54538462 11.71654,3.54730769 C13.00854,5.07230769 15.47474,6.32230769 15.47474,6.32230769 L15.47284,6.31846154 Z" id="Fill-22" fill="#FFFFFF"></path>
                            <path d="M11.62211,3.205 C11.62211,3.20884615 11.62211,3.21461538 11.62401,3.22038462 C11.62401,3.23 11.62781,3.23961538 11.63161,3.25307692 C11.63541,3.26653846 11.64111,3.28192308 11.64681,3.29730769 L11.65061,3.30692308 C11.67341,3.36846154 11.70761,3.44153846 11.75321,3.52230769 C12.84761,4.81846154 14.82551,5.92807692 15.35751,6.21269231 L13.01291,2.47615385 L13.03191,2.45115385 C13.03761,2.44153846 13.04901,2.43192308 13.06041,2.42615385 C13.06611,2.42038462 13.07181,2.41653846 13.07561,2.41076923 C13.09081,2.39730769 13.10411,2.38576923 13.11741,2.37230769 C13.13451,2.35692308 13.14401,2.35115385 13.15351,2.33961538 C13.17061,2.32423077 13.18771,2.30884615 13.20481,2.29538462 L13.24091,2.32038462 L13.21431,2.28576923 C13.22191,2.27807692 13.22951,2.27230769 13.23901,2.26653846 C13.31501,2.21076923 13.40811,2.15692308 13.51831,2.105 L13.52781,2.09730769 L13.53161,2.09730769 C13.54491,2.09153846 13.56011,2.08384615 13.57531,2.07807692 C13.55821,2.08192308 13.54301,2.08576923 13.52781,2.08961538 C13.48791,2.09923077 13.44421,2.11076923 13.40621,2.12230769 C13.37961,2.13 13.35301,2.14153846 13.32831,2.15307692 L13.31691,2.15884615 C13.29031,2.17038462 13.26751,2.18192308 13.24091,2.19153846 L13.22571,2.19923077 C13.21811,2.20115385 13.21241,2.20307692 13.20671,2.20692308 C13.20481,2.20884615 13.20101,2.21076923 13.19721,2.21461538 L13.18961,2.22038462 C13.16871,2.23384615 13.15161,2.24538462 13.13451,2.25884615 L13.08511,2.28961538 C13.06991,2.29923077 13.05471,2.31076923 13.03951,2.32230769 C13.03571,2.32423077 13.03191,2.32615385 13.02811,2.33 C13.02431,2.33192308 13.02241,2.33384615 13.01861,2.33576923 C12.93121,2.41076923 12.83621,2.47807692 12.74501,2.54346154 L12.71271,2.57038462 C12.61581,2.63961538 12.51891,2.70115385 12.40871,2.77230769 C12.34981,2.80884615 12.29281,2.84538462 12.23391,2.88192308 C12.16931,2.91653846 12.10471,2.95115385 12.03821,2.98576923 C12.00401,3.00115385 11.96791,3.02038462 11.93181,3.03961538 C11.89951,3.05884615 11.86531,3.07423077 11.83301,3.09346154 C11.76651,3.13 11.70001,3.16653846 11.63161,3.20115385 L11.62211,3.205 Z M15.61211,6.43769231 L15.45631,6.35884615 C15.43161,6.34730769 12.96731,5.08769231 11.68671,3.57423077 L11.67911,3.55884615 C11.63351,3.47807692 11.59931,3.40115385 11.57271,3.33576923 L11.56891,3.32423077 C11.56321,3.30884615 11.55751,3.29153846 11.55371,3.27807692 C11.54801,3.26076923 11.54421,3.24538462 11.54231,3.23192308 C11.54041,3.21461538 11.53661,3.18192308 11.54801,3.15884615 L11.54801,3.14730769 L11.57271,3.13576923 C11.64871,3.10115385 11.72091,3.06076923 11.79311,3.02038462 C11.82731,3.00115385 11.85961,2.98576923 11.89381,2.96653846 C11.92991,2.94730769 11.96601,2.92807692 12.00401,2.91076923 C12.06671,2.87807692 12.12941,2.84538462 12.19211,2.80884615 C12.24911,2.77423077 12.30801,2.73961538 12.36501,2.70115385 C12.47331,2.63384615 12.56831,2.57038462 12.66331,2.50307692 L12.69941,2.47615385 C12.78871,2.41269231 12.87991,2.34538462 12.96541,2.27230769 C12.97111,2.26653846 12.97871,2.26269231 12.98441,2.25884615 C13.00911,2.24153846 13.02621,2.23192308 13.04141,2.22038462 L13.08891,2.18961538 C13.10791,2.17615385 13.12501,2.16461538 13.14401,2.15115385 C13.15541,2.14346154 13.16301,2.13769231 13.16871,2.13384615 C13.17821,2.13 13.18581,2.12615385 13.19341,2.12230769 L13.20481,2.11653846 C13.23141,2.10692308 13.25801,2.09346154 13.28461,2.08192308 L13.29601,2.07615385 C13.32451,2.06461538 13.35111,2.05307692 13.37961,2.04346154 C13.42331,2.03 13.46511,2.01846154 13.50881,2.00884615 C13.54301,1.99923077 13.57911,1.99153846 13.61141,1.98576923 C13.65891,1.97807692 13.70451,1.97038462 13.75201,1.96461538 L13.79191,1.95884615 L13.79191,1.96076923 L13.81091,1.95884615 C13.84131,1.955 13.87361,1.95307692 13.90401,1.95115385 L14.11111,1.94346154 L13.89641,2.04153846 C13.76721,2.08576923 13.65321,2.13 13.55631,2.17807692 L13.54681,2.18192308 C13.43851,2.23384615 13.35491,2.28192308 13.28461,2.33384615 C13.27891,2.33769231 13.27511,2.34153846 13.27131,2.34730769 C13.26371,2.355 13.25991,2.35692308 13.25421,2.36076923 C13.23901,2.37230769 13.22381,2.38769231 13.21051,2.40115385 C13.19911,2.41076923 13.18961,2.42230769 13.17821,2.43192308 C13.15921,2.44538462 13.14591,2.45884615 13.13261,2.47038462 L13.11551,2.48769231 L15.50571,6.29538462 L15.61211,6.43769231 Z" id="Fill-24" fill="#000000"></path>
                            <path d="M21.90757,6.31846154 L22.70367,5.04923077 L24.31867,2.48 C24.30727,2.46461538 24.28827,2.45307692 24.27497,2.43961538 C24.25977,2.42807692 24.24267,2.41269231 24.22937,2.39923077 C24.20087,2.37423077 24.17807,2.35115385 24.14957,2.32807692 C24.14577,2.32615385 24.14387,2.32230769 24.14007,2.32038462 C24.13247,2.31269231 24.12677,2.305 24.11727,2.29923077 C24.03937,2.24346154 23.94627,2.19153846 23.84367,2.14153846 C23.84367,2.13961538 23.84367,2.13961538 23.84177,2.13961538 C23.73727,2.09153846 23.61947,2.04346154 23.49027,2.00115385 L23.49027,1.99923077 C23.48837,1.99923077 23.48647,1.99923077 23.48457,1.99730769 C23.48077,1.99730769 23.47697,1.99538462 23.47317,1.99346154 C23.51307,1.99538462 23.55107,1.99923077 23.58907,2.00307692 L23.58907,2.00115385 C23.59097,2.00307692 23.59287,2.00307692 23.59287,2.00307692 C23.60237,2.00307692 23.60997,2.005 23.61757,2.00692308 L23.62137,2.00692308 C23.66887,2.01269231 23.71447,2.01846154 23.76007,2.02807692 C23.79427,2.03192308 23.82847,2.03961538 23.86077,2.04730769 C23.90447,2.05692308 23.94437,2.06846154 23.98617,2.08192308 C24.01657,2.09538462 24.04887,2.10692308 24.07927,2.11846154 C24.10397,2.13 24.13057,2.14346154 24.15717,2.155 C24.16667,2.16076923 24.17997,2.16461538 24.19137,2.17230769 C24.19897,2.17615385 24.20657,2.18192308 24.21417,2.18769231 C24.23887,2.20115385 24.25977,2.21653846 24.28447,2.23384615 C24.31107,2.25115385 24.33577,2.26846154 24.36427,2.28576923 L24.38707,2.30307692 C24.48397,2.38576923 24.58847,2.46076923 24.69297,2.53576923 C24.79177,2.60692308 24.89057,2.67230769 24.99127,2.73769231 C25.05017,2.77230769 25.10907,2.81076923 25.16797,2.84346154 C25.26487,2.90307692 25.36557,2.94923077 25.46627,3.00307692 C25.57457,3.06076923 25.67717,3.12230769 25.78927,3.17423077 C25.80067,3.17807692 25.79877,3.20115385 25.79687,3.22615385 C25.79497,3.23576923 25.79117,3.25115385 25.78737,3.26653846 C25.78357,3.28192308 25.77407,3.30307692 25.76837,3.32038462 C25.74747,3.38 25.71327,3.45307692 25.66387,3.54346154 C25.66387,3.54538462 25.66387,3.54538462 25.66197,3.54730769 C24.36997,5.07230769 21.90567,6.32230769 21.90567,6.32230769 L21.90757,6.31846154 Z" id="Fill-26" fill="#FFFFFF"></path>
                            <path d="M25.7488,3.20115385 L25.7488,3.20115385 C25.6804,3.16653846 25.612,3.13 25.5455,3.09346154 C25.5151,3.07423077 25.4809,3.05884615 25.4467,3.03961538 C25.4125,3.02038462 25.3745,3.00115385 25.3403,2.98576923 C25.2757,2.95115385 25.2111,2.91653846 25.1465,2.88192308 C25.0876,2.84538462 25.0287,2.80884615 24.9717,2.77230769 C24.8615,2.70115385 24.7627,2.63961538 24.6677,2.57038462 L24.6354,2.54346154 C24.5423,2.47807692 24.4492,2.41076923 24.3599,2.33576923 C24.358,2.33384615 24.3542,2.33192308 24.3523,2.33 C24.3466,2.32615385 24.3447,2.32423077 24.3409,2.32230769 C24.3257,2.31076923 24.3086,2.29923077 24.2934,2.28961538 L24.2459,2.25884615 C24.2288,2.24538462 24.2098,2.23384615 24.1908,2.22038462 L24.1832,2.21461538 C24.1794,2.21076923 24.1756,2.20884615 24.1718,2.20692308 C24.1661,2.20307692 24.1604,2.20115385 24.1547,2.19923077 L24.1395,2.19153846 C24.1129,2.18192308 24.0901,2.17038462 24.0635,2.15884615 L24.0521,2.15307692 C24.0255,2.14153846 23.9989,2.13 23.9742,2.12230769 C23.9343,2.11076923 23.8925,2.09923077 23.8526,2.08961538 C23.8355,2.08576923 23.8203,2.08192308 23.8051,2.07807692 C23.8203,2.08384615 23.8336,2.09153846 23.8488,2.09730769 L23.8507,2.09730769 L23.8621,2.105 C23.9723,2.15692308 24.0635,2.21076923 24.1414,2.26653846 C24.1509,2.27230769 24.1585,2.27807692 24.1661,2.28576923 L24.1395,2.32038462 L24.1756,2.29538462 C24.1927,2.30884615 24.2098,2.32423077 24.225,2.33961538 C24.2345,2.35115385 24.2459,2.35692308 24.2611,2.37230769 C24.2744,2.38576923 24.2896,2.39730769 24.3029,2.41076923 C24.3086,2.41653846 24.3143,2.42038462 24.32,2.42615385 C24.3295,2.43192308 24.3409,2.44153846 24.3485,2.45115385 L24.3675,2.47615385 L22.0229,6.21269231 C22.5549,5.92807692 24.5309,4.81846154 25.6272,3.52230769 C25.6728,3.44153846 25.7051,3.36846154 25.7298,3.30692308 L25.7336,3.29730769 C25.7393,3.28192308 25.745,3.26653846 25.7488,3.25307692 C25.7526,3.23961538 25.7545,3.23 25.7564,3.22038462 C25.7564,3.21461538 25.7583,3.20884615 25.7583,3.205 L25.7488,3.20115385 Z M21.8728,6.29538462 L24.2649,2.48769231 C24.2592,2.48192308 24.2516,2.47615385 24.2459,2.47038462 C24.2345,2.45884615 24.2212,2.44538462 24.2022,2.43192308 C24.1889,2.42230769 24.1813,2.41076923 24.1699,2.40115385 C24.1547,2.38769231 24.1414,2.37230769 24.1262,2.36076923 C24.1205,2.35692308 24.1167,2.355 24.1091,2.34730769 C24.1053,2.34153846 24.1015,2.33769231 24.0939,2.33384615 C24.0236,2.28192308 23.94,2.23384615 23.8336,2.18192308 L23.8222,2.17807692 C23.7253,2.13 23.6132,2.08576923 23.4821,2.04153846 L23.2693,1.94346154 L23.4764,1.95115385 C23.5068,1.95307692 23.5391,1.955 23.5695,1.95884615 L23.5885,1.96076923 L23.5885,1.95884615 L23.6284,1.96461538 C23.674,1.97038462 23.7196,1.97807692 23.7671,1.98576923 C23.8013,1.99153846 23.8374,1.99923077 23.8716,2.00884615 C23.9134,2.01846154 23.9571,2.03 24.0008,2.04346154 C24.0293,2.05307692 24.0559,2.06461538 24.0844,2.07615385 L24.0958,2.08192308 C24.1205,2.09346154 24.149,2.10692308 24.1756,2.11653846 L24.187,2.12230769 C24.1946,2.12615385 24.2022,2.13 24.2117,2.13384615 C24.2174,2.13769231 24.2231,2.14346154 24.2364,2.15115385 C24.2554,2.16461538 24.2725,2.17615385 24.2915,2.18961538 L24.339,2.22038462 C24.3542,2.23192308 24.3713,2.24153846 24.396,2.25884615 C24.4017,2.26269231 24.4074,2.26653846 24.415,2.27230769 C24.5005,2.34538462 24.5917,2.41269231 24.681,2.47615385 L24.7171,2.50307692 C24.8102,2.57038462 24.9052,2.63384615 25.0135,2.70115385 C25.0705,2.73961538 25.1313,2.77423077 25.1883,2.80884615 C25.2491,2.84538462 25.3137,2.87807692 25.3764,2.91076923 C25.4125,2.92807692 25.4505,2.94730769 25.4847,2.96653846 C25.5189,2.98576923 25.5512,3.00115385 25.5873,3.02038462 C25.6576,3.06076923 25.7317,3.10115385 25.8058,3.13576923 L25.8305,3.14730769 L25.8305,3.15884615 C25.8438,3.18192308 25.84,3.21461538 25.8381,3.23192308 C25.8362,3.24538462 25.8324,3.26076923 25.8267,3.27807692 C25.8229,3.29153846 25.8172,3.30884615 25.8096,3.32423077 L25.8058,3.33576923 C25.7811,3.40115385 25.745,3.47807692 25.6994,3.55884615 L25.6918,3.57423077 C24.4112,5.08769231 21.9488,6.34730769 21.9241,6.35884615 L21.7683,6.43769231 L21.8728,6.29538462 Z" id="Fill-28" fill="#000000"></path>
                        </g>
                    </g>
                    <g id="+" transform="translate(0.000000, 35.000000)">
                        <circle id="Oval" fill="#BF9A56" cx="11" cy="11" r="11"></circle>
                        <path d="M11.25,4 L11.25,18" id="Path-6" stroke="#FFFFFF" stroke-width="3" transform="translate(11.250000, 11.000000) rotate(-90.000000) translate(-11.250000, -11.000000) "></path>
                        <path d="M11.25,4 L11.25,18" id="Path-6" stroke="#FFFFFF" stroke-width="3"></path>
                    </g>
                </g>
            </g>
        </g>
    </g>
</svg>